ply
format ascii 1.0
comment VCGLIB generated
element vertex 133
property double x
property double y
property double z
element face 254
property list uchar int vertex_indices
end_header
-0.01003468466330499 -0.4789776552685392 -0.06417685705435396 
0.02274412213483713 -0.4808760763110635 0.03349888086626387 
-0.05761332074769844 -0.4565463942310936 -0.02641355150745378 
-0.05254399163067858 -0.4716966896174456 0.01871154503850689 
0.01451033533368506 -0.4600178046541135 0.05852209684274282 
0.04987493857316167 -0.4655311407575878 0.03758760960804056 
0.05890111049470233 -0.4744438809863248 -0.02977914304190529 
-0.01730230121192766 -0.4375444926602017 -0.02856296581386471 
-0.01775130524334766 -0.4390362974163868 -0.00453973620552414 
-0.03559490096860833 -0.4582116946359673 0.04549926078543388 
0.01945656316557199 -0.425586767616163 -0.003588405873547064 
-0.01710899838666451 -0.4151856147241124 -0.0272182059779548 
0.03461363085054132 -0.4542885848123765 -0.07365995163217666 
0.003728609197122264 -0.3892990214792789 -0.04379317513833481 
0.06239339228380729 -0.4024944154161921 0.01144769123972043 
-0.01585852701826323 -0.4591624547601825 -0.081386758546554 
0.02404245225621829 -0.3799554220957526 -0.02680118168179245 
0.05239802405108481 -0.3899865664145597 -0.06131621091859016 
-0.03758770794003512 -0.4539472507880283 -0.06898382499461653 
-0.01019831894470186 -0.3422578188407721 0.05711753749682814 
0.01586705242702127 -0.3300345967735137 -0.08508729744194414 
0.003842159573274247 -0.4370373914695595 0.02178810258385972 
0.00430141794760916 -0.232741133793971 0.01948193230686924 
-0.05582826042750497 -0.2716979204102384 0.01060829455295642 
-0.01731638628585851 -0.2933948494174479 -0.004573227292431407 
0.02667862527408009 -0.2341183569345554 -0.00656813075024811 
0.05968253466369253 -0.2459078659881799 -0.04753954575916148 
0.06538963256270429 -0.4161986144780799 -0.0189744075637086 
-0.03948700818811058 -0.3251666772241684 0.04196046645646413 
-0.005185808119072233 -0.2548269290677136 0.05829586325870482 
-0.05144660050165507 -0.466009514372052 -0.0491447849767556 
-0.01670540159581387 -0.202927835432084 -0.00462023719928265 
0.04424161389730794 -0.1122718985326609 -0.06996688359210457 
0.003776816483737039 -0.1714445409727774 0.0110138814416702 
0.02478429474640939 -0.1723795728639886 -0.004722741694237812 
0.06193606926296467 -0.1041218040815719 0.01555580655564271 
-0.03764224047206925 -0.2115800451345708 -0.06880063064794867 
-0.0174694763957867 -0.1796400014924902 -0.02688119981849699 
0.02310203733315611 -0.1032530427712734 -0.02697213742952994 
0.04805418621830869 -0.1008860220238058 0.03894037236647258 
0.02430914512274775 -0.1115394495077696 0.05442338693240743 
-0.0573060151336738 -0.123870980394682 -0.0386474616968558 
-0.04570694693469907 -0.08786736621239843 -0.05827906397455106 
-0.01981220674154076 -0.1352051444088282 -0.005430696402570072 
0.06562658923551259 -0.1021098381848078 -0.01982175776150525 
-0.05664978027383327 -0.0926747315818795 0.009041946624172664 
0.02604734284464641 -0.1387766321476647 -0.00515481196085396 
-0.01687279064597379 -0.1092196194765211 -0.08156913383416886 
0.003595472399450203 -0.1135186563904795 -0.04468815631856485 
-0.01725586319471619 -0.1046661556313124 -0.02702634284712054 
0.05490324818405545 -0.07234579553105011 -0.05371867477465989 
-0.04035533900361179 -0.0982717713928386 0.0397166602341472 
-0.006206998829551376 -0.09878401750184691 0.05816634691249212 
-0.04116789218476408 0.0682927822962162 -0.02033958097053742 
-0.02024430582898986 0.08408020030023369 -0.05576659815229544 
0.00981710305475151 -0.1003428068049064 -0.08477619423408563 
0.003743979856842446 0.03671242939124055 -0.02965318726218768 
0.01573809483327062 0.05760405808635301 -0.06456700294559338 
0.004426713936342027 0.06778385234562828 -0.003849157619878633 
0.004236810270152673 -0.1446773401923073 0.02355944837193772 
0.033045624276755 0.07658031694695892 0.0248709135222691 
-0.015917762793741 0.07784068330941779 0.02953993382940588 
0.003622418192786365 0.07927325738078486 0.03468765171003759 
0.03093358775467592 0.07263642630821442 -0.0522950663159092 
-0.03399050400120632 0.07849161201419921 0.01256634124010087 
0.02971554045328407 0.156373964273395 -0.05216701040326036 
0.04483273304607489 0.149881336327166 -0.02612872922716719 
0.04634254520441353 0.08942707877825772 -0.009144559329932156 
-0.03980877670461284 0.2055598724702989 -0.01749059278042967 
-0.02230296819239005 0.1923063985433586 -0.05348266240063152 
0.02371661253295462 0.1840411758766872 0.0285933235562201 
0.03653562946752523 0.185511904792267 0.01731067685852556 
-0.01558750872555594 0.3241326555439718 0.02797436069736231 
0.003162530775680052 0.2051702065388134 -0.06082234218250493 
-0.04133109075094654 0.2514654925610901 -0.1913078344348141 
-0.03940877755557915 0.3152705755110767 -0.02595924464187457 
-0.03599494072669389 0.2591490905128329 -0.2203091729238777 
-0.01387384021426191 0.3189663696482427 -0.05714958484365684 
0.04637638318243429 0.2481707932566353 -0.188920702879686 
0.02824325458539624 0.3163886289602541 -0.05224166130006999 
0.04708688777846861 0.2592263798212884 -0.2176864056646584 
0.04606492707547454 0.3184824282269271 -0.02718932539741797 
-0.03992467177179482 0.320679986978982 0.0007437213326397795 
-0.03350909787990387 0.3393004937669638 -0.2124268664550823 
0.04321813443317229 0.3176670796144735 -0.2160301458095215 
0.004109250286373365 0.3377867953024803 0.03298969835453535 
0.0242351481917561 0.3187788183599358 0.02722175319896465 
0.04500960838811752 0.319977371961601 0.002849634646628018 
-0.0598507594389634 0.339797875115324 -0.1819293226881485 
-0.05260547220247059 0.2773720924849419 -0.1939747987613649 
-0.04197434916539695 0.3687628017320495 -0.09289101831190669 
0.04437649362235256 0.3167100877226188 -0.1541664930152625 
0.06517305539279221 0.2810938490634663 -0.1956496720820803 
0.05376532895709643 0.350637649624673 -0.1341453057467705 
0.03774907645597558 0.3332456089936758 0.03940879289119022 
-0.03389426192663125 0.3490913236881316 -0.1214198536822579 
0.03933153810223339 0.3461182292235815 -0.1254793149383823 
0.02434657846566108 0.3590649852627548 -0.08970868002909919 
0.06424171134505001 0.3704282916738694 -0.1930154370134876 
0.05303066933101824 0.3604137109389181 0.01381830419903732 
-0.04643440405683484 0.3933037521599541 -0.09383540530793812 
-0.05096218755926194 0.3899738624109435 0.1577340337735478 
-0.04547912183073981 0.3707183373087748 0.04124392415524089 
-0.0146954917902165 0.3865668373329721 0.09378947081431516 
-0.01913476593444564 0.3613379896820368 0.149442760397756 
-0.008066054804311542 0.3763460743182852 0.1853098858465013 
0.003595749650097152 0.347184152006324 -0.02558824955816649 
0.01317066806382285 0.3831589635865701 0.06932476812198919 
0.03899991000738453 0.3651558651591992 0.1491145024068178 
0.05173953089403589 0.3774516679690282 -0.08349082633961133 
-0.05234073001826739 0.4107489352091747 -0.1550466344748408 
-0.04086581353484321 0.4113917617185132 0.187215625029816 
0.01532067459164105 0.4005963866774655 -0.02344246245870052 
0.04826492345685326 0.4057632263250904 0.1864620526343589 
0.05148887924955845 0.3896728949179784 0.04077038255453663 
-0.0447516937531841 0.4608238107474869 0.02186683425196077 
-0.03816987515392746 0.4177211867709694 0.08602507301553389 
-0.06101616786010824 0.4399311295284207 0.1530302230453135 
-0.008068836722748838 0.4029586114005675 -0.01817882535753409 
0.009750283692770496 0.4341283094765568 0.05843948338598574 
0.03341730713012445 0.4168503924248039 -0.1629377995785627 
0.004014938606660475 0.426713104512432 -0.09707966355882242 
0.05301703648142177 0.4505748058150113 -0.08444001063279793 
0.06649956911217803 0.4431367229382084 0.1533841764252633 
0.008346320799835527 0.4671550242022024 -0.0978577683359645 
-0.02976412186292656 0.4848832287101553 0.1640287367093032 
0.03317970554591659 0.4607897386336051 0.1858649542437653 
0.004321952627882748 0.4676697399743381 0.09000083222285021 
0.05066132732021845 0.4267006544397289 0.08998266690473682 
-0.03747031374188042 0.4718833000758539 -0.06313478816302703 
0.004151326544612272 0.4851971426831271 0.02162083263346606 
0.02247714739050066 0.4863927568132199 0.1522415402385924 
0.04390974140211937 0.4758235811132352 0.03374755714529098 
3 0 1 3 
3 0 6 1 
3 1 6 5 
3 2 30 3 
3 15 0 18 
3 0 30 18 
3 3 30 0 
3 4 9 3 
3 4 3 1 
3 0 15 12 
3 12 6 0 
3 1 5 4 
3 7 8 10 
3 12 15 20 
3 21 10 8 
3 6 27 14 
3 6 14 5 
3 7 11 8 
3 7 10 11 
3 6 12 27 
3 9 28 3 
3 8 11 24 
3 10 13 11 
3 24 21 8 
3 19 9 4 
3 10 16 13 
3 12 17 27 
3 9 19 28 
3 10 25 16 
3 25 10 21 
3 17 12 20 
3 2 3 23 
3 3 28 23 
3 22 21 24 
3 32 17 20 
3 18 30 36 
3 15 18 36 
3 24 11 37 
3 13 37 11 
3 22 25 21 
3 17 32 26 
3 17 26 27 
3 28 19 29 
3 29 19 4 
3 40 29 4 
3 5 40 4 
3 41 2 23 
3 2 41 30 
3 29 40 52 
3 14 27 35 
3 14 35 5 
3 5 35 39 
3 13 48 37 
3 16 48 13 
3 25 34 16 
3 5 39 40 
3 41 23 45 
3 16 38 48 
3 16 34 38 
3 27 26 44 
3 36 30 41 
3 28 51 23 
3 29 51 28 
3 34 31 33 
3 27 44 35 
3 23 51 45 
3 36 47 15 
3 36 41 47 
3 20 15 47 
3 59 33 43 
3 43 33 31 
3 59 46 33 
3 33 46 34 
3 46 38 34 
3 47 41 42 
3 43 37 49 
3 43 31 37 
3 29 52 51 
3 20 47 55 
3 49 37 48 
3 26 32 50 
3 26 50 44 
3 32 20 55 
3 54 47 42 
3 46 58 38 
3 58 46 59 
3 55 47 54 
3 43 49 58 
3 43 58 59 
3 56 48 38 
3 38 58 56 
3 57 32 55 
3 32 57 50 
3 39 60 40 
3 41 53 42 
3 41 45 53 
3 56 49 48 
3 49 56 58 
3 44 50 67 
3 44 67 35 
3 51 52 61 
3 55 54 57 
3 45 64 53 
3 45 51 64 
3 64 51 61 
3 62 61 52 
3 40 62 52 
3 35 67 60 
3 39 35 60 
3 54 42 53 
3 40 60 62 
3 63 50 57 
3 50 63 67 
3 60 70 62 
3 71 60 67 
3 60 71 70 
3 67 63 66 
3 64 68 53 
3 57 54 73 
3 63 57 73 
3 54 68 69 
3 53 68 54 
3 63 73 65 
3 63 65 66 
3 73 54 69 
3 61 72 64 
3 62 85 61 
3 85 72 61 
3 70 85 62 
3 87 71 67 
3 67 66 87 
3 69 68 75 
3 75 77 69 
3 73 69 77 
3 65 73 79 
3 75 68 82 
3 82 68 64 
3 64 72 82 
3 80 78 76 
3 76 78 74 
3 70 86 85 
3 66 79 81 
3 65 79 66 
3 70 71 86 
3 66 81 87 
3 76 74 89 
3 79 73 77 
3 71 87 86 
3 92 78 80 
3 83 76 89 
3 80 76 83 
3 83 84 80 
3 74 78 91 
3 84 92 80 
3 78 92 91 
3 89 74 91 
3 92 84 98 
3 88 83 89 
3 90 75 82 
3 89 91 95 
3 77 75 90 
3 72 102 82 
3 96 95 91 
3 79 77 90 
3 85 86 94 
3 79 109 81 
3 92 93 91 
3 91 93 96 
3 81 109 87 
3 92 98 93 
3 95 88 89 
3 82 102 90 
3 85 107 72 
3 72 107 102 
3 84 83 98 
3 96 97 95 
3 95 97 90 
3 79 90 97 
3 85 94 107 
3 93 97 96 
3 97 109 79 
3 87 99 86 
3 86 99 94 
3 87 109 99 
3 94 99 114 
3 83 88 110 
3 88 100 110 
3 88 95 100 
3 95 90 100 
3 105 101 104 
3 106 118 119 
3 103 107 108 
3 104 103 108 
3 106 119 112 
3 108 105 104 
3 93 109 97 
3 107 94 114 
3 109 93 98 
3 109 122 99 
3 90 102 100 
3 116 104 101 
3 102 103 116 
3 103 104 116 
3 105 111 101 
3 107 103 102 
3 98 83 120 
3 120 83 110 
3 106 112 121 
3 108 113 105 
3 105 113 111 
3 114 128 107 
3 98 122 109 
3 99 122 114 
3 102 116 115 
3 101 117 116 
3 101 111 117 
3 121 118 106 
3 107 128 108 
3 108 128 123 
3 108 123 113 
3 110 100 129 
3 102 115 100 
3 125 117 111 
3 120 110 124 
3 121 119 118 
3 119 121 112 
3 113 126 111 
3 120 124 122 
3 120 122 98 
3 122 128 114 
3 113 123 126 
3 100 115 129 
3 116 117 127 
3 127 117 125 
3 124 110 129 
3 115 127 130 
3 115 116 127 
3 126 125 111 
3 132 127 128 
3 122 132 128 
3 129 115 130 
3 127 125 131 
3 131 125 126 
3 124 129 130 
3 127 132 130 
3 122 124 132 
3 124 130 132 
3 128 127 131 
3 123 128 131 
3 126 123 131 
3 31 34 25 
3 31 25 22 
3 31 22 24 
3 24 37 31 
