ply
format ascii 1.0
comment VCGLIB generated
element vertex 252
property double x
property double y
property double z
element face 500
property list uchar int vertex_indices
end_header
-0.4963426702779749 -0.03445229566927588 0.05569942487469168 
-0.4679538716314677 -0.03835082222277748 0.05731986520717442 
0.2429073583534068 -0.04156556042610814 0.08226059367184388 
0.2521090983214793 -0.04811091372313048 0.05811811523054999 
0.2829539768203891 -0.03988210182069125 0.03965947713563463 
0.2833243209397899 -0.04696088731798417 0.07315764859973593 
0.2900681203177667 -0.03473402028387492 0.102531694455609 
0.3111588929297839 -0.05186537262059616 0.0398176150868734 
0.305061696058924 -0.05803700411559214 0.0705632183281435 
0.3462592018805873 -0.04456337277866464 0.1063069266650534 
0.4070724935181164 -0.04689988711963265 0.03701463736429477 
0.3742509980108203 -0.05984834174634666 0.07060280268653672 
0.430364202178071 -0.03293704248685262 0.1018121190913816 
-0.5048714565979164 -0.01761464847135093 0.05852185031401947 
-0.4870435034343078 -0.04114495248139235 0.08030460001596593 
-0.4991185916235074 -0.01798974251131721 0.08531481076578087 
-0.4700899588663581 -0.02117569972839963 -0.02740792929969841 
-0.4721309188336057 -0.02086791458281419 0.021171714692941 
-0.4699137380749158 -0.0146595437440995 0.1008723168567476 
-0.4633620042218225 -0.02150999002482711 -0.1040030408216132 
-0.4501280928507341 -0.02621327290837843 0.03387520551226407 
-0.443230466255339 -0.02676312453728845 -0.09566833941045806 
-0.4350416567456022 -0.02957650212025353 0.08043067413913967 
-0.4195893336787583 -0.02380988215473092 -0.1487955324633798 
-0.39378678250675 -0.02543692545742211 -0.09851004092578394 
-0.4081060406041232 -0.02314880103030472 -0.06543655994078164 
-0.3833066109655212 -0.02969898768206233 0.06057210992888076 
-0.4117076132685589 -0.02346127154683974 0.02083331701954296 
-0.3800785873178019 -0.02248563869337702 0.04296038439391793 
-0.4293972302430787 -0.01898257701289358 0.09244835650254345 
-0.3688806123960174 -0.02493875814670045 0.08368598810482249 
-0.3041168415564385 -0.02436010536325421 -0.1007461181927388 
-0.3312530263478665 -0.02475780469269187 0.05991901992572016 
-0.3329887131888174 -0.02265956803579883 -0.1468790443499874 
-0.3176422567998506 -0.0231427388333959 0.08534363986848184 
-0.2690325749596423 -0.02563151419083082 -0.09824821965675071 
-0.2483860065164886 -0.0238191750500411 0.08520911136513146 
-0.2206697117536391 -0.02094883473763143 0.03866882112462425 
-0.2511194250168132 -0.02586900548433308 0.05967194742960701 
-0.2321212255239281 -0.02619923727951904 -0.1428479377300498 
-0.2139053389235128 -0.02293350148976497 -0.1002241313706896 
-0.1660589941547521 -0.01897317646707003 0.04182512750288607 
-0.1556542830486598 -0.02534892429723131 0.06125122042013922 
-0.1871494176303694 -0.01899458581794907 -0.1569311823015603 
-0.1608839807677195 -0.02377991889670062 0.08473021613009279 
-0.09491057372484905 -0.01979418186732351 0.03960336335900411 
-0.1250582006070831 -0.02414023986049109 -0.09840121045048272 
-0.07973254326140329 -0.02336422438030101 0.08451483455069354 
-0.1330797049278191 -0.02655927653415983 -0.1405842653831753 
-0.02031778851356152 -0.02499787457092763 -0.1021175816604364 
-0.0590049597093581 -0.02538414600865639 0.06001434915669607 
-0.0437459527371372 -0.02403650432175808 0.08444739216011873 
0.03972833387256813 -0.02508236844857594 -0.09888348068506764 
-0.03618807702082272 -0.02208216533781223 -0.1471567534409592 
0.01033050773774082 -0.02552023406090718 -0.1541848808482353 
0.01974031389255781 -0.02015652992867932 0.03897824458473798 
0.06593724186400585 -0.02585938160383091 0.06011919871124766 
0.05295525235954009 -0.02506548361818972 -0.1381511888374727 
0.06434838172596355 -0.02439887041785607 0.08556600872365507 
0.09652560788711434 -0.02664111603444881 -0.1515837069231452 
0.07891257696723827 -0.01947578838522388 -0.1034373594727242 
0.1096845709251578 -0.02464500500040036 -0.09746194733510613 
0.1045649589695876 -0.02177671664670198 0.05361836808293773 
0.1472992903597879 -0.0219447161801668 -0.1566199169790287 
0.1151381682035633 -0.02362674792870248 0.08637171293679119 
0.1590334194292248 -0.02153311545824321 -0.1010124518786141 
0.1602015571490059 -0.01948794572241266 0.04215261130542148 
0.1347466671144646 -0.02575494992233575 0.05830941946338381 
0.1516450082288349 -0.02625884195351825 -0.1418391962703344 
0.1552494511428244 -0.02314057250389645 0.08403608461555793 
0.1972701296066087 -0.02259734934617811 -0.150110599450784 
0.1920934323431026 -0.0199308470333001 0.02392465245464933 
0.1715267157843529 -0.03071943560608013 0.05953214589960616 
0.1752154253447915 -0.007664043306402667 0.09402041654227764 
0.2038707241181663 -0.02573253466520804 -0.08114866279288957 
0.193512145196694 -0.01984642752964486 -0.05757699651254087 
0.2034174136968785 -0.02606678835827256 0.01980872123742367 
0.2207096519089484 -0.03263106612426604 0.05855184987028914 
0.2243125680541027 -0.02573860379562068 0.01555117678992455 
0.222795893288118 -0.02972819191065228 0.08364170064561814 
0.2421138784083829 -0.02414386043682917 -0.1069450495060226 
0.2452170436871593 -0.02427736344579447 -0.02593050135426055 
0.2526759086310271 -0.007153058617575305 -0.001026960366352822 
0.2579074178687994 -0.02355248132729358 0.02458150496675068 
0.2445209794502636 -0.02216341543429165 0.1032031756869052 
0.3098435667687842 -0.03824381464232264 0.02054890926367681 
0.3518937964336115 -0.02143293194487313 0.1208611142776179 
0.4028504383943957 -0.02667751403454545 0.01491293768683856 
0.4670532750700149 -0.01089770209323312 0.03129802698957999 
0.4538096453467919 -0.04274774634415874 0.0683572214255419 
0.4652942849420333 -0.01837299359247678 0.0957745563911547 
0.4818823491881483 -0.00962308271501182 0.06613519794441797 
-0.4915155380357098 -3.478013682127635e-05 0.03999739758301372 
-0.4750876403091963 6.118616502503141e-05 -0.09597129391135158 
-0.4773828899910244 0.0001460022176981135 -0.02600879621887322 
-0.4760574174983156 0.0007749211303598001 0.01581056792983499 
-0.4367764549340767 -0.0001563879776436602 -0.1483394059005884 
-0.4670023364012215 0.008884702872969906 0.09991437086882672 
-0.3991506187368631 6.3563891894651e-05 -0.05818467254783617 
-0.4006017471369933 0.001086895232886206 0.01856387185029271 
-0.3809463847199999 -0.001510163601721528 0.03396932614764857 
-0.363175476490081 0.0007109775859382496 0.0954550545074318 
-0.3843606474355719 -0.0003161435259899208 -0.08716168206947315 
-0.3404361370753748 -0.0191134523324462 0.04083623933382231 
-0.2962015277561124 0.0006656862201488949 -0.08739056227113283 
-0.304657728920272 3.503354134679735e-05 0.0930624345907035 
-0.2687984184584383 -0.02472348915118639 -0.1548571273426185 
-0.2081723316595123 8.410628568639926e-05 -0.0883102340026472 
-0.2010378468747949 -0.0003693536597265373 0.03288026012931844 
-0.2411948347467972 9.560690199424909e-05 0.093306058598965 
-0.1468184554547694 -3.851802917819852e-05 0.094317456761093 
-0.148890160597126 -0.0003847769117899717 -0.08918638374499208 
-0.1495581904511378 0.004435685175455796 0.03460391615785259 
-0.1168562018787573 -0.01861781232317061 -0.1607116155089699 
-0.09633849117420792 0.001293882394793408 -0.08759236044314724 
-0.0652789814089302 -0.0002676968533243019 0.0942898326499521 
-0.0357380527965085 -0.001077793450792028 -0.1647654966093448 
-0.02967642483684185 -0.003994971203437483 0.09451960108663437 
-0.01675428207438174 -0.0006146330416866258 -0.08731698065969136 
0.04417524867618815 -0.000240043500157507 0.09299821766429175 
0.06878723923695894 0.0002814513538201613 -0.08848177552306273 
0.03292652560086114 0.004182923149776857 0.03423096044765553 
0.05940281348211455 1.590109213942262e-05 -0.1675787857949215 
0.08437670171214677 -0.0197161727822197 0.04042393184041355 
0.1039354264095511 0.001337721037207317 0.03944778717223667 
0.1350967751335549 0.0003849937909004244 -0.1687414443435782 
0.1248552109540654 -0.01971038719928967 0.04003872571765117 
0.1342648386446746 -0.001288363832826973 0.09533160058449894 
0.1920596182307878 0.0003124924789560361 -0.1620944809746904 
0.1666104941927585 0.0001599440981896355 -0.08768690635397082 
0.1842995991301595 -0.01960990377212406 -0.08447181822136063 
0.1809033070748467 0.001109056848152752 -0.06244688337901633 
0.2413103163088946 0.0002049402358608279 -0.1279750904745583 
0.2236998820934972 0.001747286111539912 0.09724454918259628 
0.2395738469624109 0.01586922605795566 0.1101856327436632 
0.2616210096200203 9.136996952003271e-05 -0.07587907119335584 
0.2593149335619707 -5.024468279742861e-05 -0.02590943305809423 
0.2744057295842792 -0.004283220372940063 0.02163937658696293 
0.2802656598511475 -0.001349895360049851 0.112557784911063 
0.3084575091781679 -0.01183228139574506 0.00735737898981479 
0.3248788875262247 -0.01844407402923707 0.06053468159715662 
0.2922143470155741 0.0004102140905738418 0.05974680296209755 
0.3289776154345131 -0.0001580604664460298 0.04458128938752325 
0.3089531875546422 -0.007837324772094909 0.1238443290502544 
0.3948715974530936 5.496248749714928e-05 0.0495612642822623 
0.4228213580980531 -0.0006906924652313643 0.06674825465716382 
0.3821263312017851 -0.000829940810080675 0.006474125760371177 
0.3812665566248628 -0.01689815359088129 0.06017444103857827 
0.4184726063385343 0.0007346160275705783 0.1163817946361364 
-0.4893819080226157 0.04328140861449025 0.05849626795211611 
-0.4997158045436752 0.03395134520866196 0.07400388857261468 
-0.4699743357034505 0.01951490265062951 -0.07924329834391344 
-0.4692376764536464 0.01868283311475716 -0.02214658508939634 
-0.4677251826807998 0.01216959508210946 0.006306462360566389 
-0.4509291111202035 0.02105165423545875 -0.1237647198716064 
-0.4367701917556893 0.02599881552689732 -0.005334176751025438 
-0.3879857477848468 0.0201391628524698 0.08794570532875834 
-0.4096197781950123 0.01995593612705742 -0.01898342917663873 
-0.3878970701917338 -0.001077994488266791 -0.1681855335816911 
-0.4045682472913885 0.01965818211975679 -0.1527698764092056 
-0.3473130577262583 0.0190656063006832 -0.156353487117626 
-0.3295268239546046 0.001425258974502391 -0.1657270653732741 
-0.3160001359046324 0.00802262164771075 0.03920138007126317 
-0.3085441897261423 0.01336577194357431 0.08079357971909365 
-0.3320316526569532 0.004807783854298569 0.03455899096735562 
-0.3064070779320467 0.01431172966571637 0.0604986767741065 
-0.2457485626966968 -2.538089533549972e-05 -0.168258104818899 
-0.2167912344109561 0.01394175565744484 0.06122028908532718 
-0.1771443276875899 0.01815292327250034 -0.1570486773720373 
-0.1972991533249403 0.01023828427681092 0.0420272107641696 
-0.1526646870299157 0.02415912943086443 -0.1081360330363268 
-0.1301541073174527 0.01483968761221188 0.05972047193696446 
-0.1101322086610568 0.02413627137168013 -0.1005948192998407 
-0.1882539454306871 0.01471201374333743 0.0807918585087358 
-0.1434708546911276 0.001419169339019282 -0.1667373665112513 
-0.06443062492859582 0.01440125081100265 0.05301862396369191 
-0.05474508393539421 0.01793575704032894 -0.1582957710796403 
-0.02206560349399217 0.01364038843597447 0.08054685441927122 
-0.02579146558172123 0.02034995766063063 -0.154215528667301 
-0.07667423805943738 0.004352423198803318 0.03386599770531574 
-0.01725535284179554 0.01365329162020405 0.06065235655118275 
-0.0141648932671701 0.001370295269390262 -0.1679871567265021 
0.03995153582605857 0.02431527870795469 -0.09755637901580594 
0.04523757329173594 0.01546033627120891 0.06020277024765935 
0.07150428037468225 0.01258993683456293 0.0802153725770557 
0.1064004819442713 0.01253231330441988 0.0625568855894196 
0.1399500865412124 0.01592466527340535 0.03469551665423195 
0.1589546122972766 0.02525389648476347 -0.1491295331593233 
0.1261684995671262 0.0144444129743855 0.08202830181505173 
0.1625742526306355 0.002044398211113315 0.03532691274510401 
0.1667828271005148 0.02527051663561307 0.08676725944681651 
0.1921602584840104 0.0210337645778427 -0.1518553509161585 
0.1810558536013848 -0.0002353356979762202 0.01891099479684948 
0.188617091485568 0.01961873216086947 -0.07887875635010512 
0.183795370724424 0.02025951424010655 0.08258183755119539 
0.2233313009244119 0.02544855928092198 0.08777446256065463 
0.2470421939122679 0.02339514789659667 -0.07698992335466089 
0.2653448589529431 0.01759077838438607 0.02504244846623526 
0.3014276499433826 0.02669245282691 0.01487587585882804 
0.3269420614891865 0.01928728189324787 0.06031433958981839 
0.3157655888575002 0.01977851126659141 0.1213317824715553 
0.3335401150760373 -0.0006792833881421393 0.09202502135899879 
0.3774584403059927 0.0234313454492131 0.009473781434640035 
0.3914403456926592 0.01403225512681069 0.05995808448950244 
0.3962127853682907 0.01827466541669756 0.1172614113113121 
0.4644316733807833 0.02136078510118601 0.09389082713995897 
0.4626843318652562 0.02105492150344233 0.0355606341064379 
-0.4698367287507804 0.03823071946001455 0.08046122763823012 
-0.4432046917454597 0.02573794378627461 -0.1107321302692228 
-0.4714595331279747 0.02607021374657028 0.03713136433630513 
-0.4308301698976802 0.02054257619754741 -0.144125309554741 
-0.4152328029194606 0.0235315169284058 0.02748347029659879 
-0.4502590146645542 0.03161987954203604 0.06058569116650537 
-0.392020780618228 0.02430949887184747 -0.09895770751166554 
-0.4051912289309754 0.023630225059115 -0.08268261504462203 
-0.4054981028894445 0.02515923108622481 -0.1436297861645518 
-0.4461276003251113 0.02960615518708792 0.08071107508830577 
-0.3523438484608142 0.02150574441767067 0.0395762994697498 
-0.3513402908258695 0.02940812198320261 0.06127564221800811 
-0.3351431027068237 0.02567519536665172 0.08379412638620941 
-0.3236029289369 0.02396514253693337 -0.1020412651679915 
-0.3022708449779376 0.02471872193270801 -0.1505362714072569 
-0.1600444918774071 0.02527131153766922 -0.1433027108027671 
-0.2200376380949058 0.02546385073680586 -0.1255995355471227 
-0.1941402524443393 0.02312500963290969 -0.09917401214959924 
-0.02560650290908761 0.02583190373152623 -0.1393941530293481 
0.0561727350831887 0.02513223534422813 -0.1470488107689474 
-0.002637336592811983 0.02275141598011387 -0.09928548136293454 
0.07537836454162135 0.02349665129784484 -0.1026209808431673 
0.167456032209493 0.02352035059284196 -0.09877033018040179 
0.2023664475530491 0.02557938710225087 0.006693258285329119 
0.1857485674469924 0.02367929282130742 0.03536416023761695 
0.1549808199516841 0.02919617955130372 0.05953619543467677 
0.2304747190520411 0.02251349783102127 -0.1214614034065577 
0.2182344870673726 0.02634898713083034 -0.08569665502838519 
0.2109853329167477 0.02666976599435533 -0.06874070082247585 
0.2439700572487098 0.02243645716600505 0.0140844686531263 
0.2238808385477694 0.03344524527758917 0.05976550118601385 
0.2841377884873946 0.0206360350652773 0.1064913060489346 
0.2741772480237463 0.04436015453364482 0.07992054032588902 
0.3539028281861006 0.04710280907995969 0.02700193442592458 
0.394626761603576 0.04037797797543256 0.1026685203747193 
0.4232199135188338 0.04373917326033053 0.03924282351561186 
0.4703391134968998 0.02858354332202784 0.06046879989015061 
0.4314595224898124 0.04536789397737447 0.08229707038692924 
0.2449574474812716 0.04410625943401713 0.0442276868396145 
0.281378092850246 0.04488368377832667 0.05189772488500059 
0.312169749870472 0.0585920399550099 0.05596786030794357 
0.3084024817290956 0.05677954636585326 0.0719662880456825 
0.3247757054098732 0.0440970552785766 0.1055414740116325 
0.356193250268066 0.05697060249150316 0.08092864118852734 
0.4098347907403366 0.05299481571387323 0.06021941958272078 
3 1 14 0 
3 77 3 2 
3 83 4 3 
3 3 4 5 
3 3 5 2 
3 4 85 7 
3 7 8 4 
3 4 8 5 
3 6 5 8 
3 8 9 6 
3 7 11 8 
3 11 9 8 
3 85 87 10 
3 7 85 10 
3 10 11 7 
3 11 12 9 
3 10 89 11 
3 89 12 11 
3 14 15 0 
3 0 15 13 
3 17 1 0 
3 15 14 18 
3 16 19 21 
3 20 16 21 
3 17 16 20 
3 17 20 1 
3 1 22 14 
3 14 22 29 
3 18 14 29 
3 19 23 21 
3 21 27 20 
3 20 26 1 
3 26 22 1 
3 23 24 21 
3 24 25 21 
3 21 25 27 
3 27 26 20 
3 27 28 26 
3 26 30 22 
3 22 30 29 
3 33 24 23 
3 28 103 26 
3 33 31 24 
3 26 103 32 
3 32 34 26 
3 26 34 30 
3 33 106 31 
3 35 31 106 
3 32 103 38 
3 38 36 32 
3 32 36 34 
3 106 39 35 
3 39 40 35 
3 39 43 48 
3 41 42 37 
3 37 42 38 
3 42 44 38 
3 38 44 36 
3 48 46 39 
3 39 46 40 
3 43 113 48 
3 41 45 42 
3 42 45 50 
3 50 47 42 
3 42 47 44 
3 113 53 48 
3 48 49 46 
3 50 51 47 
3 53 49 48 
3 55 50 45 
3 54 49 53 
3 55 56 50 
3 56 51 50 
3 56 58 51 
3 57 52 54 
3 54 52 49 
3 55 123 56 
3 57 60 52 
3 56 64 58 
3 60 57 61 
3 61 57 59 
3 56 123 62 
3 62 64 56 
3 58 64 127 
3 62 126 67 
3 67 64 62 
3 68 59 63 
3 59 65 61 
3 126 66 67 
3 67 69 64 
3 63 70 68 
3 68 65 59 
3 67 66 72 
3 72 69 67 
3 65 68 130 
3 71 72 66 
3 72 79 69 
3 69 79 73 
3 130 68 74 
3 74 68 80 
3 130 74 75 
3 74 76 75 
3 75 76 71 
3 71 76 72 
3 72 76 77 
3 77 79 72 
3 70 80 68 
3 80 81 74 
3 74 81 76 
3 81 78 76 
3 78 77 76 
3 82 78 81 
3 82 83 78 
3 83 3 78 
3 78 3 77 
3 79 77 2 
3 2 84 79 
3 4 83 137 
3 5 84 2 
3 6 84 5 
3 139 85 137 
3 85 4 137 
3 9 86 6 
3 86 143 6 
3 85 139 87 
3 12 86 9 
3 89 90 12 
3 10 87 88 
3 10 88 89 
3 91 89 88 
3 90 89 91 
3 0 13 92 
3 19 16 93 
3 93 16 94 
3 16 95 94 
3 16 17 95 
3 92 17 0 
3 92 95 17 
3 93 96 19 
3 18 29 97 
3 19 96 23 
3 158 23 96 
3 101 97 29 
3 24 102 25 
3 102 98 25 
3 25 98 99 
3 25 99 27 
3 28 99 100 
3 27 99 28 
3 33 23 158 
3 30 101 29 
3 103 28 100 
3 34 101 30 
3 161 33 158 
3 104 102 24 
3 100 164 103 
3 105 101 34 
3 31 104 24 
3 36 105 34 
3 106 33 161 
3 35 104 31 
3 108 103 164 
3 103 108 38 
3 37 38 108 
3 109 105 36 
3 106 161 166 
3 39 106 166 
3 40 107 35 
3 107 104 35 
3 43 39 166 
3 166 174 43 
3 41 37 108 
3 46 107 40 
3 112 41 108 
3 44 110 36 
3 110 109 36 
3 111 107 46 
3 113 43 174 
3 41 112 45 
3 114 111 46 
3 112 179 45 
3 47 110 44 
3 113 174 116 
3 53 113 116 
3 49 114 46 
3 115 110 47 
3 118 114 49 
3 51 115 47 
3 52 118 49 
3 55 45 179 
3 117 115 51 
3 181 53 116 
3 121 55 179 
3 51 119 117 
3 54 53 181 
3 120 118 52 
3 54 181 122 
3 57 54 122 
3 58 119 51 
3 59 57 122 
3 60 120 52 
3 55 121 123 
3 121 124 123 
3 60 61 120 
3 120 61 129 
3 124 62 123 
3 127 119 58 
3 59 122 125 
3 63 59 125 
3 126 124 186 
3 126 62 124 
3 65 129 61 
3 126 186 189 
3 66 126 189 
3 69 127 64 
3 73 127 69 
3 63 125 128 
3 128 70 63 
3 129 65 130 
3 129 130 131 
3 71 66 189 
3 71 189 192 
3 131 130 75 
3 192 131 75 
3 71 192 75 
3 132 80 70 
3 132 70 128 
3 79 133 73 
3 133 79 84 
3 84 134 133 
3 80 132 135 
3 80 135 81 
3 81 135 136 
3 82 81 136 
3 82 137 83 
3 138 134 84 
3 6 138 84 
3 143 138 6 
3 141 140 142 
3 201 140 141 
3 87 139 146 
3 140 147 142 
3 147 140 201 
3 142 147 144 
3 145 147 201 
3 86 204 143 
3 12 148 86 
3 148 204 86 
3 147 145 144 
3 146 88 87 
3 90 148 12 
3 149 209 92 
3 149 92 150 
3 150 92 13 
3 13 15 150 
3 152 151 94 
3 94 151 93 
3 94 95 153 
3 152 94 153 
3 153 92 209 
3 153 95 92 
3 18 97 15 
3 97 150 15 
3 154 96 93 
3 151 154 93 
3 152 153 155 
3 96 154 210 
3 158 96 159 
3 159 96 210 
3 101 156 97 
3 213 214 102 
3 102 214 98 
3 214 157 98 
3 98 157 99 
3 211 99 157 
3 211 100 99 
3 158 159 160 
3 217 100 211 
3 220 213 102 
3 161 158 160 
3 104 220 102 
3 217 162 164 
3 217 164 100 
3 219 156 101 
3 161 160 221 
3 218 162 217 
3 218 165 162 
3 165 219 163 
3 218 219 165 
3 163 219 105 
3 105 219 101 
3 164 162 165 
3 161 221 166 
3 224 220 104 
3 169 108 164 
3 169 164 167 
3 164 165 167 
3 167 165 163 
3 221 168 166 
3 109 163 105 
3 107 224 104 
3 167 163 173 
3 173 163 109 
3 174 166 168 
3 112 108 169 
3 169 167 173 
3 110 173 109 
3 170 224 111 
3 111 224 107 
3 112 169 171 
3 171 169 173 
3 170 111 172 
3 114 172 111 
3 179 112 171 
3 179 171 175 
3 175 171 177 
3 171 173 177 
3 177 173 110 
3 176 116 174 
3 168 176 174 
3 115 177 110 
3 118 172 114 
3 176 178 116 
3 227 172 118 
3 179 175 180 
3 180 175 177 
3 117 177 115 
3 181 116 178 
3 119 177 117 
3 121 179 180 
3 120 182 118 
3 182 227 118 
3 121 180 183 
3 183 180 184 
3 180 177 184 
3 184 177 119 
3 181 226 122 
3 178 226 181 
3 228 182 120 
3 121 183 185 
3 185 183 184 
3 124 121 185 
3 226 187 122 
3 129 228 120 
3 185 184 188 
3 188 184 119 
3 125 122 187 
3 229 228 129 
3 186 124 185 
3 127 188 119 
3 187 191 125 
3 189 186 232 
3 73 190 127 
3 190 188 127 
3 125 191 128 
3 193 229 129 
3 193 129 131 
3 192 189 231 
3 189 232 231 
3 194 190 73 
3 192 193 131 
3 230 193 192 
3 192 231 230 
3 133 194 73 
3 191 132 128 
3 132 191 233 
3 195 194 133 
3 133 134 195 
3 233 196 132 
3 132 196 135 
3 135 196 136 
3 136 196 236 
3 136 236 82 
3 137 82 197 
3 82 236 197 
3 138 238 134 
3 198 139 137 
3 197 198 137 
3 143 200 138 
3 200 238 138 
3 202 139 198 
3 199 141 142 
3 141 199 201 
3 146 139 202 
3 144 199 142 
3 203 199 144 
3 145 201 203 
3 201 199 203 
3 204 200 143 
3 145 203 144 
3 202 88 146 
3 88 202 206 
3 205 204 148 
3 148 90 205 
3 88 206 91 
3 91 206 243 
3 91 243 205 
3 90 91 205 
3 97 207 150 
3 154 151 208 
3 208 151 155 
3 152 155 151 
3 155 153 209 
3 212 209 149 
3 207 216 212 
3 216 207 97 
3 156 216 97 
3 210 154 208 
3 155 209 211 
3 211 209 212 
3 215 159 210 
3 215 210 213 
3 210 208 213 
3 213 208 214 
3 208 155 214 
3 157 214 155 
3 211 157 155 
3 211 212 218 
3 218 212 216 
3 215 213 220 
3 217 211 218 
3 218 216 219 
3 219 216 156 
3 160 159 215 
3 221 160 215 
3 221 215 220 
3 221 220 223 
3 223 220 224 
3 222 168 221 
3 222 221 223 
3 222 223 170 
3 224 170 223 
3 222 170 172 
3 176 168 222 
3 225 176 222 
3 222 172 225 
3 178 176 225 
3 225 172 227 
3 226 178 225 
3 225 227 182 
3 226 225 182 
3 226 182 228 
3 226 228 187 
3 187 228 229 
3 186 185 232 
3 185 188 232 
3 232 188 190 
3 232 190 194 
3 193 234 229 
3 229 234 187 
3 234 193 235 
3 235 193 230 
3 232 194 195 
3 233 191 187 
3 233 187 234 
3 196 235 230 
3 230 231 236 
3 236 231 237 
3 231 232 237 
3 237 232 195 
3 196 233 234 
3 196 234 235 
3 196 230 236 
3 237 245 236 
3 195 134 239 
3 236 245 197 
3 134 238 239 
3 245 246 197 
3 198 197 246 
3 249 238 200 
3 240 202 198 
3 204 241 200 
3 241 249 200 
3 240 242 202 
3 202 242 206 
3 241 205 244 
3 205 241 204 
3 243 242 251 
3 243 206 242 
3 243 244 205 
3 207 149 150 
3 212 149 207 
3 237 195 239 
3 245 237 239 
3 246 245 239 
3 198 246 247 
3 247 246 248 
3 246 239 248 
3 239 238 249 
3 239 249 248 
3 240 198 247 
3 247 248 250 
3 250 248 249 
3 242 240 251 
3 240 247 251 
3 251 247 250 
3 250 249 241 
3 251 250 244 
3 244 250 241 
3 244 243 251 
