ply
format ascii 1.0
comment VCGLIB generated
element vertex 256
property double x
property double y
property double z
element face 500
property list uchar int vertex_indices
end_header
0.3060314158673421 -0.05063713695045714 0.06900004750953553 
0.3428453512461004 -0.05077072083080479 0.09673080379189644 
0.3398742879104851 -0.05131266658728404 -0.06111116836008234 
0.3761614930511599 -0.05161005960308057 -0.03644217477629592 
0.3966475136876314 -0.05169143545199505 -0.0002842007779929972 
0.405430086543032 -0.05184231714900765 -0.05743517564909026 
0.4203674282584727 -0.05094769665675344 -0.1309970829965094 
0.4555186847751655 -0.05106485898115072 -0.03695624981931009 
0.4593354911220207 -0.05109077696795311 0.005719429505117076 
-0.4599495694073474 -0.03380457126161465 -0.05259976156781496 
-0.4433608410201549 -0.02822457624652636 -0.03669049203555156 
-0.4494542739369968 -0.0336163223527015 0.02800081498457542 
-0.4404225171299029 -0.03269936163848796 -0.06042288637339509 
-0.4145133102926501 -0.03155153650098523 -0.03268517336849824 
-0.3729127065758115 -0.03294551859630825 -0.05891748117039053 
-0.321615734727365 -0.0320766551478577 0.03060161265310268 
-0.2377046422344349 -0.03173021340301731 0.02672108316623843 
-0.2074540301838808 -0.02470272120121944 0.03868006650170564 
-0.2024846424926711 -0.03214798598633754 -0.05857790391385748 
-0.09233562799562854 -0.03067281944921189 0.02575062673737515 
-0.07768328125643315 -0.03225733096804392 -0.0574033426126276 
0.1349298514313954 -0.03219805851150717 -0.05596084299536053 
0.1789748199786538 -0.02779104531007012 -0.01899601743649759 
0.172983263955477 -0.0308963173989799 0.0251907946756353 
0.2011197393647511 -0.03176405264939577 0.004194893148216885 
0.249855699857616 -0.03208402234873128 -0.07177709897192566 
0.2555961433498651 -0.03571138551689871 -0.01556151727520231 
0.2422494088054899 -0.03375152275731733 0.02553334486556604 
0.2659731345974692 -0.03812963006127171 -0.040944312845374 
0.263543139497614 -0.03188466210368949 -0.08620950931647166 
0.2823238308600822 -0.05106639557438282 -0.001453763885680169 
0.2661180699384046 -0.04300459116806966 0.009920626690241633 
0.2541571099310615 -0.03321533928653978 0.04953697542472377 
0.3141691352085738 -0.03333770444945529 -0.13578207813207 
0.3251357179020415 -0.04450834138952101 -0.1135012424625244 
0.3372209069598758 -0.05126749258849383 0.01053931727866765 
0.3149366078673533 -0.04761328348076964 0.02124524329927214 
0.3162596818167057 -0.05100832418110689 0.0867833500624632 
0.3313972800585229 -0.03600614282866582 0.1151410644202108 
0.3554721554575145 -0.03073045466027158 -0.1568791706977766 
0.3793284797529295 -0.02964653221932128 0.08529610070993836 
0.3789029023054629 -0.05112748728924384 0.06511625632180314 
0.3660251061832789 -0.05211805462246135 -0.1394922158890344 
0.4071621111379765 -0.02753097280367833 -0.1567943527905681 
0.4003598545297918 -0.03496232984800883 -0.03670926570150188 
0.4204579761213095 -0.04383911418463543 -0.03631341185972475 
0.4204579761213095 -0.04572357697845403 0.06586238332706595 
0.4191707988899729 -0.0215571857427963 0.07990659219850113 
0.4262496666288681 -0.03761692185239152 -0.0171470150635795 
0.4532407609544593 -0.03309250201218353 -0.1319934113735205 
0.4651966370162455 -0.04607096219047743 -0.09030445607072625 
0.4544639278838896 -0.0506694255282937 0.0359473524443777 
0.4862126135973592 -0.0344503422225973 -0.08234365306574333 
0.4816721660828788 -0.05011417803438934 -0.03903575020064463 
0.4632056004942203 -0.0325911184065906 0.05268187176048363 
-0.4898552941752473 -0.0209525623289845 -0.04501202254047854 
-0.4848173550876033 -0.03280428128693025 -0.006297135059355664 
-0.5032155580431681 -0.01000287612508973 -0.002485678945770406 
-0.481889310852724 -0.01068876875964548 0.03581511612633292 
-0.4872203617105997 -0.01204225208556461 -0.06083782584511779 
-0.4634737623015956 -0.0258816866374173 -0.0158782528223666 
-0.4387792818060474 -0.01582350235613882 -0.08335728464555167 
-0.4433844046101659 -0.02425648266425873 0.004556906214991552 
-0.4463497568562769 -0.01457200409557059 0.0528033773456909 
-0.4242230441769685 -0.01516901143703643 -0.01626410474322696 
-0.4032381840754241 -0.02674982285577478 0.004845295190176077 
-0.3885415689587342 -0.01557910900266857 0.05077197462136791 
-0.3394250990998113 -0.01492248118997771 -0.08182285391712273 
-0.3728341051517434 -0.02838927703638779 0.02455177080410336 
-0.3309516035206592 -0.01832303277425141 0.05085805616358073 
-0.3571561926888063 -0.02619680495068298 -0.02586245164172176 
-0.1969118744385069 -0.01281347367554454 -0.07944723237950956 
-0.2821309964905568 -0.01165058810816386 0.04999253579531888 
-0.2819309403560634 -0.02740155523878738 -0.02855586455986252 
-0.2735264556542467 -0.02651345022070655 -0.007213457064294821 
-0.245548565042138 -0.01613994492847799 0.05066941601320651 
-0.2000359566907157 -0.02445292384011032 -0.01264360552663546 
-0.1751439222591891 -0.02895334341208166 0.02262800752081455 
-0.1299363055658994 -0.01087699036379737 -0.07864536042519282 
-0.1740324177881531 -0.01363961400250041 0.04895114428492334 
-0.110733871845405 -0.02533356556628355 -0.007645027673821164 
-0.08010603829314276 -0.01252369611005343 0.04795870026578033 
-0.08265751833886814 -0.02452235514745248 -0.003009997154027823 
-0.03385940394887232 -0.03154258418857245 0.0271454594840087 
-0.01640098598506091 -0.011569910925207 0.04739805308115591 
-0.03865540916117786 -0.01050579317678606 -0.07835449109177997 
-0.01388573947952501 -0.03265588337429518 -0.05640646747043075 
0.0296967441818032 -0.02636905408595823 -0.01541853960979171 
0.03820209572671096 -0.0322511093059978 0.02459987903347484 
0.06081537502814683 -0.02612158455164388 0.02390535362647785 
0.03935028342028163 -0.01132784530072314 0.04683547572481689 
0.08797692535963707 -0.00922728434572965 -0.07519054006047389 
0.06735333626074887 -0.03102446545793756 -0.0573341870572595 
0.08684924117112253 -0.0308773870255674 0.02639007471911988 
0.1103862647154937 -0.02680422285796897 -0.01352843525635502 
0.152429132774163 -0.01003147270349856 -0.07361749608906597 
0.1521993881483609 -0.009821495054592986 0.04464130371085966 
0.2195760020840517 -0.03122127721546306 -0.05552236572110079 
0.213601271216019 -0.009148932096746611 -0.07512536620145129 
0.2198594628182861 -0.03128912169496643 0.0249948529073095 
0.2064843055194603 -0.009489604725772064 0.04344919631151616 
0.2470459777981568 -0.009196008078827939 -0.08925741625658709 
0.2974424122690643 -0.03093571019617334 0.09706218603128852 
0.3370749681503225 -0.01063960292575345 -0.06012522214776649 
0.3422945221399024 -0.009976941510808428 -0.02064630995725888 
0.3369025973406172 -0.01200825104494145 0.02104628344358154 
0.3560378745395334 -0.01042773540162906 -0.08983385592979104 
0.363808312458082 -0.011839417433179 -0.05677223025802457 
0.3480610279295331 -0.009462966858311878 -0.03885837822562443 
0.3564316487382679 -0.008638205169266916 0.1178041720916002 
0.3812347503599141 -0.01271901051270541 -0.0757431961833285 
0.3834668936442547 -0.01047764154412655 0.0456346349001256 
0.3810201722135472 0.01157714415687085 0.02129193834442126 
0.44511035982943 -0.009062961597227128 -0.07455308727706282 
0.4187968099783781 -0.01110393580839647 0.02736908906270124 
0.4609979432852537 -0.005046827092351601 0.05944577849914168 
0.4799933334963256 -0.02484939629161201 -0.01527709070791879 
0.5006755167587834 -0.02713143800510818 -0.03798765258670126 
0.4857480007664298 -0.03417330768463316 -0.001750741653502154 
-0.4945977115673006 0.01146517403800828 -0.05093235643723095 
-0.5030622856030048 0.009467413954460701 -0.004288568286442267 
-0.4835372653773135 0.01342417589029962 0.03286202298245389 
-0.447281961661008 0.01429100346795187 -0.08133573464605591 
-0.4425262962510447 -0.003712703424856628 -0.01502609561590364 
-0.4408989089485249 0.0100314616988277 0.05498830562523013 
-0.3469904760625817 0.01566215394555176 -0.08221874100220926 
-0.3633215018163859 0.01009470520268102 0.05349850735287225 
-0.283902129272686 0.009995919447600376 0.05095132576671464 
-0.2161883907170307 0.01017895952170109 0.0505364533300186 
-0.001940938523108875 0.01037494407167815 -0.07770739400161528 
0.06543208681052011 -0.01040011531678877 0.0451762171968868 
0.09005270723528905 0.009856371079125865 -0.07602224686704058 
0.1512920485172518 0.01080261975625944 -0.07318842763174477 
0.1788156609624109 0.01018413139620074 -0.07186719909236558 
0.2017125150752572 0.009204162693190255 0.03745115488387793 
0.2500865160417153 0.002500454226643753 0.06234634753873841 
0.3117612656150159 0.001162849248045961 -0.1431746937632803 
0.2822069760485709 0.01013917649151494 -0.1180667797741067 
0.335240648963931 -0.01196152927959536 0.04868424469414087 
0.3198864718190758 -0.005774727112456468 0.1186811002557545 
0.3387662709766436 -0.001329815728307206 -0.1550381123067744 
0.3366409948366081 0.01082025390862234 -0.05339483295179596 
0.3377321755873693 0.01389283308692904 0.01532745456942849 
0.3307251388522805 0.01160016462484383 0.05115815015735052 
0.3401006719063739 0.01017220190132471 0.1227723807699624 
0.3532425787806626 0.01155248228403219 -0.1034302391058424 
0.3580763283936096 0.01180896393022417 -0.04569949417008594 
0.3609224390119607 -0.01005855082333256 0.006229243787057143 
0.3846909351925913 0.01174705931750525 -0.1042822616201586 
0.3803601983884883 0.009952582555805526 -0.07387187089728842 
0.4220847123800051 0.01081780397098433 0.02282163862664886 
0.4243977233631621 0.02957054183308417 0.07758761114074431 
0.4091253705130246 -0.01140280863542383 -0.109140235010701 
0.4750453365427665 -0.000892883790672216 -0.1136563359773255 
0.4809052721355157 0.02789607742907647 -0.01102244524889703 
0.4847637153706555 -0.003437827187660176 0.02808659262515241 
0.5010830089620149 -0.0007298292291621116 -0.0634533187145528 
-0.4852686663401862 0.03167142060636348 -0.01152413943900645 
-0.4657461985916302 0.03187971505159414 -0.01590654901453404 
-0.4418012251539408 0.03368740092458186 -0.04744148595356378 
-0.438916440809502 0.009547748015418543 -0.0149980912179073 
-0.4360440114983168 0.02712558893324424 0.0081299062117158 
-0.4555121673991158 0.02949911187205366 0.02812835254779011 
-0.4360036212093613 0.02431437231610618 0.0451090190156157 
-0.4193864173648747 0.03302084169883973 0.0266121502396176 
-0.4059752249629752 0.0336770392241979 -0.05708302025944702 
-0.3781744353805858 0.0264727008420811 -0.01628848909632081 
-0.3725846938810843 0.02200638209523866 0.04546671307994125 
-0.3616979090460632 0.03133875084504161 0.02512324414833253 
-0.3838363676110293 0.02995729657279678 0.02511871436040676 
-0.2870525919528961 0.02418606798368123 -0.01095556434356483 
-0.3197268651689767 0.02477427647685572 0.004767027121099484 
-0.3249785878858227 0.030992781476436 -0.05968212279752918 
-0.2358892869325568 0.03134872654050305 0.02667806701028804 
-0.2457288113332672 0.03245259970577041 -0.05834124587073813 
-0.2092280168924411 0.01316330104335094 -0.08051514433268346 
-0.2603630962239697 0.02621984005821783 -0.0218067796463382 
-0.2710852603873795 0.02084664871686877 0.04430912196438429 
-0.197577354781525 0.02630560591588412 -0.007442170470430014 
-0.2002393959291383 0.02735819958241334 -0.05699149701700435 
-0.1568464519722461 0.01322850460687585 -0.07900234466617366 
-0.1666633369406371 0.01428573783093354 0.04951531933378448 
-0.140217234124329 0.02671439666979781 -0.01511149290030969 
-0.1092971372082417 0.01446994197125994 0.04852865098237345 
-0.08755477281321854 0.01093665397163705 -0.07899815553434168 
-0.08094896111435969 0.0322963336019129 0.02726119933195122 
-0.08317709311889765 0.0314735895960595 -0.05746590047630184 
-0.08569386957715126 0.0252433587871571 -0.01616597591394378 
-0.03981595670466982 0.01182415391472993 0.04701595620678061 
-0.01018322543781812 0.02515583498569627 -0.0162774427634135 
-0.02470987925498891 0.03109372654236766 0.02682139894428989 
-0.01717597028948906 0.03080481880352719 -0.05486803351184341 
0.01289806501738006 0.03291724707748899 -0.05776500677837947 
0.01848312020563414 0.02397049810042908 -0.0366441275726094 
0.01867082229271633 0.02641338894670306 -0.0158782528223666 
0.02627135522883276 0.03121381024452285 0.02256349803835408 
0.04616861252520644 0.02555372107213337 -0.01348316158141249 
0.05735942104602246 0.03238630817393013 0.02498640350221004 
0.09609030915443323 0.03149596133412239 -0.05613847891964528 
0.02980779096161702 0.01053138717570854 0.04640354894771713 
0.1539566504341344 0.02661331227965578 -0.01778506053278176 
0.1516614543073435 0.01037423900062593 0.04460095151251359 
0.2025173417269586 0.0319128120691891 0.02077525467631484 
0.2565558776607943 0.0344612351323443 0.05266785767737753 
0.2442355106197219 0.03466744975242662 0.03552074763011191 
0.2300903114241816 0.01179705229421264 -0.07693102823602403 
0.3160848385662337 0.03339426339255513 0.1092487712504276 
0.3246030785134431 0.03255219488797077 -0.1439739726429473 
0.340081000007609 0.03050583733422936 0.1273843538162936 
0.375145419337202 0.02800300860916659 -0.1608784251243275 
0.3613559557153387 0.01190836065239375 0.001050146848982462 
0.3838785204345072 0.0112469103796691 0.04542878227797036 
0.3810969009491288 0.03064049415473554 0.08516139450551453 
0.3605865639015206 0.03107504710568428 0.1131146668396242 
0.4442953593304891 0.01189214045672581 -0.07808184074073279 
0.4297726033099739 0.02943584745719321 -0.1474959471634091 
0.4573486213078663 0.02972866558076693 -0.01608146392087135 
0.4807260491955986 0.03041137975145364 -0.01957282617402739 
0.4866734444351828 0.03757971280998564 -0.08215421092696265 
0.500014565948771 0.0303858917190831 -0.03779861273884683 
0.4869315620165148 0.03709800289615339 0.004444849303161399 
-0.4700826954369633 0.03150719448240259 -0.05499587965580911 
-0.4051832795518228 0.03138412055464401 -0.0168247169803981 
-0.168982657353397 0.03155961850159097 0.02583597421876441 
-0.1532180697656967 0.03257011402137863 -0.05855793419164398 
0.1717335153823989 0.03166023616205609 0.02493087874609576 
0.2431112739177868 0.03149299028488812 -0.05993656157177946 
0.1775140548103688 0.03149304254642503 -0.05573116358206624 
0.2830268184886787 0.03263268578343495 -0.1015392467348451 
0.246445746827015 0.03536783830450101 -0.008313937626944858 
0.3094081801255012 0.04252985729908586 -0.0890049962893408 
0.2816998401936304 0.04972553767571192 -0.01047242143976679 
0.2899429129601381 0.04758419005162023 0.04686099124118535 
0.3081902444867906 0.04639190196813443 0.02212867720338739 
0.3157132636042936 0.04811276036474153 -0.03955206288299216 
0.3021215790121148 0.04232384501397295 0.08856864648193942 
0.3558827603919722 0.05052725976485317 -0.1381650308606184 
0.3381900814699567 0.05224547793790871 0.1020464366296401 
0.361442369399978 0.05182718201140864 0.07207445442708442 
0.3393119821405539 0.05190006733010943 -0.03429220271530365 
0.388266689444263 0.0471147428523259 -0.0375307877530019 
0.4181680265930175 0.04512340327432068 -0.1377019921587184 
0.4268226894653554 0.03460179671128004 -0.01588034308363898 
0.4096370296037984 0.05119072466449598 0.05987538405884874 
0.4193876108176062 0.05185912731530238 -0.1158848378917413 
0.4377315226708196 0.05094793250857787 -0.1161464265938973 
0.4350390940379315 0.04941630501023776 0.05067281529562911 
0.4716774501732828 0.03141755919212374 -0.1111918208111544 
0.4652434768031334 0.04952018627293317 -0.08088993441289745 
0.4522721513911809 0.05085258758718121 -0.03550809788978008 
0.4633135156116877 0.05150343299877472 0.009043610725886789 
0.4762331803890994 0.03179876900558783 0.03484251512116002 
0.4804367636582952 0.05168064583014174 -0.03631005122888805 
0.3481318125629189 0.05163342477638338 -0.1185029382153829 
0.4174188386324604 0.05124381173929451 -0.05736177431145521 
0.4231000250205436 0.05231673118821922 0.004065193091687163 
3 35 1 0 
3 0 1 37 
3 3 35 2 
3 41 1 35 
3 2 42 6 
3 3 41 35 
3 6 5 2 
3 4 41 3 
3 2 5 3 
3 8 41 4 
3 8 51 41 
3 50 5 6 
3 50 7 5 
3 10 9 12 
3 10 12 13 
3 12 14 13 
3 73 14 18 
3 15 74 16 
3 16 76 17 
3 76 18 80 
3 18 20 80 
3 77 80 19 
3 80 20 82 
3 93 94 23 
3 97 22 21 
3 94 24 23 
3 24 99 23 
3 26 22 97 
3 26 27 24 
3 25 28 97 
3 28 26 97 
3 26 31 27 
3 28 30 26 
3 26 30 31 
3 31 0 27 
3 32 27 0 
3 29 33 34 
3 25 29 28 
3 29 35 28 
3 28 35 30 
3 35 36 30 
3 30 36 31 
3 31 36 0 
3 102 32 37 
3 37 32 0 
3 34 2 29 
3 2 35 29 
3 37 38 102 
3 33 39 42 
3 42 34 33 
3 35 0 36 
3 1 38 37 
3 34 42 2 
3 41 40 1 
3 1 40 38 
3 42 39 43 
3 44 3 5 
3 3 44 4 
3 40 41 47 
3 43 49 6 
3 42 43 6 
3 45 44 5 
3 45 48 44 
3 48 4 44 
3 8 4 48 
3 41 46 47 
3 7 45 5 
3 7 48 45 
3 51 46 41 
3 54 46 51 
3 47 46 54 
3 6 49 50 
3 116 48 7 
3 116 8 48 
3 49 52 50 
3 50 53 7 
3 50 52 53 
3 7 53 116 
3 118 8 116 
3 118 54 51 
3 118 51 8 
3 117 53 52 
3 53 117 116 
3 55 56 57 
3 57 56 58 
3 55 59 9 
3 55 60 56 
3 60 55 9 
3 56 60 11 
3 58 56 11 
3 11 63 58 
3 12 9 59 
3 12 59 61 
3 10 123 60 
3 10 60 9 
3 60 123 62 
3 60 62 11 
3 64 123 10 
3 64 10 13 
3 123 64 62 
3 62 64 65 
3 65 11 62 
3 66 63 11 
3 13 65 64 
3 67 12 61 
3 14 12 67 
3 14 65 13 
3 68 65 14 
3 11 65 68 
3 68 66 11 
3 70 68 14 
3 68 69 66 
3 68 70 15 
3 69 68 15 
3 18 14 67 
3 73 70 14 
3 73 74 70 
3 70 74 15 
3 72 69 15 
3 71 18 67 
3 16 72 15 
3 75 72 16 
3 76 73 18 
3 73 76 74 
3 17 75 16 
3 76 16 74 
3 75 17 79 
3 76 77 17 
3 77 79 17 
3 78 18 71 
3 80 77 76 
3 19 79 77 
3 81 79 19 
3 20 18 78 
3 80 82 19 
3 85 20 78 
3 82 83 19 
3 83 81 19 
3 20 85 86 
3 20 86 82 
3 86 87 82 
3 87 83 82 
3 84 81 83 
3 87 88 83 
3 90 84 88 
3 84 83 88 
3 92 86 91 
3 91 86 85 
3 87 86 92 
3 87 89 88 
3 89 130 90 
3 89 90 88 
3 87 93 89 
3 89 93 130 
3 21 94 92 
3 92 94 87 
3 94 93 87 
3 21 22 94 
3 130 93 96 
3 21 92 91 
3 21 91 95 
3 23 96 93 
3 97 21 98 
3 98 21 95 
3 94 22 24 
3 26 24 22 
3 99 100 23 
3 100 96 23 
3 101 25 98 
3 25 97 98 
3 27 99 24 
3 27 32 99 
3 32 100 99 
3 100 32 135 
3 25 101 29 
3 135 32 102 
3 101 136 33 
3 29 101 33 
3 38 139 102 
3 39 33 140 
3 140 33 136 
3 139 38 109 
3 209 39 140 
3 103 107 106 
3 107 103 108 
3 147 104 105 
3 109 38 40 
3 43 39 209 
3 110 106 107 
3 147 114 112 
3 105 114 147 
3 114 105 111 
3 105 138 111 
3 112 114 150 
3 152 110 113 
3 54 115 47 
3 155 115 54 
3 52 49 153 
3 52 153 156 
3 52 156 117 
3 155 54 118 
3 59 55 119 
3 55 57 119 
3 57 120 119 
3 57 58 120 
3 58 121 120 
3 122 59 119 
3 59 122 61 
3 124 121 58 
3 124 58 63 
3 67 61 125 
3 125 61 122 
3 66 126 63 
3 126 124 63 
3 69 126 66 
3 127 126 69 
3 175 67 125 
3 72 127 69 
3 71 67 175 
3 75 128 72 
3 128 127 72 
3 79 128 75 
3 181 128 79 
3 78 71 180 
3 180 71 175 
3 184 78 180 
3 81 183 79 
3 183 181 79 
3 188 183 81 
3 85 78 184 
3 84 188 81 
3 84 199 188 
3 129 131 85 
3 90 199 84 
3 91 85 131 
3 90 130 199 
3 130 201 199 
3 96 201 130 
3 95 91 132 
3 132 91 131 
3 98 95 133 
3 133 95 132 
3 100 134 96 
3 134 201 96 
3 205 98 133 
3 100 135 134 
3 205 101 98 
3 137 101 205 
3 137 136 101 
3 102 139 135 
3 108 103 141 
3 142 105 104 
3 142 138 105 
3 139 109 144 
3 145 141 106 
3 103 106 141 
3 108 141 146 
3 210 104 147 
3 142 104 210 
3 211 138 143 
3 109 213 144 
3 106 148 145 
3 148 106 110 
3 149 110 107 
3 146 149 107 
3 108 146 107 
3 210 147 112 
3 111 138 211 
3 40 212 109 
3 109 212 213 
3 43 209 215 
3 152 148 110 
3 150 114 111 
3 211 150 111 
3 47 151 40 
3 151 212 40 
3 113 110 149 
3 49 43 215 
3 113 214 152 
3 49 215 153 
3 220 118 116 
3 154 220 116 
3 118 220 155 
3 221 119 157 
3 157 119 120 
3 157 120 121 
3 119 221 122 
3 122 221 159 
3 158 160 159 
3 161 160 158 
3 158 162 161 
3 162 121 163 
3 124 163 121 
3 165 122 159 
3 165 159 222 
3 162 163 164 
3 160 222 159 
3 161 222 160 
3 122 165 125 
3 164 163 169 
3 163 167 169 
3 167 163 124 
3 126 167 124 
3 165 172 125 
3 165 166 172 
3 168 166 169 
3 169 167 168 
3 172 166 168 
3 167 177 168 
3 177 167 126 
3 170 172 171 
3 172 168 171 
3 127 177 126 
3 125 174 175 
3 172 174 125 
3 171 173 170 
3 172 176 174 
3 172 170 176 
3 176 170 173 
3 173 177 223 
3 128 177 127 
3 174 179 175 
3 176 179 174 
3 176 178 179 
3 176 173 178 
3 223 178 173 
3 177 181 223 
3 181 177 128 
3 224 180 179 
3 180 175 179 
3 224 179 182 
3 179 178 182 
3 178 223 182 
3 180 186 184 
3 224 186 180 
3 224 187 186 
3 187 224 182 
3 181 183 223 
3 187 182 185 
3 223 185 182 
3 223 183 185 
3 183 188 185 
3 187 189 186 
3 190 189 187 
3 185 188 190 
3 129 85 184 
3 129 184 191 
3 184 186 191 
3 191 186 189 
3 192 129 191 
3 191 193 192 
3 193 191 194 
3 191 189 194 
3 194 189 195 
3 190 195 189 
3 190 188 195 
3 188 199 195 
3 131 129 192 
3 193 194 196 
3 196 194 197 
3 194 195 197 
3 197 195 199 
3 192 198 131 
3 193 198 192 
3 199 201 197 
3 200 196 225 
3 196 197 225 
3 225 197 201 
3 132 131 198 
3 198 227 132 
3 200 227 198 
3 132 227 133 
3 226 133 227 
3 202 227 200 
3 225 202 200 
3 202 225 134 
3 134 225 201 
3 205 133 226 
3 203 204 134 
3 204 202 134 
3 134 135 203 
3 205 226 228 
3 205 228 137 
3 203 135 206 
3 207 136 137 
3 228 207 137 
3 135 139 206 
3 140 136 207 
3 142 143 138 
3 142 210 143 
3 208 206 144 
3 206 139 144 
3 209 140 207 
3 145 146 141 
3 210 211 143 
3 208 144 213 
3 112 211 210 
3 148 214 145 
3 145 214 146 
3 214 149 146 
3 211 112 150 
3 113 149 214 
3 214 148 152 
3 115 151 47 
3 215 247 153 
3 151 115 251 
3 116 217 216 
3 116 216 154 
3 251 115 155 
3 247 218 153 
3 153 218 156 
3 156 218 219 
3 156 219 117 
3 117 219 217 
3 116 117 217 
3 155 220 251 
3 221 157 158 
3 157 121 162 
3 158 157 162 
3 158 159 221 
3 161 162 164 
3 161 164 222 
3 222 166 165 
3 169 166 222 
3 164 169 222 
3 173 171 168 
3 173 168 177 
3 190 187 185 
3 193 196 198 
3 200 198 196 
3 226 227 229 
3 227 202 229 
3 229 202 204 
3 230 228 226 
3 226 229 231 
3 231 229 232 
3 229 204 232 
3 232 204 203 
3 230 226 234 
3 226 231 234 
3 231 232 233 
3 206 235 203 
3 203 235 232 
3 207 228 253 
3 253 228 230 
3 230 234 239 
3 234 231 233 
3 235 237 232 
3 236 207 253 
3 233 239 234 
3 206 208 235 
3 235 208 237 
3 209 207 236 
3 253 230 239 
3 237 213 238 
3 208 213 237 
3 212 243 238 
3 213 212 238 
3 215 209 241 
3 241 209 236 
3 236 244 241 
3 239 240 254 
3 151 243 212 
3 240 242 254 
3 240 255 242 
3 215 241 244 
3 215 244 245 
3 254 249 252 
3 242 249 254 
3 246 243 151 
3 247 215 245 
3 248 247 245 
3 249 242 216 
3 242 255 250 
3 216 242 250 
3 250 246 251 
3 255 246 250 
3 251 246 151 
3 247 248 218 
3 218 248 252 
3 217 252 216 
3 252 249 216 
3 154 216 250 
3 220 154 250 
3 220 250 251 
3 218 252 219 
3 217 219 252 
3 233 232 237 
3 239 233 238 
3 233 237 238 
3 243 239 238 
3 244 236 253 
3 244 253 254 
3 253 239 254 
3 255 240 239 
3 255 239 243 
3 245 244 252 
3 244 254 252 
3 255 243 246 
3 252 248 245 
