ply
format ascii 1.0
comment VCGLIB generated
element vertex 254
property double x
property double y
property double z
element face 500
property list uchar int vertex_indices
end_header
-0.1633400447185224 -0.4899780553314668 0.0292615204625809 
-0.1312875252557768 -0.4893949859641086 -0.03237403728949738 
-0.1632025784649165 -0.4693973979426272 -0.04865828959621396 
-0.1635224399171583 -0.4859686732807491 -0.03217211566944028 
-0.1803489049134293 -0.4695261853406437 -0.03035640550609328 
-0.1794289401496341 -0.470846791901224 0.02905500335550343 
-0.1148580332751853 -0.4695609864860716 -0.05134973124638571 
-0.1593208414290895 -0.4701815295542254 0.04824112732255562 
-0.04229023152827083 -0.4678130252328233 0.04806612910553456 
-0.0660285317879328 -0.4693871441264181 -0.04732906452231491 
-0.07442842822099126 -0.4897856507972315 -0.02680158794380839 
-0.02029428655494626 -0.4695873826349033 -0.04701137286235004 
-0.06023248270043662 -0.4898630207992757 0.03053923211975803 
-0.04290294139053753 -0.4872251404275091 -0.03314985810463936 
-0.026405283102972 -0.4777292658087203 0.03595289632320822 
-0.002120570340425903 -0.4698829762540232 0.04602591223696284 
-0.02664312250670875 -0.4898930390477632 -0.01713418198063951 
-0.007613870195275407 -0.4839897132492473 0.02865820475872976 
0.01595378031216836 -0.4671328921408535 -0.04815401546306321 
0.003434349795308485 -0.4833503084418189 -0.03211267370610783 
0.05673124048725379 -0.4761386418632296 0.0342017292180079 
0.05288361550767098 -0.4749968836497019 -0.03899646612862365 
0.08970456628030458 -0.4667034884744255 -0.03359661019196517 
0.08028295517305278 -0.4740005177491532 -0.00573337030689467 
-0.1634691156862385 -0.4339837717130096 -0.05080412661884035 
-0.1831487199331906 -0.4321401140155122 -0.03251164891782878 
-0.05982899892541795 -0.4353150681862474 -0.05140071954990187 
0.04466330306225838 -0.4340537834520045 -0.04989529103848844 
0.00231290009891104 -0.4504104802815356 0.04963073873699376 
0.05584573891057615 -0.4493183162074052 0.04752479281584562 
0.09168460114835221 -0.4493448829486503 -0.05023069995778846 
0.09570612566398606 -0.4634366417205672 -0.01163379669726464 
0.1099594978101934 -0.4687556508006158 -0.03088125169283404 
0.1096076665210792 -0.4694602611897972 0.03136185271338619 
0.110933967727256 -0.4486322769646786 0.04803050889632789 
0.140968784118531 -0.457021743557789 -0.03985154630333101 
0.1350421716598905 -0.4657105369953256 0.02936554469439972 
0.1354996725016644 -0.4493183162074052 0.0477349182021054 
0.1511405037224346 -0.449167417162653 -0.0306410068094293 
0.1519117313751755 -0.4495608786355794 0.02859108640397719 
-0.1833888395338879 -0.4209038317839077 0.02898195484153402 
-0.1313560479624337 -0.4303365045051696 -0.05155740148688531 
-0.09468675904771855 -0.4137985945057406 -0.04888516970863487 
-0.07789016251146003 -0.431680873850584 0.04929792336056348 
-0.01547734036032334 -0.4219378126385918 -0.04886702977854573 
0.01497779109368078 -0.4220652128131636 -0.04989258795367678 
0.03339147994006935 -0.4291731320124393 0.0475771469774124 
0.08461859264093077 -0.4285642560565578 -0.0489170861284443 
0.1347207672940807 -0.4295627622320154 -0.04663228575460368 
0.1116310229573679 -0.4301218110115734 0.04694839929146902 
0.1495793676640963 -0.429219330265899 -0.03107933423963793 
0.1506576289152396 -0.4292392344721832 0.009332130965104629 
0.135099658126083 -0.4225002004996045 0.034200984208968 
-0.1671445332402671 -0.4013297680235511 -0.03808974914020099 
-0.1815052169788237 -0.4095258516142413 -0.02496443195222488 
-0.1621827133704507 -0.4096934850905105 0.04711564481332427 
-0.1284669032280298 -0.4086618053459392 -0.04957741070111313 
-0.08425429097314562 -0.4107380083146381 0.04708172405576003 
-0.05914627162767534 -0.4079932825659975 -0.04824030735002724 
-0.000144915179410572 -0.4095298197237435 0.04479125752948434 
0.0687120657592851 -0.4082098667419768 0.03145798551799252 
0.1361670461934917 -0.4182205317384834 -0.02644690036788514 
0.09636358866763232 -0.4158403814772035 -0.02577231676345163 
-0.1630168683156872 -0.3929935276532488 -0.003536773913151409 
-0.1593850538754241 -0.393434220143724 0.02959840000498238 
-0.1376717360695661 -0.3933451312358457 -0.03305202626951581 
-0.09971686818909395 -0.392613046651097 -0.01202309509816407 
-0.09535596901169031 -0.3937269347157336 0.02412009913763633 
-0.07070463483220646 -0.3887161419962574 0.03159340332128666 
-0.04052619401553358 -0.3915518679048152 0.03823277626245046 
-0.006111318924537408 -0.3935524940479663 -0.03191635538175663 
-0.009344717140149977 -0.387385936083828 0.03209650501115695 
0.009336443413213335 -0.3838964548253628 -0.01092127317017783 
0.01339205388263824 -0.3983122466871758 0.001475896428060504 
0.05374654126777783 -0.4076981232895274 -0.03357571009315222 
0.01213980195355177 -0.3973684657026155 0.0279548607815326 
0.08322808364986427 -0.4096917884319107 -0.01112057956009525 
-0.08562059213047561 -0.3695363263829173 0.01033966982747422 
-0.06968150992468154 -0.396433807312157 -0.03481208032896168 
-0.0345327327635819 -0.3678561424327473 0.04001967158606842 
-0.08606366543090427 -0.3684498646836574 -0.0138392028445774 
-0.0666634253205229 -0.3650824398505949 0.03318447085003908 
-0.0237356977905901 -0.3880480423930563 -0.03890923311805413 
-0.003831512048012492 -0.3272808734414899 0.02884981541827652 
0.01024944999525553 -0.3339290769371646 0.009293118656068732 
-0.08581046681433187 -0.3283577551251909 0.0108475147232314 
-0.06681759086225351 -0.3494489815768794 -0.03443638450494135 
-0.04365713313809962 -0.3882694282213341 -0.04086600308080678 
-0.04553339297912058 -0.3489960754630517 0.03753963501145247 
-0.02384503168381076 -0.2908980597267772 -0.04048774030404809 
-0.005156445570507841 -0.332314838692093 -0.03198147855763912 
0.008823368316372034 -0.3271639770092902 -0.0112375733234602 
-0.08636701116994888 -0.3025734556408539 -0.0136840604086284 
-0.02273875430260133 -0.3300165239021234 0.03539441995133338 
-0.04386293118273569 -0.2627116254522224 0.04106169241719827 
-0.02465998245351915 -0.2662296723714442 0.0394066967087948 
0.008927168110829116 -0.2880883035939673 0.009802422834493027 
-0.06698762570383096 -0.2904966174651324 0.03331469929404324 
-0.004386047524818562 -0.2847819096208724 -0.03197342975699029 
0.01045857877393054 -0.2778853861698996 -0.01188882907147842 
-0.04341450130167578 -0.2645111944397892 -0.04266685804323944 
-0.00303979169141679 -0.2375533513497704 0.03130766151238847 
0.01540169639307512 -0.1899042221564435 -0.01185158669715894 
-0.08657075977510578 -0.1898113527517851 -0.01347524933661945 
-0.08612065125404218 -0.2674122340110082 0.01093708179518054 
-0.06716218943445863 -0.2192541558065584 -0.03656105584441704 
-0.0241470098631549 -0.1992309391782196 -0.0429855258367732 
0.01403063196260533 -0.2099763234793749 0.009159141149730914 
-0.08645583754850869 -0.1375893395926374 0.01116582639792571 
-0.0682063570258051 -0.1879310654807017 0.03411596810186035 
-0.0009814165968103669 -0.1670182211527723 0.0341296510829937 
-0.04420721505473513 -0.1748530038297583 0.04231168554649518 
-0.06859780839714305 -0.1113088925794809 0.03360247467494139 
-0.04352739652260439 -0.1030797809514341 0.04381895974789865 
-0.02317145001059134 -0.1643101981013035 0.04223199468554725 
-0.08428824579758316 -0.1084273227186243 0.01013782849828785 
-0.000244333436028773 -0.1572490328375886 -0.0363973707789035 
-0.08655580741589496 -0.08953296691259344 -0.01315309334477561 
-0.06334946997016534 -0.08214323823038244 0.03671136994777809 
-0.04332601197185078 -0.1393056554899224 -0.04554084429438195 
0.01479057197783377 -0.09013967003919975 0.02816838952821665 
0.02696413478489584 -0.08037973505582539 -0.01172046023599834 
-0.08636016057414728 -0.08690129800095771 0.01084002024442421 
-0.07221997080897412 -0.08721021666965663 0.03016429947433161 
-0.02206778499986651 -0.0332138405355665 0.0462344119719786 
-0.003738775106130142 -0.05690793857600013 0.04200148383709426 
0.01688601863269542 -0.05834981018816844 -0.03271437717977478 
0.01804691212609879 -0.03401395139605235 0.03298616509118661 
0.02593943193320791 -0.09300970570030835 0.00931535571097167 
-0.023100453373476 -0.09657470439365588 -0.04645298919309124 
0.0200576370985838 -0.02037642724170459 -0.03517943300175028 
-0.08664429610704306 0.001143636198773976 -0.01309946069423074 
-0.08692205279871057 0.006771176484434859 0.01079966221799486 
-0.06774951398045224 -0.07995780034057096 -0.03668908491239628 
-0.00211777344492089 -0.04148327636144465 -0.04372433431656689 
0.03777729783393178 -0.01552987829606385 0.009599336535405028 
-0.04423730298533066 -0.02707167234846504 -0.04626092268449852 
-0.04322381973179412 0.03224913907409713 0.044451491474732 
0.04295389629055005 0.03298806901010875 -0.01362998050363944 
-0.06951019609588838 0.01027421072997941 -0.0355601542496491 
-0.07225436086740465 0.01097639063114053 0.03049023764383562 
-0.003560120761495887 0.03717462910932361 0.0460755929668234 
0.04373220425819623 0.05295775921153295 0.009411492683270047 
-0.08419779672237618 0.03378275081804282 -0.0006264659513804142 
-0.08705369902964064 0.06052895342191933 -0.008017330333508861 
-0.07226103740979337 0.05829174127882659 -0.0322880559239568 
-0.07275954494528411 0.05307886628585459 0.02979668279740242 
0.01611704836410007 0.05111684039811216 0.03931515876083535 
0.03374303319137113 0.0575773812396058 0.02714312759117905 
-0.06321340652756856 0.04681330187324313 0.03690175276312914 
0.02557456406899465 0.06191105202620425 -0.03793079410954595 
-0.07250149848926307 0.09855637468119663 0.03078288145806006 
-0.001334178605254402 0.05067007009457047 -0.04830145075236168 
0.04227244040829113 0.08401853784919885 -0.01315948588838094 
0.008768134173650561 0.1246935600787895 0.04456041052358481 
0.04501133066633169 0.08332820454397384 0.009322105164111374 
-0.08616581950546962 0.1121619121591476 -0.01331550548811432 
-0.08570377583000978 0.09644618306977368 0.01041868934436884 
-0.02371611129950582 0.1473203722828411 0.004048506072910039 
-0.02429726183702702 0.1357990069617666 0.04940675378789026 
0.02569976361658249 0.1321966129134146 -0.03728240075284835 
0.04151327761531084 0.1457812822501349 -0.013454910017518 
-0.07039336473506497 0.1902718127651621 0.03560704273934266 
-0.04349110830096428 0.08546269230808695 -0.04793129260829523 
-0.02104474809579558 0.02852357856385817 -0.04960626089764387 
-0.03304604900574035 0.2407333038808625 -0.01168533958908188 
-0.002427357233752953 0.1818309271529281 0.04694349046334718 
0.02166774809402772 0.1770956544781152 -0.03675909478331734 
-0.06396709671577382 0.1353415171593328 -0.04013718101235256 
-0.07506046973566319 0.1946811400574188 -0.03260080615668937 
-0.04353805704585982 0.2167998643328794 0.04899929373388384 
-0.02926466320321237 0.2043577102978809 0.009753442647695985 
-0.009973888935033091 0.177294507457537 -0.05184488510767929 
-0.01906369228668944 0.2015660498733939 -0.01266375526517994 
-0.02001119877694196 0.1804525775509465 0.0004313268983244558 
0.02551247404441586 0.1586301466225671 0.03308409425966434 
-0.0644411674595966 0.2127435824259896 0.03950617947531988 
-0.08617259440091324 0.2072299452504126 -0.01158582582720999 
-0.02413974005424337 0.2692462028656912 -0.05392380920685441 
-0.003856111740157953 0.2331815010171223 -0.04872733017165701 
0.03729383614764653 0.1850696392744914 0.009745515801931573 
0.01857289846441895 0.2240498072956727 0.03263657047584771 
-0.08684988150597293 0.1991149807571157 0.01108187889425816 
-0.04384129581496261 0.2179801369183621 -0.05129212740271381 
0.02998479915502429 0.236447425688098 -0.01205445147582587 
0.02904563886887242 0.2361200453935989 0.009762532266010685 
-0.08697271984886581 0.2670486688315364 -0.01292678094853293 
-0.02168789418920289 0.270243526206151 0.01103025608447076 
0.01650443561002075 0.2641223195898645 -0.03327501933220776 
-0.06356863701281372 0.2553457430786151 -0.04365706810737865 
-0.02202928011285923 0.2938855269904315 -0.01391231613813174 
-0.03394585670042136 0.2741223491598328 0.009632675593343286 
0.01559459800547331 0.2894510569509398 0.0300902205939431 
-0.03589026056297882 0.3098206110595099 -0.0114431059988935 
-0.04250310694864501 0.2893143548700712 -0.0534030835180915 
-0.04421227936828519 0.344151936333104 0.05166696563619834 
0.02780132139750037 0.2930358619102497 -0.00439897483451316 
-0.0632310773969377 0.3350908303078143 0.04282274345842327 
-0.02083480719603515 0.3379335030048232 -0.01475212900736504 
-0.02540892976244359 0.2575790200600899 0.05156785175943963 
-0.004676523019228395 0.2786012608414577 0.04593260097243733 
0.01723999528591402 0.3331372369989541 0.0310082714516004 
0.02812767786211152 0.3396689239667418 -0.007526623483880291 
-0.08684118958341475 0.3035112143718653 0.0111171997373632 
-0.06300873587045187 0.3531323508572503 -0.04565356651555935 
-0.07757657825133975 0.2933092599362971 0.02973258325127301 
-0.0360876439813814 0.3478802509322184 0.009131402843945972 
-0.004128440197178449 0.3276749165106199 -0.04881370967929934 
-0.02068337040774374 0.3424203303356485 0.01227048715447368 
-0.004265899002727652 0.3539175006415383 0.04863343488146068 
0.01846429194418116 0.3498016221058149 -0.03314027603688919 
0.02863163051157153 0.3538449532014755 0.009332130965104629 
-0.03865032321896369 0.3663567463911115 -0.01151837275574833 
0.005439712606933466 0.4177562714000091 -0.04962044796110396 
-0.01578035962166043 0.393424268291886 0.00917001915157112 
0.01559817757049781 0.3540596514944611 0.03000789454932864 
-0.08628683621491361 0.3729251686619112 -0.01194477336942526 
-0.07645324699954421 0.3482549558525111 -0.03310279173576212 
-0.06869349842765268 0.4091706581625999 0.03879838422105086 
-0.02381651990355053 0.398662931282811 0.0142414308290896 
-0.01250169715944609 0.4286640222012098 -0.01110784869383032 
-0.02332329545546507 0.4063718944466665 0.05493888004673822 
0.01936909125418649 0.3810129573009375 0.03221340119369136 
0.03334569281943212 0.4012437558748163 0.009533629635800329 
-0.02265136971727432 0.4437663392553574 -0.05808621897671732 
-0.08720404701198441 0.394068195199804 0.01025495339273941 
-0.04418890774475775 0.3769227136340049 -0.05450753385563212 
-0.0433997471631697 0.4719748331277215 0.05227843983891521 
-0.04067486565779659 0.4344004566334155 -0.01179663900577198 
-0.03920301654398842 0.4341612801423635 0.009332130965104629 
-0.01124648703419288 0.4300509515152007 0.01258454111234747 
0.02834437687124193 0.4451200909107637 -0.03326137557812706 
0.03428040521847748 0.4153176619901726 -0.01062042496447159 
-0.08531439252499695 0.4688671042728149 -0.008591816249764824 
-0.08482666965098383 0.4729008027659408 0.009218387733858489 
-0.07283099602312613 0.4528211474686819 -0.03914142628765514 
-0.07147815356027744 0.4751255322635869 0.03443126744146204 
-0.02425960810057287 0.4493898570410196 -0.01530101649565757 
-0.01861968325499689 0.4467956592302129 0.008782076193763061 
0.02751057791810449 0.4739929344434046 -0.0394747648136734 
0.001892446981770634 0.4311110514520877 0.05026230629384494 
0.04321974416020014 0.453474249331577 -0.001402669031692392 
-0.02474292060176571 0.4806802420524016 0.03697983445813328 
-0.01165825443375952 0.4691691957049828 0.05294045206941764 
-0.003495986960940151 0.4752355760811566 -0.0566775563323863 
0.03052556840853814 0.4711146542196427 0.03412336905132788 
-0.05398715681253659 0.4718665537829638 -0.04811368471894484 
-0.05483459602732013 0.4937167378761211 -0.02458608900656782 
-0.05315686281480649 0.4962717914296741 0.02443856703321619 
-0.0279232751636099 0.4951188604115864 0.01043021139776342 
0.01002638727395783 0.4928743573806034 -0.03151859994005357 
0.0162623222218693 0.4956075296898244 0.006811353266826136 
0.00936668257342956 0.4917076428120172 0.03166213556111225 
0.03901390317785581 0.4772767936819513 -0.004499917575948952 
3 0 1 10 
3 12 0 10 
3 16 12 10 
3 16 17 12 
3 2 3 4 
3 4 3 5 
3 0 7 5 
3 2 6 1 
3 3 2 1 
3 0 3 1 
3 5 3 0 
3 0 12 7 
3 6 9 10 
3 1 6 10 
3 8 7 12 
3 9 11 13 
3 10 9 13 
3 13 16 10 
3 17 14 12 
3 8 12 14 
3 13 11 19 
3 13 19 16 
3 14 17 15 
3 11 18 19 
3 23 20 19 
3 19 20 16 
3 16 20 17 
3 17 20 15 
3 19 18 21 
3 21 23 19 
3 23 33 20 
3 22 23 21 
3 23 31 33 
3 24 2 4 
3 25 24 4 
3 25 4 40 
3 5 40 4 
3 5 7 40 
3 6 2 41 
3 41 2 24 
3 9 6 26 
3 26 6 41 
3 8 43 7 
3 11 9 26 
3 15 28 14 
3 28 8 14 
3 21 18 27 
3 20 29 15 
3 29 28 15 
3 22 21 30 
3 30 21 27 
3 34 29 20 
3 22 31 23 
3 33 34 20 
3 22 30 32 
3 22 32 31 
3 31 36 33 
3 31 32 36 
3 32 30 35 
3 35 36 32 
3 33 36 37 
3 34 33 37 
3 36 35 38 
3 39 36 38 
3 36 39 37 
3 7 55 40 
3 43 55 7 
3 26 41 42 
3 11 26 44 
3 45 11 44 
3 28 43 8 
3 18 11 45 
3 46 43 28 
3 27 18 45 
3 29 46 28 
3 30 27 47 
3 34 49 29 
3 49 46 29 
3 48 30 47 
3 35 30 48 
3 37 52 34 
3 52 49 34 
3 50 38 35 
3 48 50 35 
3 38 50 39 
3 39 50 51 
3 39 51 52 
3 37 39 52 
3 53 24 25 
3 54 53 25 
3 54 25 40 
3 41 24 56 
3 56 24 53 
3 43 57 55 
3 42 41 56 
3 26 42 58 
3 69 57 43 
3 44 26 58 
3 59 69 43 
3 46 59 43 
3 27 45 74 
3 60 59 46 
3 47 27 74 
3 49 60 46 
3 62 47 74 
3 76 60 52 
3 48 47 62 
3 61 48 62 
3 76 52 62 
3 52 60 49 
3 61 62 52 
3 50 48 61 
3 51 50 61 
3 52 51 61 
3 53 54 63 
3 54 40 64 
3 63 54 64 
3 40 55 64 
3 65 56 53 
3 65 53 63 
3 57 64 55 
3 42 56 65 
3 78 42 65 
3 78 65 66 
3 65 63 66 
3 66 63 67 
3 63 64 67 
3 67 64 57 
3 42 78 58 
3 68 67 57 
3 87 58 78 
3 69 68 57 
3 44 58 82 
3 82 58 87 
3 59 71 69 
3 70 44 82 
3 75 71 59 
3 45 44 70 
3 72 73 70 
3 71 75 73 
3 74 45 70 
3 74 70 73 
3 60 75 59 
3 73 75 60 
3 74 73 76 
3 73 60 76 
3 76 62 74 
3 66 67 80 
3 67 77 80 
3 67 68 77 
3 66 80 78 
3 77 68 81 
3 69 79 68 
3 79 81 68 
3 71 79 69 
3 71 83 79 
3 73 72 84 
3 73 84 83 
3 71 73 83 
3 77 85 80 
3 78 80 86 
3 85 77 81 
3 87 78 86 
3 79 88 81 
3 93 88 79 
3 90 70 82 
3 79 83 93 
3 90 72 70 
3 80 85 92 
3 80 92 86 
3 97 85 81 
3 88 97 81 
3 82 87 89 
3 89 90 82 
3 91 72 90 
3 72 91 84 
3 87 86 100 
3 100 86 105 
3 88 94 97 
3 89 87 100 
3 93 94 88 
3 85 104 92 
3 86 92 105 
3 104 85 97 
3 93 95 94 
3 98 90 89 
3 93 83 95 
3 99 91 90 
3 98 99 90 
3 91 99 84 
3 84 99 96 
3 84 96 83 
3 95 83 96 
3 96 99 107 
3 95 96 101 
3 99 98 102 
3 99 102 107 
3 96 107 101 
3 92 104 103 
3 89 100 106 
3 98 89 106 
3 92 103 105 
3 109 104 97 
3 100 105 119 
3 94 109 97 
3 106 100 119 
3 95 114 94 
3 98 106 116 
3 101 114 95 
3 98 116 102 
3 94 111 109 
3 114 111 94 
3 101 110 114 
3 101 107 110 
3 104 108 103 
3 108 104 109 
3 105 103 133 
3 106 119 129 
3 116 106 129 
3 103 108 117 
3 103 117 133 
3 112 108 109 
3 111 113 109 
3 113 112 109 
3 114 113 111 
3 120 110 107 
3 107 102 128 
3 107 128 120 
3 108 115 117 
3 115 108 112 
3 114 124 113 
3 110 124 114 
3 115 122 117 
3 123 115 112 
3 122 115 123 
3 112 118 123 
3 119 105 133 
3 113 118 112 
3 116 129 134 
3 110 125 124 
3 134 126 116 
3 116 126 102 
3 110 120 125 
3 102 121 128 
3 119 133 136 
3 129 119 136 
3 120 127 125 
3 102 126 121 
3 120 128 127 
3 117 122 131 
3 122 132 131 
3 117 131 133 
3 132 122 123 
3 126 134 130 
3 128 121 135 
3 128 135 127 
3 133 131 139 
3 140 132 123 
3 123 118 140 
3 113 137 118 
3 129 136 164 
3 124 137 113 
3 134 129 164 
3 126 130 121 
3 121 130 138 
3 121 138 135 
3 118 149 140 
3 137 149 118 
3 134 164 152 
3 125 141 124 
3 130 134 152 
3 127 141 125 
3 136 133 139 
3 130 152 150 
3 131 143 139 
3 143 145 139 
3 132 143 131 
3 132 140 143 
3 136 139 163 
3 164 136 163 
3 127 147 141 
3 138 130 150 
3 135 138 142 
3 143 146 144 
3 144 145 143 
3 143 140 146 
3 140 149 146 
3 148 127 135 
3 127 148 147 
3 135 142 148 
3 146 151 144 
3 168 139 145 
3 163 139 168 
3 153 138 150 
3 138 153 142 
3 142 153 155 
3 142 155 148 
3 144 157 156 
3 144 151 157 
3 144 156 145 
3 146 149 151 
3 124 159 137 
3 141 159 124 
3 149 162 151 
3 137 170 149 
3 170 162 149 
3 159 170 137 
3 141 154 159 
3 150 152 160 
3 147 154 141 
3 150 160 153 
3 148 175 154 
3 147 148 154 
3 160 161 153 
3 153 161 155 
3 148 155 175 
3 169 168 145 
3 145 156 169 
3 155 161 180 
3 175 155 180 
3 157 182 156 
3 162 157 151 
3 182 157 162 
3 152 164 172 
3 154 166 159 
3 160 152 172 
3 160 167 161 
3 156 182 177 
3 163 168 183 
3 170 176 162 
3 164 163 172 
3 172 163 183 
3 173 165 158 
3 158 165 171 
3 159 199 170 
3 158 174 173 
3 166 199 159 
3 160 172 167 
3 154 175 166 
3 161 167 180 
3 169 156 177 
3 158 171 174 
3 189 168 169 
3 176 182 162 
3 183 168 189 
3 172 183 178 
3 179 172 178 
3 167 172 179 
3 175 181 166 
3 175 180 181 
3 180 167 184 
3 177 182 186 
3 177 186 169 
3 205 182 176 
3 171 187 174 
3 167 179 188 
3 167 188 184 
3 180 184 185 
3 180 185 181 
3 182 203 186 
3 182 205 203 
3 183 189 194 
3 178 183 194 
3 190 165 173 
3 171 165 191 
3 171 191 187 
3 174 187 173 
3 200 199 166 
3 181 200 166 
3 217 189 169 
3 169 186 217 
3 181 192 200 
3 184 188 196 
3 184 196 185 
3 181 185 192 
3 204 189 217 
3 176 197 205 
3 194 189 204 
3 195 197 170 
3 197 176 170 
3 193 165 190 
3 165 193 191 
3 187 191 208 
3 195 170 199 
3 179 178 207 
3 173 187 190 
3 188 179 207 
3 185 196 192 
3 191 193 206 
3 191 206 208 
3 198 193 190 
3 190 187 198 
3 187 208 198 
3 210 188 207 
3 210 196 188 
3 186 203 216 
3 186 216 217 
3 194 204 226 
3 178 194 224 
3 224 194 226 
3 178 224 207 
3 192 201 200 
3 196 210 202 
3 192 196 201 
3 201 196 202 
3 212 193 198 
3 193 212 206 
3 224 213 207 
3 209 199 200 
3 215 209 201 
3 201 209 200 
3 215 201 211 
3 211 201 202 
3 203 225 216 
3 203 205 225 
3 225 205 218 
3 205 197 218 
3 218 197 195 
3 208 206 219 
3 199 221 195 
3 198 208 220 
3 208 214 220 
3 208 219 214 
3 209 240 221 
3 199 209 221 
3 210 207 213 
3 215 222 209 
3 209 222 240 
3 202 210 232 
3 202 232 211 
3 211 232 223 
3 215 211 222 
3 222 211 223 
3 228 212 198 
3 212 228 206 
3 222 223 245 
3 227 218 195 
3 221 227 195 
3 213 224 244 
3 214 230 220 
3 214 219 230 
3 222 245 240 
3 237 228 198 
3 206 228 229 
3 219 229 230 
3 206 229 219 
3 237 198 220 
3 230 238 220 
3 213 244 231 
3 231 210 213 
3 232 210 231 
3 233 235 216 
3 216 225 233 
3 225 234 233 
3 235 204 217 
3 216 235 217 
3 236 225 218 
3 234 225 236 
3 226 235 246 
3 204 235 226 
3 236 218 227 
3 224 226 246 
3 228 238 229 
3 237 238 228 
3 229 238 230 
3 221 243 227 
3 238 237 220 
3 240 243 221 
3 231 244 239 
3 231 241 232 
3 232 241 223 
3 223 241 245 
3 233 246 235 
3 246 244 224 
3 227 243 242 
3 240 245 243 
3 253 241 231 
3 239 253 231 
3 241 253 245 
3 246 233 247 
3 233 234 247 
3 247 234 248 
3 234 236 248 
3 227 248 236 
3 246 247 244 
3 244 247 250 
3 248 242 249 
3 242 248 227 
3 249 252 251 
3 242 252 249 
3 243 252 242 
3 239 244 250 
3 245 252 243 
3 239 250 253 
3 253 250 251 
3 245 251 252 
3 245 253 251 
3 247 248 249 
3 251 250 247 
3 251 247 249 
