ply
format ascii 1.0
comment VCGLIB generated
element vertex 254
property double x
property double y
property double z
element face 500
property list uchar int vertex_indices
end_header
-0.1053654007446634 -0.04269876861672411 0.3068009440029758 
-0.07684389848049386 -0.05256067103263132 0.07575921223703082 
-0.04030091808142042 -0.05464637406688661 0.2131297454133203 
-0.02304631790054694 -0.038142192262837 0.0813880689871502 
-0.06093409854232684 -0.05407918280622257 0.2921392034379397 
-0.04061685647505105 -0.04419898581142162 0.4354952300098377 
0.009924085585652078 -0.05610077980684088 -0.01536584698323453 
0.007643443832963778 -0.05224107803734831 0.1157318236104065 
0.05158799387372291 -0.05765402770829237 0.1882483183042946 
0.01725872114068315 -0.05585122146357002 0.1027459304463058 
0.03563852569145756 -0.05457261535430574 0.2695908578814629 
0.03455107416050496 -0.05651390829001959 -0.05727322069700807 
0.06566838975157387 -0.0555123751732816 0.3862983061436788 
0.1117459928842088 -0.05518694344014761 0.3233483211767025 
0.1075232662052457 -0.05204880229084752 0.4181275357482069 
0.06041536501733766 -0.04015553062287652 0.4235843771907894 
0.09365218766243549 -0.05579892959677286 -0.03945268543516909 
0.09584896746174348 -0.05451891779912667 0.1392888412436923 
-0.1388215076403882 -0.03536360393880447 -0.2521786666915009 
-0.1490371843242641 -0.04091544281388797 -0.2064042677462609 
-0.14123742455008 -0.03257140336380536 -0.1693256234734712 
-0.09599079590831787 -0.03114900317899714 -0.2795421605544905 
-0.1142542663064655 -0.03480817378822847 -0.1102317891162945 
-0.1052122187199732 -0.0315699637127427 0.06768489144758121 
-0.1097453729189449 -0.03658901931210392 0.2461412632227724 
-0.103880331759676 -0.05050219583144201 -0.2278106715168465 
-0.1008503809241457 -0.02703154169211282 -0.009719185103327276 
-0.08281608919559594 -0.0515313212741056 0.2184026251196388 
-0.08974630454950522 -0.0324401774501001 0.4408938569651358 
-0.04553476178643164 -0.03129631991132552 -0.3164541065192919 
-0.05864612103103459 -0.03262617012033465 -0.2399476329587801 
-0.03234510088094303 -0.03533088088731538 -0.1420064954117949 
-0.08678445019759437 -0.04059465356369974 -0.1481676585817594 
-0.07987688234064295 -0.04028227379228862 -0.05878200771420045 
-0.07920255086280109 -0.04069365033920309 0.04160827117359404 
-0.06583666979875238 -0.05307342237390606 0.4291598845387925 
-0.04416053677646894 -0.05144978266286107 -0.1006426983327159 
-0.02813196959398145 -0.04277541004020505 0.05869116439768692 
-0.02745166685301891 -0.02380195754280518 0.2995291458009733 
-0.03627133133571281 -0.04289460727373084 0.3393283153799733 
-0.02302416610542408 -0.03784775902256291 -0.3561645506263152 
0.01344392569134143 -0.04094881075223052 -0.2970836659475097 
-0.02341431603223078 -0.04369220221711584 -0.2487483716959774 
-0.02967548689610174 -0.04159198942168128 -0.04357120545092323 
-0.01457109631758334 -0.01866986175672019 0.4030652214595738 
-0.01237693202035595 -0.03309082326321276 -0.4860178213866398 
-0.02058646243701917 -0.03708928905795171 -0.4057750622871031 
0.01532700078875034 -0.03130862092851564 -0.3440239385607047 
-0.01510832177682628 -0.04327283848898268 -0.1674832110372819 
0.01501703258080561 -0.04368722235561108 -0.09380141630377521 
-0.004442083465157747 -0.05296794252600002 0.1647837468896387 
0.01665494665884594 -0.03815108862633116 -0.4696955763381598 
0.03450859783990552 -0.04483536450493245 -0.2421287587217696 
0.09233297673616636 -0.04450004194397509 -0.151622819722947 
-0.002779487065355241 -0.03180629960779294 0.2073755613572063 
0.01354675750554525 -0.04958897522401613 0.2051940147789378 
0.01554896897220225 -0.02745520024452568 0.3122405914170607 
0.0213046844132582 -0.03107522997440621 -0.4791721612878713 
0.03462438196569947 -0.03844956239654579 -0.4019528640775861 
0.03245390688277287 -0.04309477280891322 -0.3031219687529261 
0.0488598838270859 -0.04856993269706143 -0.2058957327485574 
0.08003581714543791 -0.02981879432622606 -0.4031291475700138 
0.05632979743751565 -0.03234907524004287 -0.3390841044536057 
0.05495978706061923 -0.04062054518953685 0.4607512025198908 
0.08753815613553231 -0.04336709075430529 -0.3135859303263864 
0.08562795631030067 -0.04467644250501343 -0.1938336573024147 
0.122183662839702 -0.03347416812839352 -0.3231434545256371 
0.1233981496940996 -0.0375464633582752 -0.2399488994163955 
0.1071714000013356 -0.05506047941087606 0.4836539059707176 
0.1141917668446157 -0.04966129493391738 -0.1233226773829661 
0.1292774978144197 -0.02036467241787342 0.4826138643494476 
0.119943900101974 -0.0330462781809202 -0.1585362711836096 
0.124267997392399 -0.03532667044614721 -0.004158208775070987 
0.1233852973508129 -0.03405903473988473 0.1038850464705469 
0.1258924146310345 -0.04008605050056827 0.237446245590833 
0.1343380260610308 -0.03721294993318384 0.3236904542291827 
0.1434285115246948 -0.03383325977143301 0.4027640452176824 
0.1319454274901576 -0.02927062681558021 0.4520683160019949 
-0.1657713148899273 -0.002968139283042551 -0.2140907522831544 
-0.1186234919590549 -0.008825655838237354 -0.2871316087313263 
-0.09747760601002763 -0.01033631996251424 -0.3376065396282075 
-0.1135750194444017 -0.01025020314240019 -0.01884219049962779 
-0.1170805855158019 0.002294276178125081 0.06511518316579336 
-0.1072073707379905 -0.02679426890090766 0.1317563862636177 
-0.1198715676605769 -0.008890039981382219 0.2313129225732585 
-0.1224363406094749 -0.00903586588653487 0.3208681496760489 
-0.08673048087382033 -0.01239996410446555 -0.4205165386141215 
-0.07973863521344438 -0.03007612544540372 -0.3714524224013817 
-0.05067001092873562 -0.0340563253808058 -0.456496664073002 
-0.05317646793423707 0.00488502988834603 -0.4813737181120075 
-0.06544976566278379 -0.009187661537323762 0.247911314260904 
-0.06347928397531361 -0.0106226149213851 0.09264008920982358 
-0.06843755125074769 -0.01197781476297522 0.2151849966287932 
-0.02910065017643954 -0.01338048263874904 0.1448696973247898 
-0.02469325272422626 0.001293852155654364 -0.4967025049160757 
-0.006512569858915991 -0.03628182911088312 -0.06605150832425828 
-0.01036150282887451 -0.01251376947559298 0.2281922273751943 
-0.002637914013979723 -0.01196135735995351 0.3345692247862992 
0.01216532079090997 -0.009883087204710584 -0.01726088551018219 
-0.003215443626941306 -0.003247019839432014 0.2216754697976132 
0.007488804705384919 0.001643859745243375 0.3092199456351795 
0.01512809748911724 -0.008523575653111345 0.3446090791332294 
0.04664946625211688 -0.01603947786533666 -0.04456381935899831 
0.02476728687778068 0.003763207766330302 0.01727544591379541 
0.03712836751018839 -0.01715909818467419 0.04473376192560945 
0.02461033719204869 -0.009369385069870811 0.08393003000714525 
0.02819462266601588 -0.01349838570209046 0.1209527407850335 
0.03222705917422495 -0.02746494331374704 0.3942137313868811 
0.06905573288214983 -0.01287664208622947 -0.4541504264656608 
0.04261188623685608 -0.009427637754922337 -0.07944619910770678 
0.03843223882422814 -0.01492717269667625 0.2001959150131096 
0.05089422997208698 -0.01395827791029509 0.2878293830334315 
0.06980036050046017 -0.02446073652413593 0.4904278115630494 
0.07479896921296597 -0.01730856849662398 -0.06991140366363402 
0.07480352603464327 -0.01710116540878838 0.127995086812425 
0.07424769969429015 -0.01752457731401843 0.3048597331203772 
0.06942151617749596 -0.01090006994708004 0.3788001478115431 
0.1076982834883779 -0.01149755074435351 -0.3948536999565856 
0.09072497390578807 -0.00907795420876473 0.05314166644687496 
0.08938142864299829 -0.009363305319502354 0.1053686101844196 
0.09774883725419743 -0.009351476548587688 0.21172330113982 
0.1015562490947073 -0.01356153273466155 0.314777564791179 
0.1083816076161932 -0.01170110707533887 0.3995416399709957 
0.1388942362716157 -0.012358865204663 -0.3170511943409207 
0.1395509970638771 -0.009803002497871947 -0.2214546948305987 
0.1379088256774698 -0.02946976549442093 -0.1304215147902554 
0.1375466200887949 0.0001170178901280912 0.08368832536745986 
0.1392451846902387 0.002549268843213449 -0.01758709449766389 
0.158176885994904 0.001513390662075976 0.3899987531641939 
0.1442765275353119 0.007290247931414191 0.4462370799167683 
-0.1503739207615382 0.01694854137250841 -0.1757494735510624 
-0.1460582800788622 -0.004639010645502688 -0.2582301468354606 
-0.1385318107508751 -0.004820414132121399 -0.1159632996168867 
-0.1156360842589555 0.01110784138097029 -0.02898799821315885 
-0.1091786985001589 0.0001126323114085114 0.03351441104214252 
-0.1120409501087627 0.01196521432009033 0.1376983646599901 
-0.1254609631754574 0.01276804193132858 0.2974100732362664 
-0.09291678683765471 0.01165385590695844 -0.3413043678444474 
-0.1041966028081379 0.001431806634808555 0.4337916992627253 
-0.06877058454578915 0.01478366823152707 0.1444983485245797 
-0.06535091270222285 0.01331599109000866 0.2357513060840681 
-0.06876102211096768 -0.01697411069839462 0.460624538857045 
-0.0526812262682303 0.01127959272786904 0.1061152751341884 
-0.009553292964041907 0.0126429377961187 0.4395707712186254 
-0.01304197440055515 -0.0007037704480236656 0.2513481337603055 
-0.00585556650494316 0.01537387175572459 0.3353697483840513 
-0.01443655334300765 0.01990993706637941 0.3850584374947464 
0.01434732116597703 0.001963986870389035 -0.4948480611952 
0.01066540237235972 -0.01052820535943183 0.1557412753517627 
0.01401758130696132 0.02760214543361508 0.3140341541920063 
0.05229681223627655 0.01778112392586177 -0.466789614582917 
0.02740568121371035 0.01748184503288768 0.03510249025379682 
0.02936460380362565 0.01783055168799174 0.09863498882107223 
0.0346377224294882 0.002324043270677312 0.1351954007843492 
0.01728771462704678 0.01299918251678363 0.3430062632637927 
0.05533925526393577 0.01534778044207352 -0.07985102144344634 
0.03411222589954319 0.01762238343934974 -0.02437450281477712 
0.0350658082454809 0.01535164359923245 0.184956854001622 
0.05708773483456547 0.01096124578575431 0.491925842744962 
0.08402055733792083 0.01772990526393786 0.4235268538771255 
0.0897109623679279 -0.006776717649410744 -0.1099774699289032 
0.09667394201178946 -0.009877398919895346 -0.07297724548589667 
0.09039921347231708 0.01193172868710769 -0.005283705288144327 
0.08957768401517958 0.01189461753878861 0.09315619515589936 
0.09702605197668634 0.01215950756990508 0.1842031195952201 
0.1054024221966681 0.01102619456121663 0.4156858390208935 
0.1193130604001794 0.03022402364306792 0.4933012966746039 
0.09144322182401937 0.01774261588757874 -0.4286900227144281 
0.09758368333863031 0.01308085161319253 -0.07409989654141172 
0.1032859033801228 0.01594624264479364 0.3047217246534265 
0.1412074577235825 -0.00166715145633335 0.1882176236476961 
0.1476908021234307 0.008028813898455868 0.3103061630708491 
-0.1138247130924185 0.02697094776616137 -0.2837945993750794 
-0.1265583477209246 0.04122452180679283 -0.1592850720161238 
-0.1025260817511658 0.03082199896597513 0.05239561531391804 
-0.1033102708012832 0.03406261141542832 0.1456714120113718 
-0.08799486730292962 0.02324277859334184 -0.4074546145144688 
-0.1056134987631604 0.0351610618311019 -0.05234153298437889 
-0.05896796343882057 0.03877800733678096 -0.1630463840449306 
-0.04737574512215009 0.01520329982842744 0.1817614776021667 
-0.04800669606811319 0.03539232706487997 -0.4693849426974889 
-0.03337602298907543 0.03241918569898335 -0.3180481701920643 
0.0156226362195228 0.02917614870242139 -0.3290971996600417 
0.03692837198207786 -0.0002949301695859691 0.4586999636544011 
0.07531791190730489 0.01934792198909034 0.03301029670487291 
0.05994613672622464 0.0178021241946273 0.3322864026525841 
0.07924275479196241 0.01888213051045086 -0.07816366540559977 
0.0659575387203301 0.0212758774948675 0.1358738113360169 
0.06520591738588427 0.02105334578029137 0.2224072872673722 
0.05639121653353312 0.04675409232879954 0.4639266128097235 
0.1072659435827115 0.05444501635136832 0.476967918781759 
0.1212922485542067 0.03863291268762754 -0.3354952070392459 
0.1076119921771594 0.02264137043677757 -0.3893811164024407 
0.13863281319469 0.01384815575546446 -0.3281922121807957 
0.1395319104509875 0.02033489654908169 -0.2308109426288915 
0.1388267222082503 0.005423809639170246 -0.1606500923840582 
0.1487317461369752 0.01640442771825145 -0.1303793250257573 
0.1238683140814679 0.03934266303778229 -0.03286710937715264 
0.1238108572428696 0.03819950938475355 0.1005831659964249 
0.1402903053858218 0.03486897166467843 0.3250190662760606 
-0.1555335158585874 0.03921676362493903 -0.2176225841064129 
-0.1245030234795561 0.05234538613579412 -0.2240129864071085 
-0.1129362122370592 0.03882180515196079 0.2993766349477459 
-0.04912199402211617 0.03153278022873352 -0.212523231888419 
-0.07928052952948506 0.04525823249238574 -0.05371284280979887 
-0.06450006488599382 0.05579274319782965 0.0753900311660787 
-0.07666618667090369 0.05405551521190983 0.1161903863042659 
-0.09120286643878357 0.03366136083093235 0.4399861646997653 
-0.07529788684362622 0.03194313707880807 -0.3338759987218237 
-0.06114448492423551 0.03463391313193423 -0.2436369317554253 
-0.06185026115356365 0.05201272483059891 -0.09432489377411281 
-0.06762254952510409 0.05569994804115868 0.4011780589249563 
-0.05163031737911475 0.04544788353741286 0.4481510584978353 
-0.03519524587185353 0.04208869559801467 -0.3836275106426288 
-0.02498781085927714 0.04334944270226444 0.03324256829631857 
-0.03817653344939348 0.04478527910391478 0.2825002052905659 
-0.05606476397709836 0.05611814760982282 0.306104532464649 
-0.04189501959107009 0.05051207680771135 0.3888015605379487 
-0.006763603959344148 0.04234245037762794 -0.1026836704681929 
-0.01528130589730433 0.04566640130717379 0.08333708984479404 
-0.02724885983410402 0.05570096945211549 0.1806042067475763 
-0.01279074939529907 0.03738339291960679 -0.4078223874085979 
-0.01040846946360163 0.04699061134690146 -0.2238467982080503 
-0.01674410423187623 0.04628653946372065 -0.1698664488613764 
-0.01814240611269407 0.04129731493563182 -0.03536937288052418 
-0.002530139719993992 0.03455675869255052 0.1329695134422378 
5.523345668483902e-05 0.04041115289543372 0.1969928618390614 
0.005056268063639757 0.03978939808755765 -0.4842744365385067 
0.02437728443188181 0.04206745938355827 -0.4409105283685625 
-0.01044290575102672 0.0458903985862956 -0.2897109242662274 
0.01217434833907578 0.03558834557321933 -0.3515866665937877 
0.02770285984155324 0.05739573982535121 0.2176264110113266 
0.07534887352704946 0.03619915631098004 -0.349919296814225 
0.03996818879397263 0.05158896192536244 -0.204724376509668 
0.05329605527795907 0.0469840001045676 -0.1151873339988946 
0.08203445453330341 0.04768560513758219 -0.2242082115470145 
0.0468717762573939 0.03813619207726644 0.4394177967278223 
0.09065506157111068 0.04728657478831383 -0.3172003945131661 
0.1035436325702011 0.04504168259302991 -0.1630327046249559 
0.1043651943217147 0.05919057629742891 -0.1147579840042517 
0.1109016821008534 0.0560598658502798 0.2649217262308207 
0.1152932983415892 0.05751758305059115 0.3982296097046205 
0.1419189606527511 0.03767655245619331 0.4047394790665331 
0.139076951651812 0.03567664163955528 0.4582116519061502 
-0.08593249059947679 0.05454137294389979 0.2734752047966769 
-0.04131340920988805 0.05660037466501349 0.2243600550900095 
0.01390429432969002 0.05895110274476602 0.1418401426713465 
0.01110806463425704 0.05925653120132889 -0.02144885460972586 
0.01469101003542345 0.05934484093943768 0.06243890255425371 
0.06615400256909006 0.05999998178708816 0.2601899041666681 
0.04405796803481717 0.05594255894377897 0.3216916464418703 
0.08634272793833943 0.05868213225307555 0.01565904341370437 
0.09392559972477596 0.05716028851884223 0.1041197555806728 
0.08144995707001566 0.05796454810371261 0.4079469471187239 
3 2 4 27 
3 1 50 2 
3 7 50 1 
3 50 7 8 
3 9 8 7 
3 55 8 10 
3 11 16 6 
3 6 16 9 
3 16 8 9 
3 8 12 10 
3 17 12 8 
3 11 69 16 
3 16 17 8 
3 12 17 13 
3 13 14 12 
3 63 15 14 
3 63 14 68 
3 13 17 74 
3 21 25 18 
3 18 25 19 
3 25 32 19 
3 19 32 20 
3 32 22 20 
3 32 33 22 
3 22 33 26 
3 23 34 1 
3 23 1 83 
3 1 27 83 
3 83 27 24 
3 0 24 27 
3 28 0 35 
3 21 29 30 
3 21 30 25 
3 30 31 25 
3 25 31 32 
3 32 36 33 
3 33 34 26 
3 27 1 2 
3 4 0 27 
3 35 0 4 
3 28 35 141 
3 31 36 32 
3 36 43 33 
3 33 37 34 
3 1 34 3 
3 34 37 3 
3 38 39 4 
3 4 5 35 
3 39 5 4 
3 35 5 141 
3 88 45 51 
3 51 46 88 
3 46 40 88 
3 88 40 87 
3 87 40 29 
3 41 42 29 
3 29 42 30 
3 42 48 30 
3 30 48 31 
3 31 95 36 
3 95 43 36 
3 33 43 37 
3 4 2 96 
3 38 4 96 
3 5 39 44 
3 51 58 46 
3 46 47 40 
3 40 41 29 
3 52 60 42 
3 42 60 48 
3 48 49 31 
3 31 49 95 
3 95 6 43 
3 6 37 43 
3 37 9 3 
3 1 3 7 
3 3 9 7 
3 50 54 2 
3 96 2 54 
3 51 45 57 
3 58 47 46 
3 41 52 42 
3 48 53 49 
3 11 6 95 
3 9 37 6 
3 55 50 8 
3 55 54 50 
3 54 55 56 
3 58 62 47 
3 41 47 59 
3 59 47 62 
3 59 52 41 
3 60 53 48 
3 11 95 49 
3 56 55 10 
3 56 10 107 
3 51 61 58 
3 61 62 58 
3 62 64 59 
3 59 65 52 
3 65 53 60 
3 11 49 53 
3 107 10 12 
3 15 107 12 
3 64 65 59 
3 52 65 60 
3 69 11 53 
3 14 15 12 
3 64 62 61 
3 64 61 66 
3 64 67 65 
3 63 68 112 
3 66 67 64 
3 67 71 65 
3 65 71 53 
3 71 69 53 
3 69 72 16 
3 16 73 17 
3 72 73 16 
3 73 74 17 
3 125 69 71 
3 72 69 125 
3 74 75 13 
3 13 76 14 
3 77 14 76 
3 68 14 77 
3 70 68 77 
3 76 13 75 
3 131 18 78 
3 18 19 78 
3 19 130 78 
3 18 131 79 
3 20 130 19 
3 132 20 22 
3 132 22 81 
3 21 79 80 
3 21 18 79 
3 22 26 81 
3 134 23 82 
3 23 83 82 
3 83 24 84 
3 84 24 85 
3 24 0 85 
3 28 85 0 
3 85 28 138 
3 86 87 80 
3 21 80 87 
3 34 81 26 
3 134 81 34 
3 34 23 134 
3 28 141 138 
3 89 88 86 
3 87 86 88 
3 29 21 87 
3 91 92 93 
3 179 92 90 
3 88 89 45 
3 45 89 94 
3 5 143 141 
3 40 47 41 
3 96 54 99 
3 144 38 96 
3 97 38 144 
3 38 97 39 
3 39 97 44 
3 97 101 44 
3 143 5 44 
3 57 45 147 
3 147 45 94 
3 54 56 99 
3 56 100 99 
3 100 56 97 
3 101 97 56 
3 103 104 98 
3 104 102 98 
3 103 105 104 
3 105 106 104 
3 106 148 110 
3 56 107 101 
3 107 63 183 
3 108 61 51 
3 108 51 57 
3 109 102 113 
3 113 102 104 
3 104 106 114 
3 114 106 110 
3 15 63 107 
3 112 183 63 
3 109 113 160 
3 113 104 114 
3 114 110 115 
3 110 111 115 
3 111 116 115 
3 108 117 61 
3 160 113 161 
3 118 161 113 
3 114 118 113 
3 119 118 114 
3 120 119 114 
3 114 115 120 
3 120 115 121 
3 121 115 122 
3 115 116 122 
3 61 117 66 
3 70 166 68 
3 66 117 123 
3 66 123 67 
3 123 124 67 
3 67 124 71 
3 71 124 195 
3 125 71 195 
3 125 127 72 
3 72 127 126 
3 72 126 73 
3 73 170 74 
3 125 195 196 
3 127 125 196 
3 73 126 170 
3 171 74 170 
3 75 74 171 
3 75 171 128 
3 75 128 76 
3 76 128 129 
3 129 77 76 
3 20 132 130 
3 172 79 131 
3 81 133 132 
3 84 85 136 
3 80 79 137 
3 79 172 137 
3 81 134 133 
3 82 83 135 
3 83 84 135 
3 84 136 135 
3 85 138 136 
3 86 80 176 
3 80 137 176 
3 86 176 89 
3 139 91 142 
3 91 139 92 
3 92 139 90 
3 90 139 140 
3 180 94 89 
3 140 179 90 
3 91 93 142 
3 93 179 142 
3 92 179 93 
3 96 99 144 
3 144 145 97 
3 101 146 44 
3 44 146 143 
3 149 100 145 
3 97 145 100 
3 154 146 101 
3 150 57 147 
3 98 102 156 
3 103 98 156 
3 103 151 105 
3 105 151 152 
3 153 106 152 
3 106 105 152 
3 106 153 148 
3 148 153 157 
3 148 157 110 
3 101 107 154 
3 107 183 154 
3 150 108 57 
3 109 155 102 
3 102 155 156 
3 110 157 111 
3 111 157 185 
3 111 185 116 
3 183 112 158 
3 108 150 167 
3 109 160 155 
3 116 185 159 
3 108 167 117 
3 161 162 168 
3 161 118 162 
3 118 163 162 
3 118 119 163 
3 119 164 163 
3 119 120 164 
3 122 116 159 
3 122 159 165 
3 68 166 112 
3 166 158 112 
3 117 167 192 
3 117 192 193 
3 160 161 168 
3 120 121 164 
3 121 169 164 
3 121 122 169 
3 122 165 169 
3 117 193 123 
3 194 195 124 
3 70 77 129 
3 123 193 124 
3 124 193 194 
3 131 78 200 
3 130 200 78 
3 200 172 131 
3 130 132 173 
3 173 132 133 
3 177 173 133 
3 133 134 177 
3 177 134 174 
3 134 82 174 
3 82 135 174 
3 135 175 174 
3 135 136 175 
3 136 202 175 
3 207 202 136 
3 207 136 138 
3 176 137 208 
3 208 137 172 
3 138 141 207 
3 89 176 180 
3 179 140 139 
3 212 207 141 
3 142 179 139 
3 143 212 141 
3 230 181 182 
3 223 203 178 
3 245 215 144 
3 147 94 227 
3 227 94 180 
3 245 144 226 
3 226 144 99 
3 145 144 215 
3 145 216 146 
3 216 217 146 
3 143 146 217 
3 99 100 226 
3 100 149 226 
3 149 145 154 
3 146 154 145 
3 227 150 147 
3 156 151 103 
3 154 236 149 
3 183 236 154 
3 156 184 151 
3 151 184 152 
3 184 187 152 
3 153 152 187 
3 187 157 153 
3 188 185 157 
3 183 189 236 
3 158 189 183 
3 160 186 155 
3 155 186 156 
3 186 184 156 
3 187 188 157 
3 192 167 232 
3 168 186 160 
3 162 186 168 
3 184 186 162 
3 163 184 162 
3 187 184 163 
3 164 187 163 
3 164 188 187 
3 164 169 188 
3 188 169 185 
3 169 159 185 
3 166 190 158 
3 190 189 158 
3 165 159 169 
3 192 191 193 
3 193 191 194 
3 196 197 127 
3 127 197 126 
3 126 197 198 
3 170 126 198 
3 170 198 199 
3 166 70 243 
3 171 170 199 
3 171 199 128 
3 128 199 242 
3 128 242 129 
3 129 242 243 
3 70 129 243 
3 130 173 200 
3 200 173 201 
3 172 200 201 
3 172 201 209 
3 208 172 209 
3 209 201 203 
3 203 201 178 
3 201 173 178 
3 173 177 210 
3 210 177 204 
3 177 174 204 
3 204 174 205 
3 205 174 206 
3 174 175 206 
3 206 175 244 
3 202 244 175 
3 244 202 211 
3 207 211 202 
3 178 173 210 
3 204 205 214 
3 211 207 212 
3 180 176 213 
3 176 208 213 
3 213 208 181 
3 208 209 181 
3 178 210 218 
3 216 211 217 
3 217 211 212 
3 228 180 221 
3 180 213 221 
3 181 209 229 
3 229 209 222 
3 209 203 222 
3 222 203 223 
3 223 178 218 
3 218 210 224 
3 210 204 224 
3 204 214 224 
3 214 205 219 
3 145 215 216 
3 212 143 217 
3 227 180 228 
3 221 213 230 
3 213 181 230 
3 229 182 181 
3 233 222 223 
3 224 214 247 
3 214 219 248 
3 225 219 205 
3 225 220 226 
3 245 226 220 
3 223 218 234 
3 218 224 247 
3 246 219 225 
3 226 246 225 
3 231 246 226 
3 228 150 227 
3 228 221 232 
3 232 221 230 
3 182 229 237 
3 237 229 235 
3 235 229 222 
3 233 223 234 
3 234 218 247 
3 149 231 226 
3 231 149 250 
3 250 149 236 
3 167 150 228 
3 167 228 232 
3 182 232 230 
3 182 237 232 
3 235 222 233 
3 238 233 234 
3 233 238 235 
3 189 253 236 
3 192 232 191 
3 191 232 237 
3 239 238 234 
3 237 235 191 
3 191 235 238 
3 239 251 197 
3 251 252 197 
3 197 252 198 
3 198 252 240 
3 238 194 191 
3 195 194 238 
3 196 195 238 
3 239 196 238 
3 197 196 239 
3 199 198 240 
3 199 240 241 
3 199 241 242 
3 243 242 241 
3 241 190 243 
3 166 243 190 
3 206 244 245 
3 245 244 216 
3 216 244 211 
3 205 206 220 
3 220 206 245 
3 215 245 216 
3 220 225 205 
3 214 248 247 
3 248 219 246 
3 251 247 248 
3 239 234 247 
3 246 231 249 
3 231 250 249 
3 239 247 251 
3 251 248 252 
3 248 246 252 
3 252 246 249 
3 249 250 241 
3 241 250 253 
3 250 236 253 
3 252 249 240 
3 249 241 240 
3 253 189 190 
3 241 253 190 
