ply
format ascii 1.0
comment VCGLIB generated
element vertex 254
property double x
property double y
property double z
element face 500
property list uchar int vertex_indices
end_header
-0.02506768642186784 -0.05439206775826511 -0.4104719817741686 
-0.03748174165370059 -0.04476901480929685 -0.3641986376297852 
-0.02134975360437083 -0.05429164573936206 -0.2555399327941364 
-0.0206182107219893 -0.0502218865899207 -0.09090950331834902 
0.0207493772736926 -0.05313509808928355 -0.4975189052339236 
-0.02281581403978722 -0.05310525657004398 -0.4966160113253045 
-0.001022959130721048 -0.05367381211004286 -0.3942356203510717 
-0.02074634686215917 -0.05426970621331868 -0.3769255289236441 
-0.023175397697539 -0.05396728065552694 -0.3108842609544593 
-0.02299080249538537 -0.05409638609529584 -0.1950315947467225 
0.01100900196818703 -0.04971293103592903 -0.1679552977735336 
-0.01825674203550479 -0.05342952161051697 -0.06999049983517108 
0.01940653095831891 -0.05413082313829241 -0.4670912136833617 
0.02376198292647288 -0.05470824015044992 -0.2915122069659203 
0.01866898077884641 -0.05308885833449317 -0.2178520150077606 
0.02132668509944362 -0.05315329878080305 -0.07573140002869401 
0.03762327265317153 -0.04458989583098571 -0.4465950912126108 
0.02351083800429943 -0.05521616113707491 -0.3965170186420201 
0.02100711560086747 -0.05249909046703618 -0.3713243831898576 
-0.04118408098886287 -0.03765474321926186 -0.4988440674825053 
-0.06025415934699715 -0.00740688471446338 -0.4910680744232983 
-0.05856714643199719 -0.008479872674525223 -0.418773561026862 
-0.04025219992810589 -0.04063628558227515 -0.384994152667367 
-0.0373791477987548 -0.04372037961993384 -0.2625875980198534 
-0.04457759311817591 -0.03266174372576182 -0.1821420359405353 
-0.04486856434551638 -0.03351557556418834 -0.07408924973257504 
-0.02445205039730676 -0.04218085315124823 -0.1730615711877609 
-0.01991866226996547 -0.04341587952132281 -0.1112006641972862 
-0.03899867502878719 -0.02773281086140329 -0.1104549221925371 
-0.03979519095856303 -0.02672818627820701 -0.05208269233337139 
-0.01178989273021948 -0.04304400462591612 -0.05097846684664609 
-0.001254961525251261 -0.04752604990024543 -0.1097146034953267 
-0.0001562861177960017 -0.02956654390549589 0.4575485294135521 
0.01925439277483766 -0.02498251129217866 -0.5157221001599054 
0.02014892404128442 -0.04229690109531844 -0.109920005200731 
0.02159437695636195 -0.03759938468863262 -0.04999928874391869 
0.04062035418960998 -0.03821063991186464 -0.3698569207978022 
0.04027925530156646 -0.03715901276004432 -0.4971972264303118 
0.03965920740936374 -0.04009680037817859 -0.295885841276839 
0.03824675456004469 -0.04218189430870269 -0.2193775663272468 
0.04151339131436164 -0.0356516328300957 -0.1857839996507234 
0.04436840918970757 -0.03596907676473947 -0.07780766138338698 
-0.06056766710574611 -0.008257405499394988 -0.3836564637275798 
-0.060217372547297 -0.008190112745312497 -0.3244903102596576 
-0.06015291763619805 -0.008066617691353637 -0.2458096499240429 
-0.05948207900233642 -0.007891066042447619 -0.1916814413484787 
-0.05133975129450599 -0.008236556764583633 -0.1681368247900824 
-0.04060269492976057 -0.02951853894033873 -0.1489824456882148 
-0.04924377385365866 -0.008090271601412596 -0.1109978849396288 
-0.05631725801750783 -0.00789677495502525 -0.07466874003008747 
-0.0479530666076578 -0.008133069697063499 -0.05254712185458163 
-0.04202701207465868 -0.001472144228721452 -0.5155940873441788 
-0.02764320669283333 -0.00808880095600863 -0.02979084396162354 
-0.02076940773623108 -0.01800700559175161 -0.03058140303640254 
-0.02058978124519102 -0.01779458927001894 0.02754454141283518 
-0.0206182107219893 -0.01702413321240001 0.05063043746427354 
-0.0276009718923895 -0.008164026657166557 0.03618533522634054 
-0.02452996041188155 -0.01289162317794566 0.0918876097248718 
-0.02718011809467396 -0.01170056929795442 0.1250191079874016 
-0.02637618685082514 -0.01468131729229975 0.1664266163331449 
-0.02485504458449157 -0.01369492197832232 0.2243717721801169 
-0.02011103375712696 -0.0173099493476981 0.2645322490714516 
-0.02050002378020044 -0.01821645970542196 0.3023599416818729 
-0.02751798382649984 -0.007874698796951062 0.2753977978198531 
-0.02784467829215384 -0.008090271601412596 0.3334800016711026 
-0.02633330053108131 -0.008146502634103762 0.4170984829195393 
-0.02044191008819733 -0.01728650394626517 0.3879215106396555 
-0.02569718827033492 -0.01334852538835656 0.4548759216184314 
-0.01745675249394562 -0.02886683459797104 -0.5143377586486615 
-0.009441381702177266 -0.008145352072969033 -0.4566591841007187 
-2.982453092016553e-05 -0.01282676326780478 -0.3992175223654268 
-0.00747660713950399 -0.007994774930119849 -0.3709439702132715 
-0.009189986873488848 -0.007991437338116799 -0.3249533734031257 
-0.0001376874045598785 -0.01286532447442514 -0.3528788615355423 
-0.009373066804565455 -0.008012133818140393 -0.2525089823385213 
-0.006410431188287186 -0.008090271601412596 -0.2322191267425555 
0.0001197156688196985 -0.01291172786831749 -0.2417107927800511 
-0.008621710471743343 -0.008090271601412596 -0.2120155864420677 
-0.0001643243178451754 -0.01296215664087737 -0.2006506610794629 
-0.004960706071843867 -0.008588199159986059 -0.1773456089302321 
-0.0005677928879000384 -0.02599525071337188 -0.0330403919023229 
-0.0003489966512987251 -0.02769364258722991 0.02992476402024297 
-0.0002421841341926079 -0.02442376950245012 0.05063043746427354 
-0.0002421841341926079 -0.02763411823351114 0.0708339777647613 
-0.000111195375293371 -0.02658940606654946 0.1202914871548588 
-0.0006094362082006399 -0.02745545373077314 0.1751977966808314 
-0.0001817657359345587 -0.02740908178650783 0.263071236838807 
-5.708281792833477e-05 -0.02662213295970035 0.3249790128091773 
-4.328495748531697e-05 -0.02637139977426427 0.3932171644380527 
-0.01979455745822735 -0.008376302297985496 0.4931588554485465 
-0.0002421841341926079 -0.02165108803340007 0.495108324075005 
-0.0002421841341926079 -0.008090271601412596 0.5150179233810738 
0.003591962902833553 -0.0111972715992782 -0.4744919067004544 
0.008543429123967021 -0.008153482715826402 -0.4198844222789928 
0.007017205460043171 -0.007885939488797631 -0.3673645597486055 
0.008840951740480659 -0.007919342371580247 -0.3184782243968623 
0.00888110939575631 -0.008150486440965657 -0.254252063176085 
0.006090318008094842 -0.008090271601412596 -0.2322191267425555 
0.007122319628441527 -0.008722756979356341 -0.1943697312510781 
0.02060837950921057 -0.01767347311454874 -0.03033382885261144 
0.02075759552285015 -0.01702219990555375 0.0589212299112197 
0.01990421276958919 -0.0181540809682768 0.1542574358566249 
0.0198185300582892 -0.01747234095420151 0.2624515196097253 
0.02041725723398907 -0.01555483905971089 0.3538818641458088 
0.02452554788253509 -0.01372337554605147 0.384515851266593 
0.02539823782665169 -0.01517162292610728 0.4487061696985731 
0.02098763766822328 -0.009366045307832152 0.4929007260350339 
0.03950964732364493 -0.02825622163709492 -0.1115535638678287 
0.04303462077403149 -0.01969294514065739 -0.05027681518003014 
0.0277042631430722 -0.008067403090625713 -0.02991291577869961 
0.02732612961248651 -0.00845440345234507 0.08870152994904133 
0.02743871194058441 -0.008154499757129598 0.1845584714818811 
0.02624478434577625 -0.007853914613504032 0.2738093491396704 
0.0263725875680052 -0.007805674483453166 0.3376516962879043 
0.05959588100130848 -0.007833727187762041 -0.4894048934435767 
0.05938172680942693 -0.007797407570147724 -0.4232796834670816 
0.0593421254742836 -0.007565210768015824 -0.3453035278106842 
0.0596818234940439 -0.007917277766613988 -0.3019821470145627 
0.0601274024358241 -0.008331292526696362 -0.2423199362325526 
0.05919284462888679 -0.007831295483391731 -0.1923199599227873 
0.05185499882008137 -0.007946303103038042 -0.1714244327321691 
0.04856858491468435 -0.008090271601412596 -0.1109978849396288 
0.05765600893836687 -0.007103339917137488 -0.07476503220361332 
-0.05910231494909086 0.01343530113502522 -0.4922137583597929 
-0.05995979946114387 0.01332442433256146 -0.436981552164216 
-0.05930963962270568 0.01260561389155965 -0.3603787362458314 
-0.06098207316992543 0.01278349483034686 -0.3228306788679996 
-0.0606373153450508 0.01282336491400335 -0.2415425846163899 
-0.06030328496860177 0.01295653489024914 -0.1918120461415799 
-0.05243018718965205 0.01291286660326421 -0.1707307340850005 
-0.04940644589502044 0.01266576306726983 -0.1113201505338915 
-0.05637394904716317 0.01354424514268968 -0.07117816021835716 
-0.02802315718514091 0.01275579103816131 -0.02988953517197553 
-0.02712111951674418 0.01346639182706371 0.08098719446069388 
-0.02700664046037687 0.01293500813380726 0.1203523121925775 
-0.02811163876732868 0.01294631951861158 0.1928781159223526 
-0.02782543630194906 0.01319669594680472 0.2577168360520439 
-0.02659487895517442 0.01237559695958238 0.3053703277531045 
-0.02759946010082223 0.01314270810073376 0.3930116473925279 
-0.0246329671563433 0.0180480212785735 0.4171978842503284 
-0.02421733953748052 0.01984612142470431 0.4664728645414979 
-0.0182395155323641 0.01226094063212589 0.4946394400412699 
-0.008730795932591155 0.01298667312395816 -0.4577085842923165 
-0.008312558773374707 0.01306578138588396 -0.4025581401832323 
-0.008645506107546446 0.01315400778951738 -0.3635367956896474 
-0.008676565615605033 0.01291257794173815 -0.2965495423160102 
-0.008442566377204476 0.01323422988651681 -0.2438624022250891 
-0.008425341888424726 0.01295653489024914 -0.2120155864420677 
-0.0002421841341926079 0.01295653489024914 0.5100573423949141 
0.02045448374915333 0.03504305636639402 -0.5160033636996078 
0.007103612467311947 0.01298641330831823 -0.4630668732955285 
0.007950862991931654 0.01317663712808901 -0.3750650282457219 
0.008141159883758971 0.01295445405162478 -0.302425305367679 
0.008620418001996245 0.01293449590961583 -0.2565586111578704 
0.008600535479442209 0.01283157952840237 -0.2166057101134286 
-0.0003499320749419289 0.01183345137026398 -0.1570123746466124 
0.01927511077873757 0.01141181928728624 0.4876722950671412 
0.04266791902489545 -0.00120945854280747 -0.5157250233676487 
0.04557870789008411 0.01366323290362609 -0.05037893312919876 
0.02734431905368718 0.01312047857134245 -0.03037389876261388 
0.02604756121920337 0.01284696986405948 0.0669980394488368 
0.02787557316332844 0.01282092910015877 0.09364122360704573 
0.02736390602434429 0.01271778994730003 0.1768179046693471 
0.02724478122374108 0.01314983020481219 0.2723132497917475 
0.0269676322108578 0.01272083028665669 0.3377982968046734 
0.02518210742211061 0.01295653489024914 0.3738870822720782 
0.02685412946629993 0.01280390639623415 0.3954931407273068 
0.05955140042685551 0.01306982843231667 -0.4897608668472056 
0.05977097665964981 0.01247683774681011 -0.4076071822021118 
0.05948796337034343 0.01247958144269867 -0.3413213007822016 
0.059075740656983 0.01306791249219551 -0.2548015720740523 
0.06062268285426956 0.01262619640289036 -0.1940896032045129 
0.05162514962171594 0.01304054813865804 -0.1717116053935618 
0.0492111615025484 0.01295653489024914 -0.1312014252401166 
0.04894445216138588 0.01295653489024914 -0.1109978849396288 
0.0568681615357855 0.0121457153538751 -0.07458628988290637 
-0.04465608889427496 0.0357154623421545 -0.4994034043767907 
-0.04034351261301813 0.0450772650430207 -0.4682166769876301 
-0.03652772983092339 0.05036455298149697 -0.2336726168319598 
-0.04326400205170884 0.03616210943922756 -0.1860263888196614 
-0.04001436051201356 0.03310568617087593 -0.1099662862986825 
-0.04523761856746814 0.03901298977738366 -0.07476109920536908 
-0.04106596545949492 0.02322693125346891 -0.04816162984344681 
-0.01972169346312275 0.02410817833776118 -0.03016315338178874 
-0.0208084441541403 0.02210569466764554 0.01568847949517147 
-0.02048259527213805 0.02277337247451103 0.09040001384392643 
-0.02042535449961128 0.02149279298083597 0.1177672771320842 
-0.02062673927356575 0.0231455676351532 0.2005682910625733 
-0.0191428427085989 0.02213345671049348 0.2969675358811195 
-0.02035050641461837 0.02317257338897828 0.3877142961989645 
-0.0002305406842787387 0.01805950528868306 -0.454144008669761 
-0.0002523567252965912 0.01818837582731014 -0.2997478694553579 
-0.0002421841341926079 0.01790886287591117 -0.2120155864420677 
-0.001046138685425316 0.03240467578254756 -0.03229294340223831 
9.460590290312138e-05 0.02971560873155922 -0.003107234056522407 
0.0005524052887143123 0.03206872498756726 0.05974636032031585 
-0.0002800497720885259 0.03248033442523011 0.1162871798557376 
-0.0003416325759285151 0.03171003365552469 0.1963255063263879 
-0.000331518374820786 0.03155392290840307 0.2542007565864819 
0.0001284951726153107 0.03214893630250888 0.3191195291550176 
5.709588308526792e-05 0.03254419380603205 0.4199260408338875 
-0.0002421841341926079 0.033329232637345 0.4547012434740293 
-0.0005135990065536943 0.03230350350494875 0.4821308397604703 
0.01880854006652698 0.02425889073391723 -0.03250375960875595 
0.0203334570920455 0.02241970581007025 0.03855466511314895 
0.02017719009859856 0.02310226282091524 0.1014935122477108 
0.01997512585912425 0.0228105459417984 0.2001580070675135 
0.02013384245360408 0.02249665553530225 0.2930729210701271 
0.02017267027829266 0.02190055154239769 0.3569930711022532 
0.01991679552275347 0.02180763056877565 0.4178804013216288 
0.02413787717102669 0.02106915796361365 0.4550306210486457 
0.04182768919430351 0.04124697948460979 -0.4972010134221207 
0.04172123265123701 0.03483414086914677 -0.1698213659377046 
0.03966709424748992 0.03300291702005069 -0.110834044289683 
0.03876997260933054 0.03143869451863061 -0.05237284893508233 
0.04129788102522636 0.04196778753563955 -0.4207073044748905 
0.04014931719908207 0.04452623770173995 -0.3374972408294438 
0.06034200855691904 0.01239317363319153 -0.2992860736722163 
0.04138845136129923 0.0420611143430137 -0.2623850289142367 
-0.03997043317487473 0.04567277352825963 -0.3601217294927868 
-0.04194497861463174 0.04127526661634479 -0.3055924216113093 
-0.01964277901294901 0.03524833034339076 -0.5159316780900839 
-0.02357632355875725 0.05916548391416288 -0.47112645393586 
-0.02417105513569573 0.06014120682350507 -0.4008525951955922 
-0.02514555303058035 0.05780562239391746 -0.349834582323042 
-0.02068752239781026 0.05116217025290065 -0.1711280009371396 
-0.02061817600380803 0.04781854268360434 -0.1109978055135136 
-0.01948492627724611 0.05624618023826088 -0.06928466078483903 
-0.0005403478172989732 0.05480317563554154 -0.1693587047133503 
0.003557355352507806 0.05444915793047023 -0.1038458837147705 
0.01986002805585303 0.05147726531338991 -0.1723952859276542 
0.0201521634896299 0.04795615616954129 -0.1117085684873255 
0.01861589984946329 0.04632698759072094 -0.05072957722362109 
0.0212830828983432 0.05702130953710363 -0.4966849804540808 
0.02310078864286244 0.05862465711384036 -0.3928962268143509 
0.03228642532953328 0.05338137693783586 -0.282418236496097 
0.03916994731881099 0.04561972026442149 -0.2258639818412097 
0.0415733720738528 0.04173009468654178 -0.1913679338846069 
0.04557373187002382 0.03871413726104103 -0.07976911198543428 
-0.02164481455097812 0.05796071494222128 -0.4985374938865436 
-0.02356210543654912 0.05973386913306528 -0.2938751886941125 
-0.02332449011497742 0.05804493079055942 -0.2669210908285911 
-0.02237126458017157 0.05943673171738486 -0.2155867868387349 
-0.004514206921459317 0.05774972619591235 -0.4988774951948262 
5.322397688960863e-05 0.05798876283491127 -0.4278966257757618 
-0.002331946982409067 0.05820998551870776 -0.3348533113605266 
-0.02110868046204763 0.05710751800482186 -0.3124453389378854 
-0.0046503475372476 0.05787829883231428 -0.2571671987681066 
0.02161021906206951 0.05823407802411706 -0.1881038708229243 
0.02424894365535528 0.06002247991603772 -0.4664404650883487 
0.02296012691011359 0.0594788346593574 -0.3296485607493985 
0.0198870990225211 0.05858271021108533 -0.254245501453002 
0.02365765386295265 0.05981648762124672 -0.2300235070032432 
0.02251682846899538 0.05677067407284726 -0.08363611196836479 
3 0 7 1 
3 1 7 8 
3 23 2 9 
3 25 3 11 
3 5 6 0 
3 0 6 7 
3 18 8 7 
3 2 14 9 
3 3 31 11 
3 4 12 5 
3 5 12 6 
3 12 17 6 
3 17 18 6 
3 6 18 7 
3 18 13 8 
3 8 13 2 
3 13 14 2 
3 10 9 14 
3 11 31 15 
3 17 12 16 
3 18 17 36 
3 39 14 13 
3 14 40 10 
3 19 22 21 
3 5 19 68 
3 0 19 5 
3 22 19 0 
3 1 22 0 
3 23 1 8 
3 2 23 8 
3 24 23 9 
3 26 24 9 
3 47 24 26 
3 26 27 47 
3 47 27 28 
3 3 25 28 
3 3 28 27 
3 11 29 25 
3 11 30 29 
3 30 53 29 
3 4 5 68 
3 10 26 9 
3 10 31 26 
3 26 31 27 
3 31 3 27 
3 53 30 80 
3 33 4 68 
3 10 34 31 
3 15 31 34 
3 15 30 11 
3 35 30 15 
3 80 30 35 
3 37 4 33 
3 4 37 12 
3 37 16 12 
3 16 36 17 
3 18 38 13 
3 36 38 18 
3 38 39 13 
3 39 40 14 
3 40 107 10 
3 10 107 34 
3 34 107 41 
3 34 41 15 
3 41 108 35 
3 41 35 15 
3 51 19 20 
3 19 21 20 
3 22 42 21 
3 22 43 42 
3 22 1 43 
3 1 23 43 
3 23 44 43 
3 23 24 44 
3 24 45 44 
3 24 46 45 
3 47 46 24 
3 47 28 48 
3 46 47 48 
3 28 25 48 
3 48 25 49 
3 29 50 25 
3 25 50 49 
3 33 68 51 
3 68 19 51 
3 29 52 50 
3 29 53 52 
3 53 54 52 
3 52 54 56 
3 54 55 56 
3 56 55 57 
3 60 61 63 
3 61 62 63 
3 62 66 64 
3 63 62 64 
3 64 66 65 
3 65 66 67 
3 92 69 70 
3 69 71 70 
3 70 71 73 
3 71 72 73 
3 72 74 73 
3 73 74 76 
3 74 75 76 
3 76 77 78 
3 75 77 76 
3 77 79 78 
3 78 79 155 
3 53 80 54 
3 80 81 54 
3 81 82 54 
3 54 82 55 
3 82 83 55 
3 55 83 57 
3 83 84 57 
3 57 84 58 
3 84 85 58 
3 58 85 59 
3 59 85 60 
3 85 86 60 
3 60 86 61 
3 61 86 62 
3 86 87 62 
3 62 87 66 
3 87 88 66 
3 88 32 66 
3 67 66 32 
3 32 89 67 
3 90 89 32 
3 90 91 89 
3 93 92 70 
3 94 93 70 
3 73 94 70 
3 95 94 73 
3 96 95 73 
3 76 96 73 
3 97 96 76 
3 78 97 76 
3 98 97 78 
3 78 155 98 
3 99 80 35 
3 80 99 81 
3 99 100 81 
3 81 100 82 
3 82 100 83 
3 100 101 83 
3 83 101 84 
3 84 101 85 
3 101 102 85 
3 85 102 86 
3 86 102 87 
3 102 103 87 
3 87 103 88 
3 103 104 88 
3 104 105 88 
3 88 105 32 
3 105 106 32 
3 106 90 32 
3 90 106 91 
3 37 33 157 
3 108 109 99 
3 108 99 35 
3 100 99 109 
3 110 100 109 
3 101 100 110 
3 111 101 110 
3 102 101 111 
3 112 102 111 
3 113 102 112 
3 103 102 113 
3 104 103 113 
3 37 157 114 
3 37 114 16 
3 16 114 115 
3 16 115 36 
3 36 115 116 
3 36 116 38 
3 38 116 117 
3 38 117 118 
3 38 118 39 
3 39 118 119 
3 39 119 40 
3 40 119 120 
3 40 120 107 
3 121 107 120 
3 41 107 121 
3 41 121 122 
3 108 41 122 
3 123 51 20 
3 20 124 123 
3 20 21 124 
3 21 42 124 
3 42 125 124 
3 42 43 125 
3 43 126 125 
3 43 44 126 
3 44 127 126 
3 44 45 127 
3 45 128 127 
3 45 46 128 
3 46 129 128 
3 46 130 129 
3 46 48 130 
3 48 49 130 
3 49 131 130 
3 49 50 131 
3 50 182 131 
3 221 33 51 
3 132 50 52 
3 182 50 132 
3 52 56 132 
3 56 133 132 
3 56 57 133 
3 57 58 133 
3 58 134 133 
3 58 59 134 
3 59 135 134 
3 59 60 135 
3 60 136 135 
3 60 63 136 
3 63 137 136 
3 63 64 137 
3 64 65 137 
3 65 138 137 
3 65 139 138 
3 65 67 139 
3 67 140 139 
3 67 89 140 
3 89 141 140 
3 142 69 92 
3 69 142 143 
3 69 143 71 
3 71 143 144 
3 71 144 72 
3 72 144 145 
3 72 145 74 
3 74 145 146 
3 74 146 75 
3 75 146 77 
3 77 146 147 
3 77 147 79 
3 79 147 155 
3 91 148 141 
3 89 91 141 
3 149 33 221 
3 92 93 150 
3 93 151 150 
3 93 94 151 
3 94 95 151 
3 95 152 151 
3 95 96 152 
3 96 153 152 
3 96 97 153 
3 97 154 153 
3 97 98 154 
3 98 155 154 
3 106 156 148 
3 91 106 148 
3 149 157 33 
3 158 109 108 
3 159 109 158 
3 109 159 160 
3 109 160 110 
3 110 160 161 
3 110 161 111 
3 111 161 162 
3 111 162 163 
3 111 163 112 
3 112 163 113 
3 113 163 164 
3 113 164 104 
3 104 164 165 
3 104 165 166 
3 104 166 105 
3 105 166 210 
3 105 210 106 
3 106 210 156 
3 157 167 114 
3 114 167 115 
3 115 167 168 
3 115 168 116 
3 116 168 169 
3 116 169 117 
3 117 169 217 
3 117 217 170 
3 117 170 118 
3 118 170 119 
3 119 170 171 
3 119 171 120 
3 120 171 172 
3 120 172 173 
3 120 173 121 
3 121 173 174 
3 121 174 122 
3 122 174 175 
3 122 175 108 
3 108 175 158 
3 176 51 123 
3 123 177 176 
3 123 124 177 
3 124 125 177 
3 125 219 177 
3 125 126 219 
3 126 220 219 
3 126 127 220 
3 127 178 220 
3 127 179 178 
3 127 128 179 
3 128 129 179 
3 180 179 130 
3 130 179 129 
3 180 130 181 
3 181 130 131 
3 182 181 131 
3 51 176 221 
3 182 132 183 
3 183 132 184 
3 132 133 184 
3 184 133 185 
3 133 134 186 
3 185 133 186 
3 134 135 187 
3 186 134 187 
3 135 136 187 
3 187 136 188 
3 136 137 188 
3 137 138 189 
3 188 137 189 
3 189 138 139 
3 92 190 142 
3 142 190 143 
3 143 190 144 
3 190 191 144 
3 144 191 145 
3 145 191 146 
3 146 192 147 
3 191 192 146 
3 192 155 147 
3 193 183 194 
3 183 184 194 
3 194 184 195 
3 184 185 195 
3 195 185 196 
3 185 186 196 
3 196 186 197 
3 186 187 197 
3 197 187 198 
3 187 188 198 
3 198 188 199 
3 188 189 199 
3 199 189 200 
3 189 139 200 
3 200 139 201 
3 139 140 201 
3 201 140 202 
3 141 202 140 
3 141 148 202 
3 150 190 92 
3 151 190 150 
3 191 190 151 
3 152 191 151 
3 153 191 152 
3 154 191 153 
3 192 191 154 
3 155 192 154 
3 193 194 203 
3 203 194 204 
3 194 195 204 
3 195 196 205 
3 205 196 206 
3 196 197 206 
3 197 198 206 
3 206 198 207 
3 198 199 207 
3 207 199 208 
3 199 200 208 
3 208 200 209 
3 209 200 210 
3 200 201 210 
3 210 201 156 
3 201 202 156 
3 156 202 148 
3 157 149 211 
3 158 203 159 
3 158 214 203 
3 204 159 203 
3 160 159 204 
3 195 160 204 
3 161 160 195 
3 205 161 195 
3 162 161 205 
3 206 162 205 
3 163 162 206 
3 207 163 206 
3 164 163 207 
3 208 164 207 
3 165 164 208 
3 166 165 208 
3 209 166 208 
3 210 166 209 
3 211 167 157 
3 167 211 168 
3 168 211 215 
3 168 215 169 
3 169 215 216 
3 169 216 217 
3 170 217 218 
3 170 218 236 
3 170 236 171 
3 171 236 237 
3 171 237 172 
3 172 237 212 
3 212 213 173 
3 212 173 172 
3 174 173 213 
3 213 238 174 
3 174 238 175 
3 214 158 238 
3 238 158 175 
3 221 176 239 
3 177 239 176 
3 222 239 177 
3 223 222 177 
3 219 223 177 
3 224 223 219 
3 220 224 219 
3 246 224 220 
3 240 246 220 
3 241 240 220 
3 178 241 220 
3 242 178 179 
3 242 179 225 
3 180 225 179 
3 225 180 226 
3 226 181 227 
3 226 180 181 
3 181 182 227 
3 182 183 227 
3 239 243 221 
3 225 228 242 
3 228 225 229 
3 225 226 229 
3 232 227 183 
3 193 232 183 
3 221 233 149 
3 243 233 221 
3 230 228 231 
3 228 229 231 
3 229 253 231 
3 203 232 193 
3 149 233 211 
3 211 249 215 
3 233 249 211 
3 249 234 215 
3 215 234 216 
3 234 250 216 
3 250 235 216 
3 235 251 218 
3 218 252 236 
3 251 252 218 
3 236 248 237 
3 252 248 236 
3 230 237 248 
3 230 212 237 
3 230 231 212 
3 213 212 231 
3 213 231 253 
3 213 253 238 
3 214 253 232 
3 214 238 253 
3 214 232 203 
3 235 217 216 
3 218 217 235 
3 241 178 242 
3 239 222 243 
3 243 222 244 
3 222 223 244 
3 244 223 245 
3 223 224 245 
3 245 224 246 
3 246 240 247 
3 240 241 247 
3 241 242 247 
3 247 242 248 
3 228 248 242 
3 229 226 227 
3 233 243 249 
3 243 244 249 
3 249 244 234 
3 244 245 234 
3 234 245 250 
3 250 245 251 
3 245 246 251 
3 246 247 251 
3 251 247 252 
3 252 247 248 
3 230 248 228 
3 229 227 253 
3 253 227 232 
3 235 250 251 
