ply
format ascii 1.0
comment VCGLIB generated
element vertex 254
property double x
property double y
property double z
element face 498
property list uchar int vertex_indices
end_header
0.03768628155698611 -0.1387001809537488 0.3980542271723854 
0.01387970870585064 -0.1223525999494869 0.3968478883122947 
0.03527515189841401 -0.1335994612981167 0.4382679184399274 
-0.06927914426961328 -0.1216993744599845 0.3907865876880447 
-0.05164559945840561 -0.1227756813246434 0.3527593133136199 
-0.04461727263750154 -0.1345331666098815 0.3829332789471155 
-0.05589734669401049 -0.116147891122139 0.4408827705221785 
-0.02324828714525178 -0.1371057027408626 0.3589467982633378 
-0.02208169186402942 -0.1283512892172669 0.3998290196931885 
-0.03699512492750758 -0.1343567057369527 0.4394814541299046 
-0.002097325884722683 -0.135442559943027 0.3565540745072543 
-0.00321532342329889 -0.120538269369212 0.3794245091494768 
0.002636245415254914 -0.1198589812243292 0.3323212364718599 
0.03527631887538576 -0.1380757567577563 0.3827222716727562 
-0.0002227792889407905 -0.1287100161044932 0.4161835057825714 
0.03778139900395631 -0.1247200442979358 0.3509851887127339 
0.05597899269033835 -0.1203064806463917 0.4305417462189888 
0.01876878360009547 -0.1181276363743692 0.4611883037285969 
0.008096304070882835 -0.08919993701427983 0.33105015040766 
-0.003394597929983246 -0.0885448235035335 0.3836009124205472 
0.04327113103811931 -0.09759537345294467 0.3490413611515111 
0.05976039339342634 -0.1150517068284881 0.3780887932416302 
-0.02433956566947464 -0.1186244108916634 0.3348862563081859 
-0.02823894222061294 -0.08829766883450844 0.395011134231109 
-0.02295798477006317 -0.07506523809571675 0.4172650981223334 
-0.01491120814480714 -0.118919337470844 0.4644808009418666 
-0.00120983209824991 -0.0900643582039109 0.422088618878916 
0.01271665116779569 -0.0937724709456411 0.3965967540795287 
-0.06895977249682289 -0.08481580439246937 0.4139273773188298 
-0.06493036915527335 -0.05281295770182926 0.3704380549334177 
-0.05320400379356011 -0.08429423359511598 0.4436718765526613 
-0.01531221614478146 -0.01645139824967575 0.3320151769827052 
0.01808406979138731 -0.0213193791433385 0.415211413626099 
0.06352579325914141 -0.1190974936129287 0.3979179475766386 
0.06346085132105404 -0.01492906054565987 0.4084467964161125 
-0.04315078249686957 -0.0168995005526386 0.3447620942140989 
0.01217005492888954 -0.04370155646181015 0.3771046804869754 
0.02484885196059632 -0.04598543553444934 0.3974508984852737 
-0.0682358462239582 -0.00913800734877473 0.3737511917633493 
-0.07013455668411553 -0.0132031070539267 0.3969243457601428 
-0.01630438853533606 -0.01730204835080529 0.4649570324680261 
0.03533372680428936 -0.0170302967291646 0.341686116991208 
0.05964385995983259 -0.01934140844173064 0.3767138735287251 
-0.05468128473559266 0.002640162931808961 0.3424519690317863 
-0.06455803898658344 -0.01280290059783171 0.4269588753244288 
-0.02855214656257318 -0.001392866628215327 0.3931188759005955 
-0.02823487676783519 0.001171129637034902 0.4734951457404984 
-0.02267723824178005 0.007961210360454718 -0.2215688069407884 
-0.01627227939384185 -0.00474263765527904 0.3749971128317284 
-0.003784384886545624 0.0009229609480769993 0.3155354488753677 
0.02566474408503187 -0.003675292602702853 0.4634843056884242 
0.01797452170753057 0.01390454157607908 0.3045082851888132 
0.05096302857740922 -0.0103384579547455 0.4407839780509664 
-0.01940329588614107 0.02884270280058768 -0.499374868637715 
-0.0433482194161159 0.02332520214871374 -0.4794731103700375 
-0.03127491876652907 0.01099484501242579 -0.4048672419727283 
-0.03414107849380822 0.013145977688085 -0.3468107187366679 
-0.04469811659773727 0.02270098881747431 -0.2642149195730181 
-0.04433164442859071 0.02365787889282449 -0.2166991481474265 
-0.04496310785847166 0.02277162808004421 -0.1005787883323928 
-0.01089681406126009 0.004253543604490197 -0.4765467211580873 
-0.02078431194705063 0.006987920513009122 -0.2829536766085276 
-0.02333691220732358 0.00809927527143732 -0.09516730631610824 
-0.02609249652327967 0.01853345953085401 -0.06881527738117339 
-0.02902858123260511 0.01795600143375118 -0.008308422898734255 
-0.02464826499619511 0.01661166829965611 0.08301119770306797 
-0.0321112782931736 0.02033543780526824 0.2423111896955012 
-0.02902804980648232 0.01751035129522314 0.2963562152839908 
-0.02758387193473437 0.02477063992868572 0.3739184953686783 
-0.02853022608018884 0.01752428332921541 0.4121711299032976 
-0.003155081090803296 0.003977890939163157 -0.2505493158451664 
-0.00291942044244637 0.004172936983357307 -0.09826226255592743 
-0.004123454960030178 0.0112880027002874 0.006568542576707973 
-0.00428174242842897 0.01128057640709944 0.1241328908266729 
-0.003091772428836752 0.01055173463936153 0.2879849674284091 
0.01637784969952419 0.007591810977979742 -0.4740703680317793 
0.005281159114800633 0.003716185345297789 -0.3707990100810251 
0.01757804415507438 0.008256453287937223 -0.2756357708702709 
0.01746327815031193 0.008013226902839638 -0.1042807088878977 
0.003936755829891992 0.01074883812648358 -0.06389507781658769 
0.01726096033675444 0.01602901360392094 0.07590893703660488 
0.02194158990028411 0.01798805793279926 0.2179607322011473 
0.01726421147820558 -0.0009137434353649136 0.3842616101350351 
0.02605890197652026 0.02618345065109387 0.3678288170275852 
0.03901179956001305 0.02322314620481042 -0.47395032907424 
0.03898242625336065 0.0230905608684582 -0.2109101815761787 
0.0384182941427986 0.02269082791466603 -0.1038403419492343 
0.01926278132894621 0.02520904862383525 0.3983761772344988 
0.02765464223588348 0.02516236787776944 0.4195098747447862 
0.05436628336499364 0.0278813818531877 0.4815688499359111 
0.04061468823497057 0.02486451813450256 -0.3538368965407023 
0.07915463760929106 0.02097344981795942 0.3428786855477387 
0.07311275704991635 0.00421337688476972 0.3743332668440357 
0.08340964958069109 0.01917063023277399 0.4459865906707265 
-0.07818772020090738 0.0239586605363536 0.3319465697052034 
-0.09966092049082899 0.02898748700319426 0.3682615040641798 
-0.09800338801307094 0.02423008661896921 0.4357969910356166 
-0.06454657798357741 0.0272009497559382 0.4797903785956893 
-0.05520388955896926 0.04394447762025383 -0.3216689324765732 
-0.0552456495718061 0.04437227029614741 -0.2116290996318737 
-0.05250329952439873 0.04258087689475495 -0.08115080197530382 
-0.04834006926916434 0.04158231812528172 0.02668735323242473 
-0.04782163183921195 0.04116109022774751 0.2255115525218936 
-0.04935010862100261 0.0412537380560387 0.3001494368718903 
-0.04221715748805132 0.04127582173212828 0.3504019134781577 
-0.06012263353254233 0.04452597821446882 0.3817197303527589 
-0.05396216688889771 0.04179696844212948 0.4362781739007677 
-0.04279360203738525 0.0791701027943052 0.4934245484007897 
-0.002956084310926025 0.04610190200139566 0.3207916639212952 
-0.02195290401669487 0.02426683025883013 0.4311403209479414 
-0.02540358272173348 0.05757259829070845 0.4584093461646613 
-0.002968801997820271 0.04421226305428801 -0.1494599796955006 
-0.0008743754601940374 0.02916860533548711 0.3555490315988468 
-0.003497963355769043 0.02058021559689049 0.4259355471460943 
0.01663248196844939 0.02371865383375145 0.4945169375938334 
0.01628923947526676 0.0451201728586652 0.4552668653476754 
0.02053352023719289 0.02995434932709716 -0.4980825710390366 
0.04017278446536349 0.03656808257588808 0.1682947854635519 
0.04419933182278287 0.0429546432782383 0.4351075810156292 
0.04914806747135024 0.043956706679803 -0.4765572374672176 
0.04965377381993266 0.06355048021007606 -0.3598450876257784 
0.05298665695473402 0.05599519318347954 -0.3084339052544352 
0.0496028208390718 0.04355559002970523 -0.2271911921494379 
0.04925001268245918 0.04370059020642646 -0.09801007870693983 
0.03830678090675184 0.034416290787275 -0.05803012171686006 
0.04071623010806609 0.03663143517052083 0.02801774557824705 
0.04086719616545481 0.04039676670788522 0.2951386261224532 
0.03421547682673699 0.04211959233826754 0.3494905984725643 
0.06002928848536564 0.04412737908507327 0.3892556637477851 
0.0940666861559972 0.04456116375148205 0.3638093155671336 
0.09865479696612463 0.02772344625508474 0.4009019025317482 
0.08409132978435144 0.0443571987318729 0.4536869737291609 
-0.08459991426633656 0.0849725106528153 0.3361943677283844 
-0.1011642545440364 0.08342518670071393 0.3676382043437126 
-0.05267623673490511 0.06504717109393288 0.3012211000199629 
-0.03557753271781539 0.08387527115040827 -0.4974061131184332 
-0.05721966134613447 0.05279643002609798 -0.4677145585873477 
-0.05681853871386418 0.06311766793058506 -0.4011920299028598 
-0.05774630220978298 0.06413413723350118 -0.2595750289134625 
-0.05761771005222144 0.06373730549856275 -0.09722490071557097 
-0.05055169230663209 0.0643379286569212 -0.06349315758156904 
-0.05065407639162706 0.06418020399335793 0.05981279680371103 
-0.05075787692609761 0.06447097447637397 0.2174361255003475 
-0.04839260672043062 0.06724116592740695 0.35475516947341 
-0.06350904796864358 0.06573177620760033 0.3847798210243648 
-0.05791663725135549 0.0666991762559941 0.4274398533692929 
-0.0188619958414627 0.06482568473402646 0.331896558271894 
-0.01301695418390995 0.06450725215406965 -0.4361054877108249 
-0.002666526756871827 0.04478336791420212 -0.4336046443480281 
-0.002970220176402672 0.04639251784248059 -0.2830769231134301 
-0.01514857300699373 0.06465197242726312 -0.2991754672065135 
-0.0152079245609023 0.06424526721024212 -0.1383794486464469 
-0.003197370548914857 0.04564513523992872 -0.1041013372505377 
-0.003058483351157792 0.05909731499540153 0.08749095566572142 
-0.003478837483503199 0.06252130370839884 0.2843734781230537 
-0.02361645023678128 0.02728614198627909 0.4977842298770676 
0.009590057461144422 0.0643691492457226 -0.4356745230632516 
0.005565673745303225 0.06399815573079974 -0.3585158015061581 
0.00912156715689146 0.06438663429732625 -0.2882590681501583 
0.009711095483873555 0.06425455218700557 -0.1580015446444533 
0.007261666380147132 0.06420878674735583 -0.1027509057035823 
-0.003504044795659769 0.06303402514306501 -0.05693647248133677 
0.0003219300947626013 0.06413497510667689 0.1214958628867193 
0.008974404497512661 0.06581727279562402 0.4594535099228509 
0.02778884013234202 0.04316498070892688 0.4969780342745181 
0.01844778506090806 0.06516487096628791 0.3360743525371963 
0.05253777552627989 0.05361218166516195 -0.4460738259531078 
0.05099309167615086 0.06359895372204061 -0.2066302959554999 
0.05152741229110979 0.0633547328633722 -0.0964008830810692 
0.04439120990479559 0.0639728917903529 -0.005317865955682489 
0.04473871343073842 0.06445710797666961 0.178378066294016 
0.04337311272730513 0.05904594923249184 0.220311827869609 
0.07398807420834787 0.04648482528249132 0.3319013239853879 
0.05026738010820941 0.06469760662045518 0.3679168358147254 
0.04294164813888578 0.0649424148901538 0.4410960906173989 
0.0597102156404541 0.06600292858631666 0.3982908918215187 
0.09853241712166262 0.0837856354719457 0.4127072852992908 
-0.1044072422488643 0.08322936306620517 0.4188471777038759 
-0.04620718632020368 0.0819642700710476 0.2965400121222193 
-0.04987479183251189 0.08893260124488847 -0.2384437043894201 
-0.04913238190755048 0.09088775789436498 -0.09738766157164337 
-0.04578249146072316 0.07441982601623219 0.3844104138247083 
-0.04389651246150559 0.08454015607682297 0.2390497159097214 
-0.004188372749034395 0.06332992217574362 -0.4583144724611145 
-0.002935631311968499 0.07354804761175805 -0.4363778321269946 
-0.002964522726066765 0.07338727374136626 -0.3221224801438022 
-0.002972699114929461 0.07353506441155533 -0.165328743591073 
-0.003007650265274124 0.07182211525510744 -0.1090300286022675 
-0.005434355383263567 0.06536254717677072 0.07993487569258209 
-0.003314047138148584 0.06567812041258447 0.3027851211900438 
0.01416387397979403 0.08474231688705168 -0.4965716958053027 
-0.005410928023098526 0.08127819478095763 0.3571331320960519 
0.003338199551688309 0.08044989561331822 0.4049653392229486 
-0.002385560597741586 0.07727832645329334 0.4391534122560179 
0.0003844485122426599 0.08320156841176676 0.5021822389066967 
0.03720133424589255 0.08436714420655729 0.1254106064195618 
0.03666443903481421 0.08460432927127963 0.2123974775762301 
0.03698380644268269 0.07380581257401661 0.3661720866369617 
0.03521268272606337 0.07308098973558882 0.4344468527711859 
0.04511885352865217 0.08504241365767783 -0.3928434912630005 
0.04244176811994761 0.08915203607841954 -0.0899645321127944 
0.04470971802790548 0.07187196498805327 0.2964687505438845 
0.09462573869567256 0.08481451425057229 0.3686509089520385 
0.07286491795503001 0.08567988059779301 0.470482593035313 
-0.09126513375234335 0.1087992483124274 0.4142762310538835 
-0.08718680167787572 0.0789025147411586 0.4586914740421816 
-0.06736963736236953 0.1078782471747276 0.461346886211624 
-0.06485571658912578 0.08476728003843659 0.4799365418804394 
-0.04817803675295181 0.08980497115901295 -0.4722429245177218 
-0.04395160593536907 0.08535283629704637 -0.06705201516117233 
-0.04354994786780887 0.08437297620207086 0.1047513027791422 
-0.04971997238694072 0.09034058870274841 -0.3754950739648595 
-0.02294131982478175 0.1031381772972928 -0.06823105084527856 
-0.02291085055215243 0.1028571270283814 0.1143998132155347 
-0.0226424716188134 0.1042029050560003 0.2942860586041678 
0.01675403863670524 0.1034227497940612 -0.4746021530013766 
0.01702686849721928 0.1025383262888988 -0.06826667676833323 
0.01707803980696894 0.1025949135159107 0.01242249544217407 
0.01600075788969317 0.1037908714052718 0.1562954096149389 
0.04069944992538293 0.08833180706315438 -0.4817458255510152 
0.02037193300260073 0.1111050306839574 -0.4349580972493417 
0.04362536568146856 0.0906105739929095 -0.3423393430051512 
0.04322133803795668 0.08890105431900927 -0.2255400593666019 
0.04306766359256944 0.07759613113291766 -0.06896527045843778 
0.03748080045315227 0.08434647013719546 -0.01467743904311734 
0.03947677324786689 0.08159181144073938 0.2935719956204018 
0.01806886017472477 0.1027247896679341 0.2950133744047969 
0.06130790630141272 0.10508207421841 0.3308672623927822 
-0.08601462873508733 0.1074128335187512 0.3624718561190089 
-0.05289678303104709 0.1071883369838075 0.324203250041518 
-0.05293710701816468 0.1151916254666839 0.3626569670971642 
-0.02375541615083498 0.1094296638914662 0.4850575467469462 
-0.02570615470595738 0.109506917086999 -0.4531517408175933 
-0.02488858869795538 0.1092331888459331 -0.2888672884173975 
-0.02893848518032075 0.1096288585721921 -0.1802746008423315 
-0.007044601610743602 0.1151095778280179 0.3207806863938472 
-0.003457323512989693 0.1136635442224086 -0.3809941241737159 
-0.002574016897364294 0.1136500715462287 -0.2675952078865091 
-0.001620938921723463 0.1131644336707994 -0.1328987053351564 
-0.01828919651034857 0.1114882259725622 -0.09139613317350447 
-0.003213608328630798 0.1076839967957975 -0.07047276934374028 
-0.003307168014474747 0.1070681074470059 0.09027827007899764 
-0.003581239530731924 0.1060153623893676 0.2838881071437689 
-0.01642546188301222 0.1249138661639759 0.3576594506541294 
0.01323345565503496 0.1248198523871678 0.4334206702722085 
-0.03387832578286536 0.1164322296664239 0.4554731557713386 
0.01651977206943719 0.1088796160024153 -0.35235406982071 
0.01868565050393926 0.109879435196899 -0.1957296780809399 
0.01961992551239051 0.1092914126001035 -0.102313681976269 
0.04463288811414284 0.1141686444704552 0.3471439935713611 
0.04251753831849645 0.1154039689447459 0.4256918579791386 
0.04581783489696719 0.1064605136777562 0.4760291185170303 
0.08229346581460684 0.1097520645643786 0.3799223559296538 
0.08444065392935983 0.1085310086989418 0.4223992594714434 
3 0 2 1 
3 16 2 0 
3 3 4 5 
3 9 3 5 
3 6 3 9 
3 7 4 22 
3 7 5 4 
3 5 7 8 
3 5 8 9 
3 25 6 9 
3 7 22 10 
3 22 12 10 
3 10 11 7 
3 11 8 7 
3 9 8 14 
3 10 13 11 
3 1 11 13 
3 2 9 14 
3 2 25 9 
3 17 25 2 
3 10 12 15 
3 13 10 15 
3 1 13 0 
3 14 1 2 
3 2 16 17 
3 13 15 21 
3 33 0 21 
3 0 13 21 
3 33 16 0 
3 3 6 28 
3 6 30 28 
3 12 22 18 
3 19 8 11 
3 23 8 19 
3 14 23 26 
3 8 23 14 
3 27 11 1 
3 19 11 27 
3 1 26 27 
3 14 26 1 
3 18 20 12 
3 20 15 12 
3 52 17 16 
3 21 15 20 
3 29 4 3 
3 3 28 29 
3 28 39 29 
3 23 24 26 
3 21 20 42 
3 21 42 33 
3 16 33 34 
3 35 4 29 
3 4 35 22 
3 30 6 25 
3 18 22 31 
3 19 48 23 
3 26 24 113 
3 41 18 31 
3 27 36 19 
3 17 40 25 
3 18 41 20 
3 36 27 37 
3 27 32 37 
3 26 32 27 
3 20 41 42 
3 44 28 30 
3 22 35 31 
3 45 23 48 
3 23 45 24 
3 40 30 25 
3 36 48 19 
3 26 113 32 
3 34 52 16 
3 33 42 34 
3 29 39 38 
3 28 44 39 
3 38 35 29 
3 30 40 44 
3 24 45 69 
3 24 69 113 
3 48 36 82 
3 17 50 40 
3 82 36 37 
3 17 52 50 
3 35 38 43 
3 44 40 46 
3 31 43 49 
3 31 35 43 
3 49 41 31 
3 51 41 49 
3 37 32 82 
3 51 91 92 
3 51 92 41 
3 41 92 42 
3 42 92 34 
3 95 39 96 
3 38 94 43 
3 95 94 38 
3 39 95 38 
3 96 39 44 
3 44 97 96 
3 43 94 67 
3 46 97 44 
3 46 155 97 
3 54 53 60 
3 60 55 54 
3 57 56 61 
3 58 57 47 
3 47 57 61 
3 47 62 58 
3 58 62 59 
3 59 62 63 
3 49 43 67 
3 68 69 45 
3 53 116 60 
3 60 76 55 
3 55 76 56 
3 76 61 56 
3 47 61 70 
3 70 71 47 
3 47 71 62 
3 71 79 62 
3 62 79 63 
3 79 72 63 
3 63 72 64 
3 64 72 65 
3 72 73 65 
3 65 73 66 
3 73 74 66 
3 66 74 67 
3 49 67 74 
3 45 48 68 
3 48 112 68 
3 69 109 113 
3 155 46 114 
3 60 116 75 
3 60 75 76 
3 76 77 61 
3 61 77 70 
3 70 77 78 
3 70 78 71 
3 78 79 71 
3 79 80 72 
3 72 80 73 
3 80 81 73 
3 73 81 74 
3 81 51 74 
3 74 51 49 
3 82 83 48 
3 83 112 48 
3 32 113 88 
3 50 46 40 
3 46 50 114 
3 75 116 84 
3 75 84 76 
3 90 76 84 
3 76 90 77 
3 90 85 77 
3 77 85 78 
3 85 86 78 
3 79 78 86 
3 124 79 86 
3 80 79 124 
3 125 80 124 
3 117 80 125 
3 81 80 117 
3 82 87 83 
3 88 82 32 
3 88 87 82 
3 114 50 89 
3 51 126 91 
3 52 93 50 
3 93 89 50 
3 92 130 34 
3 34 130 52 
3 130 93 52 
3 130 92 91 
3 96 97 205 
3 54 98 136 
3 54 55 98 
3 55 56 98 
3 56 57 98 
3 57 58 99 
3 57 99 98 
3 58 59 99 
3 59 100 99 
3 101 66 102 
3 67 94 103 
3 104 105 68 
3 68 106 69 
3 105 106 68 
3 97 155 107 
3 53 54 135 
3 100 59 63 
3 64 100 63 
3 101 100 64 
3 101 64 65 
3 66 101 65 
3 67 102 66 
3 103 102 67 
3 109 69 106 
3 106 110 109 
3 108 104 112 
3 112 104 68 
3 109 115 113 
3 110 115 109 
3 112 127 108 
3 127 112 83 
3 115 88 113 
3 114 164 155 
3 117 126 81 
3 81 126 51 
3 88 115 118 
3 89 164 114 
3 116 119 84 
3 84 119 166 
3 90 84 166 
3 90 120 121 
3 90 121 122 
3 90 122 85 
3 85 122 123 
3 85 123 86 
3 124 86 123 
3 126 117 171 
3 126 172 91 
3 128 127 83 
3 83 87 128 
3 128 88 118 
3 128 87 88 
3 131 89 93 
3 91 172 129 
3 91 129 130 
3 93 130 131 
3 133 96 177 
3 94 95 132 
3 95 133 132 
3 133 95 96 
3 103 132 134 
3 94 132 103 
3 135 54 136 
3 98 137 136 
3 98 138 137 
3 98 99 138 
3 99 139 138 
3 99 100 139 
3 100 140 139 
3 100 101 140 
3 101 141 140 
3 101 102 141 
3 102 142 141 
3 102 103 142 
3 103 134 142 
3 104 143 105 
3 105 143 144 
3 105 144 145 
3 105 145 106 
3 106 145 110 
3 108 146 143 
3 104 108 143 
3 183 147 148 
3 148 147 150 
3 148 150 149 
3 150 151 149 
3 149 151 111 
3 152 111 151 
3 151 161 152 
3 161 188 153 
3 153 188 154 
3 189 146 108 
3 110 163 115 
3 116 53 190 
3 156 183 148 
3 157 156 148 
3 149 157 148 
3 158 157 149 
3 111 158 149 
3 159 158 111 
3 152 160 111 
3 160 159 111 
3 161 160 152 
3 162 161 153 
3 154 162 153 
3 189 108 165 
3 165 108 127 
3 116 190 219 
3 118 115 174 
3 174 115 163 
3 219 119 116 
3 166 120 90 
3 122 121 167 
3 122 167 123 
3 123 167 168 
3 123 168 124 
3 124 168 223 
3 124 223 169 
3 124 169 125 
3 125 169 170 
3 125 170 117 
3 117 170 171 
3 126 171 201 
3 126 201 172 
3 165 127 173 
3 127 128 173 
3 128 175 173 
3 175 128 118 
3 174 175 118 
3 130 176 131 
3 96 205 177 
3 134 132 178 
3 207 205 97 
3 208 135 136 
3 136 137 208 
3 137 211 208 
3 137 138 211 
3 138 179 211 
3 138 139 179 
3 139 180 179 
3 139 140 180 
3 140 141 209 
3 141 210 209 
3 142 210 141 
3 142 182 210 
3 142 134 178 
3 182 142 178 
3 143 181 144 
3 144 181 145 
3 107 207 97 
3 146 191 143 
3 191 181 143 
3 181 193 145 
3 193 110 145 
3 155 194 107 
3 190 53 135 
3 183 184 147 
3 147 185 150 
3 184 185 147 
3 150 186 151 
3 185 186 150 
3 186 187 151 
3 151 187 161 
3 189 191 146 
3 191 192 181 
3 181 192 193 
3 110 193 163 
3 184 183 156 
3 157 184 156 
3 185 184 157 
3 158 185 157 
3 186 185 158 
3 159 186 158 
3 187 186 159 
3 160 187 159 
3 161 187 160 
3 162 188 161 
3 154 188 162 
3 165 191 189 
3 155 164 194 
3 197 191 165 
3 191 197 192 
3 197 198 192 
3 192 198 193 
3 198 163 193 
3 174 163 198 
3 203 194 164 
3 119 219 166 
3 166 219 199 
3 166 199 120 
3 120 199 221 
3 120 221 121 
3 121 221 222 
3 121 222 167 
3 167 222 168 
3 168 222 200 
3 168 200 223 
3 169 223 224 
3 169 224 195 
3 195 170 169 
3 195 196 170 
3 196 171 170 
3 196 225 171 
3 225 201 171 
3 173 197 165 
3 175 197 173 
3 174 198 175 
3 198 197 175 
3 89 203 164 
3 172 201 227 
3 203 89 131 
3 172 227 202 
3 172 202 129 
3 129 202 130 
3 131 176 203 
3 202 176 130 
3 228 132 133 
3 177 204 133 
3 204 228 133 
3 205 206 204 
3 205 204 177 
3 178 132 229 
3 132 228 229 
3 205 207 206 
3 180 140 209 
3 207 231 206 
3 231 207 107 
3 232 135 208 
3 211 232 208 
3 233 232 211 
3 179 233 211 
3 180 234 179 
3 239 234 180 
3 239 180 212 
3 180 209 212 
3 209 210 212 
3 212 210 213 
3 210 182 213 
3 182 178 214 
3 213 182 214 
3 178 229 214 
3 194 231 107 
3 242 241 213 
3 214 242 213 
3 215 190 135 
3 232 215 135 
3 241 218 217 
3 218 242 226 
3 194 251 231 
3 219 190 215 
3 220 219 215 
3 220 246 199 
3 199 246 221 
3 221 247 222 
3 222 247 200 
3 247 248 200 
3 216 200 248 
3 216 223 200 
3 223 216 224 
3 217 224 216 
3 224 217 195 
3 217 218 195 
3 196 195 218 
3 196 218 225 
3 226 225 218 
3 203 251 194 
3 199 219 220 
3 225 226 201 
3 226 227 201 
3 253 251 203 
3 227 252 202 
3 202 253 176 
3 202 252 253 
3 176 253 203 
3 229 228 230 
3 228 204 230 
3 230 204 245 
3 204 206 245 
3 206 231 245 
3 233 179 234 
3 214 229 235 
3 229 230 243 
3 243 230 245 
3 215 232 220 
3 220 232 236 
3 232 233 236 
3 236 233 237 
3 233 234 237 
3 237 234 238 
3 234 239 238 
3 239 212 240 
3 240 212 241 
3 212 213 241 
3 242 214 235 
3 235 229 243 
3 243 245 244 
3 220 236 246 
3 236 237 246 
3 246 237 247 
3 237 238 247 
3 247 238 248 
3 238 239 248 
3 240 216 248 
3 240 248 239 
3 217 216 240 
3 241 217 240 
3 242 218 241 
3 226 242 235 
3 235 243 249 
3 244 249 243 
3 244 245 251 
3 245 231 251 
3 247 221 246 
3 227 226 235 
3 227 235 249 
3 249 244 250 
3 244 251 250 
3 252 227 249 
3 249 250 252 
3 252 250 253 
3 251 253 250 
