ply
format ascii 1.0
comment VCGLIB generated
element vertex 252
property double x
property double y
property double z
element face 500
property list uchar int vertex_indices
end_header
-0.1078247273561453 -0.0437126884359848 0.3595439442692279 
-0.07008709612277032 -0.04530750548438459 0.0476440911101426 
-0.08780097470155698 -0.02248564760121779 0.05057623953381099 
-0.07774404796165095 -0.04618231866908416 0.08432942414735324 
-0.07221912425575121 -0.0435435239677148 0.1409252078008953 
-0.0740589207153815 -0.04394665505987511 0.2002003555154659 
-0.07648107185904673 -0.04456642357912819 0.2521750378483185 
-0.06624752588229751 -0.03982854908234291 0.2915903399879504 
-0.0709349829552564 -0.04092670505970587 0.3149169694401153 
-0.08606395534485059 -0.04549008729405316 0.3530717281367565 
-0.08019551465922334 -0.03286702436708522 0.3267648940147109 
-0.04779968186657624 -0.04694963262735956 0.131752772751781 
-0.04780752350508846 -0.04681693694031933 0.2930245625977011 
-0.04151046375271066 -0.04187379521413648 0.09325890213646022 
-0.04847851956110744 -0.04676684424800602 0.3541514379755051 
-0.01282772624618771 -0.04551816207762097 0.376116794592364 
0.03061621682174838 -0.04681233741995509 0.2879517287972144 
0.04285986257789493 -0.03730860019292224 0.005441601565293916 
0.03091528554179944 -0.04140447019679404 0.03163787057111527 
0.002073394659015425 -0.03518856602415502 0.08821974604962259 
0.02898376734658089 -0.0462272913151926 0.1025993360371007 
0.03037746441577807 -0.04668266741194935 0.2114638438881635 
0.008221071980816905 -0.04521476121286928 0.3245959983716492 
0.05046619247100232 -0.03115783001043172 0.03015644945007125 
0.05278718817668889 -0.04704832757409522 0.06630317615384741 
0.05193069091816224 -0.04131259821905965 0.2544866915062494 
0.05069989650573854 -0.03908202458425384 0.2743803223247696 
0.05086828082578811 -0.03677198854273705 0.3141801026781742 
0.05448110906296297 -0.04254768544355211 0.1228655166364181 
0.0513995245036458 -0.04196012049748159 0.154537034581843 
-0.1111185468300933 -0.03385341798936915 0.3352569939207808 
-0.123559905834292 -0.01916329333699314 0.3541539730322208 
-0.1182055944107525 -0.023976655355688 0.4332626061651015 
-0.0875142608299574 -0.0170767175085884 0.131741041548124 
-0.09840763287249825 -0.02211143124587621 0.1515411400333646 
-0.08200674777422856 -0.03990143099965357 0.1726444076560315 
-0.1027420654285749 -0.01300812946955502 0.1721228512247626 
-0.07234293787240245 -0.02087655272361327 0.4141748336444913 
-0.0908836308384412 -0.03527475496167516 0.4369091230399147 
-0.05810721345766669 -0.01952082540703024 0.01013340984579703 
-0.08796573927767139 -0.01944059803932915 0.2546776427088957 
-0.07846771326729067 -0.01496058784352506 0.2821793345440843 
-0.06220110795892266 -0.03956707933601784 0.3750000409704246 
-0.05945223061058055 -0.02513985047435757 0.3935064292295682 
-0.0486043290377779 -0.0367363185593621 0.4402781026595579 
-0.05233487491091868 -0.03306849427647815 0.4780820608650154 
-0.08573933383958723 -0.03272113145472836 0.4631135581962978 
-0.0868429050808411 -0.01849857904471187 0.4764209337275638 
-0.05622623022656997 -0.02442071596571918 -0.3767531303066954 
-0.05580493048657975 -0.02160796620438872 -0.348562344738557 
-0.05757674286994448 -0.02536939887132825 -0.2969376008423859 
-0.05460540126727758 -0.02270531572977487 -0.2559961878190182 
-0.05829122113343152 -0.0204253635433676 -0.2279976674061779 
-0.05847746619452815 -0.02279150608887338 -0.188137851211183 
-0.05668380894144089 -0.02340053425200539 -0.09741581903878525 
-0.05738031008518972 -0.02368226469118077 -0.03211376196547072 
-0.05666180780539426 -0.02973267911449557 0.02893219641382641 
-0.05041379885513708 -0.01939498703391659 0.49419669082905 
-0.03347465498705995 -0.02462183278402677 -0.4546396265105166 
-0.03836732620268202 -0.02198252183943224 -0.4007211350591711 
-0.0339631196398071 -0.03275187946219869 -0.2746871467454973 
-0.04384071186591114 -0.03462732375555915 -0.2281187191831354 
-0.01280270717961776 -0.03529790314347699 -0.1883349560728784 
-0.04219213304541672 -0.03450943435165847 -0.1236126229913242 
-0.02008013164728486 -0.03388930483742433 -0.08650886675182118 
-0.03134409512978238 -0.03621663300011373 -0.02081946292370478 
-0.04645387894332235 -0.0299171428953128 -0.0030160680231729 
-0.02633447709026495 -0.03608628791079518 0.05186941566741909 
-0.03022346316113746 -0.03340461173757674 0.4250387089120434 
-0.009865643601213713 -0.01940022349243884 -0.481049256915838 
-0.01051429204056702 -0.03545337261170601 -0.4534059374296866 
-0.008618655457120499 -0.03527459292181807 -0.3957638085364981 
-0.01960074217048037 -0.03590960389091459 -0.379545693131237 
-0.02892662583333571 -0.03687903939154447 -0.3443383113526449 
0.009326649949274761 -0.03399599948561065 -0.278139261613895 
-0.04182997487652636 -0.03392427910496323 -0.1796448602310141 
0.00859475823101055 -0.03589537768938809 -0.108578518098938 
-0.01457898665562381 -0.03348380032307612 0.4782344501281478 
-0.02103048673212484 -0.01930912246863302 0.4944122385721389 
0.01285176353571705 -0.02205435966450968 -0.4043409729851852 
0.007762596345244814 -0.0365393399744178 -0.2440326653313099 
0.01024603891490275 -0.03508843153019379 -0.1732996260869232 
0.008842380067207207 -0.03614643861847875 -0.03374890925641395 
0.007000465732674203 -0.03621678634013958 0.01565044807236841 
0.0006295873564645836 -0.03435913742192338 0.4134454242891363 
-0.002234825617915845 -0.03285987452916456 0.4523907293183723 
0.009719153580254559 -0.02624604511489264 0.4856538885868237 
0.01492734870834503 -0.02204447570844004 -0.4620313395522962 
0.02284175309179218 -0.03405219600029401 -0.3565072254004329 
0.02213115832852342 -0.03376576451277719 -0.3189423041744272 
0.03573228476101007 -0.02272384768575769 -0.2725077218412147 
0.03442115764140176 -0.02178474704351354 -0.2151813973040006 
0.03595575204436867 -0.02298822489147494 0.3403037072500462 
0.03535786894146858 -0.02635147185675744 0.396410667870561 
0.04689203263042736 -0.02064713949690493 0.4129709147470326 
0.03110457409523422 -0.03608001833052809 0.4371992286056928 
0.03657931755734426 -0.01894510575664911 -0.3679891418419288 
0.03549723864083288 -0.02272547011855219 -0.1835233316837051 
0.03524639347096947 -0.02158208319074417 -0.1135591485658266 
0.03697080286367163 -0.02588167370747709 -0.08951868453739505 
0.03622633279610264 -0.0248412425738754 -0.06124967253365118 
0.03798343638042986 -0.02221984896483671 -0.02024322540684239 
0.05076078110312332 -0.01939498703391659 0.3295737105150947 
0.03491798762322591 -0.004952377971213689 0.3586401380586761 
0.03232767171401802 -0.03524473078188863 0.4782418507243237 
0.03207012593998789 -0.01939296664683654 0.4951870893882982 
0.07118978996657904 -0.0397106340025979 0.06642878188520616 
0.07190315751099904 -0.01887216622398191 0.1181000883525372 
0.09217422297391621 -0.01900301394095316 0.3329483152224441 
0.06892791592174245 -0.02718912268686606 0.4080569985944205 
0.07000716324362706 -0.03747058618585159 0.4476464418541909 
0.06900213400020826 -0.03262729098014527 0.4766426601258308 
0.08132430801162892 -0.01683535146384366 0.06467075728932106 
0.0725631509054266 -0.01988841879315419 0.2540440496216373 
0.07331712770682342 -0.03487822630160885 0.2767596207723712 
0.0713865126360534 -0.01942511710873145 0.4868465249032123 
0.1262647644764675 -0.02437805008696401 0.2691159527056602 
0.09378266115045845 -0.02184055855170099 0.4125870707832101 
0.10500130557752 -0.03377347197959691 0.438959945965757 
0.1228464273307396 -0.03481990315262395 0.4572193448392933 
0.09365913602924099 -0.0201242674095547 0.478592268265571 
0.1477856788156652 -0.03252616270249499 0.2958744252994981 
0.1084807213706157 -0.03529507211423746 0.3150121001510509 
0.1294350590142763 -0.02559420255879059 0.4079875933336773 
0.1317004450697316 -0.03605913205303313 0.4369091230399147 
0.1563936981645961 -0.02182502113796461 0.4611499071666583 
0.1652299030415176 -0.02334549403647167 0.3212589144020084 
0.1519353610613837 -0.03603994143635184 0.4369091230399147 
0.1676603108459343 -0.01725318813232128 0.2939412858090429 
0.1743295400829267 -0.01946689937778187 0.4369120637555797 
-0.1204037100435532 -0.02210862485338829 0.466320436270194 
-0.08666115472892498 -0.01661217953791044 0.195513817594965 
-0.09199244106570591 -0.01508718462965527 0.3263422670147866 
-0.1069995395903318 -0.0179570464695957 0.3767847071954924 
-0.09963676468187237 0.01128295066317828 0.4296736550019044 
-0.07124348138782594 0.001199533810067887 0.02806659243940463 
-0.06686535955349109 0.004169809274965839 0.3412152802985464 
-0.05687162236020524 0.00736387287634571 -0.3525297357271826 
-0.05505939181166002 0.006206207708684495 -0.2756628312051022 
-0.05659650356161511 0.001821842510616761 0.009970180739552359 
-0.05929586133914616 -0.0009741146215554683 0.3857493556963183 
-0.03330318600690964 0.002794572588829438 -0.3969348203631993 
-0.009725105289882291 0.002532983040033713 -0.4809594186476447 
0.01220871956694808 0.002843123459264812 -0.4597936334414077 
-0.00228800585472884 0.001207993634134306 0.4921710440860551 
0.03251046518821703 0.003478854429477675 -0.2836695270394032 
0.03495539125711546 0.005728591512046233 -0.2193016463744251 
0.03343467146298484 0.004181644619505409 -0.1548314152106912 
0.03480942884742309 0.005935961821890843 -0.1201554470317723 
0.03268047578422698 0.005471700396312792 -0.03242684645238231 
0.04396682726657156 0.002917584148051918 -0.01129992915038232 
0.04443490212335185 0.001826486790304345 0.3310422303090091 
0.03533582320878577 0.007752967221908616 0.3963166921554582 
0.06579604433534501 -0.01183463551292802 0.01014573133949417 
0.0627816506664319 -0.0104645443025664 0.02946697329186297 
0.0603703614758236 -0.01916107592618002 0.1537799432829731 
0.06055380783738012 0.01869001650781859 0.1526474610126026 
0.06288948487045179 -0.01465073675861904 0.2296777900985938 
0.05558628917720521 0.008944207060053919 0.4124999881854488 
0.03082649442870175 0.001036745447024238 0.4925674232215774 
0.07746429099674473 0.02295150341654552 0.04825960543863207 
0.07112994104480995 0.004878149859554703 0.2557649338022751 
0.09185175013072371 0.001911463661747541 0.330093234351545 
0.1425164689922743 0.002311087909456381 0.2755715509678469 
0.1579823127650425 -0.01904120477974271 0.4116248462160192 
0.1500512064979915 0.005093738347062499 0.4606509662561636 
0.1580032702907964 0.00320844594009121 0.436889890973726 
-0.1151618559213406 0.003274994225622776 0.440234887944734 
-0.08565258672383882 0.01915594882086378 0.1376624758979528 
-0.1097932662541534 0.0002691739020940081 0.3559950589981751 
-0.08726692635839013 0.005026655974870106 0.4654111890231102 
-0.08798336825687199 0.0223553036661727 0.05425322576570854 
-0.08414341062419615 0.02317480801127195 0.1638732304671871 
-0.08760041858571312 0.02174479065009118 0.211293884993254 
-0.08805344614381509 0.02170844234968849 0.2539544685453883 
-0.07307042160807896 0.004285091584066344 0.3052688363003021 
-0.0684418213829268 0.01369038370657991 0.4364596944580262 
-0.05168899906286861 0.003002860049751116 -0.3769067375984755 
-0.05488262292109405 0.005468582436276584 -0.189873255257823 
-0.05428413098015256 0.005298287959991714 -0.1406173527894255 
-0.0553545535037144 0.005723076860845177 -0.03225304152398611 
-0.05386284855627969 0.004247909680007037 0.002640942980304329 
-0.04983669032693921 0.02371710542897837 0.02703612613504291 
-0.05630503999672219 0.01404037244899318 0.2929754758029406 
-0.06891326371525226 0.003961858545649503 0.414827175084319 
-0.03162023010146717 0.003048984825925646 -0.4591266530694347 
-0.0282896939011968 0.01549732585336917 -0.3710474343839444 
-0.03008113920958963 0.01472505830864031 -0.2805346902494418 
-0.03066797702739483 0.01431867642615113 -0.05479382217210656 
-0.02690702581225713 0.01509127443805514 0.013352056539005 
0.0209869317442994 0.01618249047868507 0.2916913660956509 
-0.02855947010453104 0.01455359780098371 0.3509323073497832 
-0.03524436534150045 0.002755705414208904 0.4961467265952417 
-0.00994396687183291 0.01108747870810006 -0.4576296132084635 
-0.01034378308614842 0.01086943586833805 -0.3983480118348415 
-0.03107223796207871 0.01448710194190714 -0.167528361659803 
-0.008881164775076285 0.0090935927892102 -0.03053807981083616 
0.007930401009071808 0.01527204354477227 0.01342235196955048 
-0.038454024750539 0.01437918503480293 0.4354981689479331 
-0.03579931914666316 0.01455163964024814 0.4777189942532958 
0.009876113958535623 0.002069368869185111 -0.4013855820726181 
0.00851536652721391 0.01629268021269841 -0.3685440085495674 
0.01046676928144402 0.01466436864917359 -0.3202918246842803 
0.01220595736322617 0.01462404733546568 -0.2412370487828283 
0.01032493253695709 0.01469580173592319 -0.1591436657998057 
0.01015634326312551 0.01346540637629569 -0.03899209684230816 
0.01761625443521926 0.01309213258761935 0.3321821734081933 
0.009822999662906222 0.01468618840412746 0.4109844263306525 
0.0319322240757305 0.002308335278981652 -0.3777726431515304 
0.03502257100507101 0.006036384770934647 -0.3305145350395298 
0.01806800355687639 0.01565809043931683 0.0009139316767029104 
0.03052586511147121 0.002883602014353365 0.4165786972160879 
0.03518889961001259 0.01500941882137157 0.4406995107038708 
0.05143120224403912 0.0238053201619235 0.02955376918872228 
0.0584016709253243 0.02325079937510383 0.1967556424346493 
0.05345086303268397 0.03348958211792347 0.2550326126810704 
0.07648322928438699 0.0152834505105252 0.275501132593926 
0.04516319795427177 0.01140037056732092 0.4778674093399379 
0.08358050170100967 0.01760619622183459 0.0725492125535085 
0.05064285512922476 0.0143084263424328 0.3149143092881541 
0.09293622637590268 0.004794568520103399 0.4806202848163078 
0.1171679463063129 0.01257965363357906 0.3147944708061511 
0.1172169419749715 0.003012958806690291 0.4162410478840326 
0.1384671588519988 0.01378599596184844 0.2955636348882705 
0.1176882831577829 0.01471171361132327 0.437762330918796 
0.1092756357494312 0.01396653750613995 0.4561093316579192 
0.1590182577486786 0.004284072406672445 0.3205820060036617 
-0.07109542031431741 0.02367886613151835 0.02950445667220613 
-0.07044104173702707 0.04280772431897213 0.0524972185487933 
-0.07119910862917775 0.04023863532166568 0.2178627794353822 
-0.0687850799388704 0.04385919196270364 0.2541263899422407 
-0.07391477726858839 0.02766390232235509 0.2746781571377107 
-0.06606857011528336 0.04363177307207041 0.180184146074079 
-0.04575826626888638 0.0422517106001435 0.2496400538827829 
-0.03681317705491177 0.03252910518296198 0.2753159675779089 
-0.03432987053832838 0.04276912271998927 0.1316701175058024 
-0.01658305325835873 0.0395831658502598 0.2098203881743175 
-0.002876805750311885 0.04257884810766895 0.0497772387052128 
0.007846638054173573 0.04323502615796104 0.1454347734030802 
-0.004062201256699316 0.03910089306143055 0.1692828475829047 
0.05086444251856842 0.04424813225169587 0.05309566086416816 
0.03022583500051794 0.04590326102895319 0.1679254712447836 
0.03161866145406466 0.04235415772535489 0.2502561980078001 
0.04621766367816307 0.03027718220061574 0.2767267879327042 
0.04854138944045225 0.04399545452558366 0.1153204649422849 
0.0489607365395333 0.03966541137152474 0.1454710339153402 
0.03296882428728102 0.05058832912961445 0.1996776584906907 
0.05113796868068292 0.03597890030839832 0.200205739691931 
0.07099569709477538 0.03885780624461257 0.07096145821103272 
0.07186667418680846 0.02524263931054349 0.1020669805591267 
-0.06966937929632717 0.04329190622893328 0.1227549876273599 
-0.05048112151654596 0.05076901350463288 0.2029391357245193 
3 2 1 3 
3 35 4 5 
3 8 9 10 
3 0 9 42 
3 1 13 3 
3 3 11 4 
3 4 11 5 
3 11 12 5 
3 5 12 6 
3 6 12 7 
3 8 7 12 
3 12 14 8 
3 8 14 9 
3 42 9 14 
3 13 11 3 
3 14 15 42 
3 21 16 11 
3 11 16 12 
3 12 22 14 
3 22 15 14 
3 13 19 20 
3 13 20 11 
3 16 22 12 
3 15 22 92 
3 93 15 92 
3 83 17 18 
3 18 20 19 
3 20 21 11 
3 18 23 24 
3 18 24 20 
3 24 28 20 
3 28 29 20 
3 20 29 21 
3 29 25 21 
3 21 25 16 
3 25 26 16 
3 27 16 26 
3 22 16 27 
3 24 23 106 
3 28 24 106 
3 132 30 31 
3 30 0 31 
3 0 133 31 
3 34 35 36 
3 35 131 36 
3 30 132 10 
3 10 0 30 
3 9 0 10 
3 32 37 38 
3 38 46 32 
3 32 46 130 
3 130 46 47 
3 56 1 2 
3 56 2 39 
3 2 3 33 
3 3 4 33 
3 33 4 34 
3 35 34 4 
3 35 5 131 
3 5 6 131 
3 6 40 131 
3 6 7 40 
3 7 41 40 
3 7 8 41 
3 41 8 10 
3 0 42 43 
3 133 0 43 
3 38 37 44 
3 44 45 38 
3 38 45 46 
3 51 61 52 
3 61 53 52 
3 75 63 53 
3 53 63 54 
3 55 66 39 
3 39 66 56 
3 46 45 57 
3 47 46 57 
3 48 59 72 
3 72 73 48 
3 48 73 49 
3 49 73 50 
3 73 60 50 
3 50 60 51 
3 60 61 51 
3 61 62 53 
3 62 75 53 
3 63 64 54 
3 54 64 55 
3 64 65 55 
3 55 65 66 
3 1 56 67 
3 56 66 67 
3 1 67 13 
3 67 19 13 
3 15 43 42 
3 84 43 15 
3 84 68 43 
3 43 68 37 
3 37 68 44 
3 44 77 45 
3 45 77 78 
3 57 45 78 
3 58 69 70 
3 70 71 58 
3 58 71 59 
3 71 72 59 
3 89 74 73 
3 73 74 60 
3 74 80 60 
3 60 80 61 
3 80 62 61 
3 75 76 63 
3 82 83 65 
3 65 83 66 
3 83 67 66 
3 84 85 68 
3 68 85 44 
3 85 77 44 
3 69 87 70 
3 87 79 70 
3 70 79 71 
3 71 88 72 
3 72 88 73 
3 88 89 73 
3 80 81 62 
3 62 81 75 
3 75 81 76 
3 63 76 64 
3 76 82 64 
3 64 82 65 
3 83 19 67 
3 15 93 84 
3 85 86 77 
3 78 77 86 
3 79 96 71 
3 96 88 71 
3 89 90 74 
3 74 90 80 
3 90 91 80 
3 80 91 81 
3 91 97 81 
3 97 98 81 
3 81 98 76 
3 98 99 76 
3 99 100 76 
3 76 100 82 
3 100 101 82 
3 101 17 82 
3 83 82 17 
3 19 83 18 
3 93 94 84 
3 94 95 84 
3 84 95 85 
3 95 104 85 
3 85 104 86 
3 86 104 105 
3 89 88 96 
3 90 89 96 
3 17 23 18 
3 27 102 92 
3 27 92 22 
3 93 92 103 
3 111 104 95 
3 17 101 153 
3 23 17 153 
3 154 23 153 
3 154 112 106 
3 23 154 106 
3 106 112 28 
3 112 107 28 
3 28 107 29 
3 29 107 155 
3 29 155 157 
3 29 157 25 
3 113 25 157 
3 25 113 26 
3 113 114 26 
3 26 114 27 
3 114 122 27 
3 27 122 108 
3 102 27 108 
3 109 110 94 
3 94 110 95 
3 95 110 111 
3 104 111 115 
3 105 104 115 
3 117 118 109 
3 109 118 110 
3 118 119 110 
3 119 120 110 
3 110 120 111 
3 111 120 115 
3 114 113 116 
3 116 121 114 
3 121 122 114 
3 123 124 117 
3 117 124 118 
3 124 119 118 
3 120 119 125 
3 116 128 121 
3 121 126 122 
3 108 122 126 
3 164 127 123 
3 123 127 124 
3 127 125 124 
3 124 125 119 
3 126 121 128 
3 164 129 127 
3 129 125 127 
3 132 31 169 
3 31 133 169 
3 32 130 167 
3 168 33 34 
3 34 36 168 
3 37 32 134 
3 134 32 167 
3 47 170 130 
3 39 2 135 
3 33 171 2 
3 33 168 171 
3 131 40 173 
3 40 174 173 
3 40 41 174 
3 41 10 175 
3 132 175 10 
3 132 136 175 
3 169 136 132 
3 169 140 136 
3 133 140 169 
3 43 140 133 
3 37 134 184 
3 48 49 177 
3 49 137 177 
3 49 50 137 
3 50 138 137 
3 50 51 138 
3 51 52 138 
3 52 178 138 
3 52 53 178 
3 53 179 178 
3 53 54 179 
3 54 180 179 
3 54 55 180 
3 55 181 180 
3 55 39 181 
3 39 139 181 
3 39 135 139 
3 43 184 140 
3 37 184 43 
3 57 192 47 
3 192 170 47 
3 58 59 185 
3 59 141 185 
3 59 177 141 
3 48 177 59 
3 192 57 78 
3 69 185 142 
3 58 185 69 
3 192 78 144 
3 87 142 143 
3 69 142 87 
3 86 144 78 
3 87 143 200 
3 200 79 87 
3 96 200 208 
3 79 200 96 
3 105 159 86 
3 159 144 86 
3 96 208 209 
3 96 209 90 
3 90 209 145 
3 90 145 91 
3 91 145 146 
3 91 146 97 
3 97 146 98 
3 98 146 147 
3 98 147 148 
3 98 148 99 
3 99 148 100 
3 100 148 149 
3 100 149 101 
3 101 149 150 
3 151 92 102 
3 92 151 103 
3 93 103 152 
3 94 152 158 
3 93 152 94 
3 150 153 101 
3 112 154 160 
3 155 107 218 
3 155 156 157 
3 113 157 161 
3 108 162 102 
3 162 151 102 
3 109 94 158 
3 115 159 105 
3 112 160 218 
3 112 218 107 
3 117 109 222 
3 222 109 158 
3 220 159 115 
3 116 113 161 
3 220 120 165 
3 115 120 220 
3 163 116 161 
3 226 162 108 
3 123 117 222 
3 125 165 120 
3 116 163 128 
3 126 226 108 
3 222 164 123 
3 126 128 226 
3 164 166 129 
3 129 166 125 
3 166 165 125 
3 134 167 170 
3 170 167 130 
3 135 2 227 
3 2 171 227 
3 36 172 168 
3 131 172 36 
3 131 173 172 
3 41 231 174 
3 175 231 41 
3 184 134 176 
3 134 170 176 
3 139 182 181 
3 139 135 182 
3 135 227 182 
3 175 183 231 
3 175 136 191 
3 175 191 183 
3 136 140 191 
3 191 140 184 
3 184 176 198 
3 198 176 199 
3 176 170 199 
3 192 199 170 
3 141 177 186 
3 177 137 186 
3 186 137 187 
3 137 138 187 
3 138 178 187 
3 187 178 195 
3 178 179 195 
3 195 179 188 
3 179 180 188 
3 188 180 189 
3 180 181 189 
3 182 189 181 
3 190 183 191 
3 191 184 198 
3 142 185 193 
3 193 185 194 
3 185 141 194 
3 194 141 201 
3 141 186 201 
3 186 187 202 
3 202 187 203 
3 204 187 195 
3 196 188 197 
3 188 189 197 
3 206 190 191 
3 207 191 198 
3 192 144 199 
3 143 142 193 
3 143 193 200 
3 193 194 200 
3 200 194 201 
3 186 202 201 
3 203 187 204 
3 204 195 205 
3 195 188 205 
3 188 196 205 
3 205 196 210 
3 196 197 210 
3 206 191 207 
3 198 199 212 
3 208 200 201 
3 208 201 209 
3 201 202 209 
3 209 202 145 
3 202 203 145 
3 145 203 146 
3 203 204 146 
3 146 204 147 
3 147 204 148 
3 204 205 148 
3 148 205 149 
3 149 205 150 
3 205 210 150 
3 206 207 152 
3 152 207 211 
3 211 207 212 
3 207 198 212 
3 212 199 217 
3 217 199 144 
3 159 217 144 
3 213 150 210 
3 197 213 210 
3 216 190 219 
3 190 206 219 
3 151 219 206 
3 103 151 206 
3 152 103 206 
3 158 152 211 
3 158 211 212 
3 225 212 217 
3 153 150 213 
3 153 213 154 
3 154 213 160 
3 249 155 218 
3 155 249 156 
3 157 156 214 
3 161 157 215 
3 157 214 215 
3 161 243 216 
3 215 243 161 
3 162 219 151 
3 158 212 224 
3 224 212 225 
3 225 217 220 
3 220 217 159 
3 216 219 221 
3 221 219 162 
3 222 158 224 
3 220 165 225 
3 163 161 223 
3 161 216 223 
3 223 216 221 
3 226 221 162 
3 223 221 226 
3 164 222 166 
3 166 222 224 
3 166 224 165 
3 224 225 165 
3 128 163 223 
3 226 128 223 
3 227 171 228 
3 250 228 171 
3 250 171 168 
3 168 172 250 
3 172 173 232 
3 250 172 232 
3 232 173 229 
3 173 174 230 
3 229 173 230 
3 230 174 231 
3 182 227 228 
3 235 250 232 
3 233 229 230 
3 230 231 234 
3 183 234 231 
3 237 189 182 
3 237 182 228 
3 237 250 235 
3 235 232 239 
3 239 232 236 
3 190 234 183 
3 197 189 237 
3 237 235 238 
3 233 230 234 
3 237 238 244 
3 235 239 238 
3 240 197 237 
3 238 239 241 
3 241 239 246 
3 236 246 239 
3 236 233 242 
3 242 233 243 
3 233 234 243 
3 243 234 190 
3 213 197 240 
3 237 244 240 
3 246 247 241 
3 247 245 241 
3 242 247 246 
3 247 242 215 
3 215 242 243 
3 216 243 190 
3 160 213 240 
3 160 240 248 
3 248 240 249 
3 244 249 240 
3 245 249 244 
3 156 249 245 
3 214 156 245 
3 247 214 245 
3 215 214 247 
3 248 218 160 
3 249 218 248 
3 232 229 251 
3 229 233 251 
3 237 228 250 
3 236 232 251 
3 236 251 233 
3 244 238 241 
3 236 242 246 
3 241 245 244 
