ply
format ascii 1.0
comment VCGLIB generated
element vertex 250
property double x
property double y
property double z
element face 500
property list uchar int vertex_indices
end_header
-0.4722646999941595 -0.1252839939902945 -0.04240673453770205 
-0.4659422151837951 -0.1394519225489509 -0.01417376054469905 
-0.4651452470829597 -0.1412664205834623 0.03227448330578158 
-0.487671487047131 -0.1219823030391376 0.02517890826672484 
-0.4462220875377401 -0.1307878554592518 -0.06825203658060369 
-0.4434511139969285 -0.1399591089966433 -0.04218400527489181 
-0.4361184404090009 -0.1384330558417917 -0.02128715777088121 
-0.4461241668920967 -0.1383687825424911 0.0166326819609999 
-0.3932852411687824 -0.1242362259931219 -0.09180884680933499 
-0.4127668867638191 -0.1409218918006287 0.07540990317187873 
-0.4269418484074708 -0.1393649482938107 0.07801691705212041 
-0.4254506833536619 -0.1211360938151711 0.1009266486107058 
-0.4057585027446929 -0.1412222698089881 -0.04525855766271175 
-0.4095789832900452 -0.1240210132371539 -0.02788824936509654 
-0.4065083428881904 -0.1276926616757507 0.05418821765081546 
-0.4007438184617825 -0.1413646815316504 -0.06611458864638817 
-0.3855756706709911 -0.1223227725374208 -0.03206772450674855 
-0.3665917423792459 -0.1328924708696844 0.05665453040039561 
-0.4031474713859223 -0.1265809328888969 0.1062203201708997 
-0.371718938748851 -0.1368626884443398 -0.04550684211305659 
-0.3730395584883126 -0.1429748544002331 0.07764735591457356 
-0.3360696663630102 -0.1237497289800625 -0.07604582269065127 
-0.3475656957958298 -0.1418115245817769 -0.06059748093586193 
-0.3494882641302134 -0.1272998300314853 0.0353357995894575 
-0.3435929632392288 -0.1418738970649501 0.0694815343495674 
-0.3099408010590665 -0.1386306075149409 -0.0291212424008469 
-0.3260776255437894 -0.140184913938134 -0.00561909829924258 
-0.3254449726716165 -0.1416353549050578 0.03186630816476828 
-0.3468224209880029 -0.1204659926964042 0.09763518070759672 
-0.304532651175679 -0.1372620814811801 0.03317602967726618 
-0.4538950169152642 -0.1184769531478441 0.08265601252208239 
-0.4272889412955256 -0.1087378944820296 0.01325054117106077 
-0.4228468952828119 -0.102006039352262 -0.0072544831297295 
-0.4293752414536078 -0.119515735392749 0.02694902151705597 
-0.4026647597745743 -0.1035381292072942 -0.03191337660846951 
-0.3626573766311957 -0.1021007888835268 0.03980309367476648 
-0.3717051029502982 -0.1268023461799238 0.1073219168114443 
-0.3076894099491212 -0.09592068470336614 -0.05790957440178629 
-0.3223319650257266 -0.1386006580561095 0.05494573951528964 
-0.2954247680071789 -0.1119979080400741 -0.04525610573704533 
-0.2726165669306984 -0.1078468763257015 0.05579276098210836 
-0.2837623973917069 -0.1187841870476175 -0.004419552203607599 
-0.4408297393538907 -0.06350756914081961 -0.07671414077926307 
-0.405903151338299 -0.06940571934372616 -0.02445348771533743 
-0.3834630646099663 -0.05134135831349903 -0.09069480901815 
-0.3664065573322946 -0.1185059645183291 -0.02409061905591376 
-0.3644050990409198 -0.06590570778661618 -0.02813766406275069 
-0.3442826873625031 -0.1208203153168642 -0.001023104172382512 
-0.3481406531806585 -0.09465962269902015 0.001006417599525428 
-0.3461623165468242 -0.06563000932970431 0.0115525434074836 
-0.3440236113135101 -0.05039381445523098 0.09714134985257659 
-0.3052995645156837 -0.09246667098554696 0.07742057058387976 
-0.2831990442241507 -0.08388225521649442 -0.05572558893974071 
-0.2675919197566025 -0.08123774702144916 0.06943102600352834 
-0.2317292228725132 -0.08842143633632107 -0.05020400734950083 
-0.2082911045446155 -0.09022824397537133 0.05967365514331423 
-0.2230916367225899 -0.09978613611725963 -0.02428760144061047 
-0.181405083993338 -0.08010111938129576 -0.04594755521586592 
-0.169528621981553 -0.08563228055295138 0.03743386337128857 
-0.4891108894286054 -0.06506372339182921 0.01444367581324907 
-0.4776793988116957 -0.06879657260202413 -0.0365093285001288 
-0.4679509027270881 -0.06090367870115544 0.06898649762965983 
-0.4313504539883967 -0.06437033340191918 0.009941496098455882 
-0.4109536629787759 -0.06452819646561343 0.04088516854123512 
-0.3740615898459074 -0.06287875415195686 -0.02852654771777006 
-0.3869904607398226 -0.06978657198035371 0.04997669317398485 
-0.4101168152164673 -0.06130258542240415 0.1071226506626389 
-0.3497973076633136 -0.06275381521957903 -0.08441664843528479 
-0.3598583260169934 -0.0609733645885898 0.03956602416775069 
-0.2841674758904827 -0.05216855047892922 -0.03340662771711225 
-0.3021059966431646 -0.05977115836223177 0.0621637781652248 
-0.238600985225374 -0.04820639283911271 -0.05037364180692191 
-0.2451034267145169 -0.06486599170414187 0.07074368069460517 
-0.1963072222267692 -0.06341060216244412 -0.05450256078624213 
-0.1747745201966097 -0.07147171292503442 0.06724105053898953 
-0.1388898140168756 -0.06441689328637579 -0.04721850258952513 
-0.1161750843460591 -0.06362778530141987 0.06205018759709753 
-0.4806786427824694 -0.04328778304000896 0.009190785104410718 
-0.4052199467196166 -0.03871955714130901 -0.04127067624013702 
-0.3484434096729218 -0.03573209427999229 -0.06715427109292652 
-0.3437470672635623 -0.04238532979842886 -0.02499400078638508 
-0.3400655117441523 -0.0415033741463925 0.007096662969415203 
-0.3157879384857125 -0.04413556179383731 -0.04118053000497476 
-0.3223065713920825 -0.03546368462307489 0.05712810408607898 
-0.2850056802475565 -0.04524426422609831 0.02960832830715789 
-0.2092303272274435 -0.03759213460104018 0.06513265468913448 
-0.1990063303497983 -0.03889087149331462 -0.04813143992004819 
-0.1309696683678521 -0.04169078659469879 -0.05464657609069307 
-0.1481302513541071 -0.04235919991072806 0.07248495234567331 
-0.08389057256466984 -0.0407097620325472 0.07134979849676648 
-0.08494886234451583 -0.03100058796355372 -0.05519324874089099 
-0.05051372972011995 -0.04453998745807954 -0.04594612028245372 
-0.1248418354989859 -0.07353132115165419 -0.02305866781899533 
-0.1939116869124299 -0.09504939695159188 0.005319788139307433 
-0.03920203627662754 -0.04346001924320035 0.05896373302090758 
0.04984616875498907 -0.02972992468829242 0.01006889207768862 
-0.04226059957886047 -0.0534231695840159 0.0298898379034939 
-0.464900775976646 -0.03636241786934893 -0.02951624898669891 
-0.4408684020665151 -0.04095636282937666 -0.005460865290339307 
-0.4434530981503224 -0.03762606445335814 0.03856490678693163 
-0.4637653525818347 -0.03858364942285419 0.05791058275890079 
-0.4316886800806319 -0.03535574705760931 -0.06813806813101618 
-0.4214137371485402 -0.03835696443781412 0.0892423883291769 
-0.3816851504341971 -0.04112347187763141 0.058915298105203 
-0.4215415128195708 -0.0346515906182135 0.06522522032539137 
-0.3685338636760767 -0.03987052825035434 -0.04415963589237416 
-0.3412638213309478 -0.04222127650087296 0.03292855453056413 
-0.3755566519791745 -0.03757282840950383 0.09623668772992931 
-0.3302457140502462 -0.03667578161171973 -0.03049427339062712 
-0.3176947069003052 -0.03353457828477815 -0.001920328511864222 
-0.2027021491150798 -0.02366577018647076 -0.01424767734709368 
-0.112151195387258 -0.01962866438129514 -0.04738057923305156 
-0.08038565812314172 -0.01913753986215068 0.07100972084861715 
0.02278665075182767 -0.02232975877324987 -0.04803820172866119 
0.01999065722034271 -0.03485773254398708 -0.02422072144959711 
-0.01657905803791821 -0.0233182667909712 0.07066268613475768 
0.03175499214025347 -0.02652015232389709 0.05951592087054206 
-0.234433304609072 -0.0344013407474351 0.03735784047899623 
-0.1129733047545272 -0.001513010794127226 0.03521599711013552 
-0.1401063373449806 -0.01703799152078914 0.06264442023942698 
-0.09823003887962126 -0.007615293047569215 0.0584975975107048 
-0.03991873736224736 -0.004986064666618924 0.07029562752642207 
0.07448679699900687 0.008549906259061699 0.0728127556605619 
0.1149369575347819 -0.01032105799475833 -0.02092444769052249 
0.1243833936965924 0.002496980566983433 -0.04551148172879548 
0.1226955571752966 -0.007895739204966152 0.03729524891882725 
0.1087237621309825 -0.003980108055379592 0.06093716850893788 
-0.1253301654383935 -0.005062875601336608 -0.02115048915518888 
-0.01409961036415053 0.0188942597594511 0.0594824995538343 
-0.01191489700311732 -0.007593470717680995 -0.05501793174358599 
0.07406774516601318 0.01560228361269671 -0.05543953920985351 
0.03289736865083238 0.009009821306719294 0.07189537860063543 
0.1242773513870004 0.01841115155682155 -0.05343307946113481 
0.1432124241176136 0.01985261260614813 0.06954290613920393 
0.1792907027551927 0.01597711270422695 0.05930578195247217 
0.2603280222062134 0.01798808327591041 -0.05242928953487708 
-0.04081113033576863 0.01814181833024793 -0.02019431391076305 
-0.06365729635444109 0.01354843532172881 0.01672354270293886 
0.04042006479596084 0.03950334775554332 0.0368256052931464 
-0.0271620132865925 0.01038883793943099 -0.04670089995826088 
0.05739956375634477 0.03661241867305357 0.05963865971202654 
0.09005595007420866 0.04056213598127286 -0.04695287416364725 
0.1256635500137595 0.0410542673176779 -0.05108708618512332 
0.1098661453321487 0.03822336781859596 0.06839075142234363 
0.1663021908986602 0.05289357628824178 0.07007646006741078 
0.1860772736013113 0.0374884127895945 -0.05525253485095302 
0.1834370013511472 0.0360382182349252 0.07306128260489281 
0.217660571402368 0.02500647835098649 -0.0451500140529489 
0.2228361025377499 0.01642216027416942 -0.009533914198559637 
0.2172522388780019 0.02811682798265716 0.06491280733411083 
0.2382277340962001 0.0365073261198808 0.08198654769494304 
0.2289741920364107 0.0208912981527039 0.04534341135358118 
0.2690847260067603 0.02250705119217025 -0.0864725705979356 
0.2633637132516317 0.01898587814008902 0.05543974916037366 
0.2777860656903163 0.03430378710102226 0.1217323670113482 
0.2877747452051557 0.02701804960232214 -0.1136172279080137 
0.3415830975928109 0.0402695182466624 -0.04883557117274857 
0.310734426550063 0.03253769044367654 -0.01886467660211873 
0.3201283486196076 0.03496035574810149 0.04588727025353598 
0.09185838519811647 0.05313456483170372 0.03753842574370339 
0.08516770723041119 0.05048140298796074 -0.0242478816122942 
0.08265322559736595 0.05287642368157944 0.01104703801787901 
0.1192556947788117 0.05439203506641715 0.05824672741606217 
0.1650695291315272 0.06125026526329878 -0.04845375827157454 
0.2129420561073073 0.06028112503652505 -0.06232555290456573 
0.2285649049084967 0.03691100247107852 -0.06873836372489342 
0.2038853100225667 0.05762034045331665 0.07715174262668834 
0.3031223225448868 0.0595876327300478 0.1533901029980821 
0.337336728304164 0.06198391715310116 -0.1291478620069585 
0.3373653437363893 0.05607950958746748 -0.02959136106407625 
0.3383966604716008 0.0566469927127029 0.05305839094797593 
0.2925244515084909 0.02676903729036301 0.1121103439404747 
0.3196310343097441 0.03566179847215076 0.140514174416197 
0.3234038420194123 0.05742393572648918 0.1610075047056299 
0.355229630116916 0.04888935006239789 -0.11162764331954 
0.3747100455816548 0.05524472141516171 0.0560502143244633 
0.352071974464656 0.04287463400377124 0.08122555730005698 
0.3875727193641373 0.0663963526544922 0.149708491736511 
0.3988302613429182 0.05583526635580182 -0.06906640454053599 
0.3651312389064452 0.05057771102705674 -0.04042617942200076 
0.3953972609435188 0.05495768295691771 0.1277948715608072 
0.2003050796414232 0.08477038500965899 0.02159334202737257 
0.2052502809259796 0.08498020808889566 -0.02251995144910492 
0.1989161999263069 0.07657305032557783 0.05788045099691425 
0.2160402016754227 0.07605467651116081 -0.05876851307028547 
0.2211372119082781 0.08451365985682285 0.07179129117110167 
0.2398980053998671 0.06583728059195594 0.09711636441728277 
0.2514563407102323 0.07977496030773713 -0.1133711361652682 
0.2804456439549189 0.05779870391907076 0.1353913225259055 
0.2653584482572651 0.0398134094701936 -0.116771179047907 
0.3029337851320027 0.09546855274680878 -0.1297572005296139 
0.3179209664868917 0.06454618205962663 -0.004995586462931562 
0.3611891160559778 0.07741690979055935 -0.111321284461392 
0.4069479213950762 0.05981145282535213 -0.1002409255076888 
0.4234323507284101 0.0621995923735282 0.05993932536189488 
0.4432474613411936 0.07440646599658432 0.03265041792580035 
0.4502605347870921 0.06967054958277208 0.06578649643048831 
0.4353607631493289 0.07469510188602753 0.1161887221117431 
0.4652171713539248 0.07318535655241076 0.03398606987212499 
0.46748717956995 0.07451976419002657 0.05684613368552438 
0.2512817940554795 0.1007166713739352 -0.1082235738777039 
0.2381097215949009 0.1010155640672244 0.07738888138061426 
0.2811712318430767 0.09869524721743593 0.1424534737481191 
0.3205642617189385 0.0972756831541699 0.03801210172833543 
0.3425882143203864 0.08886091682081936 -0.02532591670483089 
0.3667503835457676 0.08162108914330404 0.1590439017641779 
0.3696006823460657 0.1203485984042903 0.1534703141993778 
0.4135234796046028 0.08658312791716309 -0.04465648519501592 
0.3890926845991221 0.07478308030197997 -0.1242612738782517 
0.4534825565520405 0.0918022702234441 -0.0917596971496295 
0.3859993093758992 0.08143895674747575 0.03682485215140088 
0.4537340425886225 0.08088039605067905 -0.06162222467644628 
0.4348556231233247 0.1058334196409876 0.02158519096935257 
0.4513157773926117 0.1010563529066739 0.1011053979494604 
0.478565455540483 0.09575952584608856 0.05974130947335289 
0.2335616244998042 0.1023501097704315 -0.01093828725560174 
0.2783230536431245 0.113841170896071 0.004903252381848199 
0.3109338319735994 0.1228408135915817 0.07923006379028243 
0.2686641208158082 0.1112571129799053 -0.1021402623430068 
0.2856107983998115 0.1154542840567737 -0.02838041231050285 
0.3058448336300589 0.1153639606901333 0.04685482651288961 
0.3343561944325473 0.1173790074073093 -0.1256893367343069 
0.302561289492516 0.1003227804249157 -0.005463309754084723 
0.3409318949593818 0.1181010372590822 0.05765648978969424 
0.319627502576341 0.09803141638353208 0.1636197739935273 
0.343241522641603 0.1199603311118239 -0.041898691834633 
0.3531532293005346 0.1074942556104265 -0.1260240284085127 
0.399504830789665 0.1199653711436323 -0.04114585374007069 
0.3413852025211225 0.1078808784159596 0.04904505537747935 
0.4823978141359623 0.1078027199012004 0.03774121599530605 
0.3278727439818357 0.1248217333421417 -0.04486647203139386 
0.3090197768995092 0.1222241874755573 0.1401983165388191 
0.3395711999561632 0.1297241833401722 -0.1065558690964256 
0.3716361707371906 0.1364245584453713 0.134196893690923 
0.403991287287001 0.1370521627865731 -0.104361485630346 
0.3555291611235898 0.1350309469897249 0.08149571189686045 
0.3868650653910412 0.1066429641935568 -0.1226331208707806 
0.4099312951429591 0.1238288003757415 0.1294072688903657 
0.4376194968497564 0.1383002572724353 0.1013003833088617 
0.4600091544755152 0.1252240475921722 0.01594251933606423 
0.4152323678710093 0.1491066621765319 -0.08350547356960666 
0.3669003832889652 0.1376286875754671 0.05773288109860338 
0.3767585043258828 0.1398472082220775 -0.0639088164016659 
0.4172833711581261 0.1497774405148021 0.09526158185084443 
0.4228639977220491 0.1469253394517059 -0.05905867593159361 
0.4399448920391466 0.1496616073004744 0.03042514879886648 
0.4441054414887047 0.1356021453900516 -0.08793821360005173 
0.4410716523073643 0.1384583171099737 -0.06578107815476289 
0.4808953134481775 0.1370680396099105 0.04306349684651886 
0.4481586193756973 0.1585728756817822 0.06053203878334856 
3 0 1 3 
3 3 1 2 
3 3 2 30 
3 0 4 5 
3 0 5 1 
3 5 6 1 
3 6 7 1 
3 1 7 2 
3 7 9 2 
3 9 10 2 
3 2 10 30 
3 7 6 31 
3 33 7 31 
3 33 14 7 
3 7 14 9 
3 11 30 10 
3 4 8 15 
3 15 12 4 
3 4 12 5 
3 13 6 12 
3 12 6 5 
3 6 13 31 
3 9 18 10 
3 10 18 11 
3 15 19 12 
3 12 19 16 
3 13 12 16 
3 17 20 14 
3 14 20 9 
3 20 18 9 
3 8 22 15 
3 22 19 15 
3 16 19 45 
3 20 36 18 
3 8 21 22 
3 45 19 26 
3 26 19 22 
3 45 26 47 
3 17 23 24 
3 17 24 20 
3 28 36 24 
3 24 36 20 
3 26 27 47 
3 47 27 23 
3 27 38 23 
3 23 38 24 
3 38 28 24 
3 25 22 21 
3 39 25 21 
3 39 41 25 
3 22 25 26 
3 25 29 26 
3 26 29 27 
3 29 38 27 
3 29 25 41 
3 0 3 60 
3 3 59 60 
3 4 60 42 
3 0 60 4 
3 8 4 42 
3 32 13 34 
3 32 31 13 
3 16 34 13 
3 34 16 45 
3 17 14 35 
3 67 21 8 
3 47 23 48 
3 23 35 48 
3 17 35 23 
3 37 21 67 
3 39 21 37 
3 38 51 28 
3 41 40 29 
3 29 40 38 
3 51 38 40 
3 41 39 56 
3 56 93 41 
3 93 55 41 
3 41 55 40 
3 3 61 59 
3 3 30 61 
3 43 32 34 
3 63 33 31 
3 33 63 14 
3 64 43 34 
3 8 44 67 
3 45 46 34 
3 46 64 34 
3 35 14 68 
3 68 14 65 
3 47 46 45 
3 47 48 46 
3 48 35 49 
3 35 68 49 
3 51 50 28 
3 28 50 36 
3 39 37 52 
3 40 53 51 
3 39 52 54 
3 56 39 54 
3 40 55 53 
3 57 56 54 
3 93 58 55 
3 96 58 93 
3 56 57 92 
3 93 56 92 
3 62 31 32 
3 66 30 11 
3 61 30 66 
3 42 44 8 
3 32 43 62 
3 62 63 31 
3 18 66 11 
3 65 14 63 
3 36 66 18 
3 50 66 36 
3 48 49 46 
3 67 82 37 
3 69 52 82 
3 82 52 37 
3 53 70 51 
3 69 71 52 
3 72 70 53 
3 54 52 71 
3 73 54 71 
3 55 72 53 
3 57 54 73 
3 74 72 55 
3 73 75 57 
3 58 74 55 
3 57 75 92 
3 58 76 74 
3 59 77 60 
3 77 97 60 
3 59 61 77 
3 61 100 77 
3 101 60 97 
3 101 42 60 
3 62 99 63 
3 62 98 99 
3 63 99 104 
3 100 66 102 
3 100 61 66 
3 42 101 44 
3 98 43 78 
3 98 62 43 
3 104 103 63 
3 64 105 43 
3 105 78 43 
3 65 63 103 
3 102 66 107 
3 68 65 103 
3 50 107 66 
3 44 79 67 
3 80 64 46 
3 80 105 64 
3 46 49 81 
3 80 46 81 
3 81 49 106 
3 106 49 68 
3 68 103 106 
3 67 79 82 
3 70 50 51 
3 70 83 50 
3 69 109 84 
3 82 109 69 
3 109 83 84 
3 83 70 84 
3 69 84 110 
3 117 110 84 
3 117 84 70 
3 85 70 72 
3 86 73 71 
3 74 85 72 
3 75 73 87 
3 87 73 86 
3 88 85 74 
3 76 88 74 
3 76 89 88 
3 87 90 91 
3 75 87 91 
3 75 91 92 
3 58 96 76 
3 96 94 76 
3 76 94 89 
3 91 114 92 
3 114 93 92 
3 114 95 93 
3 93 95 96 
3 97 77 100 
3 98 97 99 
3 97 100 99 
3 101 97 98 
3 104 99 100 
3 100 102 104 
3 79 101 78 
3 98 78 101 
3 79 78 105 
3 103 104 107 
3 102 107 104 
3 44 101 79 
3 79 105 108 
3 80 108 105 
3 106 103 83 
3 83 103 107 
3 108 82 79 
3 80 81 109 
3 108 80 109 
3 81 106 109 
3 109 106 83 
3 50 83 107 
3 82 108 109 
3 71 69 110 
3 70 85 117 
3 86 71 110 
3 137 110 117 
3 117 85 119 
3 111 87 86 
3 86 127 111 
3 119 85 88 
3 89 112 88 
3 112 119 88 
3 90 87 111 
3 121 112 89 
3 91 90 129 
3 94 121 89 
3 113 91 129 
3 94 115 121 
3 91 113 114 
3 96 116 94 
3 94 116 115 
3 95 125 96 
3 125 116 96 
3 114 113 123 
3 95 114 123 
3 127 86 110 
3 127 110 137 
3 137 117 118 
3 118 117 119 
3 118 119 120 
3 112 120 119 
3 111 139 90 
3 90 139 129 
3 131 121 115 
3 116 131 115 
3 125 126 116 
3 116 126 122 
3 116 122 131 
3 129 130 113 
3 113 130 124 
3 124 123 113 
3 123 148 95 
3 148 125 95 
3 139 111 127 
3 118 120 128 
3 112 128 120 
3 139 127 136 
3 121 128 112 
3 128 121 131 
3 124 130 132 
3 133 122 126 
3 124 132 147 
3 147 123 124 
3 125 134 126 
3 133 126 134 
3 147 148 123 
3 148 151 125 
3 149 134 151 
3 151 134 125 
3 148 153 151 
3 136 127 137 
3 137 118 138 
3 118 128 138 
3 139 136 160 
3 130 129 139 
3 161 136 137 
3 138 161 137 
3 138 128 140 
3 140 128 131 
3 141 130 139 
3 160 141 139 
3 122 140 131 
3 130 141 132 
3 143 140 122 
3 142 132 141 
3 133 143 122 
3 144 143 133 
3 145 132 142 
3 146 144 133 
3 147 132 145 
3 134 146 133 
3 134 149 146 
3 145 165 147 
3 135 148 147 
3 150 149 151 
3 189 152 165 
3 165 152 147 
3 147 152 135 
3 135 153 148 
3 154 150 151 
3 155 152 189 
3 153 171 151 
3 151 171 154 
3 155 156 152 
3 156 157 152 
3 152 157 135 
3 157 158 135 
3 135 158 153 
3 154 171 172 
3 158 171 153 
3 160 136 161 
3 161 138 159 
3 159 138 140 
3 159 140 162 
3 143 162 140 
3 142 141 160 
3 160 163 142 
3 162 143 144 
3 142 163 145 
3 164 145 163 
3 166 144 146 
3 165 145 164 
3 166 146 149 
3 149 186 166 
3 149 150 186 
3 164 189 165 
3 188 150 154 
3 186 150 188 
3 168 155 189 
3 188 172 167 
3 188 154 172 
3 168 174 155 
3 158 157 191 
3 167 172 173 
3 156 169 157 
3 157 169 191 
3 158 191 170 
3 170 176 158 
3 176 171 158 
3 174 178 155 
3 155 178 156 
3 178 179 156 
3 169 156 179 
3 175 176 170 
3 176 180 171 
3 171 180 172 
3 172 180 177 
3 173 172 177 
3 174 193 178 
3 181 161 159 
3 160 161 181 
3 181 159 183 
3 159 162 183 
3 144 183 162 
3 163 160 182 
3 182 160 181 
3 184 164 163 
3 184 163 182 
3 166 183 144 
3 183 166 185 
3 166 186 185 
3 184 187 164 
3 164 187 189 
3 168 189 190 
3 186 188 202 
3 188 167 202 
3 169 204 191 
3 192 174 168 
3 179 204 169 
3 175 170 210 
3 173 177 205 
3 193 174 208 
3 208 174 192 
3 179 227 204 
3 178 207 179 
3 179 207 227 
3 175 210 194 
3 175 194 176 
3 194 180 176 
3 197 177 180 
3 193 208 209 
3 209 211 193 
3 193 211 178 
3 207 178 211 
3 210 195 194 
3 194 195 196 
3 196 197 194 
3 194 197 180 
3 198 199 195 
3 195 199 196 
3 182 181 215 
3 215 181 185 
3 183 185 181 
3 187 184 200 
3 182 200 184 
3 215 200 182 
3 185 186 201 
3 189 187 190 
3 190 187 200 
3 201 186 202 
3 202 167 224 
3 191 222 203 
3 167 173 224 
3 168 190 226 
3 191 204 222 
3 170 191 203 
3 203 228 170 
3 168 226 192 
3 210 170 228 
3 173 205 224 
3 208 192 236 
3 236 192 226 
3 177 237 206 
3 177 206 205 
3 209 208 236 
3 177 197 237 
3 195 210 212 
3 197 213 237 
3 198 195 239 
3 239 195 212 
3 199 214 196 
3 214 213 196 
3 213 197 196 
3 239 229 198 
3 198 229 199 
3 199 229 214 
3 215 185 201 
3 200 215 218 
3 216 215 217 
3 217 215 201 
3 190 200 218 
3 218 215 219 
3 219 215 216 
3 217 201 231 
3 201 202 231 
3 219 216 222 
3 222 216 220 
3 220 216 217 
3 224 231 202 
3 218 221 190 
3 219 222 230 
3 203 222 220 
3 221 226 190 
3 204 230 222 
3 204 225 230 
3 228 203 223 
3 223 203 220 
3 231 224 206 
3 205 206 224 
3 227 225 204 
3 212 210 228 
3 236 246 209 
3 211 247 207 
3 209 246 211 
3 211 246 247 
3 214 229 248 
3 214 248 213 
3 232 221 218 
3 232 218 242 
3 242 218 230 
3 218 219 230 
3 242 230 225 
3 223 220 235 
3 220 217 235 
3 235 217 233 
3 233 217 231 
3 226 221 232 
3 232 242 240 
3 241 228 223 
3 241 223 235 
3 233 231 206 
3 234 226 232 
3 234 232 240 
3 242 225 227 
3 236 226 234 
3 242 227 244 
3 241 245 228 
3 206 237 233 
3 227 207 244 
3 228 245 212 
3 246 236 234 
3 247 244 207 
3 239 212 245 
3 213 238 237 
3 248 238 213 
3 248 229 239 
3 241 235 243 
3 243 235 233 
3 249 245 241 
3 249 241 243 
3 237 243 233 
3 240 242 244 
3 238 243 237 
3 246 234 240 
3 246 240 247 
3 240 244 247 
3 238 249 243 
3 248 239 245 
3 248 245 249 
3 238 248 249 
