ply
format ascii 1.0
comment VCGLIB generated
element vertex 254
property double x
property double y
property double z
element face 500
property list uchar int vertex_indices
end_header
-0.02479142506135203 -0.05776629684505306 -0.4720469039518892 
-0.003244504552839339 -0.06256307516102794 -0.4231569164255792 
0.01662844749861487 -0.05913902924269513 -0.4425525824694637 
-0.004567291486406373 -0.06147857551060676 -0.3204639561801944 
-0.0488908541523761 -0.04390820295833935 -0.4724561269642725 
-0.05016003594745418 -0.04439310419458194 -0.4136047823078758 
-0.04853226287815204 -0.04268968959095754 -0.3145149999384028 
-0.03455801917161318 -0.04787465511048668 -0.4939761323089749 
-0.02494523770057218 -0.05966252569943121 -0.4113019404566751 
-0.02499936998804866 -0.05639056722381725 -0.2939634177256224 
-0.04541380437519506 -0.0407583650432088 -0.2601674097505169 
-0.02596587703879732 -0.04123888071427397 -0.1430174397080461 
-0.02068618303242093 -0.04135974923902719 -0.5052026202615273 
-0.004723380849813013 -0.05456920029573006 -0.2254031435457817 
-0.003298100597764573 -0.04661079692442392 -0.1438076474372074 
0.01620243552751965 -0.04006089156371703 -0.5039489711461443 
0.007943788623451298 -0.05335252332444375 -0.491887663567754 
0.01211026452343767 -0.05949726105319895 -0.4688663657442961 
0.01555687248817496 -0.05894712088944547 -0.3433782884332625 
0.0163526340663327 -0.05442093640612042 -0.2657278612071783 
0.01620243552751965 -0.04006089156371703 -0.1230808946050232 
0.01688766218536376 -0.0449750236813778 -0.09463247922179652 
0.01718907496065266 -0.04472437256582121 -0.02943205915448543 
0.01655864878820518 -0.0420677027622386 0.04881580835098552 
0.014924117947449 -0.04030657345348383 0.2465512108407352 
0.03385830696327258 -0.03147971927117745 0.2693165201772448 
-0.004970421577313204 -0.0301117582131222 0.2688681772638545 
0.01604443412298281 -0.03520297081723683 0.3087392781357944 
0.01428428370164889 -0.04026826602885979 0.334452110240579 
-0.006687703065063135 -0.02630607892675909 0.3659942856938994 
0.01819890247367563 -0.03916564871250242 0.4433722745397194 
0.0168634193369094 -0.04015670430812606 0.4920060112479132 
0.03956633815599948 -0.04303069776477504 -0.4741592023667079 
0.04125082632557384 -0.04501194760198986 -0.4162598483848774 
0.01833724196989396 -0.04360173941346087 -0.162667881398634 
0.03562690978040547 -0.03354488197185706 0.08355374553480993 
0.01692834228628417 -0.04126437714590281 0.1021382358104679 
0.01659658668439126 -0.04374052042276402 0.134109754634599 
0.04020510280345294 -0.04326600071965245 -0.3189432151485324 
-0.06423050730583003 -0.0194005955279009 -0.4698634761447651 
-0.06464392283749042 -0.01912537421082806 -0.3742199314706297 
-0.06299970402262287 -0.01996400075725494 -0.321905252896182 
-0.05628364698910805 -0.0209007491046053 -0.2343811912203435 
-0.04745664459158206 -0.02099194700371484 -0.1405074489870794 
-0.02728371647522662 -0.02156058635156369 -0.1229682363355427 
-0.00396129275112391 -0.02493956669709529 -0.4220331259372133 
-0.005081856866261306 -0.02485553320108365 -0.3670742742164914 
-0.02557851750678831 0.0001383440837748596 -0.3459672526939824 
-0.004297442204403701 -0.03027655365336837 -0.1230272755339494 
-0.003254895760193977 -0.03000412378261852 -0.0858914476086874 
-0.009352724193181765 -0.02607910394454395 -0.04584536249106518 
-0.004694088204680482 -0.03000034362467755 0.1047309739399632 
-0.005578291003951901 -0.02897794881853005 0.3249897935786478 
-0.002072174565402402 -0.03172047061157167 0.4231049454318674 
-0.004375684597221267 -0.02993330341274384 0.4927607205728145 
-0.004297442204403701 -0.01958902526225059 0.5076092647278722 
0.01692142711248137 -0.02017321923953572 -0.514227049357273 
0.01233579336409686 -0.01132564568611083 -0.4267812131530652 
-0.004341981888389418 -0.01786530037583072 -0.2697140313579905 
0.01620243552751965 -0.04005354793143179 -0.1230272755339494 
0.01620243552751965 -0.03556639902319955 -0.06142064385391532 
0.01626667496595376 -0.03739219832612544 0.2875738409753117 
0.01688988594056946 -0.03726934032137675 0.4009193905050819 
0.01620243552751965 -0.01958902526225059 0.5123639132895391 
0.03670231325944301 -0.01958902526225059 -0.5060359838880871 
0.03632460873089658 -0.03955824555607204 -0.4923390384606792 
0.03602056014307736 -0.03872143229245704 -0.2366998299200933 
0.03670231325944301 -0.02387153448533294 -0.1435628194272942 
0.03607138262947118 -0.01947537569008189 -0.1230881820068542 
0.03558803232621354 -0.03852106519818001 -0.09377468295331474 
0.03670231325944301 -0.02610795600716215 -0.06142064385391532 
0.03687538649494249 -0.03414643840703847 -0.03991339362820392 
0.03693567034905625 -0.03313574916833907 0.0183267981032346 
0.03648368395764381 -0.03448937395645497 0.1596592968599661 
0.03444646886544141 -0.03086796339816819 0.1847694839622688 
0.03465353266237284 -0.03363706273586303 0.2019083399266412 
0.04115195037039072 -0.02276945664078714 0.2242756107737305 
0.03670231325944301 -0.03321644239746654 0.2466125145462555 
0.03714458566010418 -0.03234407239001859 0.3251779229663959 
0.03682869519043562 -0.03328171932228437 0.3679408714445137 
0.03700768554564553 -0.0320820048198656 0.4221227195502247 
0.03660979394718595 -0.03255704561057273 0.487773267578992 
0.05026169740149123 -0.02096468996576566 -0.487766064239287 
0.05084959058800134 -0.01961108990891671 -0.2658073227762751 
0.04269541271829013 -0.01996079642112405 -0.1877950571354947 
0.04419176527471111 -0.01939141717326353 -0.09056907529104069 
0.04007013554380587 -0.01958902526225059 -0.06142064385391532 
0.04425673310190199 -0.01969176305175253 -0.03917002294080432 
0.04389447952226409 -0.01954477127736121 0.05447474452099461 
0.04151693776561177 -0.02005415558650601 0.08881779435596025 
0.04523801929003335 -0.01994731314374169 0.1585051047064205 
0.04278337881953303 -0.02025310285899546 0.196792385915064 
0.04198632948891187 -0.01844115019149498 0.2577498606391072 
0.04566085688309685 -0.01958902526225059 0.287683602332945 
0.04368307888628208 -0.01967393895149194 0.3202954935761201 
0.04416176914866015 -0.01961904426173331 0.3756034671305484 
0.0449365588157291 -0.01961933854251323 0.4326736411498102 
0.04271979475833939 -0.01988884104788619 0.4951570214222362 
-0.06721103973101021 0.000885049881541989 -0.4700936440984469 
-0.06793819141307683 0.0008583802554435726 -0.3695421604963467 
-0.06619637626145487 0.001699060680459853 -0.3416175612372251 
-0.05743994354991198 -0.009081449016465857 -0.4988523490580588 
-0.06125294365075251 0.0008139563932869921 -0.2376602616932687 
-0.05171039047187606 -0.0001741560701722119 -0.1455489089619768 
-0.0175513677628705 -0.01598807073327809 -0.5164126914612032 
-0.03991926886700557 0.007860048121442231 -0.5130766225018494 
-0.0277802609028992 0.0007769266328205839 -0.4729999378755018 
-0.02476724798348721 -0.00626949042026283 -0.4482902300093411 
-0.02825143814068552 -0.002015214291626034 -0.3684004971317449 
-0.04270855385107559 0.001247146047635145 -0.001307982640825798 
-0.005556456484359101 -0.02940746853508413 0.02771534559816934 
-0.04378815445113538 0.001660141327011234 0.1164822040925745 
-0.004800670304413003 -0.0297744179195182 0.1984676110726812 
-0.02308512771538946 -0.01463539579722081 0.2615807770338803 
-0.04510227142023723 0.003251474867425263 0.2993603846812908 
-0.04288351080819972 0.00209755668709803 0.3434292989638357 
-0.04060059265385418 -0.002428532664075285 0.378633970280612 
-0.02645242933037459 -0.01218871990185458 0.3920281447545184 
-0.02426326894475911 -0.01341846081407876 0.4923708718688427 
-0.02479731993632706 0.0008828410392158204 0.5101380239793137 
-0.003924213216918213 -0.01605958369081042 -0.46880811975236 
-0.02736130603651031 0.00104369292465288 -0.314402043019516 
-0.01557973394663999 0.0009310748206186818 -0.189157955263435 
-0.004297442204403701 -0.009543968343611847 -0.1846339072139837 
-0.004326212571354823 0.0006959464497509338 -0.1575984657328021 
0.0118819681323801 0.001245730478709891 -0.4747301151691126 
0.01969760025400614 0.001122795735674146 -0.4576375659426187 
0.01939524388996266 -0.002272984162288477 -0.3680508645148892 
0.01661356783461588 0.0008373952500627003 -0.2942566774142754 
0.007017132510743312 0.0009183167490083857 -0.1897330305821438 
0.01620243552751965 0.0008828410392158204 0.5057483486176483 
-0.005275668821792099 -0.0006800959165417173 0.5155647183469888 
0.03612917390560021 0.01268168191231703 -0.5091095753544159 
0.032430022340076 0.002195683319301229 -0.1259011906063714 
0.03664127090905302 -0.001011177142881656 -0.09535658302412549 
0.03462196522801294 0.0006930512386839072 -0.0561739183594393 
0.03614447101838594 -0.00119760272026897 0.03071925917571483 
0.03469184379072258 0.0001465591936207694 0.2334119153435567 
0.03362882782360498 0.0008896439930696785 0.2753679758577935 
0.03515218543693679 5.885577288909846e-05 0.3290350043814314 
0.03502948646098268 -0.0008154022823722691 0.3846656184562282 
0.02927339546708411 0.003820358377732989 0.4909848525837455 
0.05196067316104354 0.01175386924165032 -0.492265510672993 
0.05684491153750822 -0.01974960862207057 -0.4186800657095567 
0.05612150570972237 0.001006161275825715 -0.2791447671115609 
0.04323095772904233 -0.0001417268483171123 -0.145411990814502 
0.05848620278799422 0.0008069899385228173 -0.4621406483898349 
-0.06198878648668812 0.02146042277066156 -0.4839499015306135 
-0.04975909978828454 0.0274530140160542 -0.4991668552554984 
-0.06486746174716922 0.0212918307948934 -0.3765557439487928 
-0.06296570731621148 0.02126060683290105 -0.3228880682935339 
-0.05847070332086232 0.02144460030132012 -0.2534917060706944 
-0.05063232888689936 0.02255810321880121 -0.1222082018021113 
-0.04463324226996563 0.001893319660595622 -0.09840189082497858 
-0.05348448154728856 0.02143725573540408 -0.1018717065871432 
-0.05324354028880798 0.02158782405089142 -0.04319864836952214 
-0.05183133827456304 0.0218516669615357 0.01870199710693768 
-0.05301915589905908 0.02153876636534037 0.09852963407415061 
-0.0512861673479831 0.02154092684293627 0.1288676212126083 
-0.05278605911285803 0.02144017142384811 0.2051695410193707 
-0.04262243333636379 0.0009484272802597654 0.2247346517744264 
-0.05262793589883526 0.0211080122712453 0.247764349289164 
-0.05420338990300928 0.02135470734068223 0.3082191462262898 
-0.05172029901316784 0.02190781327537615 0.3521058327045888 
-0.04868083547190722 0.02182112447987593 0.4080782059273709 
-0.04359616099328258 0.001184314996587957 0.4541944374084117 
-0.0530171191984547 0.02371873996038549 0.4654407409992263 
-0.01686137398224184 0.01693009912783425 -0.4148575446632758 
-0.02479731993632706 0.02135470734068223 0.5120996990652268 
-0.01754405299384167 0.01567728531583813 -0.3727425772076195 
-0.004371662860204209 0.01136870220667126 -0.1848013968477745 
-0.00432444819288116 0.0213512829585855 0.5109711420707083 
0.009261794688619245 0.01558722814923065 -0.439010991047825 
0.009605355899080644 0.01525860484471422 -0.3732097319772972 
-0.004281099558270033 0.02365654425614128 -0.3094396536213457 
-0.00407091817685868 0.03195103415646253 -0.02738991664183969 
0.03160902177798498 -0.003489168059740926 0.06331720872367484 
-0.00281692979135613 0.02802456743893168 0.1237055266748067 
0.035398830959988 -0.0001070495933566254 0.1060784424850158 
0.00209999362268184 0.02727176705155557 0.1539669626502047 
-0.001985563621410226 0.02492265738916634 0.2047168400207636 
0.03161821511182974 0.003973647688100712 0.1713495656708729 
-0.004331890111060745 0.03237955299478179 0.3011496320902876 
0.03744964036613282 -0.001428142477654718 0.4565748223613163 
-0.003378208208761313 0.03179412839084529 0.3997675107154868 
0.05475773672324147 0.02129961092351837 -0.4661695394031504 
0.05890397911414272 0.01516673455797066 -0.3852567140375446 
0.05212557078123417 0.02152284439483327 -0.2758948663116893 
0.04062723381199659 0.02447661708483087 -0.173316815574704 
0.03887863675058344 0.02303962839559792 -0.140001508174393 
-0.04905986755999375 0.04565428042004871 -0.4715490635808274 
-0.05028062876707367 0.0459441907659884 -0.3852537103207682 
-0.04852397256363617 0.0448799459975037 -0.3124276570105983 
-0.044481822002004 0.0411276819154834 -0.2383679062604693 
-0.04684766554973142 0.02220539368279139 -0.1436615969035253 
-0.04546727335553673 0.03637856317585832 -0.1018704735530285 
-0.04528902248607292 0.03591084791499803 -0.03561573556827776 
-0.04529719766825042 0.03053441500795268 0.0001859878261188941 
-0.04354106101791549 0.03944917146866917 0.03084486695535766 
-0.04645178272077076 0.03327099820816153 0.07368827854056831 
-0.04594322328398816 0.03527708158527423 0.1991638273895132 
-0.03729485358655732 0.03802306473553504 0.2236650830591907 
-0.04824667306612473 0.032353788359271 0.2458821965824837 
-0.044614947965642 0.03375593113081948 0.272610618457538 
-0.04477763956612103 0.03543250168862075 0.3333811160721137 
-0.04495491369807154 0.0322053089934997 0.382778543292547 
-0.0448417112311329 0.03379831746320233 0.416475142931983 
-0.04529261586020751 0.03497180066051435 0.4519560233601327 
-0.05042032425054063 0.02501783711173064 0.4944092167335907 
-0.02823652637137982 0.04483602752457556 -0.1649542381245738 
-0.02772693396760904 0.04253380753333567 -0.1250146248278165 
-0.0254130361688982 0.0461986961832191 -0.100456245256485 
-0.02347097882669583 0.04435976590987171 0.05042373080634313 
-0.04064546880748991 0.04030871691735068 0.1192355401166244 
-0.0247663944258807 0.04442378287240899 0.1547621099419809 
-0.02424804367595236 0.04118499471769946 0.2746045676824838 
-0.02458314543820093 0.03948347523981557 0.3095280898090472 
-0.02479731993632706 0.04149854186659147 0.3903613217996688 
-0.02730818491912686 0.04584753747493527 0.4094118590530655 
-0.02479732168270217 0.03651205543907605 0.4725034980145991 
-0.02479731993632706 0.04171342863023192 0.4930390412663922 
0.007441082503139268 0.03579316766616596 -0.5127389811750099 
-0.004602362669796954 0.02370898775792775 -0.4723375769177799 
-0.009365308198099883 0.03756748343167039 -0.1205218734421349 
-0.001331323211866964 0.03065747242892878 0.03467813528885195 
0.0001426752924754786 0.02960671527183839 0.07520181403935706 
-0.02385717156578551 0.04645167983317817 0.1179051878000122 
-0.00204499271929523 0.03011834267629806 0.2303259251893144 
-0.003802586685754838 0.03199073403233579 0.3288839954592271 
-0.007658355126798358 0.03342228618071115 0.4492317019818342 
-0.004395598442833206 0.0314496336832685 0.4934014729405097 
0.0173980138615557 0.04373968411904004 -0.1430464317281558 
0.03522543914392531 0.04116487778317691 -0.2380011949104508 
0.04020250930213665 0.04214094956167181 -0.4873934062585367 
0.03886895973875235 0.04410828679860463 -0.2897657735547545 
-0.02870231030349469 0.04847005937996975 -0.4994598616947805 
-0.02529885660909329 0.0527746172281189 -0.2301735630867824 
-0.02566303477576329 0.0459940447381269 -0.02236020299339361 
-0.02487176725053432 0.04214463565795869 0.0002328184548350901 
-0.02551365053003426 0.04669591359803842 0.2275112379181946 
-0.02576865157969657 0.04396136848629353 0.3443431872727006 
0.006921697769501607 0.05697205850080556 -0.4915748853474529 
-0.02035747375681517 0.06227666261440139 -0.4694976481259251 
-0.02525529749717821 0.06111938913128419 -0.4140725447268779 
-0.02431827613102466 0.06111970254082152 -0.3534398142145996 
-0.00430941388644469 0.05406589500844823 -0.2013313677854272 
-0.004297442204403701 0.04956245051462049 -0.1435628194272942 
0.01516025593973184 0.06040724331450581 -0.4701781879127883 
0.0167574537580575 0.06117771087354698 -0.393758336671293 
-0.004158890598341887 0.06409203233815738 -0.335380438455305 
0.01682992245449187 0.05838688895843159 -0.3106032891800414 
0.01616634957944768 0.05451972297808012 -0.2473300529369523 
0.04120445786710802 0.04697389791596025 -0.3961858851283053 
-0.004673059346025158 0.06453458804720474 -0.4303841423906722 
3 0 17 1 
3 8 1 3 
3 1 17 2 
3 18 1 2 
3 4 7 0 
3 0 8 4 
3 4 8 5 
3 5 8 6 
3 8 9 6 
3 6 9 10 
3 9 11 10 
3 7 12 16 
3 0 16 17 
3 0 7 16 
3 8 0 1 
3 9 8 3 
3 3 13 9 
3 9 13 11 
3 13 14 11 
3 12 15 16 
3 1 18 3 
3 18 19 3 
3 3 19 13 
3 19 34 13 
3 13 34 14 
3 14 34 20 
3 24 25 26 
3 25 61 26 
3 62 30 53 
3 16 15 65 
3 65 32 16 
3 16 32 17 
3 17 32 2 
3 32 33 2 
3 2 33 18 
3 33 38 18 
3 18 38 19 
3 38 66 19 
3 34 19 66 
3 36 23 35 
3 74 37 73 
3 24 37 74 
3 75 24 74 
3 28 27 78 
3 29 28 79 
3 29 79 62 
3 7 4 101 
3 101 4 39 
3 4 5 39 
3 5 40 39 
3 5 6 40 
3 6 41 40 
3 6 10 41 
3 10 42 41 
3 10 43 42 
3 7 101 12 
3 12 101 104 
3 43 10 11 
3 11 44 43 
3 46 47 58 
3 14 44 11 
3 48 44 14 
3 153 44 49 
3 49 44 48 
3 153 49 50 
3 50 110 109 
3 110 51 111 
3 51 112 111 
3 112 26 113 
3 26 52 115 
3 52 29 115 
3 29 62 117 
3 62 53 117 
3 53 54 117 
3 117 54 165 
3 165 54 118 
3 54 55 118 
3 56 12 104 
3 15 12 56 
3 57 120 45 
3 20 48 14 
3 59 48 20 
3 21 49 59 
3 49 48 59 
3 21 60 49 
3 50 60 22 
3 50 49 60 
3 110 50 22 
3 23 110 22 
3 51 110 23 
3 36 51 23 
3 37 51 36 
3 112 51 37 
3 24 112 37 
3 26 112 24 
3 61 52 26 
3 61 27 52 
3 28 52 27 
3 28 29 52 
3 30 54 53 
3 54 30 31 
3 54 31 63 
3 55 54 63 
3 56 64 65 
3 56 65 15 
3 66 67 34 
3 67 68 59 
3 67 59 20 
3 67 20 34 
3 59 68 69 
3 59 69 21 
3 69 60 21 
3 69 70 60 
3 22 60 71 
3 60 70 71 
3 22 72 23 
3 71 72 22 
3 72 35 23 
3 36 73 37 
3 35 73 36 
3 75 76 24 
3 76 77 24 
3 24 77 25 
3 25 78 61 
3 61 78 27 
3 78 79 28 
3 79 80 62 
3 62 80 30 
3 80 81 30 
3 31 30 81 
3 31 81 97 
3 63 31 97 
3 65 64 82 
3 65 82 32 
3 32 82 143 
3 32 143 33 
3 33 143 38 
3 38 143 83 
3 38 83 66 
3 84 66 83 
3 67 66 84 
3 145 67 84 
3 67 145 68 
3 69 68 85 
3 70 69 85 
3 86 70 85 
3 71 70 86 
3 87 71 86 
3 72 71 87 
3 88 72 87 
3 35 72 88 
3 89 35 88 
3 73 35 89 
3 90 73 89 
3 74 73 90 
3 91 74 90 
3 75 74 91 
3 76 75 91 
3 92 77 76 
3 25 77 92 
3 93 25 92 
3 78 25 93 
3 94 78 93 
3 79 78 94 
3 95 79 94 
3 80 79 95 
3 96 80 95 
3 81 80 96 
3 97 81 96 
3 98 39 99 
3 39 40 99 
3 40 100 99 
3 98 101 39 
3 40 41 100 
3 41 102 100 
3 41 42 102 
3 42 103 102 
3 42 43 103 
3 104 101 105 
3 106 108 107 
3 152 43 44 
3 103 43 152 
3 44 153 152 
3 153 50 109 
3 109 110 111 
3 111 112 160 
3 112 113 160 
3 160 113 114 
3 113 26 114 
3 114 26 115 
3 116 117 165 
3 106 120 125 
3 107 120 106 
3 45 120 107 
3 46 45 107 
3 108 46 107 
3 108 47 46 
3 121 58 47 
3 121 122 58 
3 58 122 123 
3 122 124 123 
3 116 115 29 
3 117 116 29 
3 118 131 119 
3 118 55 131 
3 120 126 125 
3 126 120 57 
3 57 45 127 
3 45 46 127 
3 46 58 128 
3 127 46 128 
3 129 128 58 
3 123 129 58 
3 124 129 123 
3 131 55 130 
3 55 63 130 
3 64 56 132 
3 127 126 57 
3 68 133 134 
3 136 176 88 
3 90 181 91 
3 181 137 91 
3 141 130 97 
3 97 130 63 
3 142 82 64 
3 132 142 64 
3 82 142 146 
3 143 82 146 
3 143 144 83 
3 83 144 84 
3 84 144 145 
3 68 145 133 
3 85 68 134 
3 86 85 134 
3 135 86 134 
3 87 86 135 
3 136 87 135 
3 88 87 136 
3 176 89 88 
3 178 89 176 
3 90 89 178 
3 181 90 178 
3 76 91 137 
3 137 92 76 
3 138 92 137 
3 93 92 138 
3 94 93 138 
3 139 94 138 
3 95 94 139 
3 140 95 139 
3 96 95 140 
3 183 96 140 
3 97 96 183 
3 141 97 183 
3 186 143 146 
3 144 143 186 
3 98 99 149 
3 147 98 149 
3 99 100 149 
3 148 105 101 
3 147 148 101 
3 98 147 101 
3 100 150 149 
3 100 102 150 
3 102 151 150 
3 102 194 151 
3 102 103 194 
3 103 152 194 
3 152 153 154 
3 154 153 155 
3 153 109 155 
3 155 109 156 
3 109 111 157 
3 156 109 157 
3 157 111 158 
3 111 160 159 
3 158 111 159 
3 159 160 202 
3 202 160 161 
3 160 114 161 
3 161 114 162 
3 114 115 163 
3 162 114 163 
3 115 116 163 
3 116 165 164 
3 163 116 164 
3 164 165 166 
3 166 165 208 
3 106 167 108 
3 167 169 108 
3 108 169 47 
3 118 208 165 
3 208 118 119 
3 208 119 168 
3 221 104 105 
3 106 125 222 
3 167 106 222 
3 121 47 169 
3 121 174 122 
3 174 170 122 
3 122 170 124 
3 171 119 131 
3 171 168 119 
3 56 104 221 
3 126 172 125 
3 125 172 222 
3 173 128 174 
3 129 174 128 
3 170 174 129 
3 124 170 129 
3 224 225 176 
3 177 179 178 
3 179 180 181 
3 180 227 181 
3 183 184 229 
3 229 141 183 
3 130 171 131 
3 130 141 171 
3 56 221 132 
3 127 172 126 
3 173 172 127 
3 128 173 127 
3 223 134 133 
3 135 134 223 
3 136 135 175 
3 176 136 224 
3 178 176 225 
3 179 181 178 
3 227 137 181 
3 138 137 227 
3 139 138 182 
3 228 139 182 
3 140 139 228 
3 184 140 228 
3 183 140 184 
3 146 142 185 
3 186 187 144 
3 144 187 145 
3 145 187 188 
3 145 188 189 
3 133 145 189 
3 186 146 185 
3 148 147 190 
3 147 149 190 
3 149 191 190 
3 149 150 191 
3 150 192 191 
3 150 151 192 
3 193 192 151 
3 151 194 193 
3 152 154 195 
3 154 155 196 
3 195 154 196 
3 155 156 197 
3 196 155 197 
3 197 156 198 
3 156 157 199 
3 198 156 199 
3 157 158 213 
3 199 157 213 
3 213 158 200 
3 158 159 200 
3 159 202 201 
3 200 159 201 
3 202 161 203 
3 161 162 203 
3 162 163 204 
3 203 162 204 
3 204 163 205 
3 163 164 205 
3 205 164 206 
3 164 166 207 
3 206 164 207 
3 105 148 235 
3 209 193 194 
3 210 209 194 
3 152 210 194 
3 195 210 152 
3 211 210 195 
3 237 211 195 
3 196 237 195 
3 197 237 196 
3 238 237 197 
3 198 238 197 
3 212 198 199 
3 213 212 199 
3 200 214 213 
3 239 214 200 
3 201 239 200 
3 202 239 201 
3 239 202 215 
3 202 203 215 
3 215 203 216 
3 216 204 240 
3 216 203 204 
3 205 240 204 
3 240 205 217 
3 218 217 206 
3 217 205 206 
3 207 218 206 
3 207 166 219 
3 219 166 220 
3 166 208 220 
3 168 220 208 
3 235 221 105 
3 222 174 167 
3 167 174 169 
3 169 174 121 
3 210 211 223 
3 223 211 175 
3 211 237 175 
3 175 238 224 
3 237 238 175 
3 238 212 224 
3 224 212 225 
3 212 226 225 
3 225 226 177 
3 177 214 179 
3 226 214 177 
3 179 239 180 
3 214 239 179 
3 180 239 227 
3 215 227 239 
3 227 215 182 
3 215 216 182 
3 228 182 216 
3 228 240 184 
3 240 217 184 
3 218 184 217 
3 218 229 184 
3 219 230 229 
3 219 220 230 
3 230 220 168 
3 171 230 168 
3 174 222 172 
3 173 174 172 
3 133 189 223 
3 189 231 223 
3 135 223 175 
3 224 136 175 
3 177 178 225 
3 182 138 227 
3 141 229 230 
3 141 230 171 
3 221 233 132 
3 232 231 188 
3 188 231 189 
3 142 132 233 
3 142 233 185 
3 185 233 252 
3 185 252 186 
3 186 252 187 
3 187 252 234 
3 232 187 234 
3 188 187 232 
3 235 148 190 
3 235 190 242 
3 242 190 243 
3 190 191 243 
3 243 191 244 
3 191 192 244 
3 244 192 236 
3 193 236 192 
3 193 209 236 
3 238 198 212 
3 212 213 226 
3 226 213 214 
3 207 219 218 
3 241 221 235 
3 241 235 242 
3 253 242 243 
3 244 236 249 
3 249 236 245 
3 236 209 245 
3 245 209 246 
3 209 210 246 
3 210 223 246 
3 228 216 240 
3 229 218 219 
3 247 241 242 
3 253 248 247 
3 248 249 250 
3 250 249 251 
3 249 245 251 
3 251 245 231 
3 245 246 231 
3 231 246 223 
3 233 221 241 
3 233 241 247 
3 233 247 252 
3 247 248 252 
3 252 248 234 
3 248 250 234 
3 250 251 234 
3 232 234 251 
3 231 232 251 
3 243 244 249 
3 253 243 249 
3 253 247 242 
3 249 248 253 
