ply
format ascii 1.0
comment VCGLIB generated
element vertex 254
property double x
property double y
property double z
element face 500
property list uchar int vertex_indices
end_header
0.1525732807446954 -0.4150482041757289 0.01523894524079551 
0.02056457783905976 -0.4078264625059709 0.08533892692255347 
0.1060972050680864 -0.4112780789772768 -0.04282434836420977 
0.1116126380193825 -0.4063352689410172 0.02441184666178741 
0.1122137194594848 -0.3900914240209225 -0.07254050945452979 
0.07073415166555168 -0.4059388315798015 0.07740191919260329 
0.1742632044442369 -0.3867958315979887 -0.1000384019628407 
0.174004734747263 -0.4210323981091116 -0.07002503025935607 
0.2160091255232224 -0.403624525077664 -0.06327004003142635 
-0.01485146161738164 -0.3938238546942158 0.1300255144813914 
0.01103508883798298 -0.3671346422460359 0.06571412305373073 
0.03442068319801218 -0.3832417207585029 0.1327514054456088 
0.0689471552378285 -0.3855480764448303 0.01705242354856204 
0.07961530671276458 -0.3632337865637886 0.01288989022205242 
0.1403433080896316 -0.3793182075533958 0.02747296326088129 
0.2156824122830329 -0.4017386254843234 -0.13423533275052 
0.2597916138838338 -0.4002823708320137 -0.1263143841281663 
0.008644151467091151 -0.3548975750175743 0.1399911124958189 
0.04568986781847185 -0.3704899056430306 0.09847876302518735 
0.2122773403879577 -0.4071755879405051 -0.02102588320883671 
0.2702026225484775 -0.3643890777431974 -0.1097790248203435 
-0.03292494837873815 -0.3704391904822556 0.1205335454614311 
0.01955762987136954 -0.3475980098929184 0.1010482418729309 
0.07675793925210561 -0.3456567667336299 0.06814739204983276 
0.1007387185203365 -0.3580082346322273 -0.006779819234904062 
0.1169331842959228 -0.3194496302285004 -0.03643298046858447 
0.1286107163426163 -0.3500432023666442 0.01330686793183201 
0.1903945838602311 -0.3525379002496604 -0.08250490437894079 
0.2061163931698954 -0.3634457165038625 -0.04238574211803776 
0.2219766683399871 -0.3469147656976049 -0.1231375579598552 
0.1796434012128199 -0.3411260299193946 0.009649466791464287 
0.1567507560766215 -0.3042647965762393 -0.07981699675389839 
-0.1012091045245118 -0.2898061931794306 0.001275595753902772 
-0.09930161989584678 -0.2885821635028796 -0.07703029114916833 
-0.02239551067062292 -0.284230523659402 -0.05065141349116743 
0.1185461816065863 -0.2671359036627193 -0.0613242124017175 
-0.1711167438003108 -0.2735289216877453 -0.007116646385633258 
-0.1493929063051043 -0.2738119165556732 -0.08606817004007988 
0.03426459725542997 -0.2646705171481114 -0.08411385167966462 
0.03829785173520269 -0.2660216052825971 -0.0001578350300359719 
0.1042019885288593 -0.2622081378611949 -0.04886468403003794 
0.1738272016740846 -0.2526189765105738 -0.0932625157172836 
0.2062464756052501 -0.2910851842242385 -0.04457657628632972 
0.1714187747161717 -0.2768684146279202 0.009669035643590722 
-0.1484538129001602 -0.2333162319894175 -0.0282199471552996 
-0.05346539816600226 -0.2591026527523528 -0.09620437672762706 
-0.07015025271154816 -0.237811441306272 -0.03063536945262578 
-0.06379162085626322 -0.2490327015335618 -0.04776523305819087 
0.03960705672396979 -0.2314704520333505 -0.09571182061523784 
0.1212995075788719 -0.2611738037354435 -0.002854784069548476 
-0.2207045997889668 -0.2386470216355112 -0.07357718393959879 
-0.2678185265064131 -0.1836617644511369 -0.05976152747608925 
-0.1929428602205767 -0.2276605000428899 -0.09490671133471716 
-0.2220655682961311 -0.2191461010439274 0.02166695090999014 
-0.1551274380709119 -0.2408501496579007 -0.04559427991080105 
-0.1544217663574674 -0.2565225033358065 0.0229203277334083 
-0.02179803798836643 -0.234610800531166 -0.02916588671399069 
-0.02760402071326964 -0.2598378024628171 0.02508270043008155 
-0.03562285095837107 -0.2231276422426457 -0.08658566289316397 
0.06334780843812918 -0.2223081550401832 -0.02445693978591397 
0.003262907412626565 -0.2337586539288146 -0.04573831150861044 
0.07316989112502544 -0.2446350412244535 0.02273198209808508 
0.11675933384829 -0.2319087386276976 -0.09340618358326069 
0.1088017652278721 -0.2179463866066649 -0.04695711879858636 
0.1582470401467606 -0.2246555571655707 -0.01140401985835186 
0.1741544103131559 -0.2454896106278929 0.02398655891873227 
0.2072109122256292 -0.1998590770992134 -0.0792708617847717 
0.218149593338905 -0.2350678324758272 -0.02057897939396282 
-0.177923378903881 -0.1623220507975047 0.01085227647035207 
-0.1466029200000279 -0.2002801839582463 -0.08258093717776381 
-0.1083676014370635 -0.183476526572459 -0.03180497439335767 
-0.1043270620680083 -0.2139807004135509 0.01125710263165509 
0.0245744525403921 -0.1922610684414492 -0.03189131970915114 
0.00156826678500444 -0.2260007164567477 0.01664251929233646 
0.07308043593928508 -0.2007478534778237 -0.08655818858192232 
0.09435468180004687 -0.2034358884225596 0.01459226988232317 
-0.2749307502838214 -0.1641723916945058 0.001303940884579171 
-0.2389830102275342 -0.1654046449675154 0.02395871692268002 
-0.09431793279104343 -0.178253701541963 -0.04904370808855416 
-0.1027230472028001 -0.1649112185290339 -0.09039418339667424 
-0.06233668268241515 -0.1670088809896152 -0.09691662127200081 
-0.04488448308368259 -0.1915150263716074 -0.03952803227904626 
0.02625631825996076 -0.1808401837932851 -0.04389185355937213 
0.09694011918654509 -0.1881281823409962 -0.03069555578586815 
0.1002825110696746 -0.1687976088244398 -0.09461070219510344 
0.1612201018612514 -0.1764261739968115 -0.01575794141912156 
0.1509595772686449 -0.1683940531116558 0.02428355326201921 
0.173051077881201 -0.2408176441256523 -0.05091531778557268 
0.2199462488835239 -0.1720241891500131 -0.04134198421864293 
-0.2444663201424147 -0.1814068725776117 -0.09512111301054897 
-0.2211514475153022 -0.1712957383303957 -0.03041204633926969 
-0.1557024194551688 -0.1396996278296512 -0.03895327398807284 
-0.08756522796086179 -0.1714344458307962 0.02433192725047477 
0.05944089170955294 -0.164861199653423 0.02368107447719186 
0.1185183333760386 -0.1409124178087878 -0.06995544110921983 
0.1460397254248079 -0.172238560294101 -0.04263654971380684 
-0.2067474226002741 -0.109347445391196 -0.03296079016561727 
-0.1373154724485671 -0.1167950655621765 0.02442385858565994 
0.02193426222254426 -0.1553418010898708 -0.09441442280898001 
-0.2895625963893972 -0.07284190931294809 -0.0655049597734693 
-0.2024891412635418 -0.1314482834423696 -0.08269685370226286 
-0.2414019995853044 -0.1392796892949074 -0.0451394108627244 
-0.157348616951092 -0.1125128772642076 -0.0933856610959807 
-0.06709608098720747 -0.1433882000339068 -0.07476470172238193 
-0.07187929599585439 -0.1412526951075711 0.01318324723858341 
0.0082993155806316 -0.1436394059538776 0.008161847548053699 
0.1045433166489127 -0.1422088496788041 -0.01408147664866031 
0.1217880658771151 -0.12325823303043 -0.02103173353032409 
0.1737544458467563 -0.1346762460305216 -0.08174622308701136 
0.2031620749317075 -0.139193342913506 -0.02800577432416181 
-0.2700469372335794 -0.1246515500923874 -0.09407757406994303 
-0.2500845321670712 -0.06022877597877373 0.02275746806008863 
-0.2337274572863592 -0.1005740342074684 -0.03440456186074828 
-0.1730283096850558 -0.1018207559085887 -0.04209030301798028 
-0.08839410347729521 -0.1426359629685093 -0.0828405873705621 
0.1313547936201585 -0.1334197287835234 0.0009983203006160987 
-0.1252729810560614 -0.09419352619576842 -0.01500452648085193 
0.1177426612884241 -0.08088449542837405 -0.05854590875896636 
0.2017144486940448 -0.03807015017667794 -0.02700524014875009 
-0.2882793781777123 -0.0378195382694958 -0.001189987507519157 
-0.2542185187498116 -0.02407418248829353 -0.09455502787497862 
-0.213194695443802 -0.0984071416482771 0.01178125514388523 
-0.2081117961023037 -0.02655535040163533 -0.08507948625417108 
-0.1772839600260318 -0.01875167191681855 0.02430619390332318 
0.1747429830096194 -0.05190135933218883 -0.07910915444654185 
0.1808012380750648 -0.1423694141158366 0.007739485343933146 
0.1930696652105468 -0.003419048238421504 -0.06578069443266087 
-0.2481456410613554 -0.08066689695328637 -0.03820751525601828 
-0.190404433736172 -0.04776134206471782 -0.03185265655653377 
-0.1393912228709329 -0.09041569740080085 -0.08576719159655014 
0.1221404691166792 -0.04192999963905553 -0.001976527027728647 
0.1104643445239818 -0.04747423741454805 -0.0281620780092406 
-0.2485268016498178 0.01845515138723308 -0.04224081841959713 
-0.1390306576890906 -0.01711756270600211 -0.07580092694407513 
-0.2730438649210833 -0.06350447717930394 0.02013430947625238 
-0.22079464617859 -0.02547636056584491 -0.03496008750461183 
-0.1856061978837142 -0.03472773748399635 -0.04545162678663927 
-0.1412927977601075 -0.06030533715959791 0.01398284144133741 
0.1500541892643212 0.01225136800288608 -0.0804485079076257 
-0.2884596314276068 0.01553654539532574 -0.01589129515420722 
-0.1916472066420143 0.04409644173691708 -0.04895602822059957 
-0.21129223806281 0.06752929419619295 0.01217086817250772 
-0.17491047513768 -0.03063670466804224 -0.09647907750210669 
0.1137416366391996 0.04698438962488973 -0.05556033635116519 
-0.2397311303824891 0.03542996211275822 -0.03069134476220411 
-0.1846480237098397 0.03874725415510352 -0.02974031853400909 
-0.2668286035400682 0.04276457165925258 0.02356395288449262 
-0.2236096350712362 0.07107117175109598 -0.08505040388913285 
-0.1591020245766026 0.06834907311010305 -0.09516897711476548 
0.1650202874682546 -0.01068172865129086 0.008112129271914204 
0.2024302102433299 0.03897643670474152 -0.04098274414127072 
-0.1376923902689531 0.02124763939063865 -0.003981773939241096 
0.1225997359628545 0.04316370765375798 -0.003834756429540561 
-0.2729889263075683 0.04560589592491174 -0.08851609294528208 
-0.2883473067778226 0.056457558594527 -0.0009437857480858078 
-0.2677235922056083 0.1297064346026471 0.01584376646203212 
0.115964536971892 0.1076892657589861 -0.05178829167215956 
0.1123277660485641 0.1292197061521383 -0.01537858122516513 
0.1923646705315297 0.05135315594564251 -0.00521803565571366 
-0.2882076202687491 0.03131362946777802 -0.06090621420966733 
-0.2527392202310622 0.1139653926650786 -0.03929923085961007 
-0.1858229562460741 0.1039932493963769 -0.03684843112574018 
-0.1563795925995714 0.08749405411354742 0.02426956303322161 
0.1620892284126665 0.1163618047267823 -0.07866294205873364 
0.1899128664816838 0.1233596393939541 -0.06587788799178476 
0.2045604751344086 0.128870810683452 -0.03122366992454897 
-0.2699469031196131 0.16452355254431 -0.09644660481650791 
-0.2149551164955903 0.1700238553399621 -0.0345328231202665 
-0.1990184275911925 0.1246681857344175 -0.03137512710329112 
0.1862347724582935 0.1722590879800521 -0.09575517383966607 
-0.2880022624625611 0.2266305816698672 -0.001776891582264293 
-0.1898555819771036 0.1878309860547511 -0.02760307812133927 
-0.1734567461814059 0.1402140556213087 -0.09588317288077014 
-0.1420130679649438 0.1088104971805001 -0.08500029164542643 
-0.1379525204367876 0.1767611483444936 -0.001695227579065265 
0.1486717618657413 0.1709879630149583 -0.1011694519397475 
0.1621881847327437 0.1288938359343928 0.01160598979388601 
0.2132799506532808 0.174833258759719 0.0007104321074802719 
-0.1626865886433544 0.2111642924531241 0.02539452631944282 
-0.1368975253936949 0.2168564757753409 -0.07729838454584909 
0.1005625551089878 0.1711548619787287 -0.06529392408024226 
0.1476527824438861 0.1701126221304521 0.03222082507089497 
0.2156234531408682 0.173328680389233 -0.05160266199845687 
-0.2877085452326579 0.2136337175932259 -0.05594742616119936 
-0.211376608792317 0.1771908894485949 -0.0831460170724182 
0.1417295477530203 0.1950121283633558 -0.08340751983571658 
0.1009698111319515 0.1937770448810812 -0.01949590422339146 
0.2000754110079787 0.1974957731545298 -0.01799000828687913 
-0.2411970037796291 0.2034406890507045 -0.03579505335357672 
-0.266787973142987 0.2188067181504613 0.02405394835201746 
-0.2203264223639226 0.2138290181084231 0.01417527777539233 
-0.1810968118626669 0.2313802892418333 -0.0327885321519413 
-0.1820568620146067 0.2070910531232959 -0.04630431004374486 
-0.2284024835934831 0.2726809857420687 -0.02952599981743833 
-0.2508152467919046 0.2325534983108796 -0.08679402933025017 
-0.1703039189067447 0.3036684152481199 0.01456665038410939 
-0.1247879507065136 0.2574281086947596 0.01714148246014417 
-0.2490466555210318 0.3024469757631202 0.01852231888067549 
-0.163001815589588 0.2569535795104897 -0.04540063947249695 
-0.1555912588108259 0.2777741498071101 -0.03061640223525504 
-0.2734718588340697 0.261474415198561 -0.08726401517892263 
-0.2069836654190117 0.2467683331570218 -0.04605288349418774 
-0.1700719476856237 0.2344666810670006 -0.09601030833526852 
-0.08821665493274639 0.2819924462670946 -0.08151733721025227 
-0.0128559255162474 0.2982989203902833 -0.09059557048830995 
0.0637473364945212 0.2824213867824618 -0.02190034647969155 
0.1418056286172426 0.3168023131309703 0.02949571391273857 
0.1350381015459105 0.2875190398177211 0.01190233034835225 
0.1765176900050529 0.2876356342807528 -0.08624781837286855 
0.2154810310507778 0.2904164965700373 -0.007529318769663146 
-0.188096112065307 0.3466708906478216 -0.09652310499512849 
-0.1833326387402864 0.3381733085246057 -0.04436893073414836 
-0.1048380605117802 0.3007996647796307 -0.09689069790475774 
-0.116305445737852 0.3028045277802509 -0.04544412731545692 
-0.07373050928754654 0.2899232967495914 0.01828210299335965 
0.02398186174790577 0.3029841626581331 0.0233449997228616 
0.05436415826542962 0.2947009032240148 -0.09095555941056642 
0.142590505146524 0.324976837661936 -0.09999582816214013 
0.19353005668333 0.3344264321402945 0.02129588265376391 
-0.2235506798097221 0.3556146175156827 -3.301878009213939e-06 
-0.1566206105533631 0.3485782232724788 -0.02944993371861707 
-0.1206691969150509 0.3476662180615849 -0.03418989563138453 
-0.1193422303084529 0.3391009448021662 -0.0841217912402135 
-0.08848244306594377 0.3306141361952057 -0.02430918079557573 
-0.09737879361554427 0.3683610577689421 -0.04427695007038687 
-0.05011248547582658 0.3320889514651778 -0.03444992524289536 
0.001063450162017763 0.3408090687790542 -0.0866004012517135 
0.01723548191671104 0.3300968267247361 -0.04496327500640725 
0.02937174937493776 0.3325117960889004 -0.02074013182220071 
0.1284807348885435 0.3266427590825711 -0.02889835971423822 
0.078592354057282 0.3379793869644954 -0.0181853883461756 
0.2270366856884342 0.3311497914730588 -0.05173932430149418 
-0.2560141476524896 0.3225084409386627 -0.04090591880375576 
-0.105966024710643 0.3890046539607043 0.01720027115438756 
-0.03585317773140938 0.3560478003729755 0.02202381452518131 
-0.04865462429194981 0.3686115740799858 -0.03984439762319244 
0.04470363136117098 0.3601654324853819 -0.04015071104500664 
0.1293188820595819 0.3397817624675047 -0.04962825150667727 
0.1318264854753385 0.3542171560704118 0.02515249275630823 
-0.2023957361221773 0.3721268225035093 -0.07766423850846388 
-0.207562762265089 0.3347082074835189 0.02337857561948713 
-0.1163634782056183 0.3971842671171933 -0.08172942112402619 
-0.06525906337550738 0.3736560561428916 -0.01749184594390895 
-0.09319201065832931 0.3571876482008016 -0.08948794035831292 
-0.0207462926550561 0.3704919336572038 -0.09182994585506815 
0.07951227235468261 0.3862303690321232 -0.08920903964315589 
0.07778220403943063 0.3784536159265686 0.02224435359539496 
0.193286280587504 0.3271562878165659 -0.09427475440614898 
-0.1165494433124511 0.4138106830319693 -0.0005634830219498316 
0.1274498875059898 0.3839101482600777 -0.07808205558653333 
0.1122709930038289 0.3917894048076477 -0.003769456120623552 
-0.03885854083691795 0.4118719767534493 -0.07791381558845767 
0.005203758459951888 0.3984305162172112 0.01190869525514694 
-0.1002088451992891 0.415423784994214 -0.05872517309094475 
3 7 19 0 
3 2 7 0 
3 12 5 1 
3 12 3 5 
3 0 3 2 
3 6 7 4 
3 7 2 4 
3 6 15 7 
3 7 15 8 
3 7 8 19 
3 16 8 15 
3 10 1 21 
3 1 9 21 
3 11 9 1 
3 12 1 10 
3 11 1 18 
3 5 18 1 
3 13 24 12 
3 24 2 12 
3 3 12 2 
3 14 5 3 
3 0 14 3 
3 20 28 8 
3 28 19 8 
3 20 8 16 
3 9 17 21 
3 17 9 11 
3 11 18 17 
3 12 10 13 
3 5 23 18 
3 24 4 2 
3 5 14 23 
3 14 26 23 
3 0 30 14 
3 29 15 6 
3 0 19 30 
3 15 29 16 
3 29 20 16 
3 10 21 22 
3 21 17 22 
3 23 10 22 
3 17 18 22 
3 13 10 23 
3 23 22 18 
3 4 24 25 
3 24 13 26 
3 13 23 26 
3 26 25 24 
3 4 31 6 
3 14 30 26 
3 6 31 27 
3 29 6 27 
3 28 30 19 
3 29 27 28 
3 28 20 29 
3 31 42 27 
3 27 42 28 
3 30 28 43 
3 4 25 35 
3 31 4 35 
3 30 43 49 
3 26 30 49 
3 28 42 43 
3 33 32 36 
3 37 33 36 
3 34 32 33 
3 39 32 34 
3 26 49 25 
3 31 35 41 
3 32 55 36 
3 37 45 33 
3 55 32 57 
3 33 45 38 
3 34 33 38 
3 39 57 32 
3 38 40 34 
3 40 39 34 
3 40 35 25 
3 25 49 40 
3 41 42 31 
3 41 66 42 
3 42 66 67 
3 50 36 53 
3 36 50 37 
3 37 50 52 
3 55 53 36 
3 45 37 69 
3 69 37 52 
3 44 46 54 
3 54 46 47 
3 46 56 47 
3 56 60 47 
3 38 45 48 
3 73 57 39 
3 61 73 39 
3 62 38 48 
3 40 38 62 
3 49 39 40 
3 49 61 39 
3 40 62 35 
3 62 41 35 
3 65 61 49 
3 43 65 49 
3 67 43 42 
3 43 67 65 
3 51 50 53 
3 45 69 58 
3 47 81 54 
3 55 57 71 
3 60 81 47 
3 71 57 73 
3 48 45 58 
3 56 72 60 
3 72 59 60 
3 87 63 64 
3 52 50 89 
3 54 90 44 
3 90 70 44 
3 55 68 53 
3 46 44 70 
3 71 68 55 
3 58 69 79 
3 81 78 54 
3 81 56 46 
3 82 81 60 
3 72 56 81 
3 48 58 74 
3 74 58 98 
3 73 61 75 
3 83 59 72 
3 62 48 74 
3 59 83 60 
3 64 63 83 
3 83 63 60 
3 65 75 61 
3 66 88 67 
3 89 50 51 
3 51 53 76 
3 53 77 76 
3 54 101 90 
3 53 68 77 
3 58 79 80 
3 81 70 78 
3 81 46 70 
3 73 92 71 
3 98 58 80 
3 92 73 93 
3 74 98 84 
3 75 93 73 
3 63 82 60 
3 93 75 86 
3 64 83 95 
3 62 74 84 
3 95 85 64 
3 75 65 86 
3 41 62 108 
3 108 62 84 
3 95 63 87 
3 66 41 108 
3 64 85 87 
3 65 125 86 
3 125 67 88 
3 65 67 125 
3 110 89 51 
3 52 89 100 
3 69 52 100 
3 91 101 54 
3 70 90 91 
3 78 91 54 
3 68 71 97 
3 92 97 71 
3 78 70 91 
3 79 114 80 
3 81 82 72 
3 93 105 92 
3 105 104 92 
3 83 72 82 
3 95 82 63 
3 95 83 82 
3 108 84 94 
3 85 95 87 
3 109 125 88 
3 134 76 77 
3 90 101 96 
3 69 100 102 
3 91 90 96 
3 79 69 102 
3 103 80 114 
3 98 80 103 
3 106 105 93 
3 94 84 98 
3 115 106 93 
3 115 93 86 
3 115 86 125 
3 66 108 88 
3 108 109 88 
3 51 99 110 
3 51 76 99 
3 68 121 77 
3 91 113 101 
3 91 96 113 
3 114 79 102 
3 114 104 103 
3 104 116 97 
3 104 97 92 
3 103 104 105 
3 98 103 105 
3 94 98 106 
3 98 105 106 
3 107 94 106 
3 106 115 107 
3 76 119 99 
3 76 134 119 
3 77 111 134 
3 100 89 110 
3 101 112 96 
3 111 77 121 
3 121 68 123 
3 97 123 68 
3 129 114 102 
3 116 104 114 
3 117 94 107 
3 117 108 94 
3 108 124 109 
3 109 124 118 
3 109 118 125 
3 112 101 127 
3 136 127 101 
3 100 110 122 
3 142 100 122 
3 102 100 142 
3 116 114 129 
3 116 137 97 
3 107 131 117 
3 107 130 131 
3 130 107 115 
3 99 120 110 
3 113 136 101 
3 96 112 128 
3 113 128 136 
3 96 128 113 
3 129 102 142 
3 97 137 123 
3 108 117 124 
3 130 115 149 
3 125 149 115 
3 118 124 126 
3 119 139 99 
3 127 135 112 
3 141 111 121 
3 122 110 120 
3 128 112 135 
3 116 129 133 
3 116 133 137 
3 125 118 149 
3 136 132 127 
3 132 135 127 
3 141 121 123 
3 129 142 133 
3 124 117 138 
3 149 118 158 
3 99 139 159 
3 159 120 99 
3 136 140 132 
3 137 133 151 
3 117 131 138 
3 149 152 130 
3 126 124 138 
3 126 150 118 
3 153 120 159 
3 134 139 119 
3 147 120 153 
3 111 139 134 
3 135 132 144 
3 122 120 147 
3 140 136 145 
3 136 128 145 
3 133 142 148 
3 123 137 151 
3 131 143 138 
3 131 130 143 
3 130 152 143 
3 154 159 139 
3 139 146 154 
3 111 146 139 
3 111 141 146 
3 147 148 122 
3 122 148 142 
3 128 135 145 
3 145 135 144 
3 162 123 151 
3 118 150 158 
3 161 140 145 
3 141 123 162 
3 149 176 152 
3 126 138 163 
3 147 153 166 
3 161 144 168 
3 161 132 140 
3 145 144 161 
3 143 152 156 
3 158 176 149 
3 146 155 154 
3 160 132 192 
3 132 160 144 
3 168 144 160 
3 148 147 173 
3 133 148 173 
3 133 173 151 
3 151 174 162 
3 156 152 157 
3 152 176 157 
3 126 163 164 
3 126 164 150 
3 150 164 165 
3 150 165 158 
3 154 170 159 
3 147 166 184 
3 141 155 146 
3 173 147 172 
3 161 192 132 
3 138 143 163 
3 163 143 156 
3 158 165 176 
3 166 153 159 
3 183 166 159 
3 154 155 170 
3 168 160 167 
3 172 147 184 
3 161 168 192 
3 151 173 179 
3 151 179 174 
3 169 164 163 
3 159 170 183 
3 167 160 188 
3 155 190 189 
3 168 167 171 
3 168 171 192 
3 180 157 186 
3 156 180 175 
3 157 180 156 
3 163 156 175 
3 181 157 176 
3 169 163 175 
3 164 169 182 
3 165 164 182 
3 165 177 176 
3 176 177 181 
3 177 165 182 
3 155 189 170 
3 192 188 160 
3 141 190 155 
3 172 184 202 
3 173 172 179 
3 179 172 202 
3 162 174 178 
3 186 157 181 
3 184 166 194 
3 192 201 188 
3 178 141 162 
3 190 141 178 
3 185 180 186 
3 185 175 180 
3 186 181 187 
3 169 175 185 
3 185 187 169 
3 181 177 187 
3 169 187 182 
3 187 177 182 
3 166 183 194 
3 174 179 196 
3 174 196 178 
3 187 185 186 
3 194 183 200 
3 193 191 188 
3 188 191 167 
3 171 167 191 
3 192 171 191 
3 183 170 200 
3 199 191 193 
3 192 198 201 
3 195 190 178 
3 198 192 191 
3 196 195 178 
3 179 202 203 
3 203 202 212 
3 179 203 196 
3 200 170 232 
3 189 197 170 
3 193 188 201 
3 202 184 194 
3 198 191 199 
3 203 214 196 
3 232 170 197 
3 193 201 211 
3 190 195 189 
3 189 195 197 
3 213 199 223 
3 213 198 199 
3 212 204 203 
3 204 205 203 
3 203 205 214 
3 214 205 215 
3 216 205 204 
3 215 205 206 
3 206 205 207 
3 216 208 205 
3 205 208 207 
3 208 209 207 
3 194 200 210 
3 195 240 197 
3 202 194 222 
3 212 202 222 
3 223 199 221 
3 214 195 196 
3 208 216 217 
3 247 208 217 
3 207 218 206 
3 218 207 209 
3 247 231 208 
3 231 209 208 
3 200 232 239 
3 239 210 200 
3 197 240 219 
3 201 198 211 
3 211 220 193 
3 222 194 210 
3 213 211 198 
3 199 193 221 
3 221 193 220 
3 195 233 240 
3 243 212 222 
3 234 233 195 
3 224 225 227 
3 213 225 224 
3 223 225 213 
3 234 195 214 
3 244 212 243 
3 204 212 244 
3 226 204 244 
3 215 234 214 
3 225 228 227 
3 216 204 226 
3 228 230 227 
3 245 216 226 
3 227 229 237 
3 230 229 227 
3 217 216 245 
3 206 238 215 
3 209 231 218 
3 232 197 219 
3 224 211 213 
3 242 223 221 
3 235 225 223 
3 242 235 223 
3 236 235 227 
3 228 225 236 
3 236 225 235 
3 234 215 246 
3 230 228 236 
3 215 238 246 
3 245 226 244 
3 237 236 227 
3 249 217 245 
3 247 217 249 
3 218 238 206 
3 219 239 232 
3 224 220 211 
3 222 210 241 
3 221 220 224 
3 243 222 241 
3 242 221 224 
3 227 235 224 
3 236 237 230 
3 230 237 229 
3 249 231 247 
3 231 250 218 
3 218 250 238 
3 239 219 248 
3 240 248 219 
3 241 210 239 
3 248 240 233 
3 234 252 233 
3 235 242 224 
3 244 243 251 
3 251 243 241 
3 245 244 251 
3 246 252 234 
3 252 246 250 
3 250 249 245 
3 238 250 246 
3 250 231 249 
3 241 239 253 
3 253 239 248 
3 252 248 233 
3 241 253 251 
3 253 248 251 
3 251 248 252 
3 245 251 250 
3 250 251 252 
