ply
format ascii 1.0
comment VCGLIB generated
element vertex 252
property double x
property double y
property double z
element face 500
property list uchar int vertex_indices
end_header
0.06761966283369795 -0.4982352910087674 -0.001938923292790455 
0.02056929558597522 -0.4824747459478341 -0.0007653320531314738 
0.06026499966035454 -0.4814480766264302 -0.04123482563564672 
0.04268960018920843 -0.4957453743363788 -0.001770835930363426 
0.03699477751165547 -0.4873151792369656 0.02465202634424998 
0.06212489249974057 -0.4924405606849478 0.02018818402506548 
0.09156621934533495 -0.4817968723389656 -0.008412050142634631 
0.06706766394737178 -0.4794510667482683 0.03343624799342709 
0.0870496236286407 -0.4837298873794478 0.02108967713209523 
0.01684630863184322 -0.4623094860246444 -0.02491120574874802 
0.01435372385429401 -0.4596352212943917 -0.0007256038957528799 
0.01606500603595078 -0.4598380140064375 0.02365175964658086 
0.04238349544219065 -0.4599899546601042 0.04202958601081193 
0.05778590995705048 -0.4622797991120479 -0.04862275442192077 
0.08697000674114293 -0.4601155446706366 -0.02915274135540996 
0.06147351482617261 -0.4569608891739374 0.04316532002747411 
0.1002761848620314 -0.4596352212943917 -0.0007256038957528799 
0.02104204028285904 -0.4398766344027198 -0.02314986290406849 
0.01358261344879264 -0.4399172611433081 -0.0007256038957528799 
0.01819567208110983 -0.4287375371617255 0.02150907572209118 
0.04300331783458389 -0.4380188019682199 0.04146995704901905 
0.06193510881598294 -0.4401607169913433 -0.04178482435514703 
0.09771938415767377 -0.4260837117005776 0.0002636020101024047 
0.09649256177160558 -0.4553322822292792 0.02131428241949774 
0.06307244014791041 -0.4228710996211708 0.04295125866993533 
0.08146889231559884 -0.4565566231063696 0.03601619968377616 
0.01665055161289613 -0.4185250488528129 -0.02578648437336544 
0.04219461961350367 -0.4319402026234505 -0.04108409600403357 
0.04204477274701637 -0.3962736422353814 0.04193194826838168 
0.08050513210969801 -0.4204812684304748 -0.03766618252195842 
0.08109990632162263 -0.3828643630809226 0.03521068002247853 
0.09388903267555984 -0.4284403310005799 -0.02284579746976992 
0.09575693702536159 -0.384504053874063 0.02021060631955153 
0.02476680527110519 -0.3662040196569193 -0.03242977969982005 
0.01268940121986746 -0.3954873558885962 -0.0006497977052289315 
0.06266035833357116 -0.3671975993674613 -0.04616276781372908 
0.07995262737742946 -0.3753226269916086 -0.03806814162627063 
0.06332344910207192 -0.3818159136572619 0.04532816579084395 
0.09647693725887585 -0.3807633806900576 -0.02163939181657126 
0.0155239804697573 -0.3739914514943237 -0.021553222600451 
0.01594919303329521 -0.3950339279998771 0.02290394865949021 
0.09136272664137424 -0.3549974555368114 -0.02155361212697207 
0.1008540861405957 -0.3752794039974085 -0.0007065022208964814 
0.09812422763141193 -0.361045420538974 0.02018818402506548 
0.01708220217643262 -0.3430406124582573 0.02529458654881234 
0.04184803619277155 -0.3213216695998348 0.04198970239926439 
0.1015100270849301 -0.3345774238768519 -0.002142746862737189 
0.08191779304779043 -0.2695785256034781 0.03642504349692312 
0.09835689917189377 -0.3228882093783805 -0.02158972753010322 
0.09946696020092412 -0.277651196927427 0.02023884525134789 
0.01456315575298009 -0.3115641483876815 -0.02151915319964399 
0.01334241621442953 -0.3093710905988848 -0.001464515982387103 
0.04065663646927194 -0.3355305938665641 -0.04245403928650826 
0.04207024851321371 -0.265535005771082 0.04158595478660553 
0.06325996827910567 -0.3186327344860861 -0.04199819506788517 
0.02277135562290547 -0.2835179100435977 -0.03079058440018507 
0.01484333643395236 -0.2821735799346399 -0.02163939181657126 
0.02300096860199268 -0.3017845811874529 0.02012808064619923 
0.02205619117582093 -0.2827872323497205 0.02096698014881236 
0.0624838883016442 -0.2687660131316067 -0.04719891469951572 
0.08354910243133637 -0.3246336453660969 -0.03554640783352762 
0.01420307133713066 -0.2735835194164004 -0.002238206518975115 
0.07967151163864263 -0.2645332629422283 -0.03847647167784101 
0.09594690161119518 -0.2624556197835564 -0.02163939181657126 
0.1013878610962584 -0.2624556197835564 -0.0007256038957528799 
0.01936506332049453 -0.2567483728484065 -0.02420031072073765 
0.01524754383593915 -0.2616906571419403 0.02021664069607899 
0.04314273624687784 -0.2713459355112424 -0.0434544245419282 
0.06225135137129327 -0.2528182508919339 0.04442190554342162 
0.09948683052397667 -0.2427376596324728 -0.02163939181657126 
0.1000370346442771 -0.2082755944934192 -0.001728805482850476 
0.09550024208728199 -0.2234675503013218 0.02018253002313463 
0.01562313126499307 -0.2188281424099888 -0.02539719484061206 
0.02271839997995061 -0.2615325294432403 0.02925749098401944 
0.08084798764681597 -0.2109506292327291 0.03627787848347405 
0.06240655853884823 -0.2239772370530186 0.04594222802161371 
0.09768260450578077 -0.2000453940161468 -0.02185701112341257 
0.04274957494492361 -0.1956879003339339 -0.04365890372955981 
0.06222980992568724 -0.2312072544967891 -0.04668829455573619 
0.06272416085869245 -0.2037080343381477 0.0447522083523144 
0.09923872005489294 -0.1988764203335924 0.02015009910349365 
0.08081607444327917 -0.2142967734477063 -0.03834065537740584 
0.08103228276676339 -0.1718750904457465 0.03698526259992455 
0.1014135747100167 -0.181904567239412 3.507843452527992e-05 
0.01665073776754509 -0.1810876636522573 -0.02505173259082729 
0.01263180361880781 -0.2312545776252789 -0.0009425242006206695 
0.04181460268898207 -0.1184515990968082 -0.04318706295425051 
0.06220436903751781 -0.1737202560545607 0.04604740446623106 
0.09898940380162757 -0.1448944191367569 0.02019141451663578 
0.01462517343029208 -0.1240126723387773 -0.02165950640232132 
0.01484870279730161 -0.1407568109637194 0.02024470343704651 
0.04191401092805731 -0.1883319587628304 0.04188958726800732 
0.06212489249974057 -0.1441478588770551 0.0451869757289981 
0.06242763543399772 -0.1264136433537365 -0.04722554112845811 
0.09792261721508275 -0.1612353787690724 -0.02166025018572732 
0.02267975334596306 -0.1060583006693254 -0.03106549922292771 
0.01256841977562957 -0.1280890284191488 -0.001095429085857224 
0.02251878354504304 -0.1271364026334411 0.02955863003368365 
0.08208825643740048 -0.1176316797406218 -0.03728920629972003 
0.09810298506346131 -0.1207819945851468 -0.02165242795686126 
0.1011983229010483 -0.1130423369340632 -0.001590972381485897 
0.09722500298134679 -0.1244298987259716 0.02018818402506548 
0.06288872618329967 -0.103611405476372 -0.04567589482817105 
0.01480381113952906 -0.05912749050483983 0.02019725240387581 
0.08047400402193768 -0.08849020107879277 -0.03848890186628866 
0.08105989954671346 -0.1131307662137524 0.03662582838432266 
0.09622239593482201 -0.08499397842380452 -0.02163939181657126 
0.09958781570469459 -0.09689390535715443 0.02017363252434037 
0.01716909245559318 -0.04583385967165005 -0.02541854606342158 
0.01283225431218487 -0.05471278595813282 -0.0001738592226399025 
0.02281131160484843 -0.05907248088885839 0.02949456344834195 
0.06243600080339198 -0.05770437359758851 0.04580073082826425 
0.09908056600402329 -0.06277007700000581 -0.02160818220977495 
0.1014522286713717 -0.06961689152332376 -0.002576712680297187 
0.04270530686071222 -0.05866903975405763 -0.04344692198969887 
0.04219445575423162 -0.07190439943549144 0.04190678112941932 
0.06239758981592229 -0.07525840020153962 -0.04801583900443966 
0.08104130602254583 -0.03378298241327544 0.0364372079435438 
0.01671241265578462 -0.0111777779889814 0.02434117923652752 
0.04450709703419106 -0.04070780841709728 0.04209747703372431 
0.09872459002159319 -0.02207444253794487 -0.02162547857052673 
0.1013010359297537 -0.01645845852495189 -0.002167032848950832 
0.09777114508606811 -0.04335821474769719 0.02018768223495972 
0.0161172874121395 -0.01440355384665216 -0.02590099436493955 
0.08202260322386035 -0.01876939051774098 -0.03749760228611158 
0.1014321063279462 0.05430985085642232 0.0004596607848136127 
0.09955893461444414 0.004972546437258343 0.02022175055084934 
0.01618889369156376 0.05670835092265 -0.02527333169588329 
0.01278278078876091 0.003269072369983163 -0.001552161597282028 
0.06250218577009631 0.05688892700875722 -0.04706682255023559 
0.0808876815555509 0.04324983773281968 0.0368875853205174 
0.0993217166612427 0.04014947565305945 0.02021854747613516 
0.01561588611266244 0.05112915201937616 0.02395364807773901 
0.08180159218775827 0.1101286935252873 -0.03732652167080444 
0.0163282496880381 0.1015745470887113 0.02404035175720055 
0.04167553648500232 0.06584321851949683 -0.04320390406636925 
0.04161529380339186 0.04375937271767881 0.04194636461821866 
0.06239818037828426 0.05264089501733023 0.04544105175959141 
0.09915674221794334 0.07960392993252759 -0.02164407279810912 
0.01693399430438168 0.09295809127784405 -0.02149547814720791 
0.0405166056601785 0.1152325169358084 -0.04273164687490855 
0.0418281557609048 0.1675399171131018 0.04166119206173012 
0.06236284038864116 0.1251081254068341 -0.04624975874470439 
0.02293250571911943 0.1388354918848554 -0.03090916852283039 
0.1012622132381429 0.1462078160456357 -0.001052787470989643 
0.09764967184596049 0.1308119496129894 0.02008417197431473 
0.01286471012637931 0.0990860946091028 0.0003812561024066862 
0.01848151499484554 0.1666194329382979 0.02405669135236596 
0.0420542032325526 0.1808214031766911 -0.04304963590352227 
0.09873435399770092 0.1534884783895925 0.02023568239290675 
0.02288616622892185 0.1845495718521809 -0.03111491120236257 
0.08024572282443002 0.1488499095398556 0.03711897818613737 
0.01479933330385458 0.1721470138056584 -0.02172723585883951 
0.01276038730559002 0.1899984113427301 -0.002186338255074381 
0.01703320792163717 0.1890963786704596 0.02495669307596679 
0.06241016640040468 0.224404173503559 -0.04737703119527328 
0.06334180592421335 0.1738208053008344 0.04559839321147601 
0.09870135930457405 0.1733651431205518 -0.0216673554426348 
0.06249812422506845 0.2327158342517132 0.04612315421048361 
0.01493653718710714 0.247923606316011 -0.02191423656206714 
0.04235187951446186 0.2360043978901657 -0.04300293776638343 
0.08047707409135721 0.2576077455375134 -0.03862330675504202 
0.09947457584890365 0.2188118877825264 0.02026311761964647 
0.02277452904726122 0.2656783914586036 -0.03045847391795838 
0.04160596968264579 0.2742584724149427 0.04180392901252431 
0.02291612787506326 0.2853388120194821 0.02938745277968598 
0.08132032067825727 0.3017464062586399 0.03650247919111239 
0.09858446073159922 0.2575763021873683 -0.02164414372521089 
0.01959093023960619 0.2909338807557674 -0.02491391393220456 
0.01517855360733168 0.2732175948392704 0.02029365209887822 
0.04298054154861084 0.2896306175470136 -0.04342728590874202 
0.06201723299127131 0.3058401990971311 -0.04715792299338879 
0.06302369882713155 0.3041623527635127 0.04514523131917566 
0.09879517807158479 0.3136420759069378 -0.02165683686470863 
0.1014664966543052 0.2531063553506614 0.001191982061481874 
0.1016071821150416 0.3334601771617673 -0.0007792720506325093 
0.01590179590778788 0.3130584186485323 -0.02544399395474565 
0.01292915356354124 0.292234756363447 -0.0001995447970217813 
0.01887565971379865 0.3083319744482352 0.02389003735217211 
0.08135609451692273 0.3606211050594567 -0.03731514276769122 
0.09818018732968772 0.2992794224353487 0.02019664327101789 
0.01065691758659874 0.3672315281965723 -0.02135238679566734 
0.008339076472528508 0.3668680396613782 -0.002003483731450466 
0.04244184350511843 0.3285579644595958 0.04191221379907559 
0.06271913591398877 0.366229687945302 -0.04640029253980713 
0.09563190894248871 0.3659784028287134 -0.02158616985374048 
0.09872839155510482 0.3488011449000332 0.02018818402506548 
0.02606705754858037 0.3652142969377982 -0.03556343267873481 
0.01250970880216208 0.3653023129291987 0.0238875440699582 
0.0820832563982201 0.3714902000243723 0.03364318267444182 
0.0961547150261232 0.381647801606721 -0.0001304283358293899 
0.01115556352006374 0.3975129887097613 0.03635663304355603 
0.04291394057439479 0.3763098073717548 -0.04617550020988365 
0.04135711571828481 0.3841317316849491 0.04466616596170039 
0.06220555714172517 0.3953593102789399 -0.0422979692307747 
0.08667384584397173 0.3964936363718343 -0.02256455040873141 
-0.1758230914311634 0.4036722814681741 -0.0245762615774459 
-0.186736571899656 0.4066702145988001 0.01044708691753865 
-0.1727644450088508 0.3990119617365906 0.001176906168280322 
-0.1016704803398105 0.4018573697757938 0.02234236898438488 
-0.1704592858999484 0.4020776883137461 0.02517349525531265 
-0.1506119015772489 0.4011939838924327 -0.02565392395240548 
-0.0699487835730721 0.4019740115200168 -0.02542633759112648 
-0.08697243245770681 0.3984655886694863 0.0002059672007832899 
-0.06492869963331603 0.4025972696007243 0.02341674222047784 
-0.03941047056021375 0.3982206940326085 0.001223953132000364 
-0.02757823689096595 0.3997844236735009 -0.0252829207171542 
-0.0114415622276723 0.3897501364831877 0.004689032265823917 
-0.01238754686706388 0.3966610073709772 0.0227245655633701 
0.006024374815227908 0.3910205249094765 -0.03345703674890566 
0.03763344344563179 0.421822224581819 -0.04540654576029687 
0.06225228976488662 0.3803208911644747 0.04398373664286734 
0.08698404641193626 0.3984965051303676 0.02086150507021142 
-0.1935899315301129 0.4301813668603447 -0.02206219257712231 
-0.1931912270010867 0.4310623795326983 0.01846391375294786 
-0.1730395072142794 0.4286592486660757 -0.04321936636500832 
-0.1733694160210802 0.4271182289259268 0.04172880538263732 
-0.1198176765531051 0.4278681577523695 -0.04330458422699493 
-0.1392169682910714 0.430268877474395 0.04240405352584391 
-0.055013286949995 0.4274101308735152 0.04183843686155124 
-0.03024230988786084 0.4294531700671142 -0.04447286656427904 
-0.019134672321274 0.4227786438739149 0.04279953856797443 
0.007190913699016446 0.4228040726668226 -0.04573594414732047 
0.07537383187977315 0.4270104678208766 -0.002011906152186969 
-0.1760361891015411 0.447768893092175 -0.04727884732557699 
-0.1770403500714061 0.4462769878857788 0.04672204872089384 
-0.1259573005404556 0.4472099613022558 -0.0467341700725383 
-0.1104916211541727 0.4473606007389104 0.04477341221458678 
-0.02451951464375842 0.4481124427326773 0.0459115149172927 
-0.002953956672679254 0.4383420080128311 0.04544402428154959 
0.01148103907776735 0.4464882540437354 -0.04311648126591321 
0.0582810052020481 0.4404233848995272 -0.02398553340638536 
0.03398997078520325 0.434996610066705 0.04059011256934732 
0.06236084352165761 0.4339007988975166 0.02398575373073403 
-0.1924048898977468 0.4680095384667435 -0.01740742033292171 
-0.1923001447032734 0.4601586357376215 0.0219165627284732 
-0.1715208563841224 0.4661697909419699 0.03701240499772312 
-0.1729618965555453 0.4670226293500238 -0.03782703272534754 
-0.02872670021629176 0.4671315219186856 -0.03723927786209272 
-0.1117919304834234 0.4660304445105502 0.03737403354661023 
-0.01794423816532819 0.4487570028738218 -0.04645597501725932 
-0.02938120167607005 0.4667776733665599 0.03641183486097915 
0.02559694294065982 0.4706146034467922 0.001008058328513474 
-0.1707078600673953 0.4829525241635367 0.02036915384944078 
-0.1707292165545339 0.4842590195946193 -0.02188789779792523 
-0.1707947490292952 0.4870945166016569 -0.002720406906724609 
-0.0806589637219272 0.484666133372887 0.01999720223117775 
-0.02826248408134958 0.4825153405956996 -0.02195435611066779 
-0.02836822710261179 0.4838975773677082 0.02022217107851737 
-0.02542071101428311 0.4860499654693431 -0.0008631270873636076 
0.01088639859477117 0.4695333930358721 -0.02352318411077219 
0.01814285043170989 0.4723403797868342 0.02209742432677978 
3 2 3 9 
3 9 3 1 
3 4 1 3 
3 0 3 2 
3 0 5 3 
3 5 4 3 
3 4 5 7 
3 2 6 0 
3 0 8 5 
3 5 8 7 
3 8 0 6 
3 9 1 10 
3 4 11 1 
3 1 11 10 
3 2 9 13 
3 4 12 11 
3 7 12 4 
3 15 12 7 
3 13 14 2 
3 14 6 2 
3 15 7 25 
3 6 14 16 
3 6 16 8 
3 8 16 23 
3 8 23 25 
3 7 8 25 
3 9 10 17 
3 10 18 17 
3 10 11 18 
3 11 19 18 
3 13 9 27 
3 9 17 27 
3 20 19 11 
3 11 12 20 
3 27 21 13 
3 15 20 12 
3 21 14 13 
3 21 29 14 
3 29 31 14 
3 14 31 16 
3 16 31 22 
3 16 22 23 
3 17 18 26 
3 18 34 26 
3 18 19 34 
3 27 17 26 
3 21 27 29 
3 20 15 24 
3 24 15 25 
3 19 40 34 
3 28 19 20 
3 40 19 28 
3 24 37 20 
3 37 28 20 
3 30 24 25 
3 37 24 30 
3 36 31 29 
3 23 22 32 
3 23 32 30 
3 25 23 30 
3 39 33 26 
3 26 34 39 
3 27 33 52 
3 26 33 27 
3 44 40 28 
3 35 29 27 
3 35 27 52 
3 36 29 35 
3 38 31 36 
3 31 38 22 
3 22 38 42 
3 22 42 32 
3 41 38 36 
3 38 41 42 
3 32 42 43 
3 32 43 30 
3 50 33 39 
3 39 34 50 
3 40 44 34 
3 45 44 28 
3 35 52 54 
3 37 45 28 
3 54 36 35 
3 36 54 60 
3 30 47 37 
3 60 41 36 
3 42 41 46 
3 42 46 43 
3 43 46 49 
3 43 49 47 
3 30 43 47 
3 55 33 50 
3 34 51 50 
3 34 44 51 
3 33 55 52 
3 37 68 45 
3 37 47 68 
3 48 41 60 
3 41 48 46 
3 57 51 44 
3 44 45 57 
3 45 53 57 
3 68 53 45 
3 56 55 50 
3 50 51 56 
3 51 61 56 
3 57 58 51 
3 51 58 61 
3 52 55 67 
3 57 53 58 
3 54 52 59 
3 59 52 67 
3 59 60 54 
3 65 55 56 
3 56 61 65 
3 58 66 61 
3 58 73 66 
3 55 65 67 
3 73 58 53 
3 62 60 59 
3 63 48 60 
3 62 63 60 
3 48 63 46 
3 46 63 64 
3 46 64 49 
3 61 85 65 
3 61 66 85 
3 59 67 78 
3 78 62 59 
3 62 78 81 
3 69 63 62 
3 81 69 62 
3 63 69 64 
3 64 69 70 
3 64 70 49 
3 49 70 71 
3 49 71 47 
3 65 85 72 
3 67 72 77 
3 65 72 67 
3 91 73 53 
3 78 67 77 
3 68 75 53 
3 75 91 53 
3 74 68 47 
3 75 68 74 
3 76 69 81 
3 69 76 70 
3 47 71 74 
3 72 85 84 
3 72 84 77 
3 75 79 91 
3 79 75 74 
3 71 70 80 
3 71 80 74 
3 79 87 91 
3 82 79 74 
3 79 82 87 
3 70 76 83 
3 70 83 80 
3 74 80 82 
3 66 90 85 
3 73 97 90 
3 66 73 90 
3 77 84 86 
3 97 73 91 
3 78 77 93 
3 93 77 86 
3 93 81 78 
3 81 93 98 
3 94 76 81 
3 98 94 81 
3 76 94 83 
3 80 83 88 
3 80 88 82 
3 89 95 84 
3 84 85 89 
3 85 96 89 
3 85 90 96 
3 84 95 86 
3 87 92 91 
3 82 105 92 
3 87 82 92 
3 82 88 105 
3 92 111 91 
3 92 105 111 
3 99 94 98 
3 94 99 83 
3 83 99 100 
3 83 100 88 
3 88 100 101 
3 88 101 105 
3 90 103 96 
3 90 97 103 
3 115 97 91 
3 93 86 102 
3 111 115 91 
3 93 102 98 
3 101 100 107 
3 101 107 105 
3 102 86 116 
3 116 104 102 
3 102 104 98 
3 106 99 98 
3 104 106 98 
3 99 106 100 
3 100 106 113 
3 100 113 107 
3 108 95 89 
3 89 96 108 
3 96 109 108 
3 96 103 109 
3 97 110 103 
3 86 108 114 
3 95 108 86 
3 110 97 115 
3 116 86 114 
3 111 105 117 
3 112 106 104 
3 106 112 113 
3 107 113 122 
3 107 122 117 
3 105 107 117 
3 115 119 110 
3 115 111 119 
3 104 116 124 
3 124 112 104 
3 108 109 123 
3 109 128 123 
3 109 103 128 
3 103 118 128 
3 103 110 118 
3 114 123 135 
3 108 123 114 
3 118 110 119 
3 116 114 129 
3 129 114 135 
3 119 111 137 
3 116 129 124 
3 137 111 117 
3 120 112 124 
3 112 120 113 
3 113 120 121 
3 113 121 122 
3 136 118 119 
3 137 136 119 
3 122 121 126 
3 122 126 117 
3 123 128 127 
3 138 120 124 
3 120 138 121 
3 121 138 125 
3 121 125 126 
3 118 132 128 
3 123 127 135 
3 132 118 136 
3 130 137 117 
3 126 125 131 
3 126 131 130 
3 117 126 130 
3 128 146 127 
3 128 132 146 
3 129 133 124 
3 133 138 124 
3 127 146 139 
3 132 134 146 
3 134 132 136 
3 151 137 130 
3 156 137 151 
3 131 125 145 
3 131 145 151 
3 130 131 151 
3 140 127 139 
3 127 140 135 
3 141 134 136 
3 129 135 142 
3 142 135 140 
3 137 156 136 
3 156 141 136 
3 142 133 129 
3 143 140 139 
3 152 143 139 
3 139 146 152 
3 125 138 144 
3 125 144 145 
3 134 147 146 
3 140 143 148 
3 147 134 141 
3 142 140 148 
3 157 138 133 
3 138 157 144 
3 145 144 149 
3 145 149 151 
3 150 143 152 
3 146 153 152 
3 146 147 153 
3 143 150 148 
3 142 148 155 
3 155 133 142 
3 147 154 153 
3 154 147 141 
3 161 157 133 
3 144 157 174 
3 144 174 149 
3 149 174 162 
3 149 162 151 
3 159 150 152 
3 152 153 159 
3 154 169 153 
3 156 158 141 
3 161 133 155 
3 158 151 166 
3 156 151 158 
3 167 157 161 
3 157 167 174 
3 151 162 166 
3 163 150 159 
3 148 163 160 
3 150 163 148 
3 164 154 141 
3 155 148 160 
3 158 164 141 
3 162 174 180 
3 162 180 166 
3 153 177 159 
3 153 169 177 
3 154 165 169 
3 160 163 170 
3 165 154 164 
3 155 160 170 
3 158 172 164 
3 171 161 155 
3 158 166 172 
3 168 163 159 
3 159 177 168 
3 163 168 170 
3 155 170 171 
3 173 167 161 
3 167 173 174 
3 168 177 176 
3 169 178 177 
3 169 165 178 
3 168 176 170 
3 183 165 164 
3 178 165 183 
3 172 183 164 
3 161 171 179 
3 179 173 161 
3 174 173 175 
3 174 175 180 
3 181 187 176 
3 176 177 181 
3 177 182 181 
3 177 178 182 
3 178 188 182 
3 170 187 192 
3 176 187 170 
3 188 178 183 
3 171 170 184 
3 184 170 192 
3 184 179 171 
3 185 173 179 
3 173 185 175 
3 180 175 186 
3 180 186 166 
3 193 188 183 
3 172 211 183 
3 211 193 183 
3 189 172 166 
3 211 172 189 
3 175 185 190 
3 175 190 186 
3 186 190 212 
3 186 212 189 
3 166 186 189 
3 182 188 207 
3 188 208 207 
3 181 209 187 
3 208 188 191 
3 209 192 187 
3 191 188 193 
3 184 192 194 
3 194 179 184 
3 179 194 195 
3 195 185 179 
3 185 195 190 
3 196 198 197 
3 198 200 197 
3 200 216 197 
3 201 198 196 
3 201 203 198 
3 203 199 198 
3 198 199 200 
3 202 203 201 
3 203 204 199 
3 202 205 203 
3 205 204 203 
3 206 205 202 
3 205 208 204 
3 206 207 205 
3 207 208 205 
3 181 206 209 
3 182 206 181 
3 207 206 182 
3 221 208 191 
3 209 222 192 
3 192 222 210 
3 210 194 192 
3 233 232 211 
3 211 232 193 
3 211 189 233 
3 189 212 233 
3 195 223 190 
3 190 223 212 
3 213 215 196 
3 196 197 213 
3 197 214 213 
3 197 216 214 
3 201 196 215 
3 217 201 215 
3 218 216 200 
3 202 201 217 
3 219 218 199 
3 218 200 199 
3 204 219 199 
3 220 202 217 
3 206 202 220 
3 208 219 204 
3 221 219 208 
3 222 206 220 
3 209 206 222 
3 221 191 229 
3 191 193 229 
3 229 193 232 
3 210 231 194 
3 231 195 194 
3 195 231 223 
3 223 233 212 
3 215 213 224 
3 214 216 235 
3 216 225 235 
3 217 215 226 
3 226 215 224 
3 218 225 216 
3 219 227 218 
3 220 217 226 
3 228 227 219 
3 240 220 226 
3 221 228 219 
3 222 220 230 
3 230 220 240 
3 229 228 221 
3 230 210 222 
3 230 231 210 
3 237 224 234 
3 234 224 213 
3 213 214 234 
3 214 235 234 
3 236 235 225 
3 224 237 226 
3 218 236 225 
3 239 236 218 
3 227 239 218 
3 237 238 226 
3 226 238 240 
3 239 227 241 
3 227 228 241 
3 240 250 230 
3 238 250 240 
3 241 229 251 
3 229 241 228 
3 232 251 229 
3 231 230 250 
3 242 231 250 
3 242 223 231 
3 233 223 242 
3 251 233 242 
3 233 251 232 
3 237 234 244 
3 244 234 245 
3 234 235 243 
3 245 234 243 
3 235 236 243 
3 239 243 236 
3 238 237 244 
3 243 246 245 
3 246 243 239 
3 247 238 244 
3 244 245 247 
3 241 246 239 
3 245 249 247 
3 246 248 249 
3 248 246 241 
3 250 238 247 
3 250 247 242 
3 247 249 242 
3 242 249 251 
3 249 248 251 
3 251 248 241 
3 246 249 245 
