ply
format ascii 1.0
comment VCGLIB generated
element vertex 254
property double x
property double y
property double z
element face 500
property list uchar int vertex_indices
end_header
-0.137453920872097 -0.09719662073094935 -0.298934295636323 
-0.1560999184230525 -0.09679628410905668 -0.2459811585034629 
-0.156978768818311 -0.09793249075120054 0.2925124468952098 
-0.1297657488814714 -0.09934742756077647 0.09044907479662584 
-0.1514606705472825 -0.0938043886604585 0.1460822178154782 
-0.132750466415777 -0.1006373793720495 0.2160258457966382 
-0.1365280885501076 -0.08362692060272926 0.03461335990772489 
-0.09430627638430505 -0.09886300557831898 0.1999690141576208 
-0.1259428937805449 -0.1013692564320552 0.3430241172179226 
-0.09041656622120919 -0.1007785032837932 0.4625632880804664 
-0.1102870013928691 -0.09885054295605392 -0.243787708526695 
-0.0477413078092271 -0.09929971083782581 -0.07406721509368977 
-0.109431077804656 -0.09874347288526371 0.01654322962723056 
-0.08468159881125376 -0.09936800888735482 0.1480486739366887 
-0.0887849062300354 -0.09765545479779683 0.2981597052040429 
-0.06865087870633778 -0.09228899897068998 0.4540077366195466 
-0.06624703612980365 -0.09745355152797833 -0.1860952806814147 
-0.0659681846672443 -0.09469626860559502 0.0398158846612242 
-0.06736733930362775 -0.08443110597338303 0.1319755281916807 
-0.05763330083802604 -0.07664269060088373 0.4229690256360699 
-0.03273968635302096 -0.09051800658281524 -0.3357257995363423 
-0.05209256250548929 -0.09828939617691798 -0.3175502122469459 
-0.05223706711464016 -0.09851340240870252 -0.255562392703259 
-0.05914332846069444 -0.09951348537657964 -0.002500171477368599 
-0.008369116457538656 -0.09831508185495282 -0.2575105495102512 
-0.03739130624777499 -0.09895708601367337 -0.1985914794857214 
0.0009039862186407804 -0.09700502352155646 -0.1340631085229098 
0.09727974140724202 -0.09761672218834425 0.05752086733567621 
0.1287906738291862 -0.09861897511360586 0.1047434057000768 
0.1297136368611474 -0.09914409699462437 0.01642226585671528 
0.174376569767281 -0.09501417899675953 0.1620839227754602 
0.1934432452995849 -0.1006843868601594 0.1528848092722024 
0.261947529225625 -0.09855322460941052 0.1913035221969713 
0.2337763778844434 -0.09768426157451079 0.2859843883288273 
0.2785305235403055 -0.1002114391678475 0.2416114911876023 
0.2726701716855975 -0.1006341263525014 0.3615291849173947 
0.312816461828161 -0.09683637998440107 0.3097461661027531 
-0.1755551922261331 -0.08062205531443135 -0.3252424614145132 
-0.1930772177456779 -0.06553683284973937 -0.315264654501322 
-0.1738570633128216 -0.09253354807443351 -0.2901188950909772 
-0.1702572496146424 -0.0723247395169732 -0.2333337079327452 
-0.1527816699521841 -0.07520148341331917 -0.3300396876222241 
-0.1662682517019948 -0.07246806756332749 0.1572838871220066 
-0.1522439792380013 -0.09244987506632138 0.3792358425851461 
-0.1530204890146739 -0.07292597273453073 0.4390864810255779 
-0.1174452506320777 -0.09857106724873888 -0.1452528179011207 
-0.1285926720236321 -0.0714792432769176 -0.1241498218569936 
-0.1494956918055751 -0.06660634919039757 0.06625695969389181 
-0.1253292173422743 -0.09889768791497562 0.4654460979980696 
-0.139816997326392 -0.07208069271864596 0.4698711529777241 
-0.1106521029716385 -0.09667729512028581 -0.05083715779179297 
-0.1274508039603709 -0.07259577539749808 -0.02850867164929788 
-0.1005942713517811 -0.07274798177576135 0.4858075262164877 
-0.08647248492433884 -0.07756700357400374 -0.2409656921676698 
-0.0711702531092398 -0.07562647932828336 -0.3236994850904644 
-0.06973009761152789 -0.07151752047060515 -0.266422916626843 
-0.05589315601625681 -0.07766121117641264 -0.3661065432389118 
-0.05415661497422021 -0.0705666732263627 0.06657186488820681 
-0.03289492109635996 -0.09736256963556551 -0.05295953780064183 
-0.02352575416099099 -0.06467446501895933 -0.01688238365277394 
-0.01696169975531745 -0.08739815570862401 -0.3144421274287064 
-0.01529542909510797 -0.09128097915263383 -0.08070511554163348 
0.009084338781223059 -0.07115211999076472 -0.2611839576878937 
0.02050390633634296 -0.08071944292353485 -0.2056477840988912 
0.02288693969060713 -0.0640078597446702 -0.1676163499886939 
0.01827168325807665 -0.07603710241622892 -0.1285065115649892 
0.0840630809446396 -0.07283316798755911 0.01207907594636897 
0.09815827338765057 -0.07312248772998366 0.08883392224315924 
0.1713558669415305 -0.06913673233225136 0.02374001807800577 
0.1950550745093847 -0.09784029295872497 0.2061310113791384 
0.1565210910241484 -0.07205650342531521 0.1706835853356624 
0.2101659514420272 -0.09875809724653145 0.1076951365603399 
0.2429882543950649 -0.07164833637300465 0.3526407592622514 
0.2965904342565432 -0.0725450316689854 0.2277215790946576 
0.2766455652209617 -0.07397098451392986 0.3818543947784387 
0.3284285293483949 -0.0723988538226749 0.312772654604578 
0.3144465212366887 -0.08753643560872673 0.3618961238549864 
-0.1737100644900051 -0.04313470031052436 -0.3565937914205215 
-0.1516827704161518 -0.04622019506075421 -0.3525465480235789 
-0.1700484116183831 -0.01222747705143004 0.2309566504312053 
-0.1700669148731901 -0.07233948777065294 0.3168714915781653 
-0.1329201971154778 -0.04948178672208667 -0.3216857413381248 
-0.1539822013582591 -0.02857062528784271 -0.1837847085611771 
-0.1249899795468314 -0.04867507368976833 -0.1013970379386552 
-0.1301105131968947 -0.05129165974314645 -0.0216606231011023 
-0.08955654588415607 -0.03154906466430959 -0.1702598985776951 
-0.07207906556159416 -0.03045784946486302 -0.3769062183571973 
-0.07224777521990701 -0.04795245818193777 -0.2778823731031565 
-0.0725647958062537 -0.04743520728167019 -0.1190993079179786 
-0.07552049923857931 -0.07241355663970564 0.2356404399510171 
-0.07064978196352183 -0.07050260569165523 0.3612615746051153 
-0.06293853783837547 -0.05892244648253116 -0.1377187963087513 
-0.04626842717650262 -0.05241415885281079 -0.1026537867289449 
-0.04290333351761105 -0.06418106799510859 0.04119183430731684 
-0.05503776956091169 -0.05192949631504735 0.0864362084558908 
-0.06720707843626327 -0.07492256409411674 0.1379061296937989 
-0.05818624583616009 -0.0414452171101917 0.4135354869657387 
-0.02263194814085918 -0.07158197297387693 -0.3697900862986784 
-0.02083610479967816 -0.05448500826516905 -0.1306623037334806 
-0.009242207194726373 -0.06406858296002656 -0.04451471794024862 
-0.0004364509095731998 -0.06645068963427617 -0.06472508565455551 
-0.01834518661087091 -0.04594483126677951 -0.02591306817570812 
0.03237740092726881 -0.06333118426700629 -0.1101008312325564 
0.04165562833687867 -0.04016465635482733 0.02373453657706388 
0.02526884188449675 -0.05382369785530868 -0.1463761094077461 
0.07288224879150002 -0.05389980227459459 -0.07704290944340174 
0.0480097080258426 -0.06211131170830339 0.003188644743149613 
0.06052329574899903 -0.05321947434660967 0.04392768905892083 
0.09375311825758488 -0.06375506252713783 -0.02160674250412278 
0.1295005896575405 -0.05872893606350563 -0.01189543657830164 
0.2435059301365896 -0.07245677315989695 0.1261907636807769 
-0.1743810884384238 -0.02915669191417661 -0.2452083471544822 
-0.1165247302365005 -0.01243546669747526 -0.2963747139289988 
-0.1177387489343313 -0.07582806371118435 -0.2942356732652128 
-0.1171821053463265 -0.04318004369723291 -0.2850911072520023 
-0.1093631398766714 -0.02729438271788847 -0.08772150773776254 
-0.09893794912395 -0.008270841843828253 0.4844410061511669 
-0.0878273585421562 -0.03315356525812804 -0.2529551916002115 
-0.07348903477612359 -0.05032357977683722 -0.172937483525862 
-0.05193994336602339 -0.02674557614416415 -0.1304668560467137 
-0.07012270146838846 -0.02910107996464335 0.0539135695821864 
-0.07543432072198447 -0.009047654329614076 0.2570651220125235 
-0.07085465693198958 -0.009774974212289643 0.334332317723097 
-0.05028135873404822 -0.03067042553906533 -0.1659831091892543 
-0.06034632081553864 -0.007274075572189662 0.08994396933469276 
-0.06491261959952457 -0.01609008675561489 0.466201227853847 
-0.01899109643406853 -0.03173430645971396 -0.3880427522590644 
-0.02502975531596605 -0.04934655462692843 -0.190329323390178 
-0.0268533403256633 -0.02929734310616192 -0.1285238731238094 
0.009498447837139464 -0.004305264000054771 -0.01138265581346459 
0.01092192564492434 -0.03518773226248222 -0.2624931124806425 
0.03122522466703452 -0.02840004545447815 -0.1483269419679109 
0.133241434903757 -0.01651917024114897 -0.01281653700969183 
0.2082614901114391 -0.06925025272782845 0.2709430135982521 
0.3312304658217674 -0.05659562932863149 0.3479136126051945 
-0.2022602991592527 -0.03393356350796782 -0.3300425139800903 
-0.1537421774370077 -0.006856116991108625 0.0879893139202501 
-0.1666694685702964 -0.009962761512936727 0.1671068577663972 
-0.1697303105383013 -0.009116818268005296 0.2940455657645202 
-0.1631418141546158 -0.01724330423417348 0.3641438188957653 
-0.1584423308915649 -0.005993873739042858 0.4059259542513342 
-0.1531612637439493 -0.005728922160472208 -0.1937843625932134 
-0.1302811826301736 -0.00353086846406564 -0.1365452652508558 
-0.1340933041945236 -0.0279126161457792 0.04569702901228134 
-0.0989166640091028 -0.02117401765677734 0.04478400897231424 
-0.1135080869632436 -0.02362794788229762 -0.02324429183058505 
-0.08325896357243792 -0.02008523361681319 -0.06529842284521341 
-0.02723694512673833 -0.003311005203167772 -0.04535312610251588 
-0.04077475095266916 -0.02282594633945505 -0.03502540155750318 
-0.08293754104582976 0.000608468083967569 0.3115111023043037 
-0.07064041725353876 -0.006522874777652663 0.367613888895746 
-0.04802175009601616 -0.02727405164772885 0.01253285500065091 
-0.05606225118310047 -0.008703707201747121 0.4414944589596695 
-0.02047335840567421 0.02326078000085948 -0.4037868383881268 
0.02052677301156735 -0.005529584779918325 -0.1935083311740419 
0.03317967740801978 -0.003551753351994628 -0.131306973272466 
0.06680477013296507 -0.007713624285950702 0.04745986884744665 
0.0699510011473463 -0.02626772792692665 -0.08864993658704202 
0.1327087075903184 -0.005526982101258955 0.1341445189655899 
0.1914264266173174 -0.007123890070550683 0.2298417438911534 
0.2271583511719474 0.002041151544049323 0.2968267955262717 
0.2015459671142927 -0.001750988890608008 0.06768537932626732 
0.2368946973817498 -0.01482581156733272 0.3445917783809037 
0.2446126857577963 -0.01659718564140561 0.3612040855558996 
0.2549943673174286 -0.007761958491295659 0.1471485399134208 
0.2866930908547863 -0.006856225943966732 0.2107759479928053 
0.2799733145795729 -0.007382373841354696 0.3808751002726747 
0.3106913707128163 -0.006614219880180522 0.2653192149922967 
0.317986052804597 -0.002245351719094753 0.3672674373304415 
0.3312700781407206 -0.009482245496326506 0.3208914990642067 
-0.1929263472119304 0.00115009621564298 -0.3041994087265917 
-0.1629730010675582 -0.006291540933387946 -0.2354212464847267 
-0.1524915136500656 0.006164558195700618 0.1455079467661207 
-0.1505634776096663 0.01188294065207823 0.2096162382062906 
-0.151031783486599 0.0118368448393713 0.277441166094019 
-0.1494719223305094 0.01068749754830002 0.3228590319559186 
-0.1154185753792334 0.004799221249474489 -0.2575512687556683 
-0.1349037408413798 0.01325157746915159 -0.2322873453399175 
-0.1344901345143607 0.00434440866498979 0.07934372595165284 
-0.1309883242248633 0.01298008952504998 0.1227378907891522 
-0.1303201428883186 0.01482916902602752 0.3531183731104568 
-0.1417859739455446 0.001050219044687049 0.4645976376740607 
-0.09546092214571317 0.01336350003309705 0.09187316521881883 
-0.09038907170533381 0.01422835649420498 0.1521348405148099 
-0.1120192612465703 0.01420163529482131 0.3125092716879352 
-0.1059766660429277 0.01345424523221425 -0.1932131010633691 
-0.1159248769541286 0.01027192957824831 -0.1411336353936185 
-0.08432542511303635 0.004971997505754769 -0.09421742015133244 
-0.09255894237866176 0.01207939601065523 0.2480494369809845 
-0.09066123273048536 0.01336693660735203 0.3549367550702186 
-0.1161818115522574 0.01572991524865907 0.4270719299887231 
-0.09612664824802947 0.01262377298000796 0.4654456635670119 
-0.06809671974258051 0.003576406491047684 -0.3278948790277992 
-0.07215490476108456 -0.005305420794237197 -0.2728255134970186 
-0.08117835020581668 -0.01276052991945242 -0.2373839198148456 
-0.0515427212787556 0.0124899482264231 -0.09359309898813972 
-0.06516322590961794 -0.009664624530762814 0.1321047863917582 
-0.06829845210887434 0.008759615342712055 0.4368358845014848 
-0.04748196644410174 -0.02158344950835068 -0.3979388321296594 
-0.04066891912143367 0.01256664467355401 -0.2573694484112763 
-0.04368910219422805 0.01239627678408037 -0.1943658285981443 
-0.01710759493596926 0.0110623815181996 -0.3250394227318286 
-0.04584659183905709 0.01533762256624373 -0.318027348044134 
-0.006975921607880695 -0.001909843769478043 -0.3537735158022364 
0.002038947111115507 -0.004875414452987316 -0.2814892748775565 
-0.005368760245280173 0.01076664569453091 -0.2467314072710316 
0.0005353033989350226 0.01256158911776414 -0.1490279000241859 
0.006212649504257794 0.01232969297712285 -0.04801689263326354 
0.04707899786782974 0.01283689683499024 -0.07552544338159985 
0.05992868979699783 0.01001777636558941 0.01794127748357647 
0.1067962733831393 0.01246098472844881 0.008816200310098436 
0.1041559763968265 0.005311906989104378 -0.03900652338383398 
0.09636671247507381 0.01326810337919927 0.0377061136995605 
0.1536426987866539 0.01238900617044893 0.03386011568559109 
0.1085539843559293 0.01241799517247948 0.07045974710289118 
0.1623972351866443 0.01322042470887915 0.06440763712958347 
0.1732388279688432 0.0129577127462679 0.159990265706354 
0.223851196298934 0.01222290471411941 0.1305939246596381 
0.2117318300424171 0.01217731023227225 0.2259122479848122 
0.2577983044023434 0.01385939221515849 0.2025882611245478 
0.2667165132191525 0.01342375427089417 0.3559983171179022 
0.2481061267855228 0.01415032183783958 0.3005380378045021 
0.2870130045427991 0.01251351040098169 0.2609163600400256 
0.3084465116047742 0.01030665956331549 0.3039207596235579 
-0.1750301921941591 0.02163621871243928 -0.3772848823586648 
-0.1700783901903055 0.01358140347102037 -0.2853541010101169 
-0.137221971756702 0.01479917413672977 -0.2981569577829847 
-0.1310858934370755 0.006369467385771192 -0.3196069822418594 
-0.07076591190475062 0.06427239304818595 -0.4073071661178113 
-0.0486563730504971 0.0569577434997049 -0.424004562206451 
-0.1953294570874708 0.08409087132171016 -0.3908037905275129 
-0.2030528839206108 0.01939650455393939 -0.363148768980875 
-0.1991490354342499 0.05509289045203145 -0.3241777089509317 
-0.1529939091741817 0.03829217185223028 -0.3625780562359551 
-0.1524902663724082 0.05533056354942986 -0.3361160595168386 
-0.07288210331412412 0.03208594043804611 -0.3876851430426831 
-0.06958004964253642 0.05171083971515134 -0.3680163839258489 
-0.01845695367803255 0.08896899100911483 -0.4032413894155733 
-0.2178072041180712 0.1131125586787434 -0.376295153163609 
-0.1698413138470347 0.06913191391881104 -0.3884693043851827 
-0.03686867013499349 0.06079094727298739 -0.3567151907376475 
-0.02177450975532519 0.08455653284497992 -0.3762599595294828 
-0.1720345182497934 0.07149929250584001 -0.3227383136845249 
-0.173008639149114 0.12537774770275 -0.3911461552832805 
-0.1605162105541917 0.09298022674080218 -0.3584291708087013 
-0.07398625952674465 0.1244060949543501 -0.4269118135658799 
-0.07064653902358013 0.09291941415761117 -0.389156388343363 
-0.0481114050256873 0.1197305873008405 -0.4449656808430278 
-0.04815579645399384 0.09651478820254859 -0.3764210809909443 
-0.02421465486555318 0.1162588076004114 -0.425007881828463 
-0.1973220151215905 0.1261511437613021 -0.3550197646932406 
-0.1964431402907771 0.1347231844625431 -0.3963466192800479 
-0.1740300294393894 0.1260401299647552 -0.3597405240514548 
-0.04869750998600599 0.1589955390661258 -0.420623116637395 
3 0 10 1 
3 45 1 10 
3 3 5 4 
3 4 5 2 
3 5 8 2 
3 43 2 8 
3 43 8 48 
3 6 12 3 
3 3 7 5 
3 7 14 5 
3 14 8 5 
3 8 9 48 
3 10 16 45 
3 12 50 23 
3 23 50 11 
3 12 13 3 
3 3 13 7 
3 14 9 8 
3 53 16 10 
3 45 11 50 
3 17 12 23 
3 13 12 17 
3 18 13 17 
3 19 9 14 
3 15 9 19 
3 16 22 25 
3 16 11 45 
3 58 23 11 
3 21 60 24 
3 21 24 22 
3 22 24 25 
3 25 11 16 
3 24 26 25 
3 25 26 11 
3 61 11 26 
3 58 11 61 
3 29 28 27 
3 30 28 31 
3 29 71 28 
3 71 31 28 
3 29 68 71 
3 30 31 69 
3 71 32 31 
3 32 34 31 
3 31 34 69 
3 34 33 69 
3 34 35 33 
3 34 36 35 
3 76 35 36 
3 37 39 38 
3 38 39 40 
3 0 39 41 
3 39 37 41 
3 1 39 0 
3 40 39 1 
3 40 1 46 
3 47 4 42 
3 4 2 42 
3 2 80 42 
3 2 43 80 
3 80 43 44 
3 81 113 0 
3 41 81 0 
3 46 1 45 
3 6 3 47 
3 4 47 3 
3 44 43 48 
3 48 49 44 
3 0 113 10 
3 45 50 46 
3 50 51 46 
3 50 12 51 
3 12 6 51 
3 49 48 52 
3 10 113 53 
3 9 52 48 
3 95 13 18 
3 13 95 7 
3 7 95 89 
3 7 89 14 
3 14 89 90 
3 19 14 90 
3 9 15 52 
3 56 20 54 
3 20 21 54 
3 54 21 55 
3 21 22 55 
3 53 55 22 
3 22 16 53 
3 93 57 17 
3 18 17 57 
3 20 60 21 
3 58 59 23 
3 17 23 59 
3 93 17 59 
3 20 56 97 
3 97 62 60 
3 97 60 20 
3 100 99 61 
3 99 58 61 
3 59 58 99 
3 24 60 62 
3 24 62 63 
3 24 63 26 
3 63 65 26 
3 65 102 26 
3 102 100 61 
3 102 61 26 
3 65 63 64 
3 27 107 66 
3 29 27 66 
3 27 67 107 
3 29 66 109 
3 27 28 67 
3 28 70 67 
3 68 29 109 
3 30 70 28 
3 30 69 70 
3 69 133 70 
3 110 71 68 
3 69 33 133 
3 33 72 133 
3 71 110 32 
3 35 72 33 
3 72 35 74 
3 32 110 73 
3 36 34 73 
3 34 32 73 
3 36 73 75 
3 76 74 35 
3 36 75 134 
3 76 36 134 
3 77 37 135 
3 37 38 135 
3 38 40 135 
3 40 111 135 
3 77 78 41 
3 37 77 41 
3 40 46 111 
3 136 47 42 
3 42 137 136 
3 42 79 137 
3 42 80 79 
3 44 140 80 
3 41 78 81 
3 84 51 6 
3 6 47 84 
3 113 81 114 
3 46 83 142 
3 46 51 83 
3 51 84 83 
3 53 113 117 
3 56 54 86 
3 55 87 54 
3 54 87 86 
3 55 117 87 
3 53 117 55 
3 88 118 85 
3 88 91 118 
3 15 125 52 
3 127 118 91 
3 92 91 88 
3 93 94 57 
3 57 94 18 
3 18 94 95 
3 89 95 196 
3 90 122 96 
3 90 96 19 
3 19 96 152 
3 19 152 15 
3 15 152 125 
3 127 91 98 
3 98 91 92 
3 97 126 203 
3 101 59 99 
3 62 97 203 
3 62 203 130 
3 62 130 63 
3 101 99 106 
3 106 99 100 
3 106 103 101 
3 63 130 64 
3 65 64 104 
3 104 102 65 
3 102 108 100 
3 108 106 100 
3 105 102 104 
3 102 105 108 
3 103 106 107 
3 108 66 106 
3 107 106 66 
3 109 108 105 
3 108 109 66 
3 70 158 67 
3 70 159 158 
3 70 133 159 
3 72 162 133 
3 72 163 162 
3 74 163 72 
3 110 164 73 
3 168 74 76 
3 166 74 168 
3 75 73 169 
3 75 169 134 
3 76 134 168 
3 77 135 231 
3 46 82 111 
3 80 138 79 
3 80 139 138 
3 80 140 139 
3 44 181 140 
3 46 142 82 
3 84 47 143 
3 47 136 143 
3 44 49 181 
3 114 81 112 
3 83 115 142 
3 83 84 115 
3 84 145 115 
3 143 145 84 
3 52 116 49 
3 116 181 49 
3 113 114 117 
3 87 117 193 
3 85 119 88 
3 85 118 119 
3 89 121 90 
3 90 121 122 
3 125 116 52 
3 198 56 86 
3 123 118 127 
3 118 123 119 
3 88 119 92 
3 93 151 120 
3 93 120 94 
3 94 120 124 
3 94 124 95 
3 95 124 196 
3 89 196 121 
3 97 56 126 
3 126 56 198 
3 127 128 123 
3 123 128 119 
3 92 128 98 
3 92 119 128 
3 101 151 59 
3 59 151 93 
3 128 127 98 
3 101 103 129 
3 130 154 64 
3 104 64 131 
3 104 131 105 
3 105 131 157 
3 132 109 157 
3 109 105 157 
3 107 67 158 
3 109 132 68 
3 110 68 161 
3 74 166 163 
3 73 164 165 
3 73 165 167 
3 73 167 169 
3 224 77 231 
3 135 111 170 
3 111 171 170 
3 233 78 77 
3 224 233 77 
3 111 82 171 
3 82 141 171 
3 227 81 78 
3 233 227 78 
3 82 142 141 
3 178 143 136 
3 81 227 112 
3 114 112 176 
3 145 143 144 
3 143 178 144 
3 176 117 114 
3 117 176 194 
3 187 115 146 
3 146 115 145 
3 86 87 193 
3 194 193 117 
3 187 146 147 
3 146 145 148 
3 148 145 144 
3 144 124 120 
3 121 149 122 
3 122 150 96 
3 146 148 147 
3 144 151 148 
3 151 144 120 
3 96 150 152 
3 126 198 153 
3 147 148 101 
3 151 101 148 
3 126 153 203 
3 147 101 129 
3 203 204 130 
3 130 204 154 
3 64 154 131 
3 131 154 155 
3 129 103 156 
3 131 155 157 
3 103 107 156 
3 107 158 156 
3 157 211 132 
3 132 213 161 
3 132 161 68 
3 164 110 161 
3 133 160 159 
3 133 162 160 
3 169 168 134 
3 225 170 171 
3 136 137 172 
3 137 79 173 
3 172 137 173 
3 79 138 174 
3 173 79 174 
3 174 138 175 
3 138 139 175 
3 175 139 140 
3 226 225 176 
3 176 225 177 
3 225 171 177 
3 171 141 177 
3 141 186 177 
3 186 141 142 
3 178 136 179 
3 136 172 179 
3 179 172 173 
3 175 140 180 
3 180 140 190 
3 190 140 181 
3 226 112 227 
3 176 112 226 
3 177 186 185 
3 142 115 186 
3 182 144 178 
3 178 179 182 
3 182 179 183 
3 183 179 188 
3 179 173 188 
3 173 174 188 
3 188 174 184 
3 174 175 184 
3 184 175 180 
3 190 181 191 
3 116 191 181 
3 194 176 177 
3 194 177 185 
3 115 187 186 
3 188 184 149 
3 149 184 189 
3 184 180 189 
3 189 180 197 
3 197 180 190 
3 192 235 86 
3 86 193 192 
3 194 185 200 
3 200 185 195 
3 185 186 195 
3 186 187 195 
3 124 144 182 
3 124 182 196 
3 182 183 196 
3 121 196 183 
3 188 121 183 
3 149 121 188 
3 189 122 149 
3 150 122 189 
3 150 189 197 
3 125 197 191 
3 191 197 190 
3 125 191 116 
3 198 235 228 
3 198 86 235 
3 192 193 202 
3 202 193 199 
3 199 193 200 
3 193 194 200 
3 187 147 195 
3 197 152 150 
3 152 197 125 
3 199 200 206 
3 200 195 206 
3 195 147 207 
3 203 201 204 
3 201 202 204 
3 204 202 205 
3 202 199 205 
3 205 199 206 
3 147 129 207 
3 154 204 205 
3 205 206 154 
3 154 206 155 
3 206 195 207 
3 206 207 208 
3 129 209 207 
3 129 156 209 
3 155 206 208 
3 208 207 209 
3 156 212 209 
3 211 157 155 
3 211 155 208 
3 211 208 210 
3 208 209 210 
3 210 209 212 
3 212 156 214 
3 156 158 214 
3 211 210 132 
3 213 132 210 
3 210 212 213 
3 213 212 215 
3 212 214 215 
3 158 216 214 
3 215 214 216 
3 158 159 216 
3 161 213 215 
3 161 215 217 
3 217 215 216 
3 216 159 218 
3 217 216 219 
3 216 218 219 
3 159 160 218 
3 164 161 217 
3 219 218 221 
3 218 160 221 
3 160 162 220 
3 221 160 220 
3 162 163 220 
3 165 164 217 
3 165 217 219 
3 219 221 222 
3 163 166 220 
3 165 219 222 
3 222 221 223 
3 221 220 223 
3 222 167 165 
3 167 222 223 
3 223 220 168 
3 168 220 166 
3 169 167 223 
3 168 169 223 
3 170 232 135 
3 224 231 230 
3 225 232 170 
3 234 226 227 
3 235 192 236 
3 229 198 228 
3 202 236 192 
3 153 198 229 
3 202 201 240 
3 135 232 231 
3 224 230 239 
3 242 232 225 
3 233 224 239 
3 226 242 225 
3 234 227 233 
3 234 242 226 
3 240 236 202 
3 249 153 229 
3 203 153 237 
3 240 201 237 
3 237 201 203 
3 230 231 238 
3 231 232 238 
3 233 239 244 
3 233 244 234 
3 234 244 242 
3 235 246 228 
3 235 236 246 
3 229 228 247 
3 240 248 236 
3 248 246 236 
3 247 249 229 
3 240 241 248 
3 237 153 249 
3 240 237 241 
3 250 238 232 
3 239 230 243 
3 242 250 232 
3 239 243 244 
3 245 228 246 
3 247 228 245 
3 248 241 237 
3 251 230 238 
3 251 243 230 
3 242 252 250 
3 244 243 252 
3 242 244 252 
3 251 238 250 
3 243 251 252 
3 251 250 252 
3 247 245 253 
3 245 246 253 
3 246 248 253 
3 247 253 249 
3 253 237 249 
3 237 253 248 
