ply
format ascii 1.0
comment VCGLIB generated
element vertex 254
property double x
property double y
property double z
element face 500
property list uchar int vertex_indices
end_header
0.1074517201171835 -0.09428983787416749 -0.2092504044503168 
0.1288836071878778 -0.1096107303194414 0.2809366108560528 
0.1051198938866071 -0.09400629617912236 0.3038623943809655 
0.1504797633578325 -0.1006354823248012 -0.3512466382750975 
0.1330931303094934 -0.1025143483179776 -0.2288894820309759 
0.1317703639148311 -0.09345719046576585 -0.0545246804859288 
0.1472484104623521 -0.11790047806456 0.3024397080045641 
0.1361476600168732 -0.08557654936149815 0.3184893301514081 
0.11761886426379 -0.08104564755411023 0.3432190113961768 
0.1536540989319816 -0.09996290622258008 -0.08932786407368042 
0.1662269987726401 -0.09461376469747942 -0.007596838468288775 
0.1063598483354148 -0.08794360005343835 0.3818191517450264 
0.144466605076897 -0.09248743845457147 0.3914046260485944 
0.203698700605997 -0.08255121165426386 -0.3366468875690773 
0.196910608482102 -0.1000336913679373 -0.2336039740420285 
0.1911236356664479 -0.09535787020337501 -0.09679720816438735 
0.1675831991802098 -0.1080405303395693 0.3626292208071654 
0.2124874486467648 -0.08726683575773153 0.3832229491876426 
0.06876343983836589 -0.06574326995191809 0.3555685729752995 
0.1109052858971471 -0.09363873342756444 -0.3484342334505842 
0.09363759618577433 -0.06983211678011596 -0.3207465415457874 
0.1077950602010275 -0.09326217419693225 -0.1390800016771644 
0.1097083790653376 -0.05849682318689155 0.318041531779746 
0.1269983234436395 -0.07938062889947864 0.02033322498507635 
0.135321472275318 -0.07735339090545514 0.1628664880365754 
0.1232290263552992 -0.06436255748144638 0.09628469608289371 
0.1500837754902805 -0.08872380515614649 0.2160288625159986 
0.1394497385103083 -0.08350088217839866 0.2442320204383724 
0.1734100088121696 -0.07797885581586737 0.1368496367954812 
0.1698576984510237 -0.08116546538827642 0.2439362723509096 
0.1608140796813863 -0.07615243797306043 0.05476290437004667 
0.1933991970475045 -0.05849653107365865 0.2459254762144632 
0.2105340061522387 -0.07254206897742972 -0.1735316300828063 
0.1897870608719464 -0.07809997943333626 -0.001505509475677309 
0.188176599692807 -0.1044658604634211 0.280681610780947 
0.2190511074544177 -0.08071216455311296 0.2885802859073466 
0.179241581437041 -0.09606585391252105 0.3156272394315658 
0.2217761956299574 -0.07822903723706041 0.3585392405803127 
0.07651085338439395 -0.04758959096672085 0.2786494733209379 
0.08402999538854515 -0.04882860122269953 0.3014626067790945 
0.07671312558592656 -0.02106359299329699 0.4132480341427022 
0.1017905039372006 -0.06800264414653362 -0.05079528299043065 
0.1062223467214048 -0.06562542267203719 0.003638496341172057 
0.09838969029857157 -0.04992399065372773 0.2533488829976703 
0.1132203002296112 -0.03811610138436736 0.03325984677466782 
0.115285573152791 -0.03969357677617516 0.1564357349812016 
0.1109553807763509 -0.06019460910403805 0.2270699821062984 
0.1378869381653393 -0.05288608042930422 -0.3268193705916314 
0.1486170197856279 -0.06166908214409109 -0.3101502897025256 
0.1351379617807199 -0.05181751569993309 -0.1953688738103564 
0.1486147764022453 -0.06116014902852898 -0.1272061942565156 
0.1467189589070903 -0.05200262907657766 -0.01877978842104205 
0.1487832461062582 -0.05182897307102463 0.3077221870236979 
0.1947650057306862 -0.08278297078783904 0.3422837512912849 
0.1678712356433162 -0.05095474150098352 -0.3110854946351854 
0.1690667777452444 -0.05109877430090567 -0.08501765244977086 
0.1770220707641388 -0.03887036420216946 0.3200734689285382 
0.1965863551480161 -0.05923899857564337 -0.3614005870136894 
0.1712926327362203 -0.05633540643439475 -0.2639864153357465 
0.1931137798707159 -0.0647184436355563 0.1790734698930082 
0.2030840207671851 -0.06486063927963458 -0.04343234846843268 
0.202731476300968 -0.04432879740295478 0.002518429649261355 
0.1917598130922593 -0.03492755356002253 0.03119985815649397 
-0.01524592320606267 -0.02446575904195281 0.2230068092253837 
0.0402016455995088 -0.01862306626906506 0.3441071121373351 
0.04362612281053382 -0.04115401392391403 0.3858373367869284 
0.05026442503659376 -0.03272281039135912 0.1687653890199739 
0.1028325061378932 -0.05778255946774721 0.2155853793784705 
0.04042865330411714 -0.03195449807738551 0.4196724464543578 
0.02598132016563494 -0.02810930157227768 0.2459850162654432 
0.09337430284367983 -0.07045109658475891 -0.2063231474831121 
0.09781603980559839 -0.05935302803068003 -0.08731316736100235 
0.1358381232506959 -0.06233658399211683 -0.3702420228259299 
0.1263908103776885 -0.03394756402503602 0.4007539233026249 
0.1396636377337881 -0.03031766796101141 -0.3275634454400665 
0.1385985632181356 -0.03140103214018251 -0.1693092578879792 
0.1643149367415774 -0.0191143954921156 0.3204018866537499 
0.1716623476857642 -0.02997164169781635 -0.3160520441797048 
0.175758955774612 -0.01326867560426255 0.3891768297273129 
0.1932691088962829 -0.01001969266571411 -0.3613476324105822 
0.1895720025832188 -0.04562003242932882 0.08145417900722721 
0.196293559539711 -0.02725580896103156 0.2010770897458966 
0.2232791206460339 -0.04587976504037911 0.2823926338492155 
0.2049587134659044 -0.03098520881825283 0.394451869827984 
0.2168552760708098 -0.04012073096925064 0.3123231905368551 
-0.07384734321999267 0.004695128234853868 0.1629743252040522 
-0.03452950883211996 -0.01718623319520537 0.1906515642855214 
-8.607549301190999e-05 -0.02998515446748404 0.3612303528837517 
-0.03641421294345972 -0.008694509059472231 0.3471394688214075 
-0.02725928915492298 -0.01990143269772703 0.431093323046073 
0.01876582951454103 -0.01683137489957394 0.1580060140363238 
0.04028725906242526 -0.002599482968060882 0.4386612932531171 
0.08579781424423735 -0.02624727776531099 0.2470913518504972 
0.1041285534029067 -0.005068860470106639 0.248673260905934 
0.05979118070685328 0.003354304620047645 0.3434949676392553 
0.09575436201358149 -0.01079012588796864 -0.1907444271184198 
0.1064633527714449 -0.0154951206901072 -0.0183039752349354 
0.1017943112153183 -0.008216255512717478 -0.3553532652766832 
0.1218831235036814 -0.02455943808369318 0.1030811095043765 
0.1487654768679983 -0.02438821482699842 -0.3023917085668101 
0.147735642526722 -0.02943573912530914 -0.04165649316647615 
0.1713004011647254 -0.02878576742173016 -0.1074979444431538 
0.1860773047551641 -0.02571181660949462 0.241620777062881 
0.1871715702436404 0.009436416474099232 0.3090427748233359 
0.2030038221736602 -0.01787164079181863 0.3424833407930902 
0.2044479377307571 0.009810336346927653 0.3748265250893078 
0.2313744128494839 -0.0296273447922069 0.370325300449823 
-0.1539396918984126 0.01294432608363614 0.1529649298922551 
-0.162826872944639 -0.006263423527177222 0.2288763698951115 
-0.1453679895560472 -0.01026872878417736 0.1784774822408349 
-0.08412489614101405 -0.007698211298436074 0.2141166926518638 
-0.06276934018813678 0.006899182564564554 0.245010249247221 
-0.1239055505133402 0.01069711298427606 0.3320347326941339 
-0.07580325061715157 -0.00893707585865346 0.3614829333480647 
-0.08075339147151248 0.006570297270623672 0.3422129888526385 
-0.1373129641171753 0.009934076074940073 0.3947622904786989 
-0.0666683481113555 -0.008861642810672503 0.4232958785992159 
-0.04877386313121172 0.01643137627404778 0.4416525111402437 
-0.02999346408987143 0.01700437714403623 0.3418015634891623 
0.05892228005103298 -0.000448930303543519 0.156935773611718 
0.1113823623138884 -0.01409133770679975 0.1580553050004957 
0.1091453160695559 0.008472439443994492 -0.271382076615684 
0.1077571428401448 0.004191177461729229 -0.1373574120720309 
0.1105216987795886 0.00206219997189742 0.1876464320588997 
0.1054165696079446 -0.01167417362995227 0.2636088807474875 
0.1376915116265139 0.00798550740669597 -0.02260515144672471 
0.1393834603182987 -0.003697174314476576 0.02485044081752043 
0.1589770955654215 -0.004667430937348845 0.2221812201140223 
0.1061560782527288 0.01346459475946768 0.2964025369948436 
0.1424411519536876 0.02302645996266211 0.3865756606938187 
0.1369844231461068 -0.00780478052063089 0.1524813078482611 
0.1358603138510212 0.007728272922766486 0.3192582363323 
0.1332714460086617 0.008424370705115303 0.3428105728313488 
0.168638432480373 0.002482128374091542 0.006616071785824954 
0.1624577657152696 -0.008146300727077633 0.1280534516517335 
0.1757204364556414 -0.003000286813819498 0.1844822053911687 
0.1861400268875241 0.008662507938155891 -0.3451393623888934 
0.1885258415660135 0.01269648386376105 -0.2669394737519799 
0.1942299421884456 -0.001510870030870759 -0.05694504394604211 
0.1923089802405793 -0.007341058764389406 -0.01007661178970689 
0.2122825851909915 -0.01164981077198703 -0.2734066766663967 
0.2122090436318293 -0.01107118811833527 -0.1631245771451124 
0.1907513346527225 0.01211510486750019 -0.1599816637776594 
0.2005546438764383 0.01128810409536695 0.2789182435358941 
-0.2319849837217332 0.02780901171042959 0.2240780651859335 
-0.19913409301738 0.0313208972247269 -0.4520755105708743 
-0.1969819896415659 0.02643202633593776 -0.2592204061577911 
-0.2119794853490893 0.03021910821256796 -0.2235781699538174 
-0.2213442978309223 0.04619720145387828 -0.2113123677037594 
-0.1967345532490798 0.02545272186037362 -0.1518679254341418 
-0.2108075116104179 0.03198239229877039 0.1734583167262664 
-0.1742385382368127 0.02470340059214627 -0.1509147029319469 
-0.1535679388807302 0.01453297367655061 -0.1353542780087591 
-0.1809301602205028 0.02130091683288385 0.2594586076410871 
-0.1955934313375357 0.02633779069092595 0.3266987449841005 
-0.1537593677071452 0.01365639600847183 -0.4452459567881062 
-0.152549297280542 0.01388991443093372 -0.3358788360911635 
-0.1615879065858141 0.01917551669062061 -0.2991729301571793 
-0.1528933050006259 0.01502136058875726 -0.1990149456829564 
-0.1532564012939111 0.01382501560769854 0.0162104803795175 
-0.1564730896247751 0.01593980543426441 0.06777873662555824 
-0.1360015581662575 0.01376243560452392 0.2579197904500353 
-0.1286877809375195 0.02292469090203677 -0.3968077365505356 
-0.1289858267128632 0.02894470901129865 -0.2803252529627007 
-0.1381467654770329 0.01353785545145763 -0.2407850507342851 
-0.129538130241058 0.02253823022705982 0.1463523519246237 
-0.1293648970606293 0.02203416371201717 -0.07790281434135081 
-0.1314442333608787 0.02825662316418231 0.06387939792822968 
-0.1294300837045672 0.01456125655102456 0.3010374881400288 
-0.07661225683546623 0.03090285684773851 0.3415408457257963 
-0.03088341862765203 0.02918858160395108 0.2480457515051305 
0.006383935332693209 0.03531473341619986 0.4279368380206259 
-0.02443715100893173 0.03276788773694594 0.1664550253750233 
0.008269892015067878 0.01411430637249107 0.1594172568737523 
0.04335627440907443 0.01398858747600426 0.2478109067812568 
0.07444155010172404 0.01453069530992747 0.3969598700673795 
0.01585946405891417 0.03227655211195071 0.2229827060266431 
0.05688314770056096 0.0228060983975438 0.3644130055391486 
0.1293029206265467 0.01349055191224286 -0.3502715269209891 
0.1258059900751004 0.01294238324797721 -0.1453424214488543 
0.1070886753547889 0.02979296715155002 0.3619407045379995 
0.1345704906900014 0.01661604402978598 -0.2135026999463302 
0.1808967276727398 0.01946462105503061 0.3568881589875733 
0.1476809492336366 0.02928729813796506 0.2788130641826423 
0.1506264384423238 0.02793172265686034 0.3018823898863433 
-0.2338277563578433 0.05172075962373856 0.2207928687383391 
-0.2138436321389844 0.03110221390001608 -0.3751639779941454 
-0.2190533380104445 0.05076456018221277 -0.3083718266507772 
-0.218726152501039 0.047548528280082 -0.07108324646222297 
-0.2078826995077831 0.03164927310569256 -0.05832203066598979 
-0.218248674634949 0.03479514485901822 -0.005523855414542759 
-0.2070374089115358 0.02861530427790381 0.06453315729240044 
-0.2224669815434477 0.04977790590464422 0.0710520209833298 
-0.2220764675709822 0.05026980429963095 0.1752907287602015 
-0.2120485780504266 0.03596876042894316 0.2474016048929412 
-0.220170644347392 0.04162269056442908 0.2959153828919981 
-0.191694044433303 0.0616407168431012 -0.4681764372573765 
-0.1795913535785286 0.02749630137646426 0.3854238896860091 
-0.1512970958635531 0.03350317776166411 -0.4656598770042699 
-0.122504193405175 0.04091243223027528 -0.4483838936483712 
-0.1317064041756065 0.02827331434363829 -0.1763001153140911 
-0.1214220722825084 0.0494529628506666 -0.3615586041172899 
-0.122878919522878 0.04927679066475772 -0.2442268984873163 
-0.1254239309020338 0.06161036102172377 -0.1884337092227165 
-0.1202255292529592 0.05029497617615574 -0.1323881524828624 
-0.1210830275842263 0.0500467839733466 0.06452370311056549 
-0.1193401295963273 0.04447374342073115 0.1521772256428602 
-0.1160501686554205 0.05162305651840041 0.3014347401370469 
-0.1205096508675749 0.04796004026183454 0.4288414347940694 
-0.07723492380713357 0.04059607845305595 0.1575980707153958 
-0.06206092530263623 0.0502823769350367 0.1848228614132276 
-0.01535784110275415 0.03952814655322297 0.3626212391261289 
-0.05253716013944749 0.05313579873739897 0.4238466757474506 
-0.2216578337371289 0.06039343326529919 -0.3819670508227727 
-0.2155931437056033 0.07729050453252799 -0.3001625334201166 
-0.2132342983572846 0.07415028613240041 0.01501878615341644 
-0.2153796712404805 0.07617374399709366 0.09678414198158418 
-0.2149279231200002 0.07760714906744928 0.1775941343927458 
-0.2205467779135495 0.07897665314464088 0.2381675286042403 
-0.1330798493345646 0.07318765954482859 -0.4507031179262583 
-0.1271393586412326 0.07487627575623636 -0.1379289215565443 
-0.1231823917142149 0.07134241235654837 0.2622892979355339 
-0.117770156245957 0.07180326696658784 0.3308512006043184 
-0.1199949872767812 0.06848602507477099 0.3972797962107841 
-0.07810490392238381 0.05262625685884875 0.3708464256250412 
-0.0694686977777649 0.05790351189831978 0.2241227815008326 
-0.09763105393825236 0.06076297983087794 0.2486471521191764 
-0.1983205431693701 0.08794010665794749 -0.3942541519436895 
-0.2152493345378688 0.07257481743703767 -0.16242205542648 
-0.2158243825241181 0.0759077262677247 -0.0438538683727897 
-0.2110429307009423 0.1150343236559502 0.2195043003596802 
-0.1921416771827255 0.09106499748135516 -0.1240070039754167 
-0.1952951766730373 0.0921365240010031 0.03413545187118627 
-0.194327420742189 0.0898671945068108 0.1478495271320908 
-0.2078425949473746 0.07042392819862235 0.3360326964056258 
-0.1841001776372085 0.08846112311274271 -0.4057147119644275 
-0.1905916604382717 0.09039557629359181 -0.02218542568582433 
-0.1274204094330963 0.0743395165584347 0.02250250282307975 
-0.1870864322508463 0.08895560811505193 0.3202767934651984 
-0.1940277274618719 0.09308808448087394 -0.317889399140008 
-0.1503089826231531 0.08231536737820475 0.1602078196549497 
-0.1466158689163951 0.0754404247208075 0.3978438325068874 
-0.1301078835163725 0.07399324326989803 -0.3893286010403031 
-0.1341878724588124 0.07376299123076709 -0.2736251108983648 
-0.1236272577157694 0.06480518114916728 -0.04689297216840776 
-0.1304094799349357 0.0729873387930253 0.07417004859995295 
-0.1212630043228269 0.07638457840554344 0.1512612826196035 
-0.1168178533106064 0.09365707594743812 0.2246521680448847 
-0.1097103539325558 0.07932710779571316 0.2451210352680792 
-0.2116420299036235 0.08541304545022237 -0.4484504909033309 
-0.189127974190408 0.09010056965003767 -0.1914736926186007 
-0.1922268780838518 0.1060576631756559 0.1987938191500901 
-0.1900351619106627 0.09076962933836177 0.2645124731940356 
-0.1157329334636311 0.09318041966609945 0.1870919002429413 
3 38 1 2 
3 19 4 0 
3 0 4 21 
3 4 9 21 
3 21 9 5 
3 1 6 2 
3 2 6 7 
3 8 16 11 
3 3 4 19 
3 5 9 10 
3 7 6 36 
3 1 27 34 
3 34 6 1 
3 8 53 16 
3 16 12 11 
3 13 14 3 
3 3 14 4 
3 4 14 9 
3 14 15 9 
3 34 36 6 
3 16 17 12 
3 35 36 34 
3 16 53 37 
3 17 16 37 
3 19 0 20 
3 0 70 20 
3 0 21 70 
3 21 71 70 
3 43 1 38 
3 2 39 38 
3 2 22 39 
3 8 11 18 
3 3 19 72 
3 71 21 5 
3 5 41 71 
3 5 23 42 
3 41 5 42 
3 27 1 43 
3 7 22 2 
3 23 5 10 
3 10 30 23 
3 25 23 30 
3 30 24 25 
3 24 26 46 
3 46 26 27 
3 57 3 72 
3 30 28 24 
3 24 28 26 
3 28 29 26 
3 26 29 27 
3 34 27 29 
3 13 3 57 
3 15 10 9 
3 33 30 10 
3 28 30 80 
3 29 28 59 
3 31 29 59 
3 29 35 34 
3 17 83 12 
3 14 32 15 
3 15 32 60 
3 10 15 60 
3 33 10 60 
3 14 13 32 
3 18 64 8 
3 65 18 11 
3 65 11 40 
3 19 20 97 
3 12 73 11 
3 73 40 11 
3 72 19 97 
3 42 23 44 
3 23 25 44 
3 25 24 45 
3 24 67 45 
3 46 67 24 
3 27 43 46 
3 48 49 50 
3 47 49 48 
3 49 51 50 
3 52 22 7 
3 72 79 57 
3 47 48 74 
3 54 58 77 
3 54 48 58 
3 48 50 58 
3 58 50 55 
3 51 55 50 
3 56 52 7 
3 33 62 30 
3 62 80 30 
3 80 59 28 
3 29 31 35 
3 36 56 7 
3 32 141 60 
3 33 60 61 
3 62 33 61 
3 35 31 82 
3 84 56 36 
3 13 140 32 
3 141 32 140 
3 35 82 84 
3 36 35 84 
3 67 69 63 
3 65 89 87 
3 66 67 63 
3 87 64 18 
3 18 65 87 
3 92 69 67 
3 40 68 65 
3 66 120 45 
3 67 46 92 
3 64 94 8 
3 41 96 71 
3 41 42 96 
3 42 44 96 
3 66 45 67 
3 92 46 43 
3 43 124 92 
3 43 38 124 
3 25 98 44 
3 25 45 98 
3 47 74 49 
3 49 74 75 
3 49 75 51 
3 51 75 100 
3 52 76 22 
3 55 100 101 
3 100 55 51 
3 56 76 52 
3 132 53 8 
3 78 73 12 
3 54 74 48 
3 58 101 77 
3 58 55 101 
3 80 62 134 
3 80 81 59 
3 83 78 12 
3 60 141 61 
3 59 81 31 
3 31 81 102 
3 31 102 82 
3 57 140 13 
3 106 37 104 
3 104 37 53 
3 37 106 17 
3 17 106 83 
3 86 63 110 
3 113 88 87 
3 87 116 113 
3 85 90 86 
3 87 89 116 
3 87 88 64 
3 66 86 90 
3 63 86 66 
3 68 89 65 
3 89 68 91 
3 119 66 90 
3 68 40 91 
3 120 66 119 
3 20 95 97 
3 20 70 95 
3 70 71 95 
3 71 96 95 
3 92 124 93 
3 128 38 39 
3 128 39 131 
3 131 39 22 
3 73 175 40 
3 44 126 96 
3 126 44 98 
3 98 45 130 
3 45 120 130 
3 72 97 79 
3 74 99 75 
3 99 100 75 
3 134 126 98 
3 76 131 22 
3 77 74 54 
3 77 99 74 
3 77 101 99 
3 99 101 100 
3 93 102 127 
3 134 81 80 
3 134 135 81 
3 135 127 81 
3 127 102 81 
3 103 76 56 
3 132 104 53 
3 57 79 140 
3 141 138 61 
3 61 138 139 
3 139 62 61 
3 82 102 143 
3 84 103 56 
3 143 84 82 
3 83 106 105 
3 107 165 109 
3 109 165 85 
3 85 110 109 
3 109 110 108 
3 110 111 108 
3 108 111 161 
3 115 112 113 
3 114 113 112 
3 113 116 115 
3 86 110 85 
3 113 114 88 
3 63 111 110 
3 118 88 114 
3 89 117 116 
3 85 173 90 
3 69 111 63 
3 111 69 170 
3 92 174 69 
3 174 170 69 
3 64 88 94 
3 94 88 118 
3 91 117 89 
3 119 90 173 
3 40 175 91 
3 123 120 119 
3 174 93 127 
3 93 174 92 
3 97 95 121 
3 121 95 122 
3 95 96 122 
3 124 38 128 
3 121 178 97 
3 179 122 125 
3 122 96 125 
3 125 96 126 
3 130 120 123 
3 93 124 183 
3 183 124 128 
3 8 94 132 
3 73 129 175 
3 79 97 136 
3 136 97 178 
3 134 98 130 
3 130 123 135 
3 135 123 127 
3 78 129 73 
3 125 126 133 
3 134 130 135 
3 102 93 183 
3 142 125 138 
3 125 133 138 
3 138 133 139 
3 62 139 133 
3 126 62 133 
3 134 62 126 
3 183 143 102 
3 103 131 76 
3 104 132 182 
3 83 105 78 
3 105 129 78 
3 140 136 137 
3 140 79 136 
3 137 141 140 
3 142 141 137 
3 141 142 138 
3 143 103 84 
3 104 182 105 
3 106 104 105 
3 156 157 186 
3 186 157 146 
3 147 149 148 
3 191 107 150 
3 109 144 150 
3 108 144 109 
3 108 194 144 
3 195 153 154 
3 145 156 186 
3 147 151 149 
3 151 152 149 
3 149 152 189 
3 152 159 189 
3 189 159 190 
3 190 159 191 
3 109 150 107 
3 108 153 194 
3 168 154 153 
3 145 198 155 
3 145 155 156 
3 157 164 146 
3 164 158 146 
3 146 158 147 
3 147 158 151 
3 158 152 151 
3 159 160 191 
3 160 107 191 
3 161 153 108 
3 168 112 154 
3 154 112 197 
3 155 198 199 
3 199 162 155 
3 155 162 156 
3 162 163 156 
3 156 163 157 
3 157 163 164 
3 164 200 158 
3 200 152 158 
3 200 166 152 
3 152 166 159 
3 166 167 159 
3 159 167 160 
3 167 165 160 
3 160 165 107 
3 161 168 153 
3 197 112 115 
3 115 208 197 
3 206 85 165 
3 111 170 161 
3 170 226 161 
3 112 168 169 
3 169 114 112 
3 115 116 208 
3 208 116 117 
3 209 85 206 
3 173 85 172 
3 172 85 209 
3 118 114 169 
3 94 118 211 
3 123 173 172 
3 172 176 123 
3 170 174 176 
3 91 171 117 
3 119 173 123 
3 177 94 211 
3 211 171 177 
3 177 171 175 
3 175 171 91 
3 127 176 174 
3 180 94 177 
3 180 177 175 
3 176 127 123 
3 132 94 180 
3 180 175 129 
3 178 121 181 
3 121 122 179 
3 181 121 179 
3 183 128 184 
3 131 184 128 
3 182 132 180 
3 182 180 129 
3 137 136 178 
3 178 181 137 
3 181 179 142 
3 179 125 142 
3 105 182 129 
3 142 137 181 
3 143 183 103 
3 183 184 103 
3 103 184 131 
3 145 186 213 
3 213 186 187 
3 187 147 148 
3 190 191 192 
3 192 150 193 
3 150 144 193 
3 193 144 185 
3 194 185 144 
3 187 186 146 
3 147 187 146 
3 149 188 148 
3 189 188 149 
3 190 188 189 
3 150 192 191 
3 195 194 153 
3 195 154 234 
3 154 197 234 
3 198 145 196 
3 162 199 201 
3 162 201 163 
3 163 201 202 
3 163 202 164 
3 164 202 200 
3 200 202 203 
3 204 200 203 
3 200 204 166 
3 166 204 244 
3 166 244 167 
3 167 244 237 
3 167 237 205 
3 167 205 165 
3 165 205 206 
3 221 161 226 
3 161 221 168 
3 168 221 207 
3 207 169 168 
3 169 207 222 
3 210 172 209 
3 212 208 117 
3 226 170 225 
3 118 169 224 
3 211 118 224 
3 224 212 211 
3 171 212 117 
3 210 225 176 
3 170 176 225 
3 211 212 171 
3 172 210 176 
3 145 213 249 
3 227 249 213 
3 187 148 214 
3 148 228 214 
3 148 188 228 
3 188 229 228 
3 188 190 229 
3 190 215 229 
3 190 192 215 
3 192 216 215 
3 192 193 216 
3 193 217 216 
3 193 185 217 
3 185 194 218 
3 194 195 218 
3 195 234 218 
3 196 145 249 
3 197 241 234 
3 198 196 219 
3 208 241 197 
3 199 198 219 
3 199 219 242 
3 199 242 201 
3 201 242 243 
3 201 243 202 
3 202 243 203 
3 203 220 204 
3 204 220 244 
3 205 237 245 
3 205 245 206 
3 206 245 246 
3 248 221 226 
3 207 221 222 
3 223 241 208 
3 246 209 206 
3 222 223 224 
3 209 253 210 
3 210 247 225 
3 248 225 247 
3 248 226 225 
3 224 169 222 
3 224 223 212 
3 212 223 208 
3 213 187 214 
3 230 217 185 
3 185 218 230 
3 249 227 235 
3 227 213 239 
3 213 214 239 
3 250 239 214 
3 214 228 250 
3 231 250 228 
3 231 228 229 
3 236 231 229 
3 229 215 236 
3 232 236 215 
3 233 232 216 
3 232 215 216 
3 216 217 233 
3 252 218 238 
3 218 234 238 
3 249 219 196 
3 249 235 219 
3 239 235 227 
3 250 243 239 
3 237 236 232 
3 232 233 245 
3 233 240 245 
3 238 234 241 
3 219 235 242 
3 237 232 245 
3 242 235 243 
3 235 239 243 
3 243 250 203 
3 220 203 250 
3 250 231 220 
3 220 231 244 
3 231 236 244 
3 237 244 236 
3 245 240 246 
3 247 252 248 
3 252 221 248 
3 221 252 222 
3 252 238 222 
3 223 222 241 
3 241 222 238 
3 253 246 240 
3 209 246 253 
3 247 210 253 
3 233 217 251 
3 217 230 251 
3 230 218 252 
3 251 240 233 
3 240 251 253 
3 253 251 247 
3 251 230 247 
3 230 252 247 
