ply
format ascii 1.0
comment VCGLIB generated
element vertex 128
property double x
property double y
property double z
element face 246
property list uchar int vertex_indices
end_header
-0.2371480066209998 -0.316050238406785 0.0008755942677247282 
-0.2184285860951591 -0.2581107484533289 -0.1286973478665855 
-0.1881288956661263 -0.2638626700164829 0.08594270421152064 
-0.06706890473294964 -0.2655993245249855 -0.1031006015686436 
-0.0806132308121269 -0.2657147365189151 0.05291212381114579 
-0.08491674553916827 -0.2351857324209231 0.1028170163018741 
-0.0009801888245410488 -0.2642452563075429 0.08554776802894783 
0.1785171003165907 -0.262804233213883 -0.1207760899059452 
0.1547764111982884 -0.2656882410181767 0.07567399707042069 
0.2328915393220816 -0.2635499536796983 0.08607803697112457 
-0.2335832759307813 -0.2455476783431277 0.08300536043950886 
-0.199350064128364 -0.2662470878436974 -0.07820250711267149 
-0.07742336323324543 -0.2444513909401436 -0.1329329598356271 
0.2267958444784193 -0.2203347674303396 -0.1334606685000949 
0.2442093100969255 -0.2595303442540873 -0.100388440889443 
-0.1764159069809862 -0.2188305329602032 0.06819055714205334 
0.005183756662923812 -0.23175363885996 -0.08192233892969922 
-0.05344425029172183 -0.2316327687401832 0.05397383936501007 
-0.20574399753791 -0.2312317020181847 -0.09645935799356348 
-0.004343502153547887 -0.2197572595771721 -0.09963497092557594 
0.2073074355289555 -0.2318177699248942 0.05559398741722386 
0.02428502354462692 -0.2390882655486083 0.1022348903429406 
0.0619473799144309 -0.2187858070731435 0.06790240570457098 
0.2265858787665511 -0.2299844754216284 -0.07986293148416818 
0.280235215322302 -0.2112303999336566 -0.0479157578429503 
-0.1930848148939487 -0.2302375724576833 0.0271433273736486 
-0.2181523407916818 -0.08944798759093468 -0.133759226305568 
0.2636131207947371 -0.02419984068790664 0.1014517526586152 
0.2312558602037099 -0.2242274940645843 0.0683680749915546 
0.2451531090280877 -0.2106840465037005 -0.09941826659152046 
-0.2423832802562371 -0.236093327059181 -0.03643493217019046 
-0.1866301011796979 -0.1267187811528049 0.06595713893758398 
-0.2292885254080814 -0.1384049621662944 -0.1189813397043511 
-0.2241214819379372 -0.128533158696266 0.06353324967629767 
-0.2112742425611625 -0.2005957315529941 0.09925096075241728 
0.2706420504626159 -0.2342003984306013 0.09964602473080569 
0.2472095740550728 -0.12258520944581 -0.09979458915302729 
-0.1979582664519762 -0.1477908549483891 -0.01104556652788803 
-0.1578445949608594 -0.1444421989784635 -0.01627251670857547 
-0.006041007349719826 -0.1392698399340843 0.1016842296705975 
0.2788206632853295 -0.1658588970472979 -0.1162742991479536 
0.2814922328258609 0.10326596415631 -0.112683443402936 
-0.04590693622854962 -0.06984118149758241 0.1185009603355002 
-0.01839953629656009 -0.1254432891982573 0.0690388646627203 
0.01844057267693593 -0.1193606278185812 0.1091127109963549 
-0.2547734291493922 -0.04096821181938059 0.0633948498519913 
-0.195424383470837 -0.1124762027052416 -0.09852864398761911 
0.08131122029682644 -0.0511002097882906 0.06921645585038921 
0.2816918461333636 0.02940746924001169 0.06910144704068956 
-0.1333897762640131 -0.02757046207862263 -0.134166556451242 
-0.2339707218775275 -0.02867267469601461 -0.007886226535515604 
-0.1185206442843795 -0.06851033837448385 0.1013702022872272 
-0.0510327640103991 0.04624014212725383 0.1352506641155921 
0.01426621469579109 0.02051783525946949 0.1019111812441238 
0.1276303985017067 -0.07222088408011799 0.1009390091003507 
-0.2657819436442396 0.00645563736726772 -0.07718567906535545 
0.08358260396757544 0.005387041447697759 0.1030826559726096 
-0.238084698000282 -0.009222100338706398 0.1003079926547456 
-0.1657011221492412 -0.0009562580089814065 -0.0998599296299489 
-0.2712979380239379 0.01952455517798158 0.0436066913962869 
-0.209363251073532 -0.006384273030601548 0.001516165279122209 
0.05773897921363864 -0.06424466798888874 0.1205667959033623 
0.2474815711997685 0.136352401742258 -0.09953676824576348 
-0.05807166994031802 0.04661529422054436 0.06829707525343359 
0.0535740434276244 0.06292550575057895 0.06881929659890834 
0.1907331513451876 0.06061524453003181 0.06741654095109774 
-0.08790743122179276 0.09650818669754031 0.1034410366819225 
0.2479041900052771 0.06196967004215223 0.101867830662246 
-0.2491050910589755 -0.0007728404146184712 -0.1246247069108139 
-0.2252035555483201 0.01177760848698894 -0.07612347792577406 
-0.2600298475997022 0.1058209355851531 0.009618433883812776 
-0.221692636672585 0.07837794297278476 0.06677570840516478 
0.01046043982716045 0.1044400903374757 0.07108314060097941 
0.03070283688390214 0.1131751299729825 0.1035315795609549 
0.2529053550742406 0.2246932852704847 -0.1326570656501161 
-0.2333502525098972 0.1494508542714325 -0.1317513863604541 
-0.07423369953996126 0.1526501143023589 0.1389531503682058 
0.1082142808739947 0.1601914816721326 0.1011561406352504 
0.2474291443901458 -0.1903967858453491 0.0583948725945863 
-0.2377202465190927 0.1180628491533814 0.1020743502852345 
-0.2082910679761964 0.1823523919950457 0.04015428504824432 
-0.05735290297025355 0.1215338798662171 0.08684750843827874 
0.2283718368770343 0.2176778291145259 0.06786311595988721 
-0.287283887902164 0.1189049178087886 -0.06585388510684591 
-0.2125763779825232 0.1349717329338 -0.09926296956728349 
-0.08850970019214882 0.1514242549075305 0.06885895092603114 
0.06856170672024381 0.1616191748038123 0.1423896982847649 
-0.282688221929621 0.1448115412999668 0.02820744772063682 
-0.1786631291208811 0.1902220721506934 -0.01670260026217016 
-0.2029887289698021 0.1913609885881409 -0.06182953681962362 
-0.08872199964537132 0.2214720435907608 0.1023476423044097 
0.02250104033741139 0.1993092150185922 0.1014724319187307 
0.01822812795072822 0.1939244944032639 0.06832490938644351 
0.2466209439268593 0.2100543186049205 0.05589276584317485 
0.02526200583856419 0.2579468425234602 -0.09976256414130727 
0.279725313481198 0.1916749875882912 0.09916242757447362 
-0.1856224504878501 0.2432187201295062 -0.0244041761393385 
-0.2081771284483935 0.2368585766985098 0.08539580387330356 
0.2267959235744574 0.2352553653759672 -0.09923500734613312 
0.247407197271449 0.2204366528150906 -0.03742079755881708 
0.2716855227568747 0.2508678470067977 -0.1013577075891134 
0.2805546808738071 0.2286185187089715 -0.03949712014114021 
-0.2188595056416386 0.2268248199598554 -0.1032998168809195 
0.1636202752834534 0.2426995582839858 0.06816987365679276 
0.08947933891467633 0.2671253968592732 -0.09915374440878513 
0.2298424734176623 0.2447232519511629 0.05336765873407964 
0.2279280211297077 0.2443483039061771 -0.0782829406371552 
-0.1218333703446591 0.3013798910278191 0.05573795044635343 
-0.125885259792078 0.2865109490997074 -0.09892723655520716 
-0.007007136224051579 0.2919151831595509 -0.1328518864601434 
0.1891170399130798 0.2838421573510335 -0.1226262338158098 
0.2593209509267685 0.2695592618318878 0.06992511003076964 
-0.1415472582604174 0.2979567916715171 -0.1335218219973759 
-0.1378451238928728 0.3027792474235087 0.1022569056417452 
-0.1075234232306225 0.3066247388330636 -0.05806641951314111 
-0.06931241518845446 0.2824076408589871 0.06861057147338068 
0.03849931674299768 0.2798092796773062 -0.07557510500978343 
0.04392575610541768 0.2959926809605324 0.1005262745313596 
0.1426024122624822 0.292544231676899 0.1014475488371329 
0.23661653682117 0.2786510793988689 -0.0594559795174379 
-0.1537550556738433 0.3206845346623804 -0.1005609111980695 
-0.1550874640160025 0.3256682942309683 0.0799927196547322 
0.01570171219052778 0.2846786768593333 0.0548317711672924 
0.0441666903598314 0.3122529370900303 -0.1162890612773604 
0.08350192349782745 0.3056547743123532 0.04857056763392054 
-0.1222533763899819 0.3400447242816967 0.03599040799949504 
-0.03100125643694824 0.3273076811820456 0.08218398322601217 
-0.1025891295796003 0.3388773735930463 -0.1135397664542448 
3 30 11 0 
3 2 0 11 
3 1 11 30 
3 2 10 0 
3 4 2 11 
3 1 3 11 
3 3 4 11 
3 4 5 2 
3 12 7 3 
3 3 6 4 
3 7 8 3 
3 8 6 3 
3 7 14 8 
3 14 9 8 
3 2 34 10 
3 5 34 2 
3 3 1 12 
3 6 5 4 
3 21 5 6 
3 13 7 12 
3 9 21 8 
3 35 21 9 
3 14 7 13 
3 14 35 9 
3 30 0 10 
3 1 30 32 
3 25 15 17 
3 18 25 17 
3 16 18 17 
3 19 18 16 
3 15 22 17 
3 17 22 20 
3 16 17 20 
3 8 21 6 
3 29 19 23 
3 19 16 23 
3 22 28 20 
3 23 16 20 
3 23 20 28 
3 14 24 35 
3 46 38 18 
3 12 1 26 
3 13 12 26 
3 29 36 19 
3 35 27 21 
3 29 23 28 
3 78 29 28 
3 14 13 40 
3 14 40 24 
3 38 25 18 
3 15 25 31 
3 19 46 18 
3 32 26 1 
3 43 15 31 
3 39 5 21 
3 30 10 33 
3 32 30 37 
3 38 31 25 
3 22 15 43 
3 36 58 19 
3 29 78 36 
3 30 33 37 
3 58 46 19 
3 54 21 27 
3 40 41 24 
3 48 35 24 
3 39 51 5 
3 26 32 55 
3 32 37 50 
3 39 44 42 
3 21 44 39 
3 27 35 48 
3 24 41 48 
3 37 45 50 
3 33 45 37 
3 46 60 38 
3 38 60 31 
3 5 57 34 
3 44 61 42 
3 22 43 47 
3 21 54 44 
3 55 32 50 
3 34 57 45 
3 51 39 42 
3 13 26 49 
3 61 44 54 
3 65 22 47 
3 28 22 65 
3 51 57 5 
3 61 52 42 
3 47 43 53 
3 54 56 61 
3 58 69 46 
3 69 60 46 
3 42 66 51 
3 53 64 47 
3 28 65 82 
3 36 78 62 
3 55 68 26 
3 26 68 49 
3 65 47 64 
3 78 28 82 
3 55 50 59 
3 50 45 59 
3 45 57 59 
3 52 66 42 
3 27 67 54 
3 74 40 13 
3 63 53 43 
3 54 67 56 
3 74 13 49 
3 57 79 59 
3 31 60 71 
3 69 58 84 
3 43 31 71 
3 64 53 63 
3 61 76 52 
3 36 62 58 
3 55 59 83 
3 75 68 55 
3 59 79 87 
3 69 70 60 
3 71 60 70 
3 51 79 57 
3 64 63 72 
3 67 27 48 
3 55 83 75 
3 75 49 68 
3 43 71 63 
3 83 59 87 
3 66 79 51 
3 61 86 76 
3 86 61 56 
3 65 64 72 
3 62 98 58 
3 67 48 95 
3 69 84 70 
3 94 108 84 
3 63 71 85 
3 63 85 81 
3 94 84 58 
3 72 63 81 
3 41 40 74 
3 71 70 80 
3 56 77 86 
3 95 48 101 
3 89 70 84 
3 76 66 52 
3 56 67 77 
3 66 90 79 
3 81 92 72 
3 58 104 94 
3 65 72 92 
3 98 104 58 
3 82 65 103 
3 78 82 93 
3 48 41 101 
3 83 102 75 
3 89 80 70 
3 89 88 80 
3 84 108 89 
3 76 90 66 
3 67 118 77 
3 103 65 92 
3 78 99 62 
3 78 93 99 
3 83 87 102 
3 79 97 87 
3 81 85 92 
3 76 91 90 
3 76 86 91 
3 86 77 91 
3 41 74 100 
3 101 41 100 
3 87 96 102 
3 80 88 107 
3 107 71 80 
3 85 71 115 
3 92 85 115 
3 77 118 91 
3 95 118 67 
3 98 62 99 
3 93 82 105 
3 87 97 96 
3 90 97 79 
3 75 102 112 
3 89 114 88 
3 115 71 107 
3 99 93 106 
3 106 93 105 
3 95 101 111 
3 113 97 90 
3 114 89 108 
3 88 114 107 
3 49 75 109 
3 103 92 115 
3 118 117 91 
3 109 74 49 
3 105 103 122 
3 82 103 105 
3 98 99 106 
3 97 113 121 
3 120 112 102 
3 96 120 102 
3 121 96 97 
3 112 109 75 
3 91 117 90 
3 104 116 94 
3 106 104 98 
3 106 105 104 
3 110 74 109 
3 95 111 118 
3 101 100 119 
3 119 111 101 
3 125 96 121 
3 117 113 90 
3 108 94 116 
3 103 115 122 
3 104 105 116 
3 116 105 122 
3 110 109 123 
3 119 118 111 
3 74 110 100 
3 100 110 119 
3 120 96 125 
3 114 122 107 
3 122 115 107 
3 116 114 108 
3 116 122 114 
3 123 124 119 
3 119 124 118 
3 119 110 123 
3 120 127 112 
3 109 112 127 
3 126 121 113 
3 126 113 117 
3 124 126 117 
3 117 118 124 
3 123 126 124 
3 127 125 126 
3 125 121 126 
3 123 109 127 
3 123 127 126 
3 125 127 120 
3 33 10 34 
3 34 45 33 
