ply
format ascii 1.0
comment VCGLIB generated
element vertex 252
property double x
property double y
property double z
element face 500
property list uchar int vertex_indices
end_header
-0.4936437903482624 -0.02045990807488449 -0.06120766776829607 
-0.4965735547835665 -0.02266359981663221 -0.05388111666926347 
-0.4945984342197873 -0.02113144627970439 0.007734788029177812 
-0.4954943255216763 -0.01696883920672919 0.0368791992908755 
-0.4947800352332354 -0.02285567499279631 0.05455328094927113 
-0.4792022097481187 -0.02287909493847308 -0.05721792446511691 
-0.4935921325619059 -0.02130294077719158 -0.016425628736888 
-0.4734113776875433 -0.02211514424410263 0.03105873163039317 
-0.4741181964493327 -0.02256940149555119 0.05735533663956868 
-0.404501394949292 -0.02280068708489075 0.05816958158980344 
-0.4347286472568089 -0.02256518175678835 -0.05810006475112179 
-0.4323036849685149 -0.02274881373770902 0.004984786144884346 
-0.395607047005316 -0.0227005961634259 -0.05276316832796907 
-0.3561461034198444 -0.02314255049646955 -0.05575487789081866 
-0.3527771229776929 -0.02077253628761865 -0.01454027534010975 
-0.3833417026584875 -0.02278952747797476 0.008959597174350015 
-0.3000423369263061 -0.02300685070567385 0.05539848049145249 
-0.3339614630020259 -0.01547598042615606 -0.07311984928108764 
-0.2997644036890814 -0.0229485877053974 -0.05687455163600751 
-0.2924227646728196 -0.02283000716022307 0.01773089657837558 
-0.2749009666680649 -0.01441906534384316 -0.07374269681456511 
-0.2521878652666847 -0.0221947751811282 -0.05539011297167958 
-0.2223041829833326 -0.0215073194062251 -0.0576898527225357 
-0.2161964304629049 -0.02307848093031244 -0.02239429353829994 
-0.2517294221885719 -0.02253718382783235 -0.01764799119218107 
-0.226954723777274 -0.02261070549887677 0.05534689599985623 
-0.1641262921369248 -0.02116485857125783 -0.06150637657333569 
-0.1931031690799885 -0.0228931769814986 -0.05427588352746756 
-0.1527974244086392 -0.02233586492878925 -0.01505573175610254 
-0.1212625583358348 -0.0228666792518412 -0.02560009935616898 
-0.1310997912692038 -0.02299631823742358 0.0102273271557486 
-0.1636572153593151 -0.02257237288171654 0.05548025487131072 
-0.1121515803076785 -0.02085330172009867 -0.05944896694938502 
-0.04503921521839365 -0.02024077538417817 -0.06560437349210836 
-0.09681791336865883 -0.02238469553611413 -0.05422091005476244 
-0.08858085105481805 -0.02304589266536284 0.05480582616925779 
-0.03722294037472767 -0.02237052511725554 -0.01196596636884267 
-0.07485595093510386 -0.02183307090798549 -0.008697011543563593 
-0.0554961111783295 -0.02079911989852102 0.06115334434439141 
-0.02053770567184824 -0.02292386071780952 -0.05619467397636906 
-0.004693813481003538 -0.02235502672434737 0.02604726690764372 
-0.009845549519315166 -0.02273903323484081 0.05243825234026147 
0.03224642648480917 -0.0146677727438065 -0.07366346049517647 
0.0765592982037466 -0.02280349093153306 -0.05820184460312985 
0.08963627488612562 -0.02247480309162124 0.04709820044153743 
0.07051723836600493 -0.02269382080676214 0.05717981983189323 
0.07906773849947818 -0.02297145544356568 -0.005595456730501099 
0.1149325643474043 -0.02301694648583381 0.05675750469450882 
0.1896428688634012 -0.02298219496186006 -0.0545359548475715 
0.1692632697553983 -0.02231979685477277 0.05844303492679925 
0.173282851320159 -0.0228260712522389 0.0216209969884854 
0.2321192440311305 -0.02218674281512902 0.05521441388633808 
0.2123763268715338 -0.0227836637396654 -0.0486211238502421 
0.2434153486489134 -0.02269310400114456 0.02084806457000928 
0.2673387169357918 -0.02306528227469384 -0.05742780533280164 
0.2937730233032544 -0.02211534824844109 0.05620692909152393 
0.3117483615370911 -0.02290784549824997 -0.05742022452368258 
0.3082266600193552 -0.02226064612853802 0.01157745539473655 
0.3355363837453564 -0.02318457243860814 0.05394925334133865 
0.3393759274017702 -0.02328665454307833 -0.01782458868020771 
0.3940933957669289 -0.02359996841818017 -0.05881298495338604 
0.370784173734119 -0.02311747212211622 0.01405723595396742 
0.3595665932318984 -0.02076193729353909 0.05708453311981997 
0.4021739454693736 -0.02321067217181558 -0.01240986273589174 
0.4056526575165882 -0.02297420555671498 0.05576169247593758 
0.4528227306459843 -0.02290418898073732 0.0308664157298662 
0.4299651593542247 -0.02216217952864621 -0.05509485178975282 
0.4610236894942356 -0.02070841628693137 -0.0004124358278807907 
0.4741970222520774 -0.022195238638116 0.05449459210159271 
0.4962341759657036 -0.02181785280248238 -0.03117953779078025 
0.4905768678546245 -0.02238511124259543 -0.007870098181880893 
0.4953211170788787 -0.0215170317413338 -0.05419274297278036 
0.4975588747820597 -0.02247668807392346 0.01612824313058504 
-0.4938170689411905 -0.004903203300105678 -0.07676522116564022 
-0.5115184838129744 3.230573437137951e-06 -0.0537674708463636 
-0.5106638207961328 0.0001013473091796542 -0.02934775335544466 
-0.510951533232194 3.230573437137951e-06 0.05228030617575896 
-0.4933930618467977 0.0001653339804265352 0.07220401066019688 
-0.47347898641017 3.230573437137951e-06 -0.07236913740038518 
-0.47347898641017 -0.01161104699982295 0.0734898615801835 
-0.4178451086884193 -0.01470890126983022 0.07345863726053592 
-0.4694842783088313 -0.0001203515599936879 0.07889266723438813 
-0.3909050369609926 -0.004873992711333131 -0.08177480240035252 
-0.3749150537538859 -0.01495961998023449 -0.07363099115734541 
-0.3322900697332036 -0.01304698267582646 0.07302585935945395 
-0.3501486631240688 -0.002568155205500922 -0.0795126828601765 
-0.292830538922924 -0.003301293383293317 -0.07965355738085567 
-0.3301194370563893 0.0003124046237554189 0.07968983207578127 
-0.2571368638085997 -0.01128761210026758 0.07412003890187756 
-0.2469205674701665 -0.002536395119273045 -0.08066416651399538 
-0.2315013391530613 -0.013814910188877 -0.07497702625078813 
-0.2102130897184693 -0.0003989398306570166 -0.07780278294071906 
-0.196421861425954 -0.0119175646274559 0.07386141632213862 
-0.235563302904485 0.0003780644303926912 0.07941347479600522 
-0.187212994501859 -0.01363341241036749 -0.07553641489704917 
-0.1739881588185583 -0.004778994197927738 0.0778124138615677 
-0.1518349109476963 0.000377739792995022 -0.07915969642800207 
-0.1457462158301473 -0.01145429494584268 -0.07408339668438475 
-0.1116001691058256 -0.01483123620649514 0.07231657009740625 
-0.1175460996404084 0.002599908418574033 0.07932994343713805 
-0.1077921488883139 0.0004621051732392241 -0.08158115586204556 
-0.1053892858659277 -0.01117769451816985 -0.07574645991030805 
-0.04960566495360053 -0.01302939373768363 0.07366427762530654 
-0.04436686730081101 0.0002142243884085889 0.07978562034179042 
-0.001787106125114853 5.593987192136486e-05 -0.08119945725563568 
-0.01082295617603926 -0.01248403889814099 -0.07506782579382217 
0.06325854529168951 -0.01673364151774509 0.07250599861711281 
0.08349276809587215 2.725255219234668e-05 -0.08128508653061552 
0.07939271699747816 -0.01411766058396007 -0.07471858484175377 
0.09240840248993239 -0.007284755144956171 0.07392237133778268 
0.1113003277945095 -0.007305081229945443 -0.07497702625078813 
0.1292163666041457 -0.01574877710666106 -0.07291658339282148 
0.09750594587489747 0.0001198671246351499 0.0786344404204196 
0.1741850835418417 -0.0151264184679415 0.07393327863866471 
0.2101979336273582 -0.0004484850154153267 0.07850887079323168 
0.2034272947069178 0.003651169903253652 -0.07910774284609426 
0.1873802597858883 -0.01579123467685614 -0.07367169151611405 
0.215482222932117 -0.002310172157660585 -0.07797981920211985 
0.2128460174317405 -0.01062420045139508 0.07355566164385094 
0.2710323066316213 -0.01310112695793553 0.07368003838576792 
0.2711244030714679 0.0003241063068773367 0.07939857639976691 
0.3095463302389324 -0.001968100118691505 -0.07855236294361934 
0.2902054768054689 -0.01680049126415416 -0.07157109575738706 
0.3053691995261988 -0.0001903231351338846 0.07244870646582219 
0.3356397688889064 0.0003772943215307421 -0.08119323903129425 
0.3120805300025996 -0.009504886940232517 -0.0701058962588151 
0.3349890484066348 -9.104078512587662e-05 0.06907620729162452 
0.359082452587147 -0.0126052817099613 -0.0754300203556897 
0.3549105172265646 -0.003538163184248151 0.07953445398082193 
0.3560636583842937 -0.02183517191801512 -0.05488809693240281 
0.397053684904917 0.002276259737103061 0.07778401460712127 
0.4125218541922899 9.817486011695129e-05 -0.08047391889710125 
0.3947163753337607 -0.0110624446572522 0.0715979805514747 
0.412799362520706 -0.009417300776180429 -0.07573556115367885 
0.4714065353770725 -0.01146190313281619 0.07347109105481825 
0.4727309506793386 0.0001693482058260552 0.07980386612458905 
0.4742667986801727 -0.01940296645664585 -0.0537674708463636 
0.4743137495009561 -0.01898873003291802 0.03105639752384222 
0.4888477212134487 -0.001286275369297923 -0.07235483188298726 
0.4943151453499838 -0.01873903462031662 0.05332837431548778 
0.5115692073325455 3.432556426631962e-05 -0.0511977354091823 
0.5040909020033721 3.230573437137951e-06 -0.01134836003751458 
0.5144589764098683 -0.0002722901255327907 0.01331721598744033 
0.508606896885385 3.230573437137951e-06 0.05228030617575896 
0.4942874890566867 0.004793151151504271 0.07546538815598879 
-0.5159904476720694 -5.53593925215914e-05 0.01949455491691827 
-0.4953229363016806 0.000165285203374411 -0.08094745624089503 
-0.4942769169995169 0.02181350708983996 -0.05453721396145577 
-0.4975713031549217 0.02234493413322321 0.01049195904854693 
-0.4705236106022749 0.0101135277990435 0.07398001696006068 
-0.445763208179781 1.455731148613615e-06 -0.07657796318119581 
-0.4492691457630255 0.02274286372389371 -0.05643614716498 
-0.4033416260510962 0.01170584491879881 0.07323400465648081 
-0.4043802628962731 0.02240408092110214 -0.04964589579965429 
-0.390261885184989 0.01339852268516264 -0.07415203957228692 
-0.3447640297097936 0.009815680444955467 -0.07424821904762299 
-0.3320369688867023 0.02163532705012437 -0.05438652370654377 
-0.3408179599504828 0.01534629941822759 0.07330311898348552 
-0.3058310936297028 0.02294849396737572 -0.0577994050857186 
-0.2923452592612904 0.01068785499367357 0.07366925115250267 
-0.2905057645701641 0.0228906639538102 0.05359886491042163 
-0.2127401070682556 0.02229000419745654 -0.05396959366402042 
-0.2542540782455778 0.01533501100749245 0.07231298845308155 
-0.2346551840212536 0.01134714881236215 -0.07454690790089144 
-0.1911717312768764 0.01283451085676281 -0.07497702625078813 
-0.2231446365816476 0.01250086499769484 0.07304054662708109 
-0.1583479451560124 0.0121990301952065 0.0735388464721863 
-0.1434819532506964 0.02186804955024633 -0.05723728663991372 
-0.1506465970862831 0.009976299375690261 -0.07500729314395353 
-0.1422624821362789 0.02315899488610728 0.05542574870745093 
-0.06705506594193088 0.02287606677121405 -0.05575808791340295 
-0.06700889925872944 0.01118193704099705 -0.07529837322779938 
-0.09027656616097038 0.0003112419390360425 0.07601140994177301 
-0.06716295835047566 0.003973128826733086 0.07727330288782784 
-0.008000986563129125 0.01286817965874581 -0.07486876213924173 
0.022983085926316 0.009878234518470683 -0.0750464904672687 
0.04435579812688984 0.02329825443791446 -0.05838469743961057 
-0.03096386190662074 0.0124436862363391 0.07380928839653285 
0.04628729556745002 0.02253260190847191 0.0540351251133263 
0.08533452685498846 0.01382077269535733 -0.0751674217784269 
0.1102957067981096 0.02245971858308376 -0.05622798019900922 
0.11374503523286 -9.020976144246187e-06 -0.08035200031818721 
0.07489516922046026 0.01222745962980291 0.07363409145339428 
0.1352621816857535 0.01392169190482404 -0.0735084062301367 
0.1715014192465593 0.01563782434341559 -0.07370333748701331 
0.1520362006414676 0.01329184891471478 0.07359805389168922 
0.20289047149007 0.02273661484236113 0.05097956569732288 
0.2085651923036478 0.006450239654600202 0.07358013150229611 
0.2337870128735127 0.0225833615658882 0.05472468647968773 
0.2250287239683701 0.02104432216098863 -0.05733681434599134 
0.2470918787785592 0.01648323986844669 -0.03575434891464265 
0.2524539553611563 0.01782239239175208 -0.0537674708463636 
0.2380233081961675 0.01038513127431781 0.07365048702391264 
0.2723720131248915 0.001205010887427235 -0.07921283964099975 
0.2743061360130906 0.01858168063396978 -0.006998310725930865 
0.2726187592992487 0.01293796185227468 0.0734898615801835 
0.3005365856129061 0.02063409927256676 -0.06139832047464688 
0.3218613930788969 0.02281724848045109 -0.05550806162886757 
0.311168130129418 0.02279261842232601 0.0546349598475203 
0.3349524012891522 0.012714005908774 -0.07463573736530821 
0.3465408004239642 0.02284235786977635 0.03002676932695786 
0.3341800820194876 0.01582464195024723 0.05679734321924791 
0.3734427789897107 0.009608569097714667 -0.07497702625078813 
0.3734427789897107 0.0121959836951744 0.0734898615801835 
0.4232841165300491 0.01137177089392575 -0.07507668047185073 
0.418044001918331 0.0109018360846639 0.07389585610404192 
0.4338009719206183 0.01763093134286432 0.05058564374722337 
0.4718779516634273 0.0223586172881814 -0.05795992482912445 
0.4293454792777427 0.02296452591952711 0.01411476452575789 
0.4617117034443748 0.02286748105331914 0.02323113588829748 
0.4753571746750023 -1.972656527396465e-06 -0.07565238604855785 
0.4742667986801727 0.01365919673978343 0.0734898615801835 
0.4949782963879803 0.01715206869143441 -0.0526119917322677 
0.4944316026182651 0.01362658777264293 -0.01134836003751458 
0.495305063226779 0.02161116583635009 0.055294708514296 
-0.4941710486266656 0.02185369454443603 0.05213380002075239 
-0.4734287755539355 0.02256097172724263 0.0576401471342966 
-0.4662950146107972 0.02277756946472473 -0.00908587679139961 
-0.4044242164508975 0.02306726988023233 -0.0002940708228854998 
-0.4140240298417217 0.02110007624707037 0.05364647843556979 
-0.3687640145004109 0.0227755075918056 0.004944861452195245 
-0.3885026606514023 0.02333158211932296 0.04444250347610038 
-0.3408535116948055 0.02221969003760966 0.06015143376254588 
-0.2313366546984384 0.02292163958554981 0.05456309016024521 
-0.2062798316052996 0.02301833607295299 -0.01663514994228775 
-0.1928595358484745 0.02292822430620554 -0.05779571331237779 
-0.1884659930815342 0.02156852010638417 0.05700834598340652 
-0.1303492782264546 0.02307411775393484 0.0009234902669246726 
-0.1033006892056065 0.02205820759404234 0.0554839351411091 
-0.06304971409907338 0.02268536297526734 0.05393469113295694 
0.00737892403625134 0.02315977169614257 0.05543251188874655 
-0.01148455614337605 0.02215088125250101 -0.05853962748922994 
0.007314976768615372 0.02264571336891041 -0.04136281949164356 
0.03383858091018669 0.02306646319661659 0.01605486191457291 
0.07140155936406468 0.02233181050297484 -0.00874286358189454 
0.1271902407003221 0.02298945300822782 0.05538956858385684 
0.1737106907732294 0.02281276259913274 -0.05689476898726453 
0.2094078154332452 0.02264932228127522 -0.02867227458817808 
0.2524928834725121 0.02283199193611064 0.002164348572234775 
0.2787778209424366 0.02341872132818474 0.05617363352310781 
0.2672348047076675 0.02297168728854829 -0.05566779779669115 
0.2981122388464122 0.02321265760223577 -0.007252454503207195 
0.3247005668045055 0.02064050462924495 0.01128634054864534 
0.3351381291335077 0.02208452759321336 -0.01432863817716228 
0.3734427789897107 0.02050189309219637 -0.05387459873608963 
0.3926286339932847 0.02282004667945207 -0.02516211995918061 
0.3746862273821546 0.02268618670933704 0.01273468223249866 
0.3808005016955036 0.02318953872600473 0.05661410628903225 
0.4055973672507909 0.0225101712165104 -0.05717740265741901 
0.4149889725086656 0.02066273106800412 0.05257021965432156 
0.4648361997751262 0.02208879275598836 -0.01085737190430287 
0.498392782464627 0.02252340831871476 0.01637975614680918 
3 1 0 5 
3 1 5 6 
3 7 2 6 
3 3 7 4 
3 4 7 8 
3 10 11 5 
3 5 11 6 
3 6 11 7 
3 11 8 7 
3 11 9 8 
3 10 15 11 
3 12 15 10 
3 12 83 13 
3 13 14 12 
3 12 14 15 
3 15 16 11 
3 11 16 9 
3 13 17 18 
3 18 14 13 
3 15 14 19 
3 15 19 16 
3 18 19 14 
3 18 20 21 
3 21 24 18 
3 18 24 19 
3 24 25 19 
3 19 25 16 
3 22 23 21 
3 21 23 24 
3 27 23 22 
3 22 26 27 
3 23 25 24 
3 28 23 27 
3 23 31 25 
3 28 30 23 
3 30 31 23 
3 26 32 27 
3 27 29 28 
3 27 32 34 
3 34 29 27 
3 32 33 34 
3 34 37 29 
3 37 35 29 
3 29 35 30 
3 30 35 31 
3 98 31 35 
3 34 33 39 
3 39 36 34 
3 34 36 37 
3 37 41 35 
3 36 41 37 
3 35 41 38 
3 39 40 36 
3 36 40 41 
3 38 41 106 
3 39 42 43 
3 43 46 39 
3 46 40 39 
3 46 44 40 
3 44 45 40 
3 40 45 41 
3 106 41 45 
3 46 47 44 
3 43 111 48 
3 48 46 43 
3 46 50 47 
3 50 49 47 
3 111 116 48 
3 48 50 46 
3 48 116 52 
3 52 50 48 
3 51 49 50 
3 52 53 50 
3 53 51 50 
3 54 57 52 
3 57 53 52 
3 53 55 51 
3 57 55 53 
3 54 122 56 
3 56 57 54 
3 57 58 55 
3 56 59 57 
3 59 58 57 
3 129 59 56 
3 59 62 58 
3 59 61 62 
3 61 63 65 
3 61 64 62 
3 60 63 129 
3 65 68 61 
3 61 68 64 
3 66 63 60 
3 66 70 67 
3 67 65 63 
3 70 66 69 
3 137 65 67 
3 137 68 65 
3 70 72 67 
3 137 67 72 
3 137 72 68 
3 139 68 72 
3 73 0 1 
3 73 1 146 
3 146 1 74 
3 1 6 74 
3 6 75 74 
3 145 75 2 
3 75 6 2 
3 2 3 145 
3 3 4 76 
3 3 76 145 
3 4 77 76 
3 73 78 0 
3 78 5 0 
3 7 3 2 
3 77 8 79 
3 77 4 8 
3 79 81 77 
3 150 10 78 
3 10 5 78 
3 80 79 8 
3 79 80 81 
3 9 80 8 
3 82 10 150 
3 12 10 82 
3 83 12 82 
3 84 80 9 
3 80 84 87 
3 81 80 87 
3 83 82 85 
3 13 83 85 
3 16 84 9 
3 17 13 85 
3 17 85 86 
3 18 17 86 
3 20 18 86 
3 88 84 16 
3 84 88 93 
3 87 84 93 
3 20 86 89 
3 21 20 89 
3 25 88 16 
3 90 21 89 
3 22 21 90 
3 92 88 25 
3 88 92 93 
3 90 89 91 
3 91 22 90 
3 94 22 91 
3 26 22 94 
3 91 96 94 
3 31 92 25 
3 95 92 31 
3 93 92 95 
3 94 96 97 
3 97 26 94 
3 98 95 31 
3 95 98 99 
3 96 100 97 
3 32 26 97 
3 97 100 101 
3 101 32 97 
3 29 30 28 
3 33 32 101 
3 172 98 35 
3 99 98 172 
3 38 172 35 
3 102 172 38 
3 172 102 173 
3 173 102 103 
3 100 104 105 
3 101 100 105 
3 105 33 101 
3 39 33 105 
3 106 102 38 
3 102 106 103 
3 105 104 42 
3 42 39 105 
3 103 106 112 
3 104 107 42 
3 42 107 108 
3 108 43 42 
3 45 44 106 
3 44 109 106 
3 106 109 112 
3 107 181 110 
3 108 107 110 
3 110 43 108 
3 111 43 110 
3 47 109 44 
3 110 181 111 
3 49 109 47 
3 113 109 49 
3 109 113 112 
3 111 181 116 
3 112 113 114 
3 181 115 116 
3 116 115 117 
3 116 117 52 
3 51 113 49 
3 118 113 51 
3 113 118 114 
3 52 117 54 
3 119 118 51 
3 118 119 120 
3 114 118 120 
3 193 54 117 
3 55 119 51 
3 193 121 122 
3 122 54 193 
3 123 119 55 
3 120 119 123 
3 122 121 125 
3 56 122 125 
3 55 58 123 
3 121 124 125 
3 129 56 125 
3 126 123 58 
3 125 124 127 
3 127 129 125 
3 126 62 128 
3 126 58 62 
3 60 129 127 
3 59 129 61 
3 132 128 62 
3 124 131 133 
3 127 124 133 
3 133 60 127 
3 63 61 129 
3 64 132 62 
3 128 132 130 
3 66 60 133 
3 66 67 63 
3 68 132 64 
3 134 132 68 
3 132 134 135 
3 130 132 135 
3 131 210 133 
3 210 136 133 
3 133 136 66 
3 69 66 136 
3 138 71 136 
3 138 136 210 
3 71 69 136 
3 139 134 68 
3 134 139 144 
3 135 134 144 
3 138 140 71 
3 71 140 69 
3 70 69 141 
3 141 69 140 
3 70 141 72 
3 72 141 142 
3 139 72 143 
3 143 72 142 
3 144 139 143 
3 147 146 74 
3 74 75 147 
3 75 148 147 
3 145 148 75 
3 145 76 148 
3 76 215 148 
3 76 77 215 
3 146 78 73 
3 146 147 78 
3 149 216 77 
3 216 215 77 
3 77 81 149 
3 150 78 151 
3 78 147 151 
3 216 149 152 
3 151 153 150 
3 153 154 150 
3 153 151 218 
3 152 149 81 
3 82 150 154 
3 155 82 154 
3 218 221 220 
3 219 152 222 
3 87 152 81 
3 85 82 155 
3 154 156 155 
3 152 157 222 
3 157 152 87 
3 86 85 155 
3 156 158 155 
3 222 159 160 
3 157 159 222 
3 159 157 87 
3 163 86 155 
3 155 158 163 
3 93 159 87 
3 89 86 163 
3 158 161 163 
3 159 162 160 
3 162 159 93 
3 162 165 223 
3 165 162 93 
3 91 89 163 
3 163 161 91 
3 91 225 164 
3 161 225 91 
3 223 165 226 
3 96 91 164 
3 168 96 164 
3 164 167 168 
3 225 167 164 
3 165 166 226 
3 166 165 93 
3 95 166 93 
3 226 166 169 
3 99 166 95 
3 100 96 168 
3 166 99 169 
3 171 100 168 
3 168 170 171 
3 167 170 168 
3 169 99 228 
3 99 172 228 
3 228 173 229 
3 172 173 228 
3 173 177 229 
3 103 177 173 
3 104 100 171 
3 174 104 171 
3 171 170 174 
3 170 231 174 
3 229 177 230 
3 175 104 174 
3 232 174 231 
3 232 175 174 
3 176 175 232 
3 112 177 103 
3 107 104 175 
3 179 107 175 
3 175 176 179 
3 230 182 178 
3 177 182 230 
3 182 177 112 
3 178 182 235 
3 176 180 179 
3 181 107 179 
3 179 180 181 
3 180 183 181 
3 182 185 235 
3 185 182 112 
3 184 181 183 
3 235 185 186 
3 114 185 112 
3 115 181 184 
3 184 236 115 
3 185 187 186 
3 187 185 114 
3 236 189 115 
3 186 187 188 
3 189 117 115 
3 238 186 188 
3 187 192 188 
3 192 187 114 
3 193 117 189 
3 191 193 189 
3 190 191 189 
3 120 192 114 
3 240 193 191 
3 190 240 191 
3 194 190 238 
3 190 194 240 
3 188 195 239 
3 192 195 188 
3 195 192 120 
3 196 121 193 
3 240 196 193 
3 195 123 239 
3 123 195 120 
3 196 197 121 
3 123 198 239 
3 199 124 121 
3 121 197 199 
3 200 198 201 
3 201 198 126 
3 126 198 123 
3 126 128 201 
3 202 124 199 
3 199 244 202 
3 197 244 199 
3 201 203 247 
3 203 201 128 
3 131 124 202 
3 204 131 202 
3 202 248 204 
3 244 248 202 
3 203 130 247 
3 130 203 128 
3 247 205 249 
3 130 205 247 
3 249 205 206 
3 135 205 130 
3 210 131 204 
3 207 210 204 
3 248 207 204 
3 250 208 209 
3 214 211 144 
3 214 206 211 
3 206 205 211 
3 211 205 135 
3 210 207 212 
3 138 210 212 
3 250 213 212 
3 250 251 213 
3 144 211 135 
3 140 138 212 
3 141 140 212 
3 213 141 212 
3 213 251 141 
3 141 251 142 
3 142 251 143 
3 143 251 214 
3 214 144 143 
3 148 217 147 
3 148 215 217 
3 217 215 216 
3 147 217 151 
3 218 217 216 
3 151 217 218 
3 218 216 219 
3 219 216 152 
3 221 218 219 
3 153 218 220 
3 222 221 219 
3 156 154 153 
3 156 153 220 
3 160 220 222 
3 220 221 222 
3 158 156 160 
3 156 220 160 
3 158 160 223 
3 161 158 224 
3 158 223 224 
3 162 223 160 
3 224 223 226 
3 161 224 225 
3 224 226 169 
3 167 225 227 
3 225 224 227 
3 227 224 169 
3 170 167 227 
3 227 169 228 
3 227 228 229 
3 170 227 229 
3 230 170 229 
3 231 170 233 
3 170 230 233 
3 232 231 233 
3 233 230 178 
3 176 232 234 
3 232 233 234 
3 234 233 235 
3 233 178 235 
3 180 176 234 
3 234 235 236 
3 236 183 180 
3 236 180 234 
3 184 183 236 
3 186 236 235 
3 189 236 237 
3 237 236 186 
3 190 189 237 
3 190 237 238 
3 186 238 237 
3 239 194 238 
3 239 238 188 
3 240 194 241 
3 194 239 241 
3 197 196 241 
3 196 240 241 
3 241 239 242 
3 242 239 198 
3 197 241 243 
3 242 243 241 
3 198 200 242 
3 197 243 245 
3 245 243 246 
3 242 246 243 
3 246 242 200 
3 200 201 247 
3 244 197 245 
3 248 244 245 
3 246 200 247 
3 245 246 208 
3 208 246 249 
3 246 247 249 
3 249 206 208 
3 248 245 250 
3 208 250 245 
3 206 209 208 
3 207 248 250 
3 206 214 209 
3 250 212 207 
3 251 250 209 
3 251 209 214 
