ply
format ascii 1.0
comment VCGLIB generated
element vertex 254
property double x
property double y
property double z
element face 500
property list uchar int vertex_indices
end_header
-0.0309556782925784 -0.06383243547787583 0.2872625159289943 
-0.03274801862384324 -0.06639549786508488 0.3184485973881134 
-0.0320166816774488 -0.06582886871782113 0.4162581377651307 
-0.03220842713607781 -0.06567120308364438 0.4696891418481238 
-0.0296301076321804 -0.06535191978428705 0.122218994295436 
-0.007926310599958462 -0.06028399710177097 0.1832786293496345 
-0.02971715926707908 -0.06162466799300817 0.1506668077248591 
-0.03237576509575159 -0.06635147248363014 0.2497717793159808 
-0.006070015753467794 -0.06591894865024676 0.4741148253159005 
0.03333854708392862 -0.06576971652076903 0.3362885242221324 
0.03294422669255043 -0.05327918175653039 0.1804379560074526 
0.0335735367848386 -0.06509630394103155 0.4439450159209564 
0.03348107820256077 -0.06579018195960457 0.1459494163323361 
0.03355177403963361 -0.0657318356913847 0.2456671938816607 
0.03372888696377543 -0.06626109190814491 0.29528517813604 
0.03427433419006121 -0.06630751771452484 0.3840320073613097 
-0.05115284334009815 -0.04588805175291813 0.1279861110169751 
-0.05718642100275766 -0.03463198329171535 0.2345087631789643 
-0.04842430412133028 -0.04758218513050185 0.2957694291338084 
-0.04405491510322686 -0.05016086342069852 0.349499825674636 
-0.0576243276819353 -0.03360580405407318 0.4198492473643576 
-0.05834602260571591 -0.03296366725210398 0.4708446453779204 
-0.03895225656891223 -0.0382292014782976 0.09794519714895238 
-0.03219744874001688 -0.04740448952218151 0.4918917079485741 
-0.0223948820574756 -0.05476221428964943 0.1980780610009863 
-0.008782712411312267 -0.05137004347298485 0.4972706965626174 
0.001899835156087318 -0.05426451141143301 0.1009224044056948 
0.009291290021400786 -0.05833181345435304 0.1948960179271619 
0.02901919577480145 -0.06132041894051696 0.4799597924721051 
0.02897844232033546 -0.04814032767148589 0.4961649748616769 
0.02849353502382256 -0.06451037041468494 0.1235781796809336 
0.03929157574057367 -0.04800147002545915 0.2062938265721677 
0.03163925197992806 -0.04546723903203777 0.101637527269665 
0.05118711063921557 -0.04588883766451564 0.3642741652002542 
0.05175147702745379 -0.04512747057907622 0.4704085497839369 
0.05268712156569228 -0.04346294521056088 0.1274335152319295 
0.05234772567289062 -0.04424012104952001 0.2474580032472821 
0.06300706614483877 -0.0285011190857939 0.3260481555860191 
-0.06851465796842798 -0.01620279389039994 0.1285105816502684 
-0.04387925391090673 -0.03898309242690225 0.194473141995927 
-0.05418045198687885 -0.02268067677815408 0.1937355599394801 
-0.06514361834893224 -0.01982757500293451 0.3441012411439537 
-0.05593921535596181 -0.01192824127340944 0.4924843700627572 
-0.03297846299156852 -0.02452767288214759 -0.4897527032214589 
-0.03235313929707007 -0.02224091584287888 -0.3572843008874856 
-0.02918008166306816 -0.0134855773346976 0.5086229106935333 
-0.01689610088917754 -0.02116446464341324 -0.506642502943541 
-0.009113106169172694 -0.03933889704828533 -0.4918248422173612 
-0.009032202110548242 -0.03931835808319483 -0.3892796251347523 
-0.01008126853570896 -0.03419725147806142 -0.3427922284933865 
-0.02134033537879793 -0.01964775118468816 -0.3187580587422743 
-0.009584269737265174 -0.03036018990378479 -0.2705164060914993 
-0.02398335785562484 -0.01988204821229762 -0.2583774618824451 
-0.009214670534260528 -0.03011040295616186 -0.127967794211689 
-0.02296788999244282 -0.02038103343846009 -0.1468368064209364 
-0.02186229485576428 -0.02055015273294679 -0.08024323087702984 
-0.01003698765417096 -0.029717913222223 -0.02963312953522159 
-0.02229268504227781 -0.02049365001149785 0.01732364056105796 
-0.008957940792894347 -0.02872995070339295 0.02330937296085337 
-0.008436837492023041 -0.03143398847695909 0.08473511904393537 
-0.01114028339683143 -0.02577478627098069 0.1408350876126783 
-0.009635027034473489 -0.02174183181417361 0.2261574304350068 
-0.01098065169807426 -0.02457564600917628 0.2777847224213807 
-0.01099485778239915 -0.02516210144486019 0.3436129794273664 
-0.01123610874525043 -0.02473470893653901 0.3994734181520047 
-0.01056910292828042 -0.02472303466137964 0.4543591090458077 
0.01125743617911917 -0.03639599364498139 -0.4916195634195449 
0.01146636268882615 -0.0390239112366333 -0.4575188162220814 
0.01125743617911917 -0.03953673076457304 -0.4096810776698022 
0.01125743617911917 -0.03007280520582825 -0.3277425919200596 
0.01115447430622189 -0.02903944910982203 -0.2668523202250696 
0.01146490803708298 -0.02945037456316644 -0.1324861811104454 
0.01125743617911917 -0.03001637839235113 -0.0409578917959601 
0.01580196588175366 -0.02649498418715775 -0.01828344542957446 
0.01187155123979511 -0.02967007634921611 0.03760951748922405 
0.0109637997987951 -0.03101412691126333 0.08511821334549038 
0.0132120358611567 -0.02513555713485347 0.13958752296893 
0.01121269628057769 -0.01667887702838529 0.2043361100406919 
0.0142508920897454 -0.02476248636394566 0.2512141733045972 
0.0133889968130594 -0.02512071890161122 0.3064624024919555 
0.01247534769475472 -0.02427609470643787 0.455739092921943 
0.03498376462761812 -0.02421837141197961 -0.4161279326221379 
0.01321613028401694 -0.03826401313523413 -0.3810956041560967 
0.02416699825950891 -0.02053089054488294 -0.3277425919200596 
0.02398716747701716 -0.02029091375383952 -0.2696232340856579 
0.02543233465118825 -0.01948819005917336 -0.1555027861614462 
0.02412395590664435 -0.02094349527943305 -0.04615864978677595 
0.02495801717464191 -0.02053089054488294 1.135107891125919e-05 
0.02585475312989177 -0.01976188731128095 0.08232692254927854 
0.01314585089565464 -0.02593849993210817 0.3478054966975395 
0.01308260401366169 -0.02515451175377557 0.3795229192808607 
0.03533697912374176 -0.0224116141776955 -0.4957337974408018 
0.03184898370410465 -0.02082214695128566 -0.3891167022991454 
0.03525090272286822 -0.02246129751490434 -0.3621147163957025 
0.0542415511786493 -0.02069183561931334 0.100889899028619 
0.05550249242975432 -0.0336025865422659 0.2143994865038681 
0.05417265375453457 -0.02152548123071602 0.4928943463004896 
0.06909250764200961 -0.01897538722870973 0.1275806194163085 
0.0590003171184588 -0.02199746435662494 0.1798277271368293 
0.06758002302483669 -0.01754168251969375 0.2422636853204903 
0.06702779443846875 -0.02087829070273722 0.4077985260065683 
-0.07310409124492316 -0.0003380814371789065 0.125754500990384 
-0.07322438253878268 -0.0003493864523157703 0.2514564677028782 
-0.0548488900625965 0.0005058167593897153 0.1009554737421815 
-0.060687833351957 0.0002148182704374364 0.1846671316396945 
-0.05838457457764559 0.01066588046703567 0.1976858368884878 
-0.03678841227103054 -0.0002757225901189932 -0.4985427284284404 
-0.04060066629628373 0.0003789381289943224 -0.4526383448662649 
-0.04060811748950187 0.0003999635873663418 -0.367753261162692 
-0.03275116906167247 0.0005522584052462785 -0.04984970406698597 
-0.02423073393939966 -0.01974540992199664 0.08345593465745048 
-0.01035715013195856 0.0003231402404627755 -0.5126475931727872 
-0.00918506000956687 0.0006134287758916279 0.1245773970816557 
-0.02875044274718703 0.0003218893655333988 0.1431512805323006 
-0.01940520158687289 0.0006134287758916279 0.1843729440158324 
-0.008696611291069627 -0.01582171538311253 0.1847184941294793 
-0.02546388866376195 0.0007534077779694176 0.2336768571551903 
-0.02913681690891871 0.0007231047504281308 0.3073366139154978 
-0.02882277749918442 0.0008135414985658195 0.3974150156135393 
-0.02927769398217522 0.0006134287758916279 0.4506730227024961 
-0.01086929517820691 -0.0001561794834222393 0.4747166992810316 
0.0007832894830129449 -0.0195879474473707 0.5130928741356243 
0.01125743617911917 0.0006134287758916279 0.1277537722246277 
0.01088369025629798 -0.01727721167664969 0.1826496230731912 
0.01156291093960378 -0.02022465677890253 -0.5131716771555934 
0.02490180851865293 0.01189219135333008 -0.5091864349663886 
0.03390586512152011 0.0008832269567367181 -0.02953450491435977 
0.03070288270157007 0.0006134287758916279 0.143403701140961 
0.02179820087723851 0.0007623484820292677 0.1833770515790999 
0.02257105617120958 0.0005185829635832523 0.2128533767626001 
0.0305917810614349 0.0008229855415955407 0.2514613820632207 
0.03109077819612543 0.0006873686074149079 0.320466017340491 
0.03084779843857303 0.0006742815693984302 0.4512092293687533 
0.03209482900203106 -0.01226547612126167 0.5080009689745814 
0.041743816259878 0.0006134287758916279 -0.4916195634195449 
0.04161544782331144 0.0003252153115788422 -0.4252226545415121 
0.04204794364519211 8.488043093619698e-05 -0.372385436999606 
0.05742486955602134 0.0005776358829717081 0.1015529939044884 
0.0586423629638034 0.008489407067192986 0.4943395700716272 
0.07241301082361391 0.0006040902689712128 0.1229119811686192 
0.06036835762571255 0.000775720743540033 0.1952612982656687 
0.07624768846150258 0.004030721781503759 0.2487198799608444 
0.07466722546498515 -0.0003997958039819043 0.3520546282552693 
0.07442312774356069 -0.002789522305997226 0.4699109012184627 
-0.05214279494120977 0.02246507961755884 0.1007565267839035 
-0.06486541204452692 0.02183365070105548 0.1242528964012922 
-0.06349917248724658 0.02103288584738205 0.1512837190035538 
-0.06480407330823856 0.02114586772679162 0.2425698314840249 
-0.07336161669612465 0.004792436065876315 0.3364374463011541 
-0.07318288459565236 0.005496910390910617 0.408095875095591 
-0.0719710637637645 0.004455499810172093 0.4661732044277129 
-0.03246791854684655 0.02332955816146871 -0.4937500639516249 
-0.03297617797186914 0.02420754793474452 -0.3657627124287658 
-0.02968585269088454 0.0007820810937857409 -0.3159052743940158 
-0.03249810376939369 0.0002963112771323093 -0.2664630368526155 
-0.03156793182545226 0.001063356863185791 -0.1932810658260693 
-0.03087447784296163 0.0005831607799194203 -0.1135578006424036 
-0.03214537633476697 0.000589565271470811 0.08069878011808579 
-0.02245923757449471 0.02195184348481181 -0.3240257811410037 
-0.02231417988126121 0.02176011477112009 -0.2227914340252547 
-0.023036116354924 0.02168800733996114 -0.1625577808471124 
-0.02253380436478319 0.02125442177788616 -0.0617737983124049 
-0.02255933888440871 0.02183576833207943 0.01756314809084288 
-0.02259741412936898 0.02122822272319761 0.08391689975869626 
-0.00918506000956687 0.01706687762493228 0.1843729440158324 
-0.008423880559649407 0.02077854516814956 0.4641491606559063 
-0.01026365434572972 0.02248074911830289 -0.513644816829756 
0.01125743617911917 0.01704650006777153 0.1843729440158324 
0.01125743617911917 0.01658926929147875 0.2048575654532681 
0.01246011553070606 0.003972370806277754 0.4744790919155201 
0.03396166981998404 0.000711262974131859 -0.3272767936321004 
0.02557691771881828 0.02127099502285793 -0.3284794089575354 
0.02390260710676962 0.02087661828049499 -0.2419417651243703 
0.03393352559556558 0.0002153597237649053 -0.2619113856840071 
0.02502697309611849 0.02124376854032874 -0.1167820547026504 
0.03415871070501508 0.0005988516766758455 -0.1211576269874073 
0.02482681757935159 0.02075320893535322 -0.02264208200473109 
0.03412055021818742 0.001492720428844147 0.08148074916408254 
0.02514411996024144 0.02120393665088109 0.08328609356577055 
0.01345448765973977 0.02720445047572168 0.141110198665521 
0.01300175563373633 0.02557201634862163 0.3810525318111428 
0.01375254206189343 0.02585318674346098 0.4498597911780941 
0.01069804554775027 0.01600491531089565 0.5140705953033086 
0.03501134966156295 0.02509580481090582 -0.4571022981255 
0.06666091616984435 0.02046606673873367 0.1522441082812413 
0.07340568121836615 0.0006366603491383713 0.1473036740796524 
0.06833385996873036 0.01992633587215721 0.2791751339384839 
0.06659212066179603 0.02208915425317981 0.3454858656742754 
0.06695145061447653 0.02125999368809843 0.4675689458023604 
-0.04889759087032823 0.04728159647010298 0.4707730213440147 
-0.04398225730542058 0.02849417788946043 0.4975564623092625 
-0.03302344941987379 0.02638556316623883 -0.4265365983009785 
-0.03248842518810863 0.02520603472590435 -0.3907021344416679 
-0.03191296662740706 0.04700045139552279 0.1004999970788909 
-0.0444494647121773 0.03921057373637513 0.1970456843953352 
-0.01004718667333265 0.03910366789828839 -0.487153199166895 
-0.009403302516422492 0.0409532543205209 -0.4163599023709148 
-0.00918506000956687 0.03725985411655144 -0.3891964562323665 
-0.009148190925982855 0.0402867854300412 -0.3685996257145169 
-0.00918506000956687 0.03137934984881993 -0.3277425919200596 
-0.009815592123435806 0.03079085500594099 -0.2486724287724798 
-0.00945436589478303 0.03106599260158946 -0.1548801578533749 
-0.009496127476511209 0.0308177828615123 -0.04533671491207602 
-0.008914580649774035 0.03122900377029633 0.03983453402213733 
-0.007852208385588531 0.03254133622971095 0.08444817681879481 
-0.01132045051060624 0.02740279491392705 0.1410131760106053 
-0.01004204289158845 0.02322013946033452 0.2278547213634435 
-0.01130526204138624 0.02583560076662361 0.3083379488387955 
-0.01154592156943397 0.02664447165518917 0.394040425097584 
-0.01150238931590874 0.02526861513253209 0.4516067104733866 
0.01190180228445811 0.0404665881911654 -0.4913917753182525 
0.01182104059476001 0.04036451954700923 -0.4403591374225221 
0.01202222939752387 0.0400618869255379 -0.369403195491825 
0.01125743617911917 0.03026611684440175 -0.3277425919200596 
0.01134812170833394 0.0317418402202443 -0.3000878090108494 
0.01119569985582654 0.02877318878362563 -0.2446622921382154 
0.01124325938289322 0.03160867037144469 -0.1001055914570231 
0.01082104234655141 0.02978488043143606 -0.01923491257296669 
0.01165606790641073 0.03141632208799543 0.0840240509943085 
0.01361260495882499 0.02599546735089487 0.2424637890727396 
0.01381492875534487 0.02611392273266776 0.307836811461921 
0.03364441531785213 0.02294687664762301 -0.4930440177740477 
0.03587122826245479 0.02491760361599031 -0.3698926763530297 
0.05535078370364246 0.02514249986352284 0.1986216667380835 
0.05482570507490558 0.04272968440534999 0.1252085812200873 
-0.05014482850741638 0.04498333799804458 0.1513840906315053 
-0.05007419019864285 0.04527644624220325 0.2482306644965316 
-0.04900711254161389 0.04746727908244207 0.3315148763086384 
-0.04808313923427932 0.04836741900320003 0.4100424201999339 
-0.03192822509151445 0.06714057773724272 0.1463759314385702 
-0.0286639627016759 0.05187381578000072 0.194049706703858 
-0.03148344824460465 0.06567588044050585 0.2468769745391801 
-0.03274903631776478 0.06701617593541526 0.4334308564999415 
0.001445437859729129 0.05639138140973176 0.1005172841212338 
0.001121930347387853 0.06146448008946453 0.1926603373590886 
0.02913666993604545 0.06734605701666344 0.2394402488554792 
-0.0272940754984773 0.04973239702806622 0.4957900759069883 
0.01934747276362712 0.06671769061528138 0.4725988764627793 
0.04487443341326684 0.03252412649480264 0.09809234889315681 
0.03261796355120541 0.06488410616298194 0.1226555173753303 
0.03814539910221083 0.04751653375216149 0.1944480891067743 
0.02837746552016353 0.04963598557244836 0.4963407409252644 
0.05053850520551965 0.04787142853630662 0.2402370168185403 
0.05189334440030142 0.04443749247132837 0.2689292380024902 
0.03340596400894887 0.06722113916155124 0.341287533082927 
0.05221906577124362 0.04460384334822958 0.3627204058621752 
0.05069430642945415 0.04806021459993289 0.4694120636150422 
0.03482694646644317 0.06710958499439144 0.4678674170038687 
-0.03068316994227276 0.06549639160612747 0.1237228594506675 
-0.03234567480074553 0.067398339050335 0.3275118065319667 
-0.03082585155637971 0.06610846787152379 0.4713560276439922 
0.03261551281335041 0.06739170959846084 0.1455414741492017 
-0.001537196513136598 0.06753074060585826 0.4147565256393068 
0.03335285568747686 0.06770474158001009 0.2741812527162109 
3 4 6 16 
3 1 2 19 
3 4 5 6 
3 7 14 0 
3 14 9 0 
3 0 9 1 
3 1 9 2 
3 9 15 2 
3 15 8 2 
3 2 8 3 
3 30 12 4 
3 4 12 5 
3 7 27 13 
3 13 14 7 
3 15 11 8 
3 11 28 8 
3 4 16 22 
3 6 24 39 
3 16 6 39 
3 24 7 17 
3 39 24 17 
3 0 17 7 
3 18 17 0 
3 1 18 0 
3 19 18 1 
3 20 19 2 
3 3 20 2 
3 21 20 3 
3 3 23 21 
3 22 59 26 
3 26 4 22 
3 30 4 26 
3 5 24 6 
3 8 23 3 
3 25 23 8 
3 45 23 25 
3 59 75 26 
3 27 5 12 
3 5 27 24 
3 27 7 24 
3 28 25 8 
3 25 28 29 
3 26 75 32 
3 26 32 30 
3 10 27 12 
3 10 31 27 
3 27 31 13 
3 32 35 30 
3 12 30 35 
3 35 10 12 
3 95 13 31 
3 13 95 36 
3 13 36 14 
3 36 37 14 
3 14 37 9 
3 37 33 9 
3 9 33 15 
3 15 33 11 
3 33 34 11 
3 11 34 28 
3 34 29 28 
3 34 33 100 
3 22 16 38 
3 16 40 38 
3 16 39 40 
3 18 102 17 
3 18 41 102 
3 18 19 41 
3 19 20 41 
3 40 39 17 
3 23 42 21 
3 42 23 45 
3 43 46 47 
3 47 48 43 
3 43 48 44 
3 48 49 44 
3 50 44 49 
3 49 51 50 
3 50 51 52 
3 51 53 54 
3 52 51 54 
3 54 53 55 
3 53 56 55 
3 55 56 57 
3 56 58 57 
3 57 58 110 
3 58 59 110 
3 59 22 110 
3 25 121 45 
3 46 124 47 
3 47 124 66 
3 66 67 47 
3 47 67 48 
3 67 68 48 
3 68 82 48 
3 48 82 49 
3 82 69 49 
3 69 70 49 
3 49 70 51 
3 70 71 51 
3 51 71 53 
3 71 72 53 
3 53 72 56 
3 72 73 56 
3 56 73 58 
3 73 74 58 
3 74 75 58 
3 58 75 59 
3 76 60 123 
3 60 115 123 
3 77 61 78 
3 78 61 79 
3 61 62 79 
3 62 63 79 
3 79 63 89 
3 89 63 90 
3 63 64 90 
3 90 64 80 
3 64 65 80 
3 29 121 25 
3 124 91 66 
3 66 91 67 
3 91 81 67 
3 67 81 68 
3 81 92 68 
3 68 92 82 
3 93 83 69 
3 93 69 82 
3 70 69 83 
3 84 70 83 
3 71 70 84 
3 85 71 84 
3 86 71 85 
3 72 71 86 
3 73 72 86 
3 74 73 87 
3 88 74 87 
3 75 74 88 
3 88 32 75 
3 133 121 29 
3 93 82 92 
3 94 32 88 
3 32 94 35 
3 98 31 10 
3 34 96 29 
3 29 96 133 
3 35 94 97 
3 98 10 35 
3 98 35 97 
3 95 31 98 
3 95 99 36 
3 36 99 37 
3 33 37 100 
3 34 100 143 
3 96 34 143 
3 101 103 38 
3 103 22 38 
3 101 38 104 
3 38 40 104 
3 40 105 104 
3 40 102 105 
3 102 40 17 
3 148 102 41 
3 149 148 41 
3 20 149 41 
3 150 149 20 
3 21 150 20 
3 21 42 150 
3 106 46 43 
3 43 107 106 
3 43 44 107 
3 44 108 107 
3 44 50 153 
3 44 153 108 
3 157 110 103 
3 110 22 103 
3 111 46 106 
3 52 153 50 
3 154 153 52 
3 155 154 52 
3 54 155 52 
3 156 155 54 
3 55 156 54 
3 109 156 55 
3 57 109 55 
3 157 109 57 
3 110 157 57 
3 113 60 112 
3 115 60 114 
3 60 113 114 
3 115 116 61 
3 114 116 115 
3 61 116 62 
3 62 116 117 
3 62 117 63 
3 63 117 64 
3 64 117 118 
3 64 118 65 
3 65 118 119 
3 65 119 120 
3 121 182 45 
3 124 46 111 
3 76 122 60 
3 122 112 60 
3 123 115 77 
3 115 61 77 
3 80 65 120 
3 169 80 120 
3 91 124 125 
3 93 170 83 
3 83 170 84 
3 170 173 84 
3 173 85 84 
3 85 175 86 
3 175 126 86 
3 126 73 86 
3 73 126 87 
3 87 126 88 
3 122 76 127 
3 76 123 127 
3 123 128 127 
3 77 128 123 
3 129 128 77 
3 77 78 129 
3 78 130 129 
3 78 79 130 
3 79 131 130 
3 79 89 131 
3 89 90 131 
3 90 132 131 
3 90 80 132 
3 169 132 80 
3 121 133 182 
3 125 134 91 
3 91 134 135 
3 91 135 81 
3 81 135 92 
3 92 135 136 
3 92 136 93 
3 170 93 136 
3 175 85 173 
3 88 126 177 
3 177 137 88 
3 137 94 88 
3 96 138 133 
3 94 137 97 
3 97 137 139 
3 185 97 139 
3 185 98 97 
3 98 185 140 
3 98 140 95 
3 95 140 99 
3 141 99 140 
3 99 142 37 
3 141 142 99 
3 37 142 100 
3 142 143 100 
3 138 96 143 
3 101 145 103 
3 145 144 103 
3 146 145 101 
3 104 146 101 
3 104 105 146 
3 102 147 105 
3 148 147 102 
3 42 190 150 
3 106 107 151 
3 107 191 151 
3 107 108 191 
3 108 192 191 
3 108 152 192 
3 153 152 108 
3 153 154 158 
3 157 103 163 
3 103 144 163 
3 45 190 42 
3 111 151 166 
3 106 151 111 
3 153 158 152 
3 154 159 158 
3 155 159 154 
3 160 159 155 
3 156 160 155 
3 161 160 156 
3 109 161 156 
3 162 161 109 
3 157 162 109 
3 163 162 157 
3 205 113 112 
3 164 114 205 
3 114 113 205 
3 114 206 116 
3 164 206 114 
3 116 206 117 
3 117 206 207 
3 117 207 118 
3 118 207 208 
3 118 208 209 
3 118 209 119 
3 165 120 209 
3 120 119 209 
3 182 190 45 
3 166 125 124 
3 166 124 111 
3 122 179 112 
3 179 205 112 
3 205 179 167 
3 164 205 167 
3 167 168 164 
3 164 168 206 
3 206 168 219 
3 169 120 165 
3 222 171 170 
3 170 172 173 
3 171 172 170 
3 173 172 175 
3 175 176 126 
3 174 176 175 
3 176 178 177 
3 179 122 127 
3 127 128 179 
3 179 128 167 
3 129 167 128 
3 168 167 129 
3 168 129 219 
3 129 130 219 
3 130 220 219 
3 130 131 220 
3 131 132 220 
3 132 180 220 
3 132 181 180 
3 181 132 169 
3 221 134 125 
3 134 221 135 
3 135 221 183 
3 135 183 136 
3 136 183 222 
3 222 170 136 
3 174 175 172 
3 176 177 126 
3 177 178 137 
3 138 182 133 
3 178 238 137 
3 137 238 139 
3 139 238 224 
3 139 184 185 
3 139 224 184 
3 185 184 140 
3 140 184 223 
3 140 223 141 
3 186 187 142 
3 187 188 142 
3 143 188 138 
3 142 141 186 
3 188 143 142 
3 144 145 248 
3 225 145 146 
3 146 105 194 
3 225 146 194 
3 105 147 194 
3 226 194 147 
3 147 148 226 
3 148 227 226 
3 148 149 227 
3 149 228 227 
3 149 150 228 
3 150 189 228 
3 190 189 150 
3 144 193 163 
3 248 193 144 
3 190 236 189 
3 166 151 195 
3 151 191 195 
3 195 191 196 
3 196 191 197 
3 191 192 197 
3 197 192 198 
3 192 152 198 
3 152 158 199 
3 152 199 198 
3 199 158 200 
3 158 159 200 
3 159 160 201 
3 200 159 201 
3 160 161 202 
3 201 160 202 
3 161 162 202 
3 202 162 203 
3 162 163 203 
3 203 163 204 
3 163 193 204 
3 182 236 190 
3 125 166 210 
3 210 166 195 
3 210 195 211 
3 195 196 211 
3 211 196 212 
3 196 197 212 
3 197 198 212 
3 212 198 213 
3 198 199 213 
3 213 199 214 
3 199 200 214 
3 214 200 215 
3 215 200 216 
3 200 201 216 
3 201 202 216 
3 216 202 217 
3 202 203 217 
3 217 203 218 
3 203 204 218 
3 206 219 207 
3 219 220 207 
3 220 180 207 
3 207 180 208 
3 180 181 208 
3 208 181 209 
3 181 165 209 
3 169 165 181 
3 241 236 182 
3 221 125 210 
3 221 210 183 
3 210 211 183 
3 211 212 183 
3 183 212 222 
3 171 222 213 
3 213 222 212 
3 214 171 213 
3 172 171 214 
3 215 172 214 
3 216 172 215 
3 174 172 216 
3 176 174 216 
3 217 176 216 
3 178 176 217 
3 218 178 217 
3 218 238 178 
3 240 242 223 
3 246 241 138 
3 138 241 182 
3 224 223 184 
3 223 242 141 
3 141 242 186 
3 186 242 243 
3 186 243 187 
3 187 243 245 
3 187 245 188 
3 188 245 246 
3 246 138 188 
3 248 145 225 
3 225 229 248 
3 225 230 229 
3 225 194 230 
3 230 226 231 
3 230 194 226 
3 249 231 226 
3 227 249 226 
3 228 249 227 
3 232 249 228 
3 189 232 228 
3 250 232 189 
3 189 236 250 
3 233 204 193 
3 193 248 233 
3 230 234 229 
3 235 234 230 
3 218 204 233 
3 229 234 251 
3 250 241 237 
3 236 241 250 
3 238 218 233 
3 233 239 238 
3 248 239 233 
3 234 240 251 
3 235 240 234 
3 238 239 224 
3 239 251 224 
3 224 251 223 
3 240 223 251 
3 235 242 240 
3 242 253 243 
3 235 253 242 
3 243 253 245 
3 253 244 245 
3 245 247 246 
3 244 247 245 
3 246 247 241 
3 230 231 235 
3 231 249 244 
3 244 249 252 
3 249 232 252 
3 252 232 237 
3 237 232 250 
3 248 229 251 
3 235 231 253 
3 239 248 251 
3 231 244 253 
3 244 252 247 
3 252 237 247 
3 241 247 237 
