ply
format ascii 1.0
comment VCGLIB generated
element vertex 252
property double x
property double y
property double z
element face 500
property list uchar int vertex_indices
end_header
0.315080600976007 -0.2964258955317881 0.01108445351601614 
0.1415579854068651 -0.2670245245993654 -0.01266078987432758 
0.1568559710664453 -0.2802049960192244 0.01611855495337251 
0.1715042826644864 -0.27418892299787 -0.03168127210571245 
0.2016952070362108 -0.2719983515011692 -0.03177967258096995 
0.2138020810812671 -0.3019251590668798 0.003465237444188973 
0.2270315781037181 -0.2801841346278077 0.03240708913343426 
0.3487473983352166 -0.2990073377240984 0.004732863041360615 
0.3032320076225514 -0.2715853697579511 -0.03062586778878237 
0.361455083257722 -0.2780070338185859 0.03273793046899074 
0.3977655093410406 -0.219638395369736 0.03181446629937931 
0.3905113956333173 -0.2632513713762791 0.007060638389226308 
0.3632054385819827 -0.2823641983668057 -0.02620471794345003 
0.114872394609537 -0.2325670421348093 0.01153838274496912 
0.1357263596962097 -0.2183039975795967 0.03213917260708107 
0.220847260559013 -0.2292428742129537 0.02835528999130485 
0.2777783447439168 -0.2286076825924404 0.03147289509546849 
0.2829345998273279 -0.2110439147808614 -0.01557740907881247 
0.3210441651561267 -0.2365600165138699 -0.03141447871987211 
0.3409170867577206 -0.2117575179337385 -0.01221503106388721 
0.3757639954378317 -0.2152108263721386 -0.03387376204624473 
0.3740292701938291 -0.2127525907782905 0.03087166212890492 
0.42680062107031 -0.2130960299229862 0.005454664252842451 
0.09610764866961564 -0.1966537930731788 -0.0159504191732693 
0.1194701994789355 -0.2094545520973352 0.03197175341198706 
0.1746253085767717 -0.1775359977855672 0.0322069885664413 
0.2280219444306648 -0.2018928703135371 -0.008869353567969912 
0.3135702827282947 -0.2115795918711189 0.0170980306324203 
0.3600536032987757 -0.1962518133704376 -0.01600832699608498 
0.3621356944485781 -0.1970704076742545 0.01286530386722667 
0.3959075413233278 -0.1972220250694311 -0.01629470807283004 
0.3343106949409647 -0.140429794310973 -0.01955096162921076 
0.377621510757919 -0.1616221238020675 0.03462462642741968 
0.4208254969610248 -0.1883657028616881 0.008337972889781546 
0.06695576446299265 -0.1403371608139533 -0.009882799249814533 
0.08109469085253795 -0.1725093772866519 0.01576376661725121 
0.09573980072001342 -0.1554963698440857 0.03231729015458643 
0.1965919504614426 -0.1988404259696951 -0.03072642293945948 
0.2072056600204612 -0.1680917779153512 0.0004705029712062913 
0.3405683481227161 -0.1529480661978991 0.01941629552081253 
0.4079130634705594 -0.1641788199870453 -0.03491490290245616 
0.08710172571098365 -0.1540575607669311 -0.03104908439892011 
0.1706837943319413 -0.09369558956839659 -0.03110756493757037 
0.3655061434190682 -0.1396735256315938 -0.03898938775405063 
0.4270556996352213 -0.1277675310322935 0.03692515153914658 
0.4285687700629311 -0.1369897373731166 0.01201645098623348 
0.1739303018932751 -0.100181259784671 0.0320309780948349 
0.3174266652449874 -0.0750605509056135 -0.04744827799693876 
0.3449142382135923 -0.120472107711556 0.05388945421804858 
0.05337197389127053 -0.09781806603843278 0.01210718071256517 
0.07563042249064506 -0.08642863926244283 -0.03035601647674364 
0.07284993827662549 -0.08077434251862595 0.03285480165983672 
0.1912261424631732 -0.09991745859244944 0.006330329277003137 
0.4032649899287263 -0.07382199977973244 -0.06042945035338823 
0.3773804656094452 -0.1164256128071528 0.0566180420060939 
0.4264053416595801 -0.09463080967520168 0.03444341998086426 
-0.429530784261944 -0.08723581336536412 -0.0137119190361129 
-0.4258105072000133 -0.08067597565778668 0.02765607954608152 
-0.3449041422302981 -0.06181654342849537 0.02331171303597769 
-0.2828151470649381 -0.07368962799375743 0.02493696318478593 
-0.03136345587527226 -0.0731724344562719 -0.0207058288509986 
0.04816937336879906 -0.08412434676080316 -0.01998636346188558 
0.03522064304676899 -0.07557159838360049 0.02795119365872266 
0.1869311727077857 -0.06168210116898253 0.03241444407683648 
0.319240633716963 -0.07137246817912471 0.04538339666911465 
0.3631673475365864 -0.08047460687875958 -0.07390370796883722 
0.3679789877869088 -0.08208759429662095 0.07703883712820148 
0.3831817392202888 -0.07758354607189073 -0.009405226963726695 
0.4228624243051536 -0.0745799530407108 0.05179064356626706 
0.4449871297389932 -0.07585629348073641 -0.003627584793489153 
0.4365099100013355 -0.06935886732507246 0.01512058577103598 
-0.4527121221033921 -0.05642961748384252 -0.02516170778088281 
-0.4231709406248788 -0.05690504895027636 -0.05354013420059649 
-0.3765785326250168 -0.0616684467289755 0.008593100468031068 
-0.3504343586752955 -0.06141309970743967 -0.02322964293213861 
-0.1334494128251668 -0.05899666567549166 -0.0349129813300007 
-0.247561545440662 -0.07578843382988515 -0.01483605422790054 
-0.1471276341048539 -0.05841644443706148 0.03804655384644303 
-0.1265803802079842 -0.07077274254824685 -0.0009562417118597385 
-0.07423423579365317 -0.06585922875629813 0.03237209098225453 
-0.0171432245779714 -0.05367659504545864 -0.04506549994253007 
0.04447049384092553 -0.05381587057524055 0.04667313926810974 
0.0948711893377274 -0.04892346388945878 0.04583861661932554 
0.06341441947826759 -0.04532717284611307 -0.04634464982951952 
0.3407081663728632 -0.05040778517113924 -0.0008695662424797732 
0.4119748125535752 -0.05282237914128925 -0.04580023862006692 
-0.4508862454890354 0.01002405284585565 -0.02710026233954371 
-0.4504495067297467 -0.04033791508842714 0.04631841205582447 
-0.4109921318089824 -0.0476698300660327 0.05787134971939034 
-0.3737935655728642 -0.04820755826611924 -0.02906628073444788 
-0.372969062080008 -0.02184263964717467 0.04058586311031046 
-0.3420371947014483 -0.02273517955522669 -0.04383266504787918 
-0.3323850154527825 -0.02972598171258696 0.0449589677784476 
-0.2843952414976466 -0.05090525304757337 -0.04850738682931428 
-0.2721026380390717 -0.0300438652958941 0.05660142869240999 
-0.1499180101431792 -0.02311903666551365 0.05007275345265139 
-0.05176897782203014 -0.05331143852424543 0.04588860817901665 
0.02371797702978887 -0.0201121589580835 -0.04741812459846342 
0.1840550455749451 -0.04730425524934122 -0.03953209769181525 
0.1795022817539014 -0.02019929703855628 -0.01798695950245969 
0.3914524838565803 -0.04649058588099457 0.05249728119773362 
0.3505069382250705 -0.05036516082796032 -0.04835332614344949 
0.3998156791384129 -0.04567400101467418 -0.006561999066520875 
0.4284025917047062 -0.05110326856576787 0.01471853524987314 
-0.4218403384799336 -0.002456270175220853 -0.05959047026442287 
-0.3786309931152202 -0.01385040364306286 -0.03818157113770104 
-0.1333105715253327 -0.02685341904242015 -0.04820938161919198 
0.1580308595727542 -0.04449508018623331 0.04536443976535747 
0.3487420790186825 -0.02162419320794563 -0.05324227136188812 
0.3276827875116446 -0.01819813577019365 -0.04630302883262515 
0.3209118506968681 -0.02280390548400408 0.03813765511057554 
0.3225674237471574 -0.01253918958400177 0.06012696908157694 
0.4029238034434448 -0.01572444795879969 0.04455773799625088 
-0.3705245873633751 0.009718919718001293 -0.01261469356861089 
-0.3166766101997197 0.01691134901496018 -0.024497602497278 
-0.2905108154058418 0.0078565181128119 -0.04366144860010601 
-0.2804317892427871 0.01266337266820143 0.03850252924699538 
-0.2271351692712223 -0.005767119877042866 -0.04808538845665235 
-0.1614025861620922 0.02402472102347683 -0.03449810835513845 
-0.1279454586005916 0.001251307702201733 -0.04723400367794207 
-0.007422561696357898 0.008943624159686334 -0.05284690615630081 
0.04632474343679342 -0.01204044221044731 0.05124213876346325 
0.1844948985277312 -0.004817462320530124 0.02640912245312616 
0.3120686393191632 0.004997449127392031 -0.04955768001772008 
0.3053949681752229 0.005134487612935907 0.0291069665913085 
0.3593456086777726 0.01489226246394233 0.07627526323108691 
0.414494594137198 0.00192497762734015 -0.04517230300944359 
0.4391454978310155 0.01391282780232268 -0.006671041941750363 
-0.4464117222721961 0.01807717390222928 0.02550046675515176 
-0.4212082283270389 0.01553768529413475 0.04770408604553845 
-0.4077430964522091 0.03250346393863814 -0.007268758460192919 
-0.3681718364320299 0.002657339821745069 0.03500104709792975 
-0.3097394009027391 0.01808092394460535 0.01703581307420796 
-0.2467088870085426 0.02028794617238282 0.003575964416193144 
-0.2290220009156641 0.01637452663658815 -0.02819332742496686 
-0.1990832791571752 0.02413128291725009 0.02364418639827631 
-0.1451366924775386 0.02388389188614232 0.03314037361125676 
-0.07613876075737321 0.0246719753784351 0.044047216597095 
-0.01072751842815161 0.03371274665861154 -0.04576678926652988 
-0.0343109477467609 0.01334981140555442 0.05181238973855933 
0.06857918812389067 0.04535375217616766 0.04264941500200612 
0.06498089270258779 0.01457099289074229 -0.04941305921157921 
0.1496069570834391 0.01630715450146475 -0.04276897055508799 
0.1556603075935994 0.02945948054810692 0.04235271556471753 
0.312315633367278 0.06628025293386409 -0.01197746960284812 
0.3991850820341767 0.01465117119519732 0.06393985374435904 
-0.2152505465787101 0.03001156265582557 -0.01407718265425529 
-0.1886300852395707 0.04538118640850682 0.0212024946019845 
-0.1724491613188656 0.05401427356392325 0.04129616549738967 
-0.1283647495335264 0.03012812385915492 -0.02868057710541309 
0.05810585480687954 0.04915858840036146 -0.04208778487060327 
0.1480956298925248 0.04736851135340849 -0.02597074381227883 
0.1253814060179431 0.04744496336277405 0.03290263958656525 
0.3555404315906836 0.01451907748906357 -0.06990940610709183 
0.4026999598904815 0.04194101947404359 -0.03874303419432882 
0.3618544021606635 0.04826898026658235 -0.01211331444408444 
0.4110543170147946 0.04355318394747416 0.04080307015988223 
-0.4015295874134889 0.07355998607092251 -0.01813424417096432 
-0.3568626418344476 0.06128930854996315 0.03937614805902569 
-0.3555689505128188 0.06239702036566496 -0.04016294015917083 
-0.2802478280473627 0.06397155788418087 -0.03333308574249087 
-0.3098745641978236 0.06154033186906294 0.03491566130284204 
-0.2953396476570033 0.05465443420248588 -0.002646779019164518 
-0.2263942398453578 0.04469573706147897 0.003772193834327872 
-0.2658814277060256 0.06356834319033884 0.03264029033983107 
-0.1462993024626119 0.06611478682286219 -0.0481037065014874 
-0.1999064792199241 0.0687917482702718 0.04651630281391246 
-0.1197374180377979 0.05792614905543137 0.04923075772071189 
-0.09989708542386089 0.08086626922307923 -0.04706656924580079 
-0.09520486506758075 0.03840322433982456 -0.04407763394806018 
-0.005043256222718607 0.0610983079553906 0.04542029102662958 
0.09612386158487499 0.09092748312583296 0.04725782181960141 
0.09636351483577932 0.08328131534517562 -0.04773728390391793 
0.09389649403272761 0.04388339068767751 0.04517317931350201 
0.1578694479773026 0.04861374659315694 0.01698686326941882 
0.3262335252778779 0.03927636488885049 -0.03940654715435175 
0.3364643505410169 0.0903676308610077 -0.0253692481356375 
0.3559130869792394 0.07070902809466546 -0.02842098088569166 
0.4027304899790419 0.08214932179395092 -0.01560700056232422 
-0.4279091246135914 0.09350336131281575 -0.01301151167497301 
-0.3515717286312458 0.07155250086419838 -0.00221391751187452 
-0.3740842952515815 0.08680485173601665 0.05580671466369208 
-0.3076239276669246 0.09635105647987662 -0.04668505876851772 
-0.1312238952203469 0.1045062994149218 0.04755585784470033 
-0.03420596506407132 0.09678476072430055 -0.04154965854729623 
-0.07439594647495658 0.07682832689342611 0.04490407956354809 
0.1208111141568329 0.07020558035071252 0.040796033204858 
0.3133281509275617 0.04828509436881289 0.04069977635643548 
0.3530376683234334 0.0683188826900037 0.04705733911476952 
-0.4245636263103585 0.08928405720707959 0.03257584438293236 
-0.3629839461771058 0.1249212645958977 0.04519931491881995 
-0.2402766767699772 0.100140493112129 -0.05038580193070121 
-0.3019705478368536 0.1133661436156918 0.04712151908196545 
-0.2402626237820417 0.09929406542396661 0.0524724544123954 
-0.1432849980006364 0.1130772844814702 -0.04074048618594429 
-0.05692806141408466 0.1128189102186405 0.0340972807596456 
0.07305750183243459 0.1172673129280041 0.03573560793815553 
0.06031747003323935 0.1112834009303991 -0.03856741420795246 
0.1643061611283906 0.08972132499784641 -0.02737769184459292 
0.1323415026729342 0.1170610734736746 0.03441556885857174 
0.1984654845128396 0.1352760986472855 0.001608045002093319 
0.3253012389073345 0.1186614141151688 0.004551928009727286 
-0.4086191157652204 0.126268446513391 0.04509285538285319 
-0.3995545830745922 0.1474589582858979 -0.0397638228175619 
-0.3764201821630812 0.08644160223692712 -0.05608610581135386 
-0.306840647678252 0.1241820885668603 -0.04749267240530873 
-0.2711397726470968 0.1332685414229866 0.04011499868161034 
-0.1895987440713988 0.1249979944864565 0.03140804084003834 
-0.04788636523083243 0.1137674037448583 -0.03152269733924305 
-0.1214168276426865 0.1234925536671495 0.00422745619602881 
-0.001607508242459048 0.1272281849554371 0.0001555273836815172 
0.05622844733158569 0.1281924744467673 -0.005743621773308913 
0.09187727964751852 0.1281012172460887 -0.03195634676400924 
0.1837611837160083 0.1445440534620305 -0.03091787847042476 
0.1763071402855858 0.1406151365036239 0.0307725019633265 
0.3487558644827961 0.1149756921753873 0.02647137566765325 
0.3978190260424702 0.1373724928446548 0.009664059309307303 
-0.406695218266632 0.1454898578153229 0.009189126980179289 
-0.4084758641189793 0.1514243668874282 0.032833179995695 
-0.2700368184550727 0.1432395940608833 0.002401871213615 
-0.257274107743151 0.1360327474306598 -0.03359413987550167 
0.1019445083585669 0.1963717583200903 0.009294460782305371 
0.1019830780577486 0.1651867106857132 0.03083062112191219 
0.317832480118667 0.1406267832596736 -0.01824549145722794 
0.2989757146272538 0.1399809862417558 0.01120713335748427 
0.3656454268027518 0.1241833690812067 -0.02726502445504774 
-0.3290021238422381 0.1455934784620546 0.02021831684395727 
-0.3748893292345789 0.1564278606595927 -0.03173040424080771 
0.1029236299766872 0.1743372713774921 -0.03067694364354672 
0.08716456958515718 0.1739985676418508 -0.01166655941048493 
0.2233001433090998 0.1629832322747014 0.03219203095038863 
0.2601699940317895 0.1523465118625972 -0.02893490209604953 
0.3117832053080069 0.1601174953198182 0.03069064175404081 
0.3189439699352854 0.1818960012681056 -0.02744401927721941 
0.3879244791200365 0.1081605339195916 0.03058558058463975 
0.1490666907110254 0.2072311253748998 0.03178548039434798 
0.3005228723376895 0.18861912032879 0.03092481535622142 
0.3919838953108267 0.1786532429764272 -0.01847307083352624 
0.3834615605823359 0.185825992300626 0.02539984475877382 
0.1830181642885412 0.2052427964163537 -0.02970709722685697 
0.2486669481352946 0.2051185797802869 -0.03132260835023332 
0.2660458715296488 0.2075218353118862 0.031356890990194 
0.2921008248816593 0.2188544613278024 -0.0169489415349246 
0.3471707148155132 0.2089980258546507 -0.02782563700888184 
0.1266745472627176 0.2118626511206328 -0.01138773306812164 
0.18655724284247 0.2288678327247959 0.01134303268029065 
0.1938525774363881 0.2295165654006174 -0.008706305611194039 
0.2576786428050471 0.2356118257670662 0.002662934008573424 
0.3006543116196029 0.21236639875486 0.01144628038217726 
0.3197506678626161 0.2312251578385472 -0.002609729416796405 
0.3265373209700398 0.21170647339897 0.03266362001027467 
0.3727438760237839 0.2154019806211984 0.007767651343350144 
3 1 3 5 
3 5 2 1 
3 6 2 5 
3 3 4 5 
3 8 5 4 
3 0 5 8 
3 0 6 5 
3 8 7 0 
3 7 9 0 
3 0 9 6 
3 11 9 7 
3 11 7 12 
3 8 4 18 
3 12 7 8 
3 9 16 6 
3 10 9 11 
3 2 13 1 
3 14 2 6 
3 16 15 6 
3 12 8 18 
3 21 16 9 
3 9 10 21 
3 11 22 10 
3 13 14 24 
3 13 2 14 
3 14 6 25 
3 15 25 6 
3 37 18 4 
3 18 37 17 
3 17 19 18 
3 16 21 27 
3 18 20 12 
3 18 19 20 
3 12 20 11 
3 20 22 11 
3 13 23 1 
3 35 23 13 
3 13 24 35 
3 3 23 4 
3 3 1 23 
3 24 14 25 
3 38 25 15 
3 37 26 17 
3 16 26 15 
3 17 26 27 
3 27 26 16 
3 19 17 27 
3 20 19 28 
3 28 19 29 
3 19 27 29 
3 29 27 21 
3 28 30 20 
3 20 30 22 
3 22 30 33 
3 22 33 10 
3 41 23 34 
3 23 35 34 
3 36 35 24 
3 4 23 41 
3 25 36 24 
3 37 38 26 
3 26 38 15 
3 28 29 31 
3 29 21 32 
3 40 30 28 
3 33 32 10 
3 10 32 21 
3 30 40 33 
3 4 41 37 
3 25 46 36 
3 28 31 43 
3 39 31 29 
3 39 29 32 
3 40 28 43 
3 33 40 45 
3 35 49 34 
3 42 37 41 
3 52 46 25 
3 52 25 38 
3 48 39 32 
3 48 32 54 
3 33 44 32 
3 32 44 54 
3 33 45 44 
3 35 51 49 
3 51 35 36 
3 42 41 50 
3 46 51 36 
3 37 42 38 
3 38 42 52 
3 39 64 31 
3 39 48 64 
3 43 31 47 
3 61 34 49 
3 61 50 34 
3 50 41 34 
3 48 66 64 
3 43 47 65 
3 53 43 65 
3 54 66 48 
3 40 43 53 
3 44 55 54 
3 45 40 69 
3 45 69 44 
3 44 69 55 
3 72 56 71 
3 74 76 58 
3 76 59 58 
3 60 80 61 
3 61 62 60 
3 62 61 49 
3 62 49 51 
3 98 42 50 
3 63 46 52 
3 64 47 31 
3 55 66 54 
3 68 66 55 
3 53 69 40 
3 69 70 55 
3 68 55 70 
3 87 71 56 
3 56 57 87 
3 56 72 89 
3 56 89 73 
3 56 73 57 
3 73 88 57 
3 89 74 73 
3 74 58 73 
3 74 93 76 
3 93 75 76 
3 78 59 76 
3 75 78 76 
3 94 59 77 
3 78 77 59 
3 78 79 77 
3 75 80 60 
3 60 78 75 
3 77 79 96 
3 78 60 79 
3 62 79 60 
3 79 62 81 
3 96 79 81 
3 80 83 61 
3 62 51 81 
3 50 61 83 
3 51 82 81 
3 98 50 83 
3 46 107 51 
3 107 82 51 
3 63 107 46 
3 42 98 52 
3 52 98 63 
3 65 47 101 
3 84 101 47 
3 64 84 47 
3 64 66 100 
3 101 67 102 
3 101 84 67 
3 84 102 67 
3 53 65 85 
3 103 100 68 
3 68 100 66 
3 69 53 85 
3 69 85 70 
3 70 85 103 
3 103 68 70 
3 71 87 86 
3 72 71 104 
3 88 87 57 
3 73 90 88 
3 74 89 91 
3 58 90 73 
3 90 58 92 
3 93 74 91 
3 92 59 94 
3 92 58 59 
3 106 75 93 
3 77 95 94 
3 80 75 106 
3 96 95 77 
3 81 139 96 
3 83 80 97 
3 121 139 81 
3 121 81 82 
3 98 83 142 
3 63 98 99 
3 99 107 63 
3 84 64 100 
3 102 84 100 
3 85 65 101 
3 85 101 102 
3 85 102 103 
3 102 100 103 
3 71 86 104 
3 88 129 87 
3 105 72 104 
3 89 72 105 
3 91 89 105 
3 92 131 90 
3 93 91 115 
3 117 93 115 
3 106 93 117 
3 80 106 119 
3 139 95 96 
3 97 80 119 
3 97 141 83 
3 107 143 82 
3 99 98 142 
3 99 122 107 
3 110 112 111 
3 108 112 109 
3 112 110 109 
3 112 108 126 
3 87 128 86 
3 128 87 129 
3 90 129 88 
3 131 129 90 
3 113 114 105 
3 105 114 91 
3 132 131 92 
3 115 91 114 
3 92 116 132 
3 94 116 92 
3 95 135 94 
3 135 116 94 
3 106 117 118 
3 119 106 118 
3 137 95 139 
3 97 119 120 
3 120 141 97 
3 82 173 121 
3 142 83 141 
3 122 143 107 
3 109 110 123 
3 123 110 124 
3 110 111 124 
3 109 123 108 
3 108 123 153 
3 111 112 125 
3 108 153 126 
3 112 145 125 
3 127 145 112 
3 127 112 126 
3 86 130 104 
3 105 104 130 
3 113 105 130 
3 113 130 131 
3 129 131 130 
3 114 113 132 
3 113 131 132 
3 114 132 133 
3 134 115 133 
3 115 114 133 
3 133 132 116 
3 117 115 134 
3 146 134 133 
3 135 146 133 
3 133 116 135 
3 118 117 134 
3 146 118 134 
3 136 135 95 
3 149 119 118 
3 169 119 149 
3 95 137 136 
3 119 169 120 
3 138 120 169 
3 139 121 140 
3 173 140 121 
3 143 152 82 
3 152 173 82 
3 142 151 99 
3 99 151 122 
3 175 123 144 
3 123 124 144 
3 124 187 144 
3 124 111 187 
3 175 153 123 
3 125 187 111 
3 126 153 154 
3 154 127 126 
3 86 128 130 
3 129 130 128 
3 163 146 135 
3 163 135 147 
3 118 146 165 
3 148 135 136 
3 147 135 148 
3 149 118 165 
3 167 148 136 
3 169 149 168 
3 137 167 136 
3 185 167 137 
3 170 137 139 
3 140 170 139 
3 120 138 141 
3 138 150 141 
3 142 141 151 
3 151 141 150 
3 152 143 174 
3 151 174 122 
3 174 143 122 
3 155 153 175 
3 188 187 125 
3 153 155 154 
3 145 188 125 
3 145 156 188 
3 127 154 178 
3 178 156 127 
3 145 127 156 
3 180 157 159 
3 158 180 161 
3 160 162 159 
3 159 162 180 
3 162 161 180 
3 162 164 161 
3 160 163 162 
3 163 164 162 
3 163 160 146 
3 147 164 163 
3 148 164 147 
3 164 148 166 
3 160 165 146 
3 166 148 167 
3 168 149 165 
3 138 169 184 
3 150 138 184 
3 171 170 140 
3 151 150 172 
3 173 171 140 
3 198 151 172 
3 152 186 173 
3 152 174 186 
3 176 175 144 
3 177 155 175 
3 176 177 175 
3 154 155 177 
3 156 178 216 
3 179 157 189 
3 179 204 157 
3 180 158 157 
3 157 158 189 
3 189 158 181 
3 157 204 159 
3 159 204 182 
3 182 160 159 
3 181 158 192 
3 158 161 192 
3 164 193 161 
3 191 160 182 
3 166 193 164 
3 165 160 191 
3 167 183 166 
3 183 193 166 
3 185 183 167 
3 169 168 184 
3 137 170 185 
3 150 184 197 
3 172 150 197 
3 186 171 173 
3 186 174 199 
3 151 198 174 
3 174 198 200 
3 187 201 144 
3 187 215 201 
3 215 187 188 
3 154 177 178 
3 156 234 188 
3 216 234 156 
3 181 190 189 
3 190 202 189 
3 205 182 204 
3 193 192 161 
3 191 182 205 
3 194 165 191 
3 168 165 194 
3 184 168 194 
3 195 183 185 
3 208 184 194 
3 170 195 185 
3 196 195 170 
3 171 196 170 
3 186 199 171 
3 199 174 214 
3 200 214 174 
3 144 201 176 
3 177 176 225 
3 178 177 225 
3 234 215 188 
3 216 178 225 
3 179 217 203 
3 179 189 217 
3 204 179 203 
3 203 205 204 
3 192 190 181 
3 206 190 192 
3 220 191 205 
3 194 191 220 
3 193 207 192 
3 207 206 192 
3 207 209 219 
3 183 207 193 
3 208 194 209 
3 209 207 195 
3 195 207 183 
3 208 209 210 
3 210 209 195 
3 210 195 196 
3 197 184 208 
3 197 208 210 
3 211 197 210 
3 211 210 196 
3 211 212 197 
3 197 212 172 
3 198 172 212 
3 199 196 171 
3 198 212 213 
3 213 200 198 
3 201 223 176 
3 225 176 223 
3 218 217 189 
3 189 202 218 
3 190 218 202 
3 205 203 227 
3 218 226 217 
3 226 218 190 
3 227 220 205 
3 206 226 190 
3 219 220 227 
3 219 226 206 
3 194 220 209 
3 220 219 209 
3 219 206 207 
3 211 229 212 
3 211 221 229 
3 211 196 221 
3 221 196 222 
3 199 222 196 
3 213 212 228 
3 214 222 199 
3 214 200 230 
3 213 231 200 
3 223 224 231 
3 231 224 200 
3 200 224 230 
3 230 224 232 
3 201 224 223 
3 224 201 232 
3 201 215 232 
3 232 215 234 
3 225 223 233 
3 203 217 227 
3 227 217 226 
3 219 227 226 
3 229 228 212 
3 222 214 235 
3 213 240 231 
3 233 223 231 
3 225 233 243 
3 243 237 225 
3 225 237 216 
3 216 237 238 
3 238 234 216 
3 221 222 235 
3 230 235 214 
3 239 213 228 
3 240 213 239 
3 232 241 230 
3 236 232 250 
3 250 232 234 
3 238 250 234 
3 244 228 229 
3 229 221 244 
3 228 244 239 
3 235 230 241 
3 240 242 231 
3 233 231 242 
3 236 241 232 
3 236 248 241 
3 242 243 233 
3 248 236 250 
3 243 251 237 
3 238 251 250 
3 238 237 251 
3 246 239 244 
3 246 244 245 
3 244 221 245 
3 245 221 235 
3 239 246 240 
3 247 246 245 
3 247 245 241 
3 241 245 235 
3 240 246 247 
3 240 247 242 
3 242 247 248 
3 241 248 247 
3 249 243 242 
3 242 248 249 
3 248 250 249 
3 243 249 251 
3 251 249 250 
