ply
format ascii 1.0
comment VCGLIB generated
element vertex 256
property double x
property double y
property double z
element face 500
property list uchar int vertex_indices
end_header
0.07971843740632152 -0.1179102463042338 -0.007331651908223639 
0.1526554693760833 -0.122344875210057 0.03233721858829575 
0.2277559176821753 -0.1249355946065887 0.03853820293790501 
0.2125727698423965 -0.1245915605459377 -0.03582324282952649 
-0.4248695027528948 -0.1034787206542532 -0.02331643509983122 
-0.4238911279664764 -0.1229223048230561 0.01155091099084198 
-0.4236248050632941 -0.1016339262837024 0.03819191948323563 
-0.3902572667425918 -0.108894175625736 -0.02424081869874994 
0.0003768026676586103 -0.1163910786732101 0.01159012331552172 
-0.022119014924415 -0.1022657352481851 -0.02401806306455209 
0.05137192067138226 -0.1109264790411243 -0.03057298796623949 
0.0751722268462095 -0.107232994768292 0.04960669096136812 
0.09610207837123502 -0.1052618220078887 -0.05128944421997199 
0.2205287581510032 -0.1021407070216517 -0.0544090074487776 
0.258860500125719 -0.1242452724963096 -0.01632210211476366 
0.3005556318609849 -0.1130065990187447 -0.0409049353176483 
0.3393290063545116 -0.1054308023685175 -0.03774750259549026 
0.3899273532969208 -0.1038813085065171 -0.03610066788659973 
0.4555526761730173 -0.1030612042635416 0.03791682452559584 
0.3319770047248754 -0.1084655720949451 0.04363948853410272 
0.4542664680203611 -0.1032954719544161 -0.02037560379775246 
-0.446239671764763 -0.09943391375513112 0.01102321217124901 
-0.3647627893219595 -0.1024417135247142 0.01899618881651816 
-0.1774991690915007 -0.08347217694065096 0.02281900346738416 
-0.178361974553329 -0.09579573257933605 -0.0009440576841254538 
-0.1619048362449085 -0.09290873766098852 -0.02429195014615984 
-0.1324704018544594 -0.09896376565157763 0.01958904623748293 
-0.08352157521188595 -0.09806495131078753 -0.01677213391074535 
-0.06874350456256247 -0.08000702304906089 -0.03302360040816869 
-0.04066882417552909 -0.09989921568932278 0.01882232346911834 
-0.1316421725674156 -0.08055221245675388 0.04183633176680775 
-0.01001211569407632 -0.08515691353586455 -0.03320459309255516 
-0.02355365230918649 -0.08249246905085637 0.04072245312658676 
-0.00138888100257106 -0.09945451141199833 0.04114877100914033 
0.08534291261760144 -0.07026827350724474 -0.05493880781211478 
0.1425105156156835 -0.08388958227047788 0.002080323175649323 
0.1950930304784844 -0.1021141465262965 0.06092164370824234 
0.2604847690209493 -0.08331222466134676 0.0224879461309377 
0.2667110763322606 -0.09795773376730138 0.06129856090910746 
0.2619154452489619 -0.08128983697082602 -0.008358197465519621 
0.2539911338758584 -0.07958451467588123 -0.05404153847957778 
0.335261756775723 -0.0829476398209386 -0.05511941213843749 
0.3809239695149302 -0.07045530439797512 0.06342290850686746 
0.4485920281083852 -0.08161922530827978 0.06065141854877141 
0.4580454373748074 -0.09539250751966817 -0.04169123759253424 
0.4947433422935015 -0.07417014827001288 -0.01599109751859043 
0.4826062817321611 -0.0887766456277484 0.04079326054001566 
-0.4850884633896278 -0.06221162912488182 -0.01613722403887142 
-0.4279250426710081 -0.07544872729086077 -0.02744023045395876 
-0.3230041516541131 -0.05705981064184069 -0.03124375222454906 
-0.3738448185898538 -0.08603882267551446 0.04018483100090799 
-0.3064576916728701 -0.07006871843008496 0.02402660315015199 
-0.2544262869856512 -0.04244874336086785 0.0002972785151456622 
-0.1554467302949095 -0.07943902123553981 -0.03266697250790678 
0.09094384682233964 -0.07761275625349655 0.06227922205765052 
0.1954528069857471 -0.07369894924383129 0.00477851691045978 
0.2555000435450028 -0.06094232485264135 -0.05506145238564285 
0.4471966480254283 -0.06800234270122087 -0.05743307607791986 
0.4795620036372601 -0.03354560715135937 0.04564612036335128 
0.4868131814568492 -0.0595782256911396 -0.04861405219064167 
0.4939475045682888 -0.05008823805904731 0.02066936946292835 
-0.4730555016724554 -0.05571436198467872 0.02202169875104836 
-0.4634131890534389 -0.05393967201396699 -0.02376640019435534 
-0.4121770331843138 -0.05307580793320505 0.01326938536585419 
-0.2868097668822558 -0.02221476953949282 -0.01572692161902708 
-0.3148208101092629 -0.07178210165382364 -0.007791269043928611 
-0.290532121481881 -0.03987201306849124 0.04124283082348561 
-0.2322528546087154 -0.05322604301746067 -0.02304297354905701 
-0.2472368186355655 -0.0400110892764165 0.0207026327372075 
-0.2323084405189298 -0.03994860101870255 0.02479098816719729 
-0.188367959425657 -0.05085826051037429 -0.03351870173478212 
-0.09935646816566278 -0.0380206578053813 -0.03339109734702379 
-0.08456198007884337 -0.04077893898282935 0.04081516203090624 
-0.01264695943433222 -0.03721060369496559 -0.03075777455167268 
0.09368235384905176 -0.0437922456267679 0.05943449311471413 
0.06652777237264457 -0.03937536721531718 -0.04619335223075831 
0.171978430667348 -0.05009926266422331 0.058873382875863 
0.1475842874787259 -0.03800218612516685 -0.04543751499827704 
0.248623387041261 -0.04145798169706437 0.05450513809819336 
0.3174950778252818 -0.06166980851321642 0.06202316931388416 
-0.4794880270840464 -0.03399087751288826 -0.03465937271069558 
-0.4254274846309638 -0.01725461777285274 0.017771221101744 
-0.3836261433043848 -0.03871275911897435 -0.01843682249324027 
-0.3770595719366889 -0.04065400658896712 0.03260933804487352 
-0.3882422907700697 -0.07120096739146625 -0.03406810967059 
-0.2309639294684083 -0.0288626787101769 -0.03361869554526333 
-0.1889922244422092 -0.01771074720865104 -0.02525697812471261 
-0.1839228201311341 -0.01971051465737248 0.02359730302499473 
-0.1590133373889525 -0.01745430579574932 -0.03369390717070953 
-0.1097475223161538 -0.01440224797027971 -0.03143949855002286 
-0.07658342306541502 -0.01875533330169685 0.01757430857702718 
-0.02023851452629294 -0.01911752212506613 0.01047985845073737 
-0.003219261026234523 -0.03934868671241801 0.04050563316656391 
0.05518051722778973 -0.01998067855196728 -0.02034197940244787 
0.06023383279839858 -0.02099417388711611 0.03532334021958623 
0.1321562430483077 -0.03084203642693229 0.03408328282494565 
0.145593410289895 -0.02887844425754967 -0.01521519347919424 
0.2448288419902151 -0.02779385941329018 -0.01863194713934603 
0.1985310516019627 -0.03059131270198433 0.03944982163546856 
0.3110168474944576 -0.03645335616474076 -0.04643061189579883 
0.3579890663874299 -0.02937334629026904 0.03920859485540332 
0.3489451588204221 -0.02619167753023791 -0.003506751191227894 
0.3857858161269982 -0.05052346638045368 -0.05302886264074572 
0.3771202952464333 -0.02941046693890505 -0.04022556600576141 
0.3905339451784159 -0.03908134574097407 0.05180957050297898 
0.4466928780832067 -0.03668147989813988 -0.04685553847819268 
0.4548603731586361 -0.02520033262741663 -0.02263513700629535 
0.4570640393332596 -0.02657038607280558 0.03668300373778753 
0.4839913957553404 -0.03689219899972961 -0.02550731950530432 
-0.5046059432036144 -0.03841892718614896 -0.02063635318329316 
-0.4937155429536721 -0.02848339802462574 0.02934970610265257 
-0.459728790100481 -0.01208848216770302 0.04169050307369199 
-0.3636854484806056 -0.01024671030921641 -0.02433454901993035 
-0.3468722875786369 0.02011922384765384 0.01363391171898289 
-0.3342534347186836 0.00387439103240604 0.04002240286747775 
-0.3247415850826212 -0.01114867410963398 -0.03458329968809315 
-0.2546922020691559 0.04266201129197746 -0.03961285749113774 
-0.2101661081432287 0.003906588388043246 -0.02684037215643316 
-0.188137811042996 0.03306558887266564 0.04090039421803491 
-0.1702320515693757 0.008952970456978888 -0.03379876453985884 
-0.1494301709132463 0.0236820909372961 0.03165447809223949 
-0.1147360851531499 -0.01272970005247366 0.02514563272207374 
-0.08585558752598459 -0.0171611633076551 -0.02254476040265239 
-0.08204288862589081 -0.01261314360367065 -0.003189510341593477 
-0.4694280492752243 0.04850989081457421 0.01526342658384789 
-0.4102515639994767 0.01482388088253098 -0.02105348340234429 
-0.4038421499850953 0.0115033938864764 0.01067433940705819 
-0.41308265992591 0.0363210890561641 0.0410444433504839 
-0.3047316524339679 0.02531619221357004 -0.03055824700592527 
-0.1390538299638617 0.02145620335916922 -0.02647773996438984 
-0.3651193899899933 0.05366283333906116 0.03191451215423832 
-0.3620207134325756 0.04598385684574181 -0.02617814617257322 
-0.3476683671001304 0.03674924303067133 0.02133875424552636 
-0.2854225219116512 0.03346449699473878 0.04027789805926844 
-0.2524263576661483 0.08306226599587897 0.04142678689171955 
-0.1887989666713709 0.03552599574459075 -0.03325235530939639 
-0.1606786190368223 0.04108782062560765 -0.02309170434324141 
-0.1173410814103422 0.03045505632050502 -0.02150175453767211 
-0.1240428255172474 0.02042132158937477 0.01694781703290437 
-0.1167227678876556 0.04154359548041297 -0.03735099889914262 
-0.08538736593778114 0.02988452644257629 0.01626871904455204 
-0.1133145048286764 0.04051415445782856 0.04108794328157961 
-0.03637228486648805 0.02960853213220694 -0.01424066409188376 
0.01961482028758647 0.02555896048333998 0.01229397440174551 
0.05510643158093054 0.03222143352793 -0.0524085018334115 
0.02031705360737168 0.02565265184708176 -0.02182612793692189 
0.06081114274030437 0.03501067511717494 0.04556945815485046 
0.1141360131044419 0.03531318526737317 0.008216810591917933 
0.1330783477241297 0.04034598816053758 0.03737294198052205 
0.1336936461742385 0.03863491620734115 -0.04501693580269412 
0.2008830804497766 0.04016800896445734 -0.03847818438851863 
0.2292293999588039 0.03879449585700897 0.03792986445882299 
0.2887141818235511 0.03448414027980855 0.01339561383593843 
0.2935514741469744 0.04095618799128872 -0.0440857836224406 
0.3621934765955023 0.03872902933223893 0.0276655679082578 
0.3692880404420052 0.03567648324499215 -0.03284416397444324 
0.4509619686097035 0.03643476563900279 0.03346056033709839 
0.4431446999002673 0.03301686962093122 -0.04428904942296401 
0.4851656427607808 0.05446541882936961 -0.002773431785880898 
-0.4313201056969804 0.03074867884140451 -0.03513052480266493 
-0.3228515525163536 0.02580204618791321 -0.03212754294931316 
-0.3133731427261996 0.06580396752041222 0.02741370955964131 
-0.1426637320842761 0.08258524369187434 0.04132604263587404 
-0.08680606476825956 0.04307827682259151 0.03996459679310246 
-0.02701863962077954 0.0454337791426627 -0.03979736496112423 
0.06213892334675421 0.06054763802186799 -0.06494335190531793 
0.05581257019063527 0.09014770302426033 0.05422910542692191 
0.1264267923452502 0.06244357285267121 0.05149526034029263 
0.2128375612047708 0.06268751693545857 -0.06418272861579331 
0.2919623856033447 0.0614555142362813 -0.06312972654106484 
0.2923652158072465 0.05040405035164933 0.03610966886721635 
0.3709980912600203 0.06350326118652068 0.0510175851873083 
0.3928320914643346 0.05857853846572057 -0.06439094320512087 
0.4798326204842389 0.05687565922677503 -0.05424706597367761 
-0.464112612020363 0.04624506473315425 -0.02482670296569782 
-0.4435164214565873 0.05911424456231246 0.0377964266444319 
-0.3248358810687265 0.08388955654511827 0.02698894331423528 
-0.2836324766240395 0.06442548219223151 -0.02831366409369846 
-0.2586963453138486 0.09288284557877111 -0.03329904635741306 
-0.1897963772443441 0.0789912289421613 -0.01800326945524816 
-0.1593957784201743 0.07533569284646091 -0.04507222505404022 
-0.1151220268961056 0.07596427601644602 -0.04439287357712289 
-0.02916354211692901 0.08861362269439937 0.04075685800674431 
-0.0172962814552919 0.04847601482438869 0.04061541830842757 
0.06800244588618347 0.09942236862056719 -0.0647033357733187 
0.07392305199426501 0.07529700924233876 -0.006450821258054054 
0.1337484344985968 0.08085683105898957 0.007469189953754262 
0.0736029331940472 0.08004911599884292 -0.02526742418409275 
0.1776486523296122 0.08421856814155132 -0.02924766670330708 
0.2337078245955477 0.07652910866442476 -0.001403274042677679 
0.23215357952995 0.09871721007929191 -0.06445035555577819 
0.2191278686245947 0.08309085781199918 -0.02536545273769853 
0.2918807216759861 0.08213526334141295 -0.00269061099699282 
0.2543625165985414 0.0686846480857578 0.05289510879434048 
0.3204455363789778 0.08443318410594933 0.05020348566070962 
0.3874100212240618 0.08221549165525074 0.05269083767542812 
0.4466086735608331 0.07791499478466535 -0.06218536585390319 
0.4556055452889499 0.07020511214342325 0.05416463355186438 
0.4834341020626435 0.0727733502000428 0.03411132702126547 
-0.3995226950494243 0.1161854686901417 -0.02445630061835143 
-0.3721112992330916 0.1141266541779306 -0.03343213808760187 
-0.4369574419990322 0.08874440445541869 0.01759394351245281 
-0.4016133144280631 0.09558877175902336 0.03856738751489425 
-0.3591496853409107 0.09110922433273599 0.04140473988620833 
-0.2967570344965836 0.1207114340572562 -0.03359772204455601 
-0.1974581028525199 0.08289628797237335 0.04106725380266901 
-0.180726098470453 0.1046886803613593 0.0220856115627793 
-0.1643217915254589 0.1028701196029566 -0.02094263722392803 
-0.05566841377801936 0.1053992038392675 -0.03118507599980365 
0.03698080783308206 0.1132476167258339 0.04302748162630799 
0.000128502338268155 0.1068093464409115 -0.04511564511067236 
0.03944721284028491 0.08101741073792218 -0.001202329093551085 
0.0757729184166952 0.08803700593070776 0.001127874413673301 
0.1442917045793887 0.08868562075984381 -0.006857762877102949 
0.1826784032669584 0.1032232732964885 -0.06375374731618473 
0.1945791048582744 0.09048849286707532 -0.001440409355170336 
0.2013614383181321 0.1003837621162877 0.05260879603704309 
0.2376544187879065 0.1293476792159665 -0.04754026993662138 
0.2328394215661281 0.0874612845266355 0.002763609794513924 
0.3003129365608911 0.1020328531851362 0.04976214705859403 
0.3571910172047761 0.09854982810194768 -0.06172011031424323 
0.477975488757505 0.09240647950154265 -0.04057894896406429 
0.4851992846161901 0.09042709328621819 0.0001726651232816366 
-0.366086838170684 0.1222735592749779 0.03961949601088147 
-0.3361749041769775 0.1294535938120316 0.02305641984971903 
-0.2920848455158346 0.1313544204850107 0.02507189566151012 
-0.2583343869574061 0.106443389078133 0.02239389066067107 
-0.225179934377369 0.1020353687520536 -0.001275418384367711 
-0.1053875311120893 0.1063702294431876 -0.02487691321706925 
-0.1246589602172796 0.1075455241483703 0.02173169155516484 
-0.05256549840370733 0.108959326431468 0.02422997821758987 
-0.01471407176173207 0.1201849141360976 0.01651783025160716 
0.01469160460064715 0.1223711024005208 -0.02250510034926262 
0.07401539878954119 0.1232479909179439 -0.04080165725938691 
0.08226950575709636 0.1242112062988099 0.02630847534123632 
0.161315418451715 0.1292238008494846 -0.04956832758325404 
0.1364555287066701 0.117878621437525 0.04960881138546415 
0.2176113817418028 0.1255630153925503 0.03949154978041982 
0.2689148869506752 0.1050021396250149 -0.06448759078411299 
0.3186494611702081 0.1188932915413183 -0.0419349158139528 
0.3039936995631416 0.1144211908417572 0.03847342663354431 
0.3616472438196272 0.1155788148937628 0.01052497541664748 
0.3923461467613825 0.1061290434203135 0.04432439765327944 
0.4125133575966722 0.1095893670738281 -0.05165983314871776 
0.4546177997897003 0.1095428951089549 -0.04266137718290625 
0.4476315073268655 0.1110350699495465 0.01917877464618667 
0.4556734231372014 0.1043629502645765 0.04231565442710302 
-0.3964383050028454 0.124164534093707 0.01516745381800938 
-0.3648441195602844 0.1408193988483044 0.01089722302863331 
-0.3328819186822176 0.1451127791544183 -0.0208805298448597 
-0.2526738369247302 0.1125889820393104 -0.0240624433044321 
-0.2906660750926623 0.1402558716670495 -0.001355307003437009 
0.190977508543671 0.1356035031733875 0.01406709744602612 
0.2040389623074712 0.1324694870380354 -0.03984097651952685 
0.2842790151287412 0.1249806585596784 0.01576075629357337 
-0.3347809600096527 0.1464244680557897 0.0008775645485109725 
3 3 1 0 
3 3 2 1 
3 4 5 21 
3 21 5 6 
3 4 7 5 
3 7 22 5 
3 5 22 50 
3 6 5 50 
3 7 65 22 
3 9 8 29 
3 29 8 33 
3 10 8 9 
3 10 0 8 
3 0 11 8 
3 8 11 33 
3 10 12 0 
3 0 1 11 
3 36 11 1 
3 12 13 3 
3 3 0 12 
3 2 36 1 
3 13 14 3 
3 3 14 2 
3 36 2 38 
3 14 19 2 
3 38 2 19 
3 16 19 15 
3 15 19 14 
3 17 19 16 
3 17 18 19 
3 17 20 18 
3 4 21 48 
3 7 4 84 
3 84 4 48 
3 49 7 84 
3 7 49 65 
3 51 22 65 
3 22 51 50 
3 67 25 24 
3 24 26 23 
3 23 26 30 
3 53 28 25 
3 25 27 24 
3 27 26 24 
3 25 28 27 
3 27 29 26 
3 29 30 26 
3 27 28 9 
3 9 29 27 
3 28 31 9 
3 33 32 29 
3 34 10 31 
3 10 9 31 
3 54 33 11 
3 12 10 34 
3 54 11 36 
3 39 35 37 
3 40 14 13 
3 15 14 40 
3 41 15 40 
3 16 15 41 
3 16 41 17 
3 42 19 43 
3 41 57 44 
3 17 41 44 
3 20 17 44 
3 18 43 19 
3 44 57 59 
3 20 44 45 
3 44 59 45 
3 45 46 20 
3 46 18 20 
3 43 18 46 
3 48 21 63 
3 21 6 63 
3 50 83 6 
3 67 24 52 
3 69 52 24 
3 25 67 70 
3 69 24 23 
3 53 25 70 
3 29 72 30 
3 72 29 32 
3 73 31 28 
3 34 31 73 
3 36 74 54 
3 76 74 36 
3 13 12 56 
3 56 12 34 
3 39 55 35 
3 37 35 55 
3 38 76 36 
3 40 13 56 
3 39 37 55 
3 41 40 56 
3 19 79 38 
3 79 19 42 
3 102 41 56 
3 57 41 102 
3 43 58 42 
3 46 58 43 
3 46 45 60 
3 80 47 109 
3 47 61 110 
3 47 110 109 
3 47 80 62 
3 47 62 61 
3 61 62 81 
3 82 48 63 
3 84 48 82 
3 83 82 63 
3 63 6 83 
3 115 49 84 
3 115 64 49 
3 49 64 65 
3 50 51 66 
3 65 64 52 
3 52 68 65 
3 65 68 51 
3 68 66 51 
3 64 67 52 
3 69 68 52 
3 70 67 85 
3 23 87 69 
3 53 70 88 
3 30 121 23 
3 121 87 23 
3 28 53 71 
3 71 53 88 
3 72 121 30 
3 73 28 71 
3 33 92 32 
3 92 72 32 
3 34 73 75 
3 54 74 33 
3 74 92 33 
3 77 34 75 
3 56 34 77 
3 38 78 76 
3 79 78 38 
3 99 56 77 
3 78 79 104 
3 102 56 99 
3 103 102 99 
3 79 42 104 
3 105 57 102 
3 104 42 58 
3 59 57 105 
3 45 59 108 
3 45 108 60 
3 46 60 58 
3 61 111 110 
3 81 111 61 
3 112 84 82 
3 114 83 50 
3 66 114 50 
3 64 85 67 
3 69 66 68 
3 70 85 86 
3 88 70 86 
3 71 88 89 
3 122 71 89 
3 90 121 72 
3 73 71 122 
3 123 91 122 
3 91 73 122 
3 123 90 91 
3 91 90 92 
3 90 72 92 
3 93 75 73 
3 73 91 93 
3 91 92 94 
3 74 94 92 
3 95 94 74 
3 77 75 93 
3 93 94 95 
3 77 93 96 
3 93 95 96 
3 76 95 74 
3 96 95 98 
3 98 95 76 
3 78 98 76 
3 99 77 97 
3 77 96 97 
3 97 96 98 
3 101 97 100 
3 97 98 100 
3 100 98 78 
3 99 97 101 
3 104 100 78 
3 99 101 103 
3 101 100 104 
3 105 102 106 
3 102 103 106 
3 106 103 101 
3 101 104 107 
3 58 107 104 
3 106 101 107 
3 59 105 108 
3 105 106 108 
3 108 106 58 
3 106 107 58 
3 58 60 108 
3 80 125 62 
3 126 81 125 
3 81 62 125 
3 81 127 111 
3 82 83 113 
3 112 82 113 
3 83 114 113 
3 115 84 112 
3 128 64 115 
3 128 85 64 
3 117 85 116 
3 69 118 66 
3 86 85 117 
3 119 86 117 
3 87 118 69 
3 88 86 119 
3 89 88 119 
3 90 123 121 
3 93 91 94 
3 109 110 124 
3 110 111 124 
3 111 175 124 
3 125 80 159 
3 126 127 81 
3 160 112 113 
3 112 160 115 
3 113 114 132 
3 128 115 160 
3 133 114 66 
3 116 85 128 
3 118 133 66 
3 119 117 135 
3 120 118 87 
3 129 89 119 
3 138 120 121 
3 121 120 87 
3 122 89 129 
3 122 129 123 
3 123 129 138 
3 121 123 138 
3 174 80 109 
3 109 124 174 
3 159 80 174 
3 126 130 127 
3 131 126 125 
3 130 126 131 
3 160 113 131 
3 113 132 131 
3 132 114 133 
3 205 134 133 
3 118 205 133 
3 135 117 116 
3 136 119 135 
3 119 136 129 
3 118 120 141 
3 137 129 139 
3 139 129 136 
3 137 138 129 
3 138 141 120 
3 137 140 138 
3 140 141 138 
3 163 141 140 
3 139 164 137 
3 137 142 140 
3 137 164 142 
3 142 143 140 
3 140 143 183 
3 163 140 183 
3 142 164 145 
3 144 145 164 
3 145 143 142 
3 143 146 183 
3 144 147 145 
3 145 147 143 
3 147 146 143 
3 149 147 144 
3 147 148 146 
3 149 148 147 
3 149 151 148 
3 150 151 149 
3 150 153 152 
3 150 152 151 
3 153 155 152 
3 155 154 152 
3 170 152 154 
3 157 154 155 
3 157 156 154 
3 156 157 158 
3 124 175 201 
3 127 175 111 
3 131 125 159 
3 130 131 132 
3 133 161 132 
3 128 160 177 
3 134 161 133 
3 116 128 177 
3 118 141 205 
3 136 135 180 
3 180 135 179 
3 180 181 136 
3 181 139 136 
3 141 163 162 
3 164 139 181 
3 144 164 165 
3 146 166 183 
3 167 166 146 
3 149 144 165 
3 148 167 146 
3 148 151 167 
3 168 149 165 
3 150 149 168 
3 153 150 168 
3 193 167 151 
3 169 153 168 
3 170 151 152 
3 193 151 170 
3 169 172 155 
3 155 153 169 
3 171 170 154 
3 157 155 172 
3 173 157 172 
3 154 156 171 
3 156 197 171 
3 157 173 158 
3 158 198 156 
3 156 198 197 
3 174 199 159 
3 201 174 124 
3 202 175 127 
3 127 130 202 
3 131 159 200 
3 202 130 203 
3 204 131 200 
3 203 130 176 
3 130 132 176 
3 160 131 204 
3 161 176 132 
3 177 160 204 
3 134 226 161 
3 116 177 178 
3 179 116 178 
3 179 135 116 
3 162 205 141 
3 163 182 162 
3 181 208 164 
3 183 182 163 
3 164 208 210 
3 165 164 210 
3 187 211 185 
3 211 212 185 
3 212 186 185 
3 167 236 166 
3 216 236 167 
3 168 165 184 
3 187 185 186 
3 188 187 189 
3 187 186 189 
3 186 218 189 
3 188 189 191 
3 193 216 167 
3 169 168 190 
3 218 192 189 
3 238 169 190 
3 189 192 191 
3 194 193 170 
3 172 169 238 
3 171 194 170 
3 220 172 238 
3 195 194 171 
3 196 172 220 
3 197 195 171 
3 196 173 172 
3 221 173 196 
3 173 221 222 
3 173 222 158 
3 158 222 198 
3 199 174 201 
3 199 200 159 
3 201 175 202 
3 202 203 223 
3 161 225 176 
3 226 225 161 
3 178 177 204 
3 250 179 178 
3 179 250 227 
3 206 134 205 
3 227 206 179 
3 207 180 179 
3 179 206 207 
3 205 162 206 
3 206 162 229 
3 180 207 228 
3 180 228 181 
3 162 182 229 
3 228 208 181 
3 229 182 230 
3 230 182 209 
3 183 166 182 
3 166 209 182 
3 184 165 210 
3 187 212 211 
3 213 212 187 
3 213 186 212 
3 168 184 214 
3 188 213 187 
3 188 215 213 
3 215 186 213 
3 218 186 215 
3 191 215 188 
3 190 168 214 
3 191 218 215 
3 190 217 238 
3 219 216 193 
3 191 192 218 
3 194 219 193 
3 195 242 194 
3 242 219 194 
3 243 196 220 
3 197 246 195 
3 246 242 195 
3 244 196 243 
3 244 221 196 
3 222 246 198 
3 197 198 246 
3 199 201 247 
3 201 202 247 
3 247 202 223 
3 203 224 223 
3 176 224 203 
3 225 224 176 
3 250 178 204 
3 251 227 250 
3 225 227 251 
3 225 226 227 
3 226 134 227 
3 134 206 227 
3 207 206 229 
3 228 207 229 
3 228 229 230 
3 208 228 230 
3 208 230 231 
3 231 230 209 
3 210 208 232 
3 232 208 231 
3 232 231 234 
3 233 210 232 
3 234 231 209 
3 184 210 233 
3 234 209 166 
3 236 234 166 
3 184 235 214 
3 216 237 236 
3 235 253 214 
3 214 217 190 
3 253 217 214 
3 219 237 216 
3 217 239 238 
3 237 240 254 
3 240 237 219 
3 239 254 241 
3 241 254 240 
3 220 238 239 
3 220 239 241 
3 242 240 219 
3 243 220 241 
3 241 240 242 
3 243 241 244 
3 244 241 245 
3 245 241 242 
3 245 242 246 
3 222 221 244 
3 245 222 244 
3 246 222 245 
3 199 247 248 
3 248 247 223 
3 249 200 199 
3 249 248 255 
3 249 199 248 
3 255 248 224 
3 224 248 223 
3 204 200 249 
3 255 224 251 
3 224 225 251 
3 250 204 249 
3 250 249 251 
3 233 232 234 
3 235 184 233 
3 235 233 252 
3 252 233 234 
3 252 234 236 
3 252 236 237 
3 235 252 253 
3 239 217 254 
3 217 253 254 
3 253 252 254 
3 254 252 237 
3 251 249 255 
