ply
format ascii 1.0
comment VCGLIB generated
element vertex 254
property double x
property double y
property double z
element face 500
property list uchar int vertex_indices
end_header
-0.06058372287221729 -0.4788348974657231 -0.01395002599481631 
0.03929114618285338 -0.4801208765035923 0.03060868067845535 
-0.01149940926135583 -0.4789361371895848 -0.05951539640732706 
0.04621315219973192 -0.479464004494399 -0.02997093640062217 
-0.04383262627969138 -0.4582203002062326 -0.06641010956294009 
-0.0629773004567685 -0.4674912748498434 0.04354919657599927 
0.06624390394616242 -0.4553101164800701 0.01920867290503452 
0.0417731343667923 -0.4541760206015695 0.05377245563710663 
-0.07982181827719026 -0.4560536274619416 0.01021243193247815 
-0.06215021676736707 -0.4141772522413253 -0.05082462585741312 
-0.004125450144260993 -0.439327803442716 0.02711652578078496 
0.0009307008410598203 -0.4620455330518519 0.06994615136618332 
0.04102035409396375 -0.4621617062517963 -0.06136387228573777 
0.02833989074490186 -0.4395395248514942 -0.01047551989755467 
0.06897705775895598 -0.4529824477926341 -0.01157275158882661 
-0.0781365395105417 -0.4582951911139866 -0.0191341498167408 
-0.02849306047784522 -0.4377504217917399 -0.02016334036423096 
-0.007086727839009483 -0.4170450538157943 0.03092329303296451 
0.005978493967454384 -0.4361061238944656 -0.03121013536263543 
0.03118346184744417 -0.339829692670772 -0.06586033790558324 
-0.06854324955331013 -0.3621478345185528 0.03360087141212223 
-0.03397064745572274 -0.3443060701776566 -0.01591602023888618 
-0.005825259244234694 -0.45337972326137 -0.07670389700056265 
-0.03657995175045076 -0.4259496389868956 0.01304505085398364 
-0.03466302652168615 -0.4493333117460689 0.06727108447360831 
-0.03972474104285736 -0.3301847650597626 -0.06663313949814849 
-0.01506736352522248 -0.3496582013373634 0.02832039357407547 
-0.008092309235223531 -0.3080026143536431 -0.07512963769177163 
0.0189111474867393 -0.3417966968948609 -0.02288694351251558 
0.05250733739690632 -0.3490194693540359 0.04193109097725432 
-0.07763462861803457 -0.3561696188556109 -0.01932859337207128 
-0.01643625594811624 -0.4161636500555366 -0.03417866143603294 
-0.02998362772992286 -0.321549190514738 0.01809062119665969 
-0.005308937712900906 -0.317379185575751 0.07065381824005677 
0.004319929194839081 -0.3302606545999698 -0.03318477145534057 
0.004403587060212477 -0.3340136169359622 0.02857587521599732 
0.06246412393803884 -0.3172966167191867 -0.01761076368407907 
0.06289515476768505 -0.3312681523910524 0.01859983233113949 
0.02103170548283441 -0.3984860273251893 0.01763695661418086 
0.02601517744913303 -0.3046303338769839 0.06245507466845045 
-0.03682649576913175 -0.2736634999515665 -0.002132894203895023 
-0.07417617195515781 -0.2387580308310051 0.008994459051293273 
-0.05971741636768447 -0.2323019023948792 -0.04618533170498414 
-0.07531616671452299 -0.2386380874353684 -0.01493509612573844 
0.02289757648828342 -0.3105208167371076 -0.001884240719485858 
0.004824097275875724 -0.2757159231412007 -0.07261061489524838 
0.02537821835802979 -0.2787848173449358 -0.06536048784128681 
0.01110845558733137 -0.2859386606947092 -0.02907344968479694 
0.05023199262478945 -0.3070460543792682 -0.04821680472390475 
0.06141376371658881 -0.2629156532878702 -0.02265960411106823 
-0.02134589469434866 -0.2458193778440335 -0.02920378136857122 
0.009402906213048583 -0.2350776880889179 0.02328776065377387 
0.01348792357470876 -0.2264707649501322 0.06438597787307311 
0.02435364387789921 -0.2489164264015047 -0.002298090650260345 
0.007712876687921704 -0.1555570675510638 -0.02635310524009755 
0.06471788694385422 -0.2619848448567503 -0.002685196068635133 
-0.06139463890743449 -0.2736464985040882 0.04283508637751411 
-0.04115111755879695 -0.3541067557520955 0.06228356012226544 
-0.02563104989309789 -0.1924921280941515 -0.06810222985417805 
-0.02030601270541238 -0.1959729832712583 0.02361796690191673 
-0.007610591109916569 -0.1628773900197341 0.06504856128904282 
0.0472760874405774 -0.1976969898882088 0.04047727440802478 
-0.07161458002578175 -0.1365370528446749 0.009158154651926107 
0.004551979023584117 -0.09366750411062104 -0.06578432416566328 
0.02454481503694698 -0.1243890793575207 -0.06022905707516263 
0.04497259261763136 -0.1227073915235349 -0.04408347653250461 
-0.03612432910537638 -0.0823523091075631 -0.05860596781159563 
-0.01691102893516342 -0.1144448054968238 -0.02479148542238994 
-0.05523547109712475 -0.0967305123583278 -0.04344192684365358 
-0.03575416601776828 -0.0544360158311524 0.05257165241276605 
0.01854292590840026 -0.1085686274015659 -0.00231879833805319 
-0.06602250427354407 -0.07961966411601391 -0.0226187904367918 
-0.01713756673245964 -0.04600106888531934 -0.0636638072059148 
0.05850757739755942 -0.09676292166347035 -0.002201854584287677 
0.004628101236443421 -0.06636255338587613 0.01848301089835202 
-0.01562167596820502 -0.05567244659288661 0.01860892411919828 
0.00370782341185189 -0.009824743568475984 -0.02013350713905767 
0.05451281028265407 -0.07856714979671627 -0.02270915618983223 
-0.06245634986453 0.02260334265821577 0.01964948981146191 
0.02385859783397479 -0.1199186874952571 0.0563544646639179 
0.05711973515401067 -0.142192486797935 0.01776752783148423 
-0.06860696439850077 -0.06855979520206237 -0.00352009633025616 
-0.05573858540855741 -0.05104055299642199 0.03527056864828122 
-0.02821206041477495 -0.07233489330980983 -0.002365390093521689 
-0.0160737965223137 -0.007850627035118435 0.01345676178301825 
-0.005147725662384074 -0.01555933469839542 0.06020631093000348 
0.004132035394958659 0.01523448282612169 0.01283536092278192 
0.02355157022120877 0.01678540030671647 0.04919903884660937 
0.0420090515388204 -0.0009667004212751506 0.03502208130979467 
0.05380929564106663 0.04092901136682144 -0.002272538027753449 
-0.01609902128075659 0.09901390467224384 0.01142278303379828 
0.03117204712183032 0.0946157308396266 -0.04852038005263646 
-0.04401037802047175 0.06615831630452478 -0.04784367804783939 
-0.01565811114811025 0.1025483113420216 -0.06081472206879086 
-0.01596095521433078 0.0692443654727336 -0.01557680914219029 
0.0155341267298155 0.02768968949226686 -0.05880484543965589 
0.0331009815414653 0.1036579766383108 0.0412674258024576 
0.04879905065393355 0.1020918645076625 0.02009058337394565 
-0.0406878235573663 0.08499626528398534 0.0456785474623021 
-0.01598048518859478 0.1113024167432824 -0.01682898617842877 
-0.01585214814052048 0.08235928816800576 0.0553874613998166 
0.004508883368423682 0.1149700231753865 0.01019538280908385 
0.004074538299546506 0.1220258815402531 0.05552588560128599 
0.01470096190044466 0.003810650790811282 -0.002557346412292281 
0.04853424107158344 0.1225247591780506 -0.02477607013734819 
-0.0649354263667335 0.08663449252954807 -0.00237968315918303 
-0.02468775563341681 0.07946941984662406 -0.002178739562597138 
0.003947944338203119 0.1723080233239915 -0.06086302444666834 
0.004130410946291627 0.1095244554119492 -0.0176297864740261 
0.02468454232575165 0.1753029006789029 0.04837024852355273 
-0.02326566917503194 0.2102317118029927 -0.06089222442427852 
0.004440659121896334 0.1738267726642496 -0.01781864832277323 
0.01311840881519867 0.1531330422730612 -0.002408875835067333 
0.048126966261266 0.1965282724096128 0.02547586117201269 
-0.06815890719097255 0.2523761095713987 -0.005708256043667157 
-0.0592215224629809 0.1897579208532639 0.02557408241403407 
-0.0158551769157966 0.1958471902787465 -0.0190783551424674 
0.05320356313220253 0.16097437210858 -0.002131749998224171 
-0.06061514001862036 0.1247339983590832 -0.02307044395321532 
-0.01609367459250917 0.2042511197040591 0.01094822687009737 
-0.01500503803312201 0.2049451247497013 0.05678729708580854 
-0.02637014055562482 0.2119786144510141 -0.002702095632890017 
-0.01586783558076526 0.2840349260083675 0.01959464084833006 
-0.05175869081549583 0.2500295730238464 -0.04229613154589484 
-0.06920133845398257 0.272347965614513 0.02508159818927047 
-0.03651007489791778 0.2026797873190868 0.04774083218814989 
-0.01596594475902127 0.2922276399103209 -0.02311443517896592 
0.004604406479302873 0.2784450435603634 -0.02134384515144375 
0.004663683391984519 0.2151088878272715 0.01361932450267539 
0.0172951011541975 0.2937024517334115 -0.002319950570112142 
0.05815069154606245 0.25383751302505 -0.001659029788847626 
-0.07745981674485899 0.271553868920553 -0.02233084990520291 
-0.03353140369389987 0.3041385169215781 -0.002377344368906853 
-0.02689428518415661 0.2824566468027158 0.05926271007895238 
-0.001813595281447158 0.2730057589957442 -0.06551232579472481 
0.05878038549733409 0.2812065443276422 0.04716677260696547 
0.03924471824041068 0.2676761773745489 0.04540230105941215 
-0.1806505051195532 0.2940660143967341 0.02459331370441317 
-0.1811098579770226 0.2912019410380707 -0.02392342129429881 
-0.03767428348683574 0.279516140777676 -0.05721645020414552 
-0.01470236246115365 0.2960675575861477 -0.0718024488895314 
-0.02817806595407625 0.3164542658583478 0.02741302700119541 
-0.03792084163795659 0.2921334762211204 0.06273495794988461 
0.02446477614106558 0.2805409605635062 -0.05761099216005528 
0.007693453317003633 0.288979705985569 0.06047161332892252 
0.04438776415496123 0.2743137552417628 -0.04063613517787473 
0.07143463460555169 0.2711654809463542 -0.008627230781836684 
0.1654308853086783 0.2908834051971839 -0.02144492403016357 
0.1673840691547771 0.2945241646400102 0.02676647198545052 
-0.2001451674368014 0.3111907835030565 -0.03405131277931846 
-0.1901552583224742 0.3167587281822863 -0.05933267491932097 
-0.1873879930419392 0.3164320030507489 0.05618244732103697 
-0.03793793459971467 0.312936768706918 -0.02869323287833637 
-0.07495039795744314 0.3227230307784678 0.08838578164966311 
0.005902201376688646 0.3008642988982601 0.01997223698597046 
0.05884842749148808 0.314078875753184 0.08184985530011864 
0.1160233731720731 0.2995805566051926 -0.06205064403509193 
0.1767016237154634 0.3286558080002208 -0.06751801864513328 
0.1884721826090193 0.3101868115102643 0.02142316772600464 
-0.1598883011671341 0.3324678240536795 -0.02395593550146035 
-0.1229684028347409 0.3197634468965275 0.009575247968612057 
-0.1795986179155636 0.357405511954561 0.08398599656733609 
-0.06642333442279921 0.3302473817885402 -0.04949484949261235 
-0.07767978217908998 0.3211711407533281 -0.09179659528005531 
-0.06874237371379971 0.3322110171253855 0.04588832245179248 
0.004492322188448135 0.324981705037057 0.03856633435998588 
0.01726824413585322 0.3171342300514294 -0.02945049373994155 
0.02578350682974528 0.3245565630511128 0.007922857463220535 
0.0433312032716919 0.3254951430310714 -0.04530939455855481 
0.06556050007918331 0.3151521323618292 0.01724113566943396 
0.05426789073121876 0.3472139719735805 0.09870126792096236 
0.1486480363048714 0.3340212561386458 0.02412669122639851 
0.1675151709364378 0.3377806797583806 0.07382807165191436 
0.06102118350947405 0.3248605807185308 -0.09415884653450933 
0.1321170736879116 0.3248367494191234 -0.01490751073499765 
0.1669247229741207 0.3154217002205401 0.05793391832705682 
0.1869227265495045 0.3365038549955892 0.05027031669413572 
-0.198141209859868 0.3458469029351078 -0.0640132121944646 
-0.1788537905149057 0.3477552590965328 -0.08355428618228687 
-0.1598672383921464 0.3609661417280797 -0.04822216256393971 
-0.1603497941905534 0.3403367003280279 0.03227039582527326 
-0.08162361934597963 0.3626076274912493 0.09989247947187936 
-0.07687389470792148 0.3626326108452996 -0.1057813390605256 
-0.07672407449939304 0.3640879291386938 -0.06566661405456664 
-0.06425047069093717 0.3547944525654016 0.05854777538443661 
0.06249815859980538 0.3666205920724304 -0.1067338379502312 
0.059147337591485 0.3282562672523429 0.0422680914745986 
0.1700862673152779 0.371116176811893 -0.08851591037545244 
0.1466617082434551 0.3455707185695912 -0.04289786689885694 
0.1487307376716255 0.3637183268413519 0.03465217797609209 
0.1483905288612593 0.3473568971513124 -0.02094322490178597 
-0.1802105430377726 0.3855693676850536 -0.08761565661030943 
-0.1324040041522812 0.3827820886131658 0.05100064806517711 
-0.05402161065608675 0.3639758213333999 0.09468163710226991 
-0.05828211828554093 0.3751737538340001 0.06295479707209246 
0.07001340221083363 0.3646131894509379 -0.06596634011986574 
0.05470976758286514 0.3762073791080952 0.06181253740856647 
0.1185447556224393 0.3637374193045729 0.05149394690061242 
0.1480342149994123 0.3952960617401617 -0.04596631027267058 
-0.1600065676348744 0.3974774038735402 -0.04347195984074834 
-0.04524281045920194 0.4021172824940341 0.09656585885796494 
-0.06938396212867466 0.3964527311004786 -0.06253418159521337 
-0.06011276124256619 0.393614378382096 0.0594699234983897 
0.06446684826290792 0.3960186288276662 0.05661193059361305 
0.05563554069713252 0.3956588562969223 -0.06313415133415605 
0.06176246452315001 0.3877661032571713 0.1016984529426405 
0.06535170490568665 0.3959731237275954 -0.1038619525997138 
0.1482370571061897 0.4019958954091898 0.0381373572782579 
0.1643308262128459 0.3757404364479602 0.08430229635503336 
-0.1776567354365497 0.4295299759747587 -0.06946587879803287 
-0.1997993465899082 0.430597444697726 -0.04907159293165277 
-0.2001224417892247 0.39662914508806 0.061542005735095 
-0.1789105444849367 0.4092631344306636 0.0760744332439752 
-0.1584448809500441 0.4175655537296992 0.02139944110484873 
-0.06979135403759484 0.420410109202985 -0.04816570285391393 
-0.0794517752450099 0.4092343163248235 0.09510242488348088 
-0.009690510748776181 0.4145648420544253 0.09376480471704751 
0.05054662433930333 0.4206739804896911 0.04228834248129175 
0.06685624996912823 0.4173916074905279 0.09132184496752485 
0.06816378487437937 0.428750850561859 -0.04045260544586089 
0.1873790002859106 0.4098309772239612 0.0557452902730361 
0.1882962206991517 0.37400107075422 -0.06719050281534103 
-0.1792394060465984 0.4390606398187613 0.05372796292299441 
-0.1369133573926732 0.4259204053591608 -0.01067115842055081 
-0.07245709057190904 0.4330473894411147 -0.02739793705867079 
-0.05421863138064131 0.4393220785290449 0.009876850709912427 
-0.06837697147006042 0.4213088774275711 0.0417741786001347 
0.04377714563042621 0.4200484361654195 -0.0463307100798202 
0.06111797780236754 0.4381271309283086 0.01060847763407356 
0.06159584778772325 0.4297334305595666 -0.09153983147820946 
0.07014435863550472 0.4340130794784948 -0.0229436686915321 
0.1698929864529422 0.4140534348599639 -0.07727399628730211 
0.1456758108030592 0.4209704512370033 -0.01673167509657683 
0.1473721450220297 0.4195002947290272 0.01421275408841039 
0.1882000152277697 0.4398536164108324 -0.01704467903127735 
-0.1999300109079707 0.4385096233299642 0.02463065503338641 
-0.174116638456455 0.4559694901279935 0.02786203503015971 
-0.07745799378804202 0.463213000803466 -0.05737173380283441 
-0.0664504477188867 0.4210843193667804 -0.09836067835635394 
0.06429220558222787 0.4508994501245777 -0.05568754657060732 
0.1661766033270542 0.4444609174582754 -0.05041715698186389 
0.1652930438652931 0.428885221227985 0.06535825087386336 
0.1714647976748129 0.4517052192020895 0.03399795592052222 
-0.1766593912418721 0.4502976249149759 -0.04225741187926581 
-0.0988157901182993 0.4758391147754548 -0.02039589639021689 
-0.06541034950072289 0.4507975936729624 0.06898426189313892 
0.03986454750191551 0.4641693960710443 -0.05695548660200699 
-0.06431106146026717 0.4778811235004939 0.02010738870008485 
0.008139952426286094 0.4481568802882012 0.07213809760961661 
0.06571069828712542 0.4730024543143607 0.03112858916189539 
0.06053683970098938 0.4458848571618546 0.07376173670484908 
0.0999146439256131 0.4506700796059783 -0.06517416315231192 
0.06327249839579059 0.4793795708089427 -0.009962880251098632 
0.1674588311000023 0.4625220742436772 -0.005390461664526143 
3 0 2 1 
3 3 1 2 
3 0 15 4 
3 0 8 15 
3 8 0 5 
3 1 5 0 
3 4 22 2 
3 0 4 2 
3 11 5 1 
3 5 11 24 
3 2 22 12 
3 1 7 11 
3 12 3 2 
3 3 12 14 
3 6 3 14 
3 6 1 3 
3 7 1 6 
3 4 15 9 
3 10 16 23 
3 10 13 16 
3 18 16 13 
3 10 23 17 
3 18 31 16 
3 12 22 19 
3 38 13 10 
3 10 17 38 
3 12 48 14 
3 5 20 8 
3 24 57 20 
3 5 24 20 
3 21 23 16 
3 21 16 31 
3 17 23 26 
3 9 15 30 
3 30 15 8 
3 30 8 20 
3 57 56 20 
3 9 25 4 
3 22 4 25 
3 18 34 31 
3 17 26 35 
3 19 22 27 
3 28 18 13 
3 34 18 28 
3 17 35 38 
3 7 39 11 
3 19 48 12 
3 14 48 36 
3 6 29 7 
3 22 25 27 
3 23 21 32 
3 23 32 26 
3 24 33 57 
3 11 33 24 
3 13 44 28 
3 39 33 11 
3 38 44 13 
3 39 7 29 
3 37 6 14 
3 6 37 29 
3 50 21 31 
3 40 32 21 
3 34 50 31 
3 9 30 42 
3 47 34 28 
3 28 44 47 
3 36 37 14 
3 30 43 42 
3 30 41 43 
3 41 30 20 
3 20 56 41 
3 9 42 25 
3 21 50 40 
3 34 47 50 
3 19 27 46 
3 46 27 45 
3 19 46 48 
3 61 39 29 
3 53 47 44 
3 53 44 51 
3 51 44 38 
3 38 35 51 
3 36 48 49 
3 36 49 55 
3 36 55 37 
3 26 32 59 
3 33 60 57 
3 35 26 51 
3 51 26 59 
3 52 60 33 
3 39 52 33 
3 52 39 61 
3 37 55 80 
3 37 80 29 
3 29 80 61 
3 25 42 58 
3 27 25 58 
3 32 40 59 
3 47 54 50 
3 43 41 62 
3 45 27 58 
3 47 53 54 
3 56 82 41 
3 69 56 57 
3 69 82 56 
3 60 69 57 
3 45 58 63 
3 64 46 45 
3 63 64 45 
3 48 46 65 
3 65 46 64 
3 61 79 52 
3 48 65 49 
3 55 49 73 
3 55 73 80 
3 42 43 68 
3 41 82 62 
3 58 42 68 
3 50 67 40 
3 54 67 50 
3 53 70 54 
3 53 51 70 
3 49 65 77 
3 49 77 73 
3 43 71 68 
3 43 62 71 
3 58 68 66 
3 51 74 70 
3 52 79 60 
3 62 81 71 
3 72 58 66 
3 40 67 83 
3 40 83 59 
3 63 58 72 
3 51 59 74 
3 59 83 75 
3 74 59 75 
3 85 60 79 
3 85 69 60 
3 67 54 76 
3 76 54 70 
3 62 82 81 
3 103 76 70 
3 74 103 70 
3 118 68 71 
3 82 78 81 
3 92 66 68 
3 68 118 92 
3 61 88 79 
3 61 80 88 
3 75 83 84 
3 63 72 95 
3 74 75 86 
3 86 75 84 
3 95 64 63 
3 74 86 103 
3 79 87 85 
3 91 65 64 
3 95 91 64 
3 79 88 87 
3 91 77 65 
3 73 77 89 
3 73 89 80 
3 80 89 97 
3 80 97 88 
3 94 83 67 
3 106 83 94 
3 83 106 84 
3 76 94 67 
3 104 77 91 
3 77 104 89 
3 71 81 118 
3 81 105 118 
3 81 78 105 
3 69 98 82 
3 72 66 92 
3 84 106 90 
3 85 98 69 
3 86 84 90 
3 98 78 82 
3 72 92 93 
3 85 100 98 
3 95 72 93 
3 88 96 87 
3 95 93 107 
3 85 102 100 
3 87 102 85 
3 99 106 94 
3 76 108 94 
3 108 99 94 
3 86 90 101 
3 108 76 103 
3 86 101 103 
3 87 96 102 
3 97 96 88 
3 115 78 98 
3 112 108 103 
3 103 101 112 
3 89 104 117 
3 89 117 97 
3 78 115 105 
3 100 120 98 
3 102 120 100 
3 95 107 91 
3 96 109 102 
3 123 110 92 
3 92 118 123 
3 93 92 110 
3 116 106 99 
3 108 111 99 
3 111 116 99 
3 111 108 112 
3 105 114 118 
3 105 115 114 
3 121 106 116 
3 90 121 119 
3 106 121 90 
3 120 125 98 
3 107 93 110 
3 101 90 128 
3 128 90 119 
3 101 128 112 
3 91 145 104 
3 97 117 113 
3 98 125 115 
3 113 96 97 
3 139 110 123 
3 102 144 120 
3 91 107 143 
3 109 144 102 
3 143 145 91 
3 96 113 109 
3 115 125 124 
3 119 121 122 
3 111 127 116 
3 128 119 122 
3 129 111 112 
3 127 111 129 
3 112 128 129 
3 113 117 130 
3 114 123 118 
3 115 124 114 
3 131 139 123 
3 110 139 134 
3 126 121 116 
3 133 125 120 
3 107 110 134 
3 127 126 116 
3 133 120 144 
3 134 143 107 
3 144 109 136 
3 109 113 136 
3 130 104 145 
3 104 130 117 
3 113 130 136 
3 114 131 123 
3 124 131 114 
3 124 125 133 
3 132 121 126 
3 121 132 122 
3 128 122 154 
3 128 154 129 
3 146 130 145 
3 146 135 130 
3 135 136 130 
3 138 139 131 
3 131 137 138 
3 137 124 151 
3 131 124 137 
3 151 124 142 
3 133 142 124 
3 134 139 140 
3 141 154 122 
3 144 142 133 
3 143 134 140 
3 135 144 136 
3 143 173 156 
3 156 145 143 
3 146 148 135 
3 156 146 145 
3 147 148 146 
3 156 147 146 
3 150 138 149 
3 137 149 138 
3 137 151 149 
3 138 150 139 
3 150 163 139 
3 151 142 153 
3 141 132 160 
3 140 139 163 
3 173 140 163 
3 132 126 152 
3 141 122 132 
3 155 153 142 
3 127 166 126 
3 166 152 126 
3 144 155 142 
3 143 140 173 
3 166 127 129 
3 129 167 166 
3 129 154 167 
3 155 144 135 
3 155 135 175 
3 148 175 135 
3 156 157 147 
3 147 158 148 
3 148 158 175 
3 178 150 177 
3 159 180 160 
3 163 150 178 
3 153 161 151 
3 159 152 162 
3 152 159 132 
3 159 160 132 
3 160 180 164 
3 141 160 164 
3 141 164 165 
3 152 166 162 
3 154 141 165 
3 166 168 162 
3 154 165 167 
3 170 153 155 
3 168 166 167 
3 167 165 186 
3 164 186 165 
3 167 169 168 
3 169 167 186 
3 188 168 174 
3 169 174 168 
3 172 155 175 
3 155 172 170 
3 174 169 171 
3 186 171 169 
3 173 157 156 
3 158 147 157 
3 158 176 175 
3 175 176 172 
3 151 211 149 
3 150 149 177 
3 151 161 211 
3 179 180 159 
3 162 179 159 
3 182 163 178 
3 162 183 179 
3 164 180 184 
3 153 181 161 
3 193 181 153 
3 185 163 182 
3 173 163 185 
3 193 153 170 
3 195 162 168 
3 184 196 164 
3 164 196 186 
3 195 168 188 
3 186 196 197 
3 187 173 185 
3 186 197 171 
3 172 208 170 
3 174 190 188 
3 174 171 190 
3 157 173 187 
3 187 221 157 
3 221 158 157 
3 210 177 149 
3 149 211 210 
3 178 177 191 
3 179 199 180 
3 184 180 192 
3 182 178 191 
3 202 184 192 
3 202 194 184 
3 195 183 162 
3 205 193 170 
3 196 184 194 
3 208 205 170 
3 198 195 188 
3 171 197 189 
3 171 189 190 
3 172 176 208 
3 212 211 161 
3 180 199 213 
3 180 213 192 
3 181 215 161 
3 183 201 179 
3 201 199 179 
3 182 191 238 
3 193 200 181 
3 200 215 181 
3 195 201 183 
3 204 201 195 
3 205 200 193 
3 206 185 182 
3 203 194 202 
3 196 194 203 
3 197 196 203 
3 198 204 195 
3 189 197 207 
3 197 203 207 
3 187 185 206 
3 188 190 198 
3 190 189 198 
3 176 220 208 
3 209 191 210 
3 210 191 177 
3 213 199 223 
3 212 161 215 
3 238 191 209 
3 214 199 201 
3 213 226 192 
3 226 202 192 
3 216 215 200 
3 204 214 201 
3 217 202 226 
3 182 238 229 
3 227 214 204 
3 206 182 229 
3 203 202 217 
3 205 216 200 
3 218 216 205 
3 219 227 204 
3 231 206 229 
3 207 203 217 
3 198 219 204 
3 219 198 232 
3 208 241 205 
3 241 218 205 
3 187 206 231 
3 198 189 232 
3 189 233 232 
3 233 189 207 
3 187 231 221 
3 221 231 234 
3 241 208 220 
3 158 221 234 
3 158 234 176 
3 176 234 220 
3 210 211 235 
3 235 211 222 
3 211 212 222 
3 214 223 199 
3 222 212 245 
3 214 224 223 
3 245 212 215 
3 225 223 224 
3 223 225 226 
3 223 226 213 
3 216 248 215 
3 248 245 215 
3 227 224 214 
3 227 230 224 
3 225 224 230 
3 225 217 226 
3 228 217 225 
3 218 250 216 
3 250 248 216 
3 219 230 227 
3 231 229 251 
3 233 217 228 
3 207 217 233 
3 232 230 219 
3 230 232 228 
3 232 233 228 
3 218 241 250 
3 251 240 231 
3 231 240 234 
3 234 242 220 
3 220 242 241 
3 209 210 243 
3 210 235 243 
3 243 235 236 
3 235 222 236 
3 222 245 236 
3 237 238 209 
3 243 237 209 
3 237 246 238 
3 238 246 229 
3 228 225 230 
3 229 246 239 
3 251 229 239 
3 250 241 242 
3 240 253 234 
3 253 242 234 
3 243 236 244 
3 237 243 244 
3 244 236 247 
3 245 247 236 
3 246 237 244 
3 247 245 248 
3 246 244 252 
3 252 247 249 
3 249 247 248 
3 239 246 252 
3 249 248 250 
3 251 239 252 
3 251 252 253 
3 240 251 253 
3 252 249 242 
3 242 249 250 
3 252 242 253 
3 252 244 247 
